<?xml version="1.0" encoding="utf-8"?>
<!-- Generator: Adobe Illustrator 22.1.0, SVG Export Plug-In . SVG Version: 6.00 Build 0)  -->
<svg version="1.1" id="Layer_1" xmlns="http://www.w3.org/2000/svg" xmlns:xlink="http://www.w3.org/1999/xlink" x="0px" y="0px"
	 viewBox="0 0 200.4 66.5" style="enable-background:new 0 0 200.4 66.5;" xml:space="preserve">
<style type="text/css">
	.st0{fill:#8C98A4;}
</style>
<g>
	<path class="st0" d="M71.1,42.7V21.7h11.1c4,0,6.1,2.6,6.1,5.4c0,2.6-1.6,4.4-3.6,4.8c2.3,0.3,4,2.5,4,5.2c0,3.2-2.1,5.7-6.1,5.7
		H71.1z M83.7,27.8c0-1.3-0.9-2.2-2.5-2.2h-5.6V30h5.6C82.7,30,83.7,29.2,83.7,27.8z M84.1,36.4c0-1.3-0.9-2.4-2.7-2.4h-5.8v4.8h5.8
		C83.1,38.8,84.1,37.9,84.1,36.4z"/>
	<path class="st0" d="M89.2,35.1c0-4.3,3-8,8.1-8c5.1,0,8.1,3.7,8.1,8c0,4.3-3,8-8.1,8C92.3,43.1,89.2,39.4,89.2,35.1z M101.2,35.1
		c0-2.4-1.4-4.4-3.9-4.4c-2.5,0-3.9,2.1-3.9,4.4c0,2.4,1.4,4.5,3.9,4.5C99.8,39.5,101.2,37.5,101.2,35.1z"/>
	<path class="st0" d="M105.7,35.1c0-4.3,3-8,8.1-8c5.1,0,8.1,3.7,8.1,8c0,4.3-3,8-8.1,8C108.7,43.1,105.7,39.4,105.7,35.1z
		 M117.7,35.1c0-2.4-1.4-4.4-3.9-4.4c-2.5,0-3.9,2.1-3.9,4.4c0,2.4,1.4,4.5,3.9,4.5C116.3,39.5,117.7,37.5,117.7,35.1z"/>
	<path class="st0" d="M123.9,38.9V31h-2.5v-3.5h2.5v-4.2h4v4.2h3.1V31h-3.1v6.9c0,1,0.5,1.7,1.4,1.7c0.6,0,1.2-0.2,1.4-0.5l0.9,3.1
		c-0.6,0.5-1.7,1-3.4,1C125.4,43.1,123.9,41.7,123.9,38.9z"/>
	<path class="st0" d="M130.7,40.8l1.7-2.9c1.1,1.1,3.4,2.1,5.3,2.1c1.7,0,2.6-0.7,2.6-1.6c0-2.5-9-0.4-9-6.4c0-2.6,2.2-4.8,6.3-4.8
		c2.6,0,4.6,0.9,6.1,2.1L142,32c-0.9-0.9-2.7-1.8-4.5-1.8c-1.5,0-2.4,0.6-2.4,1.5c0,2.2,9.1,0.3,9.1,6.5c0,2.8-2.4,4.9-6.6,4.9
		C134.9,43.1,132.3,42.2,130.7,40.8z"/>
	<path class="st0" d="M146.2,38.9V31h-2.5v-3.5h2.5v-4.2h4v4.2h3.1V31h-3.1v6.9c0,1,0.5,1.7,1.4,1.7c0.6,0,1.2-0.2,1.4-0.5l0.9,3.1
		c-0.6,0.5-1.7,1-3.4,1C147.7,43.1,146.2,41.7,146.2,38.9z"/>
	<path class="st0" d="M154.3,42.7V27.5h4v2.1c1.1-1.3,3-2.4,4.9-2.4V31c-0.3-0.1-0.6-0.1-1.1-0.1c-1.3,0-3.1,0.8-3.8,1.7v10.1H154.3
		z"/>
	<path class="st0" d="M174.5,42.7v-2c-1.2,1.5-2.8,2.3-4.7,2.3c-3.8,0-6.8-2.9-6.8-8c0-5,2.9-8,6.8-8c1.8,0,3.5,0.8,4.7,2.3v-2h4
		v15.3H174.5z M174.5,37.8v-5.4c-0.7-1-2.1-1.8-3.4-1.8c-2.3,0-3.9,1.8-3.9,4.4c0,2.7,1.6,4.5,3.9,4.5
		C172.3,39.5,173.8,38.8,174.5,37.8z"/>
	<path class="st0" d="M184.8,40.8v7.8h-4V27.5h4v1.9c1.2-1.5,2.8-2.3,4.7-2.3c3.9,0,6.8,2.9,6.8,8c0,5.1-2.8,8-6.8,8
		C187.7,43.1,186,42.4,184.8,40.8z M192.1,35.1c0-2.6-1.6-4.4-3.9-4.4c-1.3,0-2.8,0.7-3.4,1.7v5.4c0.7,1,2.2,1.8,3.4,1.8
		C190.5,39.5,192.1,37.7,192.1,35.1z"/>
</g>
<path class="st0" d="M19.8,13c-2.8,0-4.9,2.5-4.8,5.2c0.1,2.6,0,5.9-0.9,8.7c-0.8,2.7-2.3,4.5-4.6,4.7V34c2.3,0.2,3.8,2,4.6,4.7
	c0.8,2.7,1,6.1,0.9,8.7c-0.1,2.7,2,5.2,4.8,5.2h29.1c2.8,0,4.9-2.5,4.8-5.2c-0.1-2.6,0-5.9,0.9-8.7c0.8-2.7,2.3-4.5,4.6-4.7v-2.5
	c-2.3-0.2-3.8-2-4.6-4.7c-0.8-2.7-1-6.1-0.9-8.7c0.1-2.7-2-5.2-4.8-5.2H19.8L19.8,13z M43.2,37.3c0,3.7-2.8,6-7.4,6H28
	c-0.5,0-0.8-0.4-0.8-0.8l0,0V23.1c0-0.5,0.4-0.8,0.8-0.8h7.8c3.8,0,6.3,2.1,6.3,5.3c0,2.2-1.7,4.2-3.8,4.6v0.1
	C41.2,32.5,43.2,34.5,43.2,37.3L43.2,37.3z M35,24.9h-4.5v6.3h3.8c2.9,0,4.5-1.2,4.5-3.3C38.8,26,37.4,24.9,35,24.9L35,24.9z
	 M30.5,33.7v6.9h4.6c3,0,4.6-1.2,4.6-3.5c0-2.3-1.6-3.4-4.8-3.4L30.5,33.7L30.5,33.7z"/>
</svg>
