<?xml version="1.0" encoding="utf-8"?>
<!-- Generator: Adobe Illustrator 22.1.0, SVG Export Plug-In . SVG Version: 6.00 Build 0)  -->
<svg version="1.1" id="Layer_1" xmlns="http://www.w3.org/2000/svg" xmlns:xlink="http://www.w3.org/1999/xlink" x="0px" y="0px"
	 viewBox="0 0 200.4 66.5" style="enable-background:new 0 0 200.4 66.5;" xml:space="preserve">
<style type="text/css">
	.st0{fill:#8C98A4;}
	.st1{fill:#888D91;}
	.st2{fill:#FFFFFF;}
</style>
<g>
	<path class="st0" d="M87.9,44.5V34.4H76.5v10.2h-5.1V20.4h5.1v9.5h11.4v-9.5h5.2v24.1H87.9z"/>
	<path class="st0" d="M96.7,40.2v-9.1h-2.9v-4h2.9v-4.8h4.6v4.8h3.5v4h-3.5v7.9c0,1.1,0.6,2,1.6,2c0.7,0,1.3-0.3,1.6-0.5l1,3.5
		c-0.7,0.6-1.9,1.1-3.8,1.1C98.4,45,96.7,43.3,96.7,40.2z"/>
	<path class="st0" d="M127.6,44.5v-11c0-1.6-0.7-2.8-2.6-2.8c-1.6,0-3,1.1-3.6,2v11.8h-4.6v-11c0-1.6-0.7-2.8-2.6-2.8
		c-1.6,0-2.9,1.1-3.6,2v11.8H106V27.1h4.6v2.2c0.8-1,3-2.7,5.7-2.7c2.6,0,4.2,1.2,4.8,3.1c1-1.6,3.3-3.1,6-3.1
		c3.2,0,5.1,1.7,5.1,5.3v12.6H127.6z"/>
	<path class="st0" d="M134.8,40.2V20.4h4.6v18.5c0,1.1,0.6,2,1.6,2c0.7,0,1.3-0.3,1.6-0.5l1,3.5c-0.7,0.6-2,1.1-3.8,1.1
		C136.5,45,134.8,43.3,134.8,40.2z"/>
</g>
<path class="st0" d="M17.6,51.3l-3.4-41l40.1,0.1l-3.6,41l-16.3,4.7L17.6,51.3z"/>
<path class="st1" d="M34.4,52.2V14.3h16.5l-2.9,34L34.4,52.2z"/>
<path class="st2" d="M46.4,23.7l0.4-5H21.4l1.4,15.3h17.6l-0.7,6.6l-5.6,1.5l-5.7-1.7l-0.3-3.9H23l0.7,8l10.3,2.9l10.4-2.9L45.9,29
	H27.5l-0.5-5.3H46.4z"/>
</svg>
