<?xml version="1.0" encoding="utf-8"?>
<!-- Generator: Adobe Illustrator 22.1.0, SVG Export Plug-In . SVG Version: 6.00 Build 0)  -->
<svg version="1.1" id="Layer_1" xmlns="http://www.w3.org/2000/svg" xmlns:xlink="http://www.w3.org/1999/xlink" x="0px" y="0px"
	 viewBox="0 0 200.4 66.5" style="enable-background:new 0 0 200.4 66.5;" xml:space="preserve">
<style type="text/css">
	.st0{fill:#8C98A4;}
	.st1{fill:#FFFFFF;}
</style>
<g>
	<path class="st0" d="M71.4,44.5V20.4h11.3c5.2,0,8.1,3.5,8.1,7.8c0,4.2-2.9,7.7-8.1,7.7h-6.1v8.6H71.4z M85.5,28.2
		c0-2-1.6-3.3-3.6-3.3h-5.4v6.5H82C84,31.4,85.5,30.2,85.5,28.2z"/>
	<path class="st0" d="M103.7,44.5V33.9c0-2.4-1.3-3.2-3.2-3.2c-1.8,0-3.2,1-4,2v11.8h-4.6V20.4h4.6v8.9c1.1-1.3,3.3-2.7,6.1-2.7
		c3.8,0,5.7,2.1,5.7,5.5v12.4H103.7z"/>
	<path class="st0" d="M115.5,42.3v8.9h-4.6V27.1h4.6v2.2c1.3-1.7,3.3-2.6,5.4-2.6c4.5,0,7.7,3.3,7.7,9.2c0,5.8-3.3,9.2-7.7,9.2
		C118.8,45,116.9,44.1,115.5,42.3z M123.9,35.8c0-3-1.8-5.1-4.5-5.1c-1.5,0-3.1,0.8-3.9,2v6.2c0.8,1.1,2.5,2,3.9,2
		C122.1,40.9,123.9,38.8,123.9,35.8z"/>
	<path class="st0" d="M139.4,44.5l8.6-19.6h-12.2v-4.5H154V24l-9,20.5H139.4z"/>
	<path class="st0" d="M151,42c0-1.6,1.3-2.9,2.9-2.9s2.9,1.3,2.9,2.9s-1.3,2.9-2.9,2.9S151,43.6,151,42z"/>
	<path class="st0" d="M169.1,44.5v-5h-11.5v-4.1l9.6-15.1h7.1V35h3.1v4.5h-3.1v5H169.1z M169.1,25L162.6,35h6.5V25z"/>
</g>
<g>
	<g>
		<ellipse class="st0" cx="34.3" cy="31.7" rx="25.7" ry="18.6"/>
		<path class="st1" d="M15.8,42.7l2.8-19.8h6.5c2.8,0.2,4.3,2.2,4.3,5.6c0,5.9-3.3,9.3-6.3,9h-3.2l-0.7,5.1L15.8,42.7L15.8,42.7z
			 M20.6,33.9l0.9-7.3h2.3c1.2,0,2.1,0.7,2.1,2.2c-0.1,4.2-1.6,4.9-3.2,5.1H20.6L20.6,33.9z M28.7,37.6l2.8-19.8h3.3l-0.7,5.1h3.2
			c2.8,0.2,3.9,2.2,3.5,4.6l-1.2,10h-3.5l1.2-9c0.1-1.2,0.1-2-1.1-2h-2.7l-1.6,11L28.7,37.6L28.7,37.6z M39.4,42.7l2.8-19.8h6.5
			c2.8,0.2,4.3,2.2,4.3,5.6c0,5.9-3.3,9.3-6.3,9h-3.2l-0.7,5.1L39.4,42.7L39.4,42.7z M44.1,33.9l0.9-7.3h2.3c1.2,0,2.1,0.7,2.1,2.2
			c-0.1,4.2-1.6,4.9-3.2,5.1H44.1L44.1,33.9z"/>
	</g>
	<path class="st0" d="M20.5,33.8l0.9-7.2h2.2c1.2,0,2.1,0.7,2.1,2.2c-0.1,4.1-1.6,4.8-3.1,5H20.5L20.5,33.8z"/>
	<path class="st0" d="M43.9,33.8l0.9-7.2H47c1.2,0,2.1,0.7,2.1,2.2c-0.1,4.1-1.6,4.8-3.1,5H43.9L43.9,33.8z"/>
</g>
</svg>
