<?xml version="1.0" encoding="utf-8"?>
<!-- Generator: Adobe Illustrator 22.1.0, SVG Export Plug-In . SVG Version: 6.00 Build 0)  -->
<svg version="1.1" id="Layer_1" xmlns="http://www.w3.org/2000/svg" xmlns:xlink="http://www.w3.org/1999/xlink" x="0px" y="0px"
	 viewBox="0 0 200.4 66.5" style="enable-background:new 0 0 200.4 66.5;" xml:space="preserve">
<style type="text/css">
	.st0{fill:#8C98A4;}
</style>
<g>
	<path class="st0" d="M59.5,32.8c0-3.3-4.2-6.6-10.7-8.6c1.5-6.6,0.9-11.8-2.1-13.6c-0.7-0.3-1.5-0.5-2.4-0.5v2.3
		c0.5,0,0.9,0.1,1.2,0.3c1.4,0.8,2.1,3.9,1.5,7.9c-0.1,0.9-0.3,2-0.5,3.1c-2.1-0.5-4.3-0.9-6.6-1.1c-1.4-1.9-2.8-3.7-4.3-5.1
		c3.3-3.2,6.5-4.9,8.8-4.9v-2.4c-2.8,0-6.6,2.1-10.4,5.6c-3.8-3.5-7.6-5.5-10.4-5.5v2.3c2.1,0,5.3,1.7,8.8,4.8
		c-1.5,1.5-2.9,3.3-4.3,5.1c-2.3,0.3-4.5,0.6-6.6,1.1c-0.3-1-0.4-2.1-0.5-3c-0.5-3.9,0.1-7,1.5-7.9c0.3-0.2,0.7-0.3,1.2-0.3v-2.3
		c-0.9,0-1.6,0.2-2.3,0.6c-2.9,1.7-3.6,7-2.1,13.5c-6.4,2-10.6,5.1-10.6,8.6c0,3.3,4.2,6.6,10.7,8.6C18,48,18.6,53.3,21.5,55
		c0.7,0.4,1.5,0.6,2.3,0.6c2.8,0,6.6-2.1,10.4-5.6c3.8,3.5,7.6,5.5,10.4,5.5c0.9,0,1.6-0.2,2.3-0.6c2.9-1.7,3.6-7,2.1-13.5
		C55.3,39.4,59.5,36.2,59.5,32.8L59.5,32.8z M45.9,25.9c-0.3,1.4-0.9,2.7-1.4,4.1c-0.4-0.9-0.9-1.6-1.4-2.5s-0.9-1.6-1.5-2.4
		C43.2,25.3,44.6,25.6,45.9,25.9L45.9,25.9z M41.2,37c-0.8,1.4-1.6,2.7-2.5,3.9c-1.5,0.2-3.1,0.2-4.7,0.2c-1.5,0-3.2-0.1-4.6-0.2
		c-0.9-1.2-1.7-2.6-2.5-3.9c-0.8-1.4-1.5-2.7-2.1-4.1c0.6-1.4,1.4-2.7,2.1-4.1c0.8-1.4,1.6-2.7,2.5-3.9c1.5-0.2,3.1-0.2,4.7-0.2
		c1.5,0,3.2,0.1,4.6,0.2c0.9,1.2,1.7,2.6,2.5,3.9c0.8,1.4,1.5,2.7,2.1,4.1C42.7,34.2,42,35.6,41.2,37L41.2,37z M44.6,35.6
		c0.6,1.4,1,2.7,1.5,4.1c-1.4,0.3-2.8,0.6-4.3,0.9c0.5-0.8,1-1.6,1.5-2.5C43.7,37.3,44.1,36.4,44.6,35.6L44.6,35.6z M34,46.7
		c-0.9-1-1.9-2.1-2.9-3.3c0.9,0,1.9,0.1,2.8,0.1c0.9,0,2,0,2.9-0.1C36,44.6,35,45.7,34,46.7z M26.3,40.6c-1.5-0.3-2.9-0.5-4.3-0.9
		c0.3-1.4,0.9-2.7,1.4-4.1c0.4,0.9,0.9,1.6,1.4,2.5C25.3,39,25.8,39.8,26.3,40.6z M34,19c0.9,1,1.9,2.1,2.9,3.3
		c-0.9,0-1.9-0.1-2.8-0.1s-2,0-2.9,0.1C32,21.1,33.1,20,34,19z M26.3,25.1c-0.5,0.8-1,1.6-1.5,2.5c-0.5,0.9-0.9,1.6-1.4,2.5
		c-0.6-1.4-1-2.7-1.5-4.1C23.4,25.6,24.8,25.3,26.3,25.1L26.3,25.1z M16.9,38.1c-3.7-1.5-6.1-3.6-6.1-5.2c0-1.6,2.4-3.7,6.1-5.2
		c0.9-0.3,1.9-0.7,2.9-1c0.6,2.1,1.4,4.1,2.3,6.4c-0.9,2.1-1.7,4.3-2.3,6.3C18.8,38.8,17.8,38.5,16.9,38.1L16.9,38.1z M22.5,52.9
		c-1.4-0.8-2.1-3.9-1.5-7.9c0.1-0.9,0.3-2,0.5-3.1c2.1,0.5,4.3,0.9,6.6,1.1c1.4,1.9,2.8,3.7,4.3,5.1c-3.3,3.2-6.5,4.9-8.8,4.9
		C23.2,53.2,22.8,53.1,22.5,52.9L22.5,52.9z M47.1,45c0.5,3.9-0.1,7-1.5,7.9c-0.3,0.2-0.7,0.3-1.2,0.3c-2.1,0-5.3-1.7-8.8-4.8
		c1.5-1.5,2.9-3.3,4.3-5.1c2.3-0.3,4.5-0.6,6.6-1.1C46.8,43,47,44.1,47.1,45z M51.1,38.1c-0.9,0.3-1.9,0.7-2.9,1
		c-0.5-2-1.3-4.1-2.3-6.3c0.9-2.1,1.7-4.3,2.3-6.3c1,0.3,2,0.7,2.9,1c3.7,1.5,6.1,3.6,6.1,5.2C57.2,34.5,54.8,36.5,51.1,38.1
		L51.1,38.1z"/>
	<circle class="st0" cx="34" cy="32.8" r="4.7"/>
</g>
<g>
	<path class="st0" d="M85,44.5L80.3,36h-3.8v8.6h-5.1V20.4h11.3c5,0,8.1,3.3,8.1,7.8c0,4.2-2.7,6.5-5.3,7.2l5.5,9.2H85z M85.5,28.2
		c0-2-1.6-3.2-3.6-3.2h-5.4v6.5H82C84,31.4,85.5,30.2,85.5,28.2z"/>
	<path class="st0" d="M90.3,35.8c0-5.1,3.8-9.2,9-9.2c5.2,0,8.8,3.9,8.8,9.6v1.1h-13c0.3,2.1,2.1,3.9,5,3.9c1.5,0,3.5-0.6,4.6-1.7
		l2.1,3c-1.7,1.6-4.5,2.4-7.2,2.4C94.4,45,90.3,41.4,90.3,35.8z M99.4,30.4c-2.9,0-4.1,2-4.3,3.7h8.6
		C103.6,32.5,102.4,30.4,99.4,30.4z"/>
	<path class="st0" d="M121.5,44.5v-2.2c-1.4,1.7-3.3,2.7-5.4,2.7c-4.4,0-7.7-3.3-7.7-9.2c0-5.7,3.3-9.2,7.7-9.2c2.1,0,4,0.9,5.4,2.7
		v-2.2h4.6v17.5H121.5z M121.5,38.9v-6.2c-0.8-1.2-2.4-2-3.9-2c-2.6,0-4.4,2.1-4.4,5.1c0,3,1.8,5.1,4.4,5.1
		C119.1,40.9,120.7,40.1,121.5,38.9z"/>
	<path class="st0" d="M127.6,35.8c0-5.4,3.9-9.2,9.3-9.2c3.6,0,5.8,1.6,6.9,3.1l-3,2.8c-0.8-1.2-2.1-1.9-3.7-1.9
		c-2.8,0-4.7,2-4.7,5.1c0,3,2,5.1,4.7,5.1c1.6,0,2.9-0.7,3.7-1.9l3,2.8c-1.2,1.6-3.3,3.2-6.9,3.2C131.5,45,127.6,41.2,127.6,35.8z"
		/>
	<path class="st0" d="M145.7,40.2v-9.1h-2.9v-4h2.9v-4.8h4.6v4.8h3.5v4h-3.5v7.9c0,1.1,0.6,2,1.6,2c0.7,0,1.3-0.3,1.6-0.5l1,3.5
		c-0.7,0.6-1.9,1.1-3.8,1.1C147.4,45,145.7,43.3,145.7,40.2z"/>
	<path class="st0" d="M160.2,42.6l2.2-3.9c0.9,0.9,2.2,1.7,3.8,1.7c2.3,0,3.8-1.6,3.8-3.9V20.4h5.2v16.2c0,5.7-3.6,8.4-8.5,8.4
		C164.3,45,162,44.3,160.2,42.6z"/>
	<path class="st0" d="M176.3,41.1l2.8-4c1.7,1.8,4.3,3.3,7.7,3.3c2.9,0,4.2-1.3,4.2-2.7c0-4.2-13.9-1.3-13.9-10.3
		c0-4,3.5-7.3,9.2-7.3c3.8,0,7,1.2,9.4,3.4l-2.9,3.8c-2-1.8-4.6-2.6-7-2.6c-2.2,0-3.4,0.9-3.4,2.4c0,3.8,13.9,1.2,13.9,10.2
		c0,4.4-3.2,7.7-9.7,7.7C181.9,45,178.6,43.4,176.3,41.1z"/>
</g>
</svg>
