<?xml version="1.0" encoding="utf-8"?>
<!-- Generator: Adobe Illustrator 22.1.0, SVG Export Plug-In . SVG Version: 6.00 Build 0)  -->
<svg version="1.1" id="Layer_1" xmlns="http://www.w3.org/2000/svg" xmlns:xlink="http://www.w3.org/1999/xlink" x="0px" y="0px"
	 viewBox="0 0 200.4 66.5" style="enable-background:new 0 0 200.4 66.5;" xml:space="preserve">
<style type="text/css">
	.st0{fill:#8C98A4;}
</style>
<g>
	<path class="st0" d="M77,44.5V24.9h-7.1v-4.5h19.2v4.5h-7v19.6H77z"/>
	<path class="st0" d="M98.8,44.5v-2.2C97.4,44,95.6,45,93.4,45c-4.4,0-7.7-3.3-7.7-9.2c0-5.7,3.3-9.2,7.7-9.2c2.1,0,4,0.9,5.4,2.7
		v-2.2h4.6v17.5H98.8z M98.8,38.9v-6.2c-0.8-1.2-2.4-2-3.9-2c-2.6,0-4.5,2.1-4.5,5.1c0,3,1.8,5.1,4.5,5.1
		C96.4,40.9,98,40.1,98.8,38.9z"/>
	<path class="st0" d="M105.6,22.4c0-1.5,1.2-2.7,2.7-2.7c1.5,0,2.7,1.2,2.7,2.7s-1.2,2.7-2.7,2.7C106.8,25.2,105.6,24,105.6,22.4z
		 M106,44.5V27.1h4.6v17.5H106z"/>
	<path class="st0" d="M113.2,40.2V20.4h4.6v18.5c0,1.1,0.6,2,1.6,2c0.7,0,1.3-0.3,1.6-0.5l1,3.5c-0.7,0.6-2,1.1-3.8,1.1
		C114.9,45,113.2,43.3,113.2,40.2z"/>
	<path class="st0" d="M137.3,44.5l-3.7-11.9l-3.7,11.9H125l-5.3-17.5h4.8l3.3,11.8l3.8-11.8h4.1l3.8,11.8l3.3-11.8h4.8l-5.3,17.5
		H137.3z"/>
	<path class="st0" d="M147.4,22.4c0-1.5,1.2-2.7,2.7-2.7c1.5,0,2.7,1.2,2.7,2.7s-1.2,2.7-2.7,2.7C148.6,25.2,147.4,24,147.4,22.4z
		 M147.8,44.5V27.1h4.6v17.5H147.8z"/>
	<path class="st0" d="M166.8,44.5V34c0-2.4-1.3-3.3-3.2-3.3c-1.8,0-3.2,1-4,2v11.8H155V27.1h4.6v2.2c1.1-1.3,3.3-2.7,6.1-2.7
		c3.9,0,5.7,2.2,5.7,5.6v12.3H166.8z"/>
	<path class="st0" d="M185.9,44.5v-2.2c-1.4,1.7-3.3,2.7-5.4,2.7c-4.4,0-7.7-3.3-7.7-9.2c0-5.7,3.3-9.2,7.7-9.2c2.1,0,4,0.9,5.4,2.7
		v-8.9h4.6v24.1H185.9z M185.9,38.9v-6.2c-0.8-1.2-2.4-2-3.9-2c-2.6,0-4.4,2.1-4.4,5.1c0,3,1.8,5.1,4.4,5.1
		C183.5,40.9,185.2,40.1,185.9,38.9z"/>
</g>
<path class="st0" d="M60,22.6c0,0-3.3,4.8-8.7,3.9c-5.5-0.9-6.4-9.2-16.3-9.2c-12.2,0-13.6,10.3-13.6,10.3s3.5-5.1,8.7-4.1
	s7.4,9.2,18.1,9.2S60,22.6,60,22.6z"/>
<path class="st0" d="M47.1,37.9c0,0-3.3,4.8-8.7,3.9s-6.4-9.2-16.3-9.2C9.8,32.6,8.5,43,8.5,43s3.5-5.1,8.7-4.1
	c5.1,1,7.4,9.2,18.1,9.2S47.1,37.9,47.1,37.9z"/>
</svg>
