<?xml version="1.0" encoding="utf-8"?>
<!-- Generator: Adobe Illustrator 22.1.0, SVG Export Plug-In . SVG Version: 6.00 Build 0)  -->
<svg version="1.1" id="Layer_1" xmlns="http://www.w3.org/2000/svg" xmlns:xlink="http://www.w3.org/1999/xlink" x="0px" y="0px"
	 viewBox="0 0 200.4 66.5" style="enable-background:new 0 0 200.4 66.5;" xml:space="preserve">
<style type="text/css">
	.st0{fill:#8C98A4;}
	.st1{fill:#7F7F7F;}
</style>
<g>
	<path class="st0" d="M78.2,44.5l-9.3-24.1h5.8l6.7,18.5l6.7-18.5h5.8l-9.3,24.1H78.2z"/>
	<path class="st0" d="M103.8,44.5v-2.2c-1.2,1.3-3.3,2.6-6.2,2.6c-3.8,0-5.6-2.1-5.6-5.5V27.1h4.6v10.6c0,2.4,1.3,3.2,3.2,3.2
		c1.8,0,3.2-1,4-2V27.1h4.6v17.5H103.8z"/>
	<path class="st0" d="M109.8,35.8c0-5.1,3.8-9.2,9-9.2c5.2,0,8.8,3.9,8.8,9.6v1.1h-13c0.3,2.1,2.1,3.9,5,3.9c1.5,0,3.5-0.6,4.6-1.7
		l2.1,3c-1.7,1.6-4.5,2.4-7.2,2.4C113.9,45,109.8,41.4,109.8,35.8z M118.9,30.4c-2.9,0-4.1,2-4.3,3.7h8.6
		C123.1,32.5,121.9,30.4,118.9,30.4z"/>
	<path class="st0" d="M134.2,42.6l2.2-3.9c0.9,0.9,2.2,1.7,3.8,1.7c2.3,0,3.8-1.6,3.8-3.9V20.4h5.2v16.2c0,5.7-3.6,8.4-8.5,8.4
		C138.3,45,136,44.3,134.2,42.6z"/>
	<path class="st0" d="M150.3,41.1l2.8-4c1.7,1.8,4.3,3.3,7.7,3.3c2.9,0,4.2-1.3,4.2-2.7c0-4.2-13.9-1.3-13.9-10.3
		c0-4,3.5-7.3,9.2-7.3c3.8,0,7,1.2,9.4,3.4l-2.9,3.8c-2-1.8-4.6-2.6-7-2.6c-2.2,0-3.4,0.9-3.4,2.4c0,3.8,13.9,1.2,13.9,10.2
		c0,4.4-3.2,7.7-9.7,7.7C155.9,45,152.6,43.4,150.3,41.1z"/>
</g>
<path class="st0" d="M40,11.5l-6,10l-5.9-10h-20L34,54.7l26-43.2H40z"/>
<path class="st1" d="M40,11.5l-6,10l-5.9-10h-9.6l15.6,26l15.5-26H40z"/>
</svg>
