<?xml version="1.0" encoding="utf-8"?>
<!-- Generator: Adobe Illustrator 22.1.0, SVG Export Plug-In . SVG Version: 6.00 Build 0)  -->
<svg version="1.1" id="Layer_1" xmlns="http://www.w3.org/2000/svg" xmlns:xlink="http://www.w3.org/1999/xlink" x="0px" y="0px"
	 viewBox="0 0 1080 1080" style="enable-background:new 0 0 1080 1080;" xml:space="preserve">
<style type="text/css">
	.st0{fill:#4F46E5;}
	.st1{fill:#FFFFFF;}
</style>
<g>
	<circle class="st0" cx="539.5" cy="539.5" r="540.5"/>
</g>
<path class="st1" d="M774.7,577.1V348.6c-120-2-224-95.6-224-95.6s-104,93.6-224,95.6h-6.9v222.9c0,9.5,2.2,25.5,2.2,25.5
	c7.1,35.8,43.1,133.6,225.2,221.7c0,0.1,0,0.2,0,0.2c0.1,0,0.1-0.1,0.2-0.1c0.1,0,0.1,0.1,0.2,0.1c0-0.1,0-0.2,0-0.2
	c179.8-87,217.1-183.5,224.9-220.3C774,591.9,774.7,577.1,774.7,577.1z"/>
<g>
	<path class="st0" d="M411.6,552.4V442h57.6v108.4c0,18,11.8,32.3,35.1,32.3c23,0,34.8-14.3,34.8-32.3V442h57.6v110.1
		c0,46.6-29.2,80.6-92.4,80.6S411.6,598.8,411.6,552.4z"/>
	<path class="st0" d="M627.1,629.4V442h56.7v187.4H627.1z"/>
</g>
</svg>
