<?xml version="1.0" encoding="utf-8"?>
<!-- Generator: Adobe Illustrator 22.1.0, SVG Export Plug-In . SVG Version: 6.00 Build 0)  -->
<svg version="1.1" id="Layer_1" xmlns="http://www.w3.org/2000/svg" xmlns:xlink="http://www.w3.org/1999/xlink" x="0px" y="0px"
	 viewBox="0 0 1080 1080" style="enable-background:new 0 0 1080 1080;" xml:space="preserve">
<style type="text/css">
	.st0{fill:#F7B514;}
	.st1{fill:#E21F1D;}
</style>
<g>
	<g>
		<circle class="st0" cx="539.5" cy="539.5" r="534.5"/>
	</g>
</g>
<path class="st1" d="M490.5,439.4c10.7,30.3,22.7,60.9,32.4,92.3c20.6,66.2,43,132,58.3,199.5c5.9,25.9,0.5,58.3-10.4,83
	c-19.7,44.8-62.7,61.4-99.4,46.4C431,844,418.4,809.3,434,754c6.6,0.4,13.6,0.5,20.5,1.2c47.6,4.8,66.2-10.3,59.4-57.8
	c-6.1-42.6-20.1-84.1-31.5-125.9c-10.1-37.1-21.2-73.9-32.3-112.2c-86.7,57.4-73.5,142,29.9,233.7c-24-3-49.3-2.2-71.9-9.8
	c-58.4-19.5-119.5-36-172.3-66.3c-58.6-33.6-58.2-92.1-1.4-129.4c40.2-26.4,88.4-41,133.9-58.6c19.7-7.6,41.6-9.4,65.2-14.3
	c-7.3-28.7-16.5-54.7-20.2-81.4c-5.4-39.6-4.1-79,34.1-105c33-22.4,65.7-16.5,97.8,2.6c40.1,23.8,63.3,59,66.4,105.4
	c0.6,8.5-9,21.3-17.3,25.6c-5.5,2.8-17.3-5.6-25.6-10.2c-3.3-1.9-5-7-7.1-10.7c-17.2-29.5-40.9-57.7-75.6-35.8
	c-33.4,21.2-12.2,58.3-5.2,87.8c1.9,7.7,19.3,16.7,29.6,16.7c88.9-0.1,175.3,11,260.2,40c23.3,8,53-1.7,79.6-4.3
	c28.5-2.7,38.8,10.6,38.3,37.9c-0.9,46.3,1.2,92.7-1.4,138.8c-0.7,11.9-15.9,33.9-21.7,33C781,642.7,704.9,682.9,624,690.7
	c-2.6,0.3-5.5-1.3-4.3-1c21.7-32.4,50.3-63.1,64.5-99.5c15.3-39.1,2.2-79.9-25.9-113.3C617.8,428.8,546.8,411.4,490.5,439.4z"/>
</svg>
