<?xml version="1.0" encoding="utf-8"?>
<!-- Generator: Adobe Illustrator 22.1.0, SVG Export Plug-In . SVG Version: 6.00 Build 0)  -->
<svg version="1.1" id="Layer_1" xmlns="http://www.w3.org/2000/svg" xmlns:xlink="http://www.w3.org/1999/xlink" x="0px" y="0px"
	 viewBox="0 0 1080 1080" style="enable-background:new 0 0 1080 1080;" xml:space="preserve">
<style type="text/css">
	.st0{fill:#FFFFFF;}
	.st1{fill:#040007;}
	.st2{fill:#E51E2B;}
</style>
<g>
	<g>
		<circle class="st0" cx="539.5" cy="539.5" r="534.5"/>
	</g>
</g>
<path class="st1" d="M543.6,496.1c-9.5,14.7-19.1,27.7-26.9,41.7c-16.2,29-26.8,60-29.5,93.2c-1.1,13-3.1,26.7-0.3,39
	c10.1,44.2,55.1,61.2,89.2,45.7c4-1.8,7.7-5.7,12.8-1.3c1,0.9,4.6-0.9,6.9-1.8c48.5-19.6,79.8-54.5,93.1-105.3
	c12.3-47.1,9.5-94.9,6.6-142.5c-3.1-50.2-9.7-100.3-6.4-150.7c0.7-11.3,3.2-22.7,5.6-33.8c1.7-7.9,16.4-12.5,25.8-9
	c13.8,5.2,21.8,16.4,28,28.6c13.6,26.8,21.3,55.6,26.2,85.1c9.1,54.5,13.4,109.3,10.9,164.5c-2.4,53.4-12.1,105.1-39.8,152
	c-21.7,36.7-53.8,61.2-91.1,79.8c-25.6,12.8-52.4,22.2-81.1,24.5c-40.4,3.2-79.7,0.1-115.1-22.8c-25-16.2-42-38.4-49.5-67.2
	c-4.3-16.7-1.9-33.6,2.1-50.3c2.3-9.5,2.6-19.4,5-28.8c13.1-52.6,36.5-98.7,83.9-129C512.9,499.6,527.4,496,543.6,496.1z"/>
<path class="st2" d="M447.8,492.9c-7,10.9-13.2,21.1-19.9,31c-11,16.1-17.5,34.2-23.2,52.5c-6.6,21.3-10.4,43.1-10.1,65.5
	c0.2,14.9,3.7,28.8,12.8,40.1c4.1,5.2,7.3,14.5,17.3,13c11.9,8,25.2,5.1,38,4.6c4.4-0.2,8.5-3.4,12.9-4.2c11-2,19.4-8.6,28.2-14.6
	c19.8-13.4,36.5-30,48-50.9c15.1-27.4,22.4-56.6,16.4-88.5c-6.1-32.3-21-59.8-42.5-84c-13.9-15.6-32.1-23.7-52.5-27.5
	c-23.2-4.2-45.1,0.6-67.1,7.3c-26.8,8.1-48.5,24.3-69.9,41.3c-7.2,5.7-14.5,11.3-21.9,16.9c-1.4,1.1-3.2,1.8-5.4,2.9
	c-4.5-12-4.5-23.5-2-35c5.3-24.3,19.6-42.6,38.5-58.1c21.7-17.7,46.2-29.7,72.8-37.4c13.3-3.8,27.3-5.3,41-7.6
	c5.2-0.9,10.5-1.9,15.7-1.9c26.4-0.2,52.3,3.4,76.4,14.3c27.7,12.6,49.6,32.3,65.9,58.5c10.7,17.2,18.6,35.4,23.8,54.8
	c8,29.8,9.7,60.1,6.1,90.7c-3,26.3-9.8,51.7-21.1,75.8c-10.8,23.1-24.3,44.5-42.9,62.1c-9.4,8.9-18.9,17.6-28.9,25.8
	c-4.1,3.4-9.4,5.3-14.1,7.8c-5.3,2.9-10.6,5.9-16,8.5c-5.9,2.9-11.8,6.1-18,7.9c-9.4,2.8-19.6,3.2-28.6,6.9
	c-11.4,4.6-22.9,5.2-34.4,4.1c-15.7-1.5-31.4-4-46.7-7.9c-15.6-3.9-29-12.7-40.5-24c-15.9-15.6-24.1-34.8-28.1-56.5
	c-4.2-22.9-1.8-45.6,3.4-67.8c5.7-24,15.6-46.5,29.2-67.3c10.7-16.4,23.3-31,39.2-42.6c12.9-9.4,27-15.8,43.2-16.9
	C444.1,492.5,445.5,492.7,447.8,492.9z"/>
</svg>
