<?xml version="1.0" encoding="utf-8"?>
<!-- Generator: Adobe Illustrator 22.1.0, SVG Export Plug-In . SVG Version: 6.00 Build 0)  -->
<svg version="1.1" id="Layer_1" xmlns="http://www.w3.org/2000/svg" xmlns:xlink="http://www.w3.org/1999/xlink" x="0px" y="0px"
	 viewBox="0 0 1080 1080" style="enable-background:new 0 0 1080 1080;" xml:space="preserve">
<style type="text/css">
	.st0{fill:#4F46E5;}
	.st1{fill:#FFFFFF;}
</style>
<g>
	<circle class="st0" cx="539.5" cy="539.5" r="540.5"/>
</g>
<g id="Website">
	<path class="st1" d="M752,819H327.8c-18.9,0.6-37.3-6.7-50.5-20.2c-13.4-13.2-20.7-31.3-20.2-50.1V323.8
		c-0.6-18.9,6.7-37.3,20.2-50.5c13.3-13.5,31.6-20.8,50.5-20.2h424.4c18.9-0.6,37.3,6.7,50.5,20.2c13.5,13.3,20.8,31.6,20.2,50.5
		v424.4C822.7,787.3,791.1,818.9,752,819z M540,358.3c-23.3-0.1-46.3,4.5-67.7,13.7c-20.8,8.7-39.7,21.4-55.6,37.4
		c-16.2,15.9-29.3,34.8-38.4,55.6c-18.1,43.3-18.1,92.1,0,135.4c9.1,20.8,22.1,39.7,38.4,55.6c16,15.9,34.8,28.7,55.6,37.6
		c43.3,18.1,92.1,18.1,135.4,0c20.7-8.9,39.6-21.6,55.6-37.6c16.3-15.9,29.3-34.7,38.4-55.6c18.1-43.3,18.1-92.1,0-135.4
		c-9.1-20.8-22.2-39.7-38.4-55.6c-15.9-15.9-34.8-28.6-55.6-37.4C586.3,362.9,563.3,358.2,540,358.3z M408.6,459.4H463
		c-4.4,11.7-7.7,23.9-9.9,36.2h-58.4C397.9,483,402.5,470.9,408.6,459.4z M408.6,606.1c-6.1-11.1-10.7-22.9-13.9-35.2h58.4
		c2.4,12,5.7,23.7,9.9,35.2H408.6z M485.6,507.9L469.1,558l-10.1,4.2l-10.5-34.2l-9.5,34.2l-10.3-4.2l-16.2-50.1l10.3-4.4l11.5,38.6
		l9.1-24.9h11.5l8.9,24.9l12.1-38.6L485.6,507.9z M433.7,427.1c20.8-21.2,47.6-35.7,76.8-41.4c-17.2,17.5-30.9,38.1-40.4,60.6h-51.3
		c4.4-7,9.4-13.5,15-19.6V427.1z M433.7,639.5c-5.8-5.7-11.1-12-15.8-18.8h50.7c10,22.6,24.2,43.2,41.8,60.6
		c-29.3-5.9-56.1-20.6-76.8-42.2V639.5z M468.5,495.6c2.3-12.1,5.6-23.9,10.1-35.4h54v35.4H468.5z M532.5,606.9h-53.2
		c-4.5-11.4-7.9-23.1-10.1-35.2h64.1L532.5,606.9z M532.5,681.1c-20-16.7-36.2-37.3-47.7-60.6h47.7V681.1z M532.5,386v60.6h-47.1
		c11.2-23.6,27.2-44.5,47.1-61.4V386z M540,528.1l-10.3,34.2l-10.1-4.2l-16.8-50.1l10.3-4.4l12.1,38.6l8.9-24.9h11.7l8.9,24.9
		l11.5-38.6l10.7,4.4L560.2,558l-10.3,4.2L540,528.1z M547.5,384.6c19.9,16.7,36.1,37.4,47.7,60.6h-47.7V384.6z M547.5,459.4h53.2
		c5.2,11.6,9,23.7,11.5,36.2h-64.7L547.5,459.4z M612.2,571c-2.5,12.1-6.4,23.9-11.5,35.2h-53.2V571H612.2z M547.5,680.9v-60.6h47.7
		C583.6,643.6,567.4,664.2,547.5,680.9z M646.3,426.7c5.8,5.6,11.1,11.7,15.8,18.2h-50.7c-10.2-22.6-24.3-43.1-41.8-60.6
		C598.8,390.2,625.6,405,646.3,426.7z M646.3,639.1c-20.9,21-47.7,35.1-76.8,40.4c17.6-17.4,31.8-38,41.8-60.6h49.9
		C657,626.1,652,632.9,646.3,639.1z M610.9,558.2l-16.6-50.1l10.3-4.4l12.1,38.6l8.9-24.9h11.5l9.1,24.9l11.5-38.6l10.3,4.4
		L652,558.2l-10.9,4L631,528.1l-10.1,34.2L610.9,558.2z M671.6,459.6c6,11.4,10.6,23.5,13.7,36h-58.4c-2.1-12-5.3-23.9-9.5-35.4
		L671.6,459.6z M671.6,606.3h-54.2c4.1-11.4,7.3-23.2,9.5-35.2h58.4c-3.2,12.2-7.9,23.9-13.9,35L671.6,606.3z"/>
</g>
</svg>
