<?xml version="1.0" encoding="utf-8"?>
<!-- Generator: Adobe Illustrator 22.1.0, SVG Export Plug-In . SVG Version: 6.00 Build 0)  -->
<svg version="1.1" id="Layer_1" xmlns="http://www.w3.org/2000/svg" xmlns:xlink="http://www.w3.org/1999/xlink" x="0px" y="0px"
	 viewBox="0 0 1080 1080" style="enable-background:new 0 0 1080 1080;" xml:space="preserve">
<style type="text/css">
	.st0{fill:#4F46E5;}
	.st1{fill:#FFFFFF;}
</style>
<g>
	<circle class="st0" cx="539.5" cy="539.5" r="540.5"/>
</g>
<path class="st1" d="M547.6,819C413.6,819,305,782.8,305,738.1c0-24.4,0-51.1,0-80.9c0-7,3.5-13.7,8.6-20.2
	c27,34.8,121.1,60.6,234,60.6s207-25.8,234-60.6c5.1,6.5,8.6,13.2,8.6,20.2c0,23.4,0,48.2,0,80.9C790.1,782.8,681.5,819,547.6,819z
	 M547.6,657.3C413.6,657.3,305,621,305,576.4c0-24.4,0-51.1,0-80.9c0-4.3,1.6-8.4,3.8-12.6l0,0c1.2-2.6,2.8-5.1,4.8-7.6
	c27,34.8,121.1,60.6,234,60.6s207-25.8,234-60.6c1.9,2.5,3.6,5.1,4.8,7.6l0,0c2.2,4.1,3.8,8.3,3.8,12.6c0,23.4,0,48.2,0,80.9
	C790.1,621,681.5,657.3,547.6,657.3z M547.6,495.6c-133.9,0-242.6-36.2-242.6-80.9c0-12.8,0-26.3,0-40.4c0-12.9,0-26.2,0-40.4
	c0-44.6,108.6-80.9,242.6-80.9c133.9,0,242.6,36.2,242.6,80.9c0,12.6,0,26,0,40.4c0,12.4,0,25.4,0,40.4
	C790.1,459.3,681.5,495.6,547.6,495.6z M547.6,293.4c-89.3,0-161.7,18.1-161.7,40.4s72.4,40.4,161.7,40.4s161.7-18.1,161.7-40.4
	S636.9,293.4,547.6,293.4z"/>
</svg>
