<?xml version="1.0" encoding="utf-8"?>
<!-- Generator: Adobe Illustrator 22.1.0, SVG Export Plug-In . SVG Version: 6.00 Build 0)  -->
<svg version="1.1" id="Layer_1" xmlns="http://www.w3.org/2000/svg" xmlns:xlink="http://www.w3.org/1999/xlink" x="0px" y="0px"
	 viewBox="0 0 1080 1080" style="enable-background:new 0 0 1080 1080;" xml:space="preserve">
<style type="text/css">
	.st0{fill:#4F46E5;}
	.st1{fill:#FFFFFF;}
</style>
<g>
	<circle class="st0" cx="539.5" cy="539.5" r="540.5"/>
</g>
<g>
	<path class="st1" d="M810.2,596.9c0-55.4-44.9-100.3-100.3-100.3h-12.5V484c0-13.9-11.2-25.1-25.1-25.1h-301
		c-13.9,0-25.1,11.2-25.1,25.1v238.3c0,34.6,28.1,62.7,62.7,62.7h225.8c34.6,0,62.7-28.1,62.7-62.7v-25.1h12.5
		C765.3,697.2,810.2,652.3,810.2,596.9z M709.9,647h-6.3c-3.4,0-6.3-2.8-6.3-6.2c0,0,0,0,0-0.1V553c0-3.5,2.8-6.3,6.3-6.3h6.3
		c27.7,0,50.2,22.5,50.2,50.2C760.1,624.6,737.6,647,709.9,647z"/>
	<path class="st1" d="M413.7,254.8c3-1.7,4.2-5.5,2.5-8.5c-0.5-0.9-1.2-1.7-2.1-2.3l-59.3-38.4c-5.9-3.6-13.6-1.6-17.2,4.3
		c-1.5,2.6-2.1,5.6-1.6,8.5l10.6,63.5c0.3,2,1.6,3.7,3.4,4.6c1.8,0.9,3.9,0.9,5.7,0L413.7,254.8z"/>
	<path class="st1" d="M363.4,310.8c-3,1.7-4.1,5.4-2.5,8.4L416.6,427c2.2,4.2,6.5,6.8,11.1,6.8H503c6.9,0,12.6-5.6,12.6-12.5
		c0-2.1-0.5-4.2-1.6-6.1l-75.9-138c-1.7-3-5.5-4.2-8.5-2.5L363.4,310.8z"/>
	<path class="st1" d="M611.6,365.9h-0.2c-5.6-2.4-11-5.3-16-8.8c-2.9-2-6.8-1.2-8.8,1.7c-0.1,0.1-0.2,0.3-0.3,0.4l-31.2,55.9
		c-3.4,6.1-1.2,13.7,4.9,17.1c1.9,1,4,1.6,6.1,1.6h46c5.2,0,9.9-3.2,11.7-8.1l16.8-44.8c1.2-3.2-0.4-6.9-3.6-8.1
		c-0.5-0.2-0.9-0.3-1.4-0.4c-5.8-0.7-11.5-2-17.1-3.9C616.3,367.8,613.9,366.9,611.6,365.9z"/>
	<path class="st1" d="M698.8,253.6c-7.8-35.2-35.3-62.6-70.5-70.2c-6.7-1.6-13.5,2.5-15.1,9.2c-0.8,3.4-0.2,6.9,1.7,9.8
		c13.3,20.2,5.3,32.2-8.9,50c-5.4,6.2-10,13.1-13.6,20.5c-12,25.5-1,56,24.5,68c1.4,0.7,2.9,1.3,4.4,1.8c18.4,9.3,40.5,6.8,56.3-6.5
		C699.2,314.7,707.3,283,698.8,253.6z"/>
</g>
</svg>
