<?xml version="1.0" encoding="utf-8"?>
<!-- Generator: Adobe Illustrator 22.1.0, SVG Export Plug-In . SVG Version: 6.00 Build 0)  -->
<svg version="1.1" id="Layer_1" xmlns="http://www.w3.org/2000/svg" xmlns:xlink="http://www.w3.org/1999/xlink" x="0px" y="0px"
	 viewBox="0 0 1080 1080" style="enable-background:new 0 0 1080 1080;" xml:space="preserve">
<style type="text/css">
	.st0{fill:#004F7D;}
	.st1{fill:#FFFFFF;}
</style>
<g>
	<circle class="st0" cx="539.5" cy="539.5" r="534.5"/>
	<path class="st1" d="M296.1,828.5c0-172.5,0-340.5,0-509.9c64.3,0,127.6,0,193,0c0.4,7.6,1.1,14.9,1.1,22.2
		c0.2,80,0.8,160.1-0.3,240.1c-0.2,12.3-5.6,26.8-13.4,36.3c-55.4,66.8-112.1,132.6-168.4,198.6
		C305.2,819.2,301.9,822.4,296.1,828.5z"/>
	<path class="st1" d="M335.8,832.1c53-65.5,102.6-126.5,151.8-187.8c7.7-9.5,14.5-19.9,20.4-30.6c27.4-49.3,66.4-81.9,123.2-93.1
		c43.6-8.6,85-23.6,110.4-63.9c8.6-13.6,14.1-29.2,20.4-42.8c2.5,46.2,1.1,94.2-18.6,139.2c-20.7,47-57.5,80.3-105.8,93.6
		c-50.8,14-89.4,39.6-119.6,82.3c-21.6,30.7-48.2,57.8-71.5,87.3c-9.5,12-19.8,16.8-35,16C387.7,831.2,363.9,832.1,335.8,832.1z"/>
	<path class="st1" d="M732.5,246.3c10.2,54.2-5.4,89.7-53.1,111.4c-17.1,7.8-30.5,23.6-49.5,39.1c57,0.6,97.5-26.3,110.7-68
		c7.6,75.7-20.9,137.8-97.8,158.9c-38.2,10.5-70.2,32.6-99.9,64.9c7.9-61.2,23.6-113,77.2-145.1c4.5-2.7,7-10.5,8.3-16.3
		c3-13.9,3.7-28.5,7.3-42.2c6.6-25.4,22.3-43.6,47.3-52.7C705.9,287.7,724,274.6,732.5,246.3z"/>
	<path class="st1" d="M479.4,829.2c34.5-44.8,67.6-88,102.4-133.2c67.7,43.6,134.5,86.6,201.2,129.6c-0.3,1.2-0.6,2.4-0.9,3.6
		C682.2,829.2,582.2,829.2,479.4,829.2z"/>
</g>
</svg>
