<?xml version="1.0" encoding="utf-8"?>
<!-- Generator: Adobe Illustrator 22.1.0, SVG Export Plug-In . SVG Version: 6.00 Build 0)  -->
<svg version="1.1" id="Layer_1" xmlns="http://www.w3.org/2000/svg" xmlns:xlink="http://www.w3.org/1999/xlink" x="0px" y="0px"
	 viewBox="0 0 1080 1080" style="enable-background:new 0 0 1080 1080;" xml:space="preserve">
<style type="text/css">
	.st0{fill:#4F46E5;}
	.st1{fill:#FFFFFF;}
</style>
<g>
	<circle class="st0" cx="539.5" cy="539.5" r="540.5"/>
</g>
<g>
	<path class="st1" d="M589,558.1l-46,46l-50.2-50.2l46-46c5.6-5.6,5.6-13.9,0-19.5c-5.6-5.6-13.9-5.6-19.5,0l-46,46l-18.1-18.1
		c-5.6-5.6-13.9-5.6-19.5,0c-5.6,5.6-5.6,13.9,0,19.5l4.2,4.2l-39,39c-16.7,15.3-25.1,36.2-25.1,58.5c0,18.1,5.6,33.4,15.3,48.8
		l-39,39c-5.6,5.6-5.6,13.9,0,19.5c2.8,2.8,5.6,4.2,9.8,4.2c4.2,0,7-1.4,9.8-4.2l39-39c13.9,9.8,30.7,15.3,48.8,15.3
		c22.3,0,43.2-8.4,58.5-23.7l39-39l4.2,4.2c2.8,2.8,7,4.2,9.8,4.2s7-1.4,9.8-4.2c5.6-5.6,5.6-13.9,0-19.5l-18.1-19.5l46-46
		c5.6-5.6,5.6-13.9,0-19.5C603,552.5,594.6,552.5,589,558.1z"/>
	<path class="st1" d="M761.8,335.2c-5.6-5.6-13.9-5.6-19.5,0l-39,39c-13.9-9.8-30.7-15.3-48.8-15.3c-22.3,0-43.2,8.4-58.5,23.7
		l-48.8,48.8c-5.6,5.6-5.6,13.9,0,19.5l97.5,97.5c2.8,2.8,7,4.2,9.8,4.2s7-1.4,9.8-4.2l48.8-48.8c16.7-13.9,25.1-34.8,25.1-57.1
		c0-18.1-5.6-33.4-15.3-48.8l39-39C767.4,349.1,767.4,340.8,761.8,335.2z"/>
</g>
</svg>
