<?xml version="1.0" encoding="utf-8"?>
<!-- Generator: Adobe Illustrator 22.1.0, SVG Export Plug-In . SVG Version: 6.00 Build 0)  -->
<svg version="1.1" id="Layer_1" xmlns="http://www.w3.org/2000/svg" xmlns:xlink="http://www.w3.org/1999/xlink" x="0px" y="0px"
	 viewBox="0 0 448 512" style="enable-background:new 0 0 448 512;" xml:space="preserve">
<style type="text/css">
	.st0{fill:#4F46E5;}
	.st1{fill:#FFFFFF;}
</style>
<path class="st0" d="M416.3,480H31.7C14.3,480,0,465.8,0,448.3V63.7C0,46.3,14.3,32,31.7,32h384.7c17.4,0,31.7,14.3,31.7,31.7v384.7
	C448,465.8,433.8,480,416.3,480z"/>
<path class="st1" d="M315.2,292.6c-15.4,0-29.7-6.5-42.8-17.1l3.2-14.9l0.1-0.6c2.8-15.9,11.8-42.6,39.5-42.6
	c20.7,0,37.6,16.9,37.6,37.6C352.8,275.7,335.9,292.6,315.2,292.6L315.2,292.6z M315.2,179.3c-35.3,0-62.7,23-73.9,60.7
	c-17-25.5-29.9-56.2-37.4-81.9h-38v99c0,19.5-15.9,35.4-35.4,35.4S95.1,276.5,95.1,257v-99h-38v99c-0.1,40.5,32.8,73.8,73.4,73.8
	c40.5,0,73.5-33.3,73.5-73.8v-16.6c7.4,15.4,16.5,31,27.5,44.8l-23.3,109.5h38.9l16.9-79.5c14.8,9.5,31.8,15.4,51.3,15.4
	c41.7,0,75.7-34.2,75.7-75.9C390.9,213.2,356.9,179.3,315.2,179.3L315.2,179.3z"/>
</svg>
