<?xml version="1.0" encoding="utf-8"?>
<!-- Generator: Adobe Illustrator 22.1.0, SVG Export Plug-In . SVG Version: 6.00 Build 0)  -->
<svg version="1.1" id="Layer_1" xmlns="http://www.w3.org/2000/svg" xmlns:xlink="http://www.w3.org/1999/xlink" x="0px" y="0px"
	 viewBox="0 0 448 512" style="enable-background:new 0 0 448 512;" xml:space="preserve">
<style type="text/css">
	.st0{fill:#4F46E5;}
</style>
<path class="st0" d="M256,64c0-17.7,14.3-32,32-32h127.1l0,0c5.2,0,9.4,0.9,13.1,2.4c2.9,1.5,7.3,3.8,10.4,6.9c0,0,0,0.1,0.1,0.1
	c6.2,6.2,8.4,14.3,9.3,22.5c0,0,0,0.1,0,0.1v128c0,17.7-14.3,32-32,32s-32-14.3-32-32v-50.7L214.6,310.6
	c-12.5,12.5-32.7,12.5-45.2,0s-12.5-32.7,0-45.2L338.7,96H288C270.3,96,256,81.7,256,64L256,64z M0,128c0-35.3,28.6-64,64-64h96
	c17.7,0,32,14.3,32,32c0,17.7-14.3,32-32,32H64v288h288v-96c0-17.7,14.3-32,32-32s32,14.3,32,32v96c0,35.3-28.7,64-64,64H64
	c-35.3,0-64-28.7-64-64V128z"/>
</svg>
