<?xml version="1.0" encoding="utf-8"?>
<!-- Generator: Adobe Illustrator 22.1.0, SVG Export Plug-In . SVG Version: 6.00 Build 0)  -->
<svg version="1.1" id="Layer_1" xmlns="http://www.w3.org/2000/svg" xmlns:xlink="http://www.w3.org/1999/xlink" x="0px" y="0px"
	 viewBox="0 0 1080 1080" style="enable-background:new 0 0 1080 1080;" xml:space="preserve">
<style type="text/css">
	.st0{fill:#4F46E5;}
	.st1{fill:#FFFFFF;}
</style>
<g>
	<circle class="st0" cx="539.5" cy="539.5" r="540.5"/>
</g>
<path class="st1" d="M266.6,536c0,112,65.1,208.8,159.5,254.6l-135-369.8C275.4,456,266.6,495,266.6,536z M740.6,521.7
	c0-35-12.6-59.2-23.3-78c-14.3-23.3-27.8-43-27.8-66.4c0-26,19.7-50.2,47.5-50.2c1.2,0,2.4,0.2,3.6,0.2
	C690.3,281.2,623.3,253,549.6,253c-98.9,0-185.9,50.8-236.4,127.6c6.7,0.2,12.9,0.4,18.2,0.4c29.6,0,75.4-3.6,75.4-3.6
	c15.2-0.9,17,21.5,1.8,23.3c0,0-15.3,1.8-32.4,2.7l103.1,306.5l61.9-185.7l-44.1-120.8c-15.2-0.9-29.7-2.7-29.7-2.7
	c-15.3-0.9-13.4-24.2,1.8-23.3c0,0,46.7,3.6,74.5,3.6c29.6,0,75.5-3.6,75.5-3.6c15.2-0.9,17,21.5,1.7,23.3c0,0-15.3,1.8-32.4,2.7
	l102.3,304.2l28.2-94.3C733.4,576.4,740.6,546,740.6,521.7z M554.6,560.8l-84.9,246.7c25.3,7.4,52.1,11.5,80,11.5
	c32.9,0,64.6-5.7,94-16.1c-0.8-1.2-1.5-2.5-2-3.9L554.6,560.8z M797.9,400.2c1.3,9,2,18.7,2,29.1c0,28.7-5.4,61-21.5,101.4
	l-86.4,249.9c84.1-49,140.7-140.2,140.7-244.6C832.5,486.8,820,440.5,797.9,400.2z"/>
</svg>
