<?xml version="1.0" encoding="utf-8"?>
<!-- Generator: Adobe Illustrator 22.1.0, SVG Export Plug-In . SVG Version: 6.00 Build 0)  -->
<svg version="1.1" id="Layer_1" xmlns="http://www.w3.org/2000/svg" xmlns:xlink="http://www.w3.org/1999/xlink" x="0px" y="0px"
	 viewBox="0 0 448 512" style="enable-background:new 0 0 448 512;" xml:space="preserve">
<style type="text/css">
	.st0{fill:#4F46E5;}
	.st1{fill:#FFFFFF;}
</style>
<path class="st0" d="M416.3,480H31.7C14.3,480,0,465.8,0,448.3V63.7C0,46.3,14.3,32,31.7,32h384.7c17.4,0,31.7,14.3,31.7,31.7v384.7
	C448,465.8,433.8,480,416.3,480z"/>
<g>
	<g>
		<path class="st1" d="M372.4,123.7h-6.5c-1.6-2.2-3.3-4.4-5.3-6.3c-9.1-9.1-21.2-14.1-34.1-14.1c-12.1,0-23.5,4.5-32.4,12.6
			c-5.7-5.3-12.5-10.2-20.3-14.3c-18.8-9.9-38.9-13.1-53.9-8.5c-8,2.5-14,7.1-17.4,13.4c-2.7,5-3.5,10.9-2.4,17.2h-62.5
			c-10.5,0-19,8.5-19,19v109.7c-1.7-0.2-3.5-0.3-5.3-0.3c-12.9,0-25,5-34.1,14.2c-9.1,9.1-14.1,21.2-14.1,34.1
			c0,12.1,4.5,23.5,12.6,32.4c-5.3,5.7-10.2,12.5-14.3,20.3c-9.9,18.8-13.1,38.9-8.5,53.9c2.5,8,7.1,14,13.4,17.4
			c6.3,3.3,13.9,3.8,21.9,1.3c13.6-4.2,27.1-16.2,36.9-32.5c3,2,6.5,3.3,10.5,3.3h234.6c10.5,0,19-8.5,19-19V142.8
			C391.4,132.3,382.9,123.7,372.4,123.7z M324.7,111.2c11.2,0,21.9,4.4,29.8,12.3c8,8,12.4,18.6,12.4,29.8c0,3.9-0.6,7.8-1.6,11.4
			l-52-52C316.9,111.8,320.8,111.2,324.7,111.2z M351.6,186.1l-3,3L327.4,168c2.5,0.4,5,1.3,7.5,2.6
			C340.9,173.8,346.6,179.2,351.6,186.1z M341,165.2c-0.8-0.5-1.6-1.1-2.4-1.5c-6.4-3.4-12.9-4.5-18.9-3.5l-7-7
			c0.5-7.2-1.7-15-6.3-22.7L341,165.2z M307.3,179.1c0.8-1.5,1.7-2.8,2.6-4.1l26.3,26.3l-7.6,7.6c-0.2,0.2-0.4,0.4-0.6,0.6
			l-23.5-23.5C305.3,183.6,306.2,181.3,307.3,179.1z M292.8,125.7c5.6,6.2,9.5,12.7,11.3,18.9l-15.1-15.1L292.8,125.7z M299.1,164.3
			c-2.4,2.1-5.3,3.8-8.9,4.9c-0.7,0.2-1.4,0.3-2.1,0.5L268.5,150c0.2-0.2,0.3-0.4,0.5-0.6l7.6-7.6L299.1,164.3z M209.6,110.2
			c2.3-4.5,6.8-7.8,12.8-9.6c12.8-4,31.2-0.9,47.9,7.9c7,3.7,13.1,8.1,18.2,12.9L262.9,147c-5.3,5.3-9.1,11.6-11.4,18.4
			c-3.1-1.2-6.1-2.5-9.1-4.1c-16.7-8.9-29.6-22.3-33.5-35.1C206.9,120.1,207.2,114.6,209.6,110.2z M262.8,169
			c-1.5-0.4-3-0.8-4.5-1.2c0.2-0.8,0.5-1.7,0.7-2.5L262.8,169z M132.5,291.9c3.2-6,8.6-11.7,15.5-16.6l3,3l-21.1,21.1
			C130.4,297,131.2,294.5,132.5,291.9z M148.1,322.4c-2.5-0.7-4.9-1.6-7-2.7c-1.5-0.8-2.9-1.7-4.1-2.6l26.3-26.3l7.6,7.6
			c0.2,0.2,0.4,0.4,0.6,0.6L148.1,322.4z M180.9,314.1c1,2.7,1.6,5.6,2,8.4c-4.1,0.9-8.2,1.5-12.2,1.8L180.9,314.1z M122.2,307.2
			l-7,7c-7.2-0.6-15,1.7-22.7,6.3l34.6-34.6c-0.5,0.8-1.1,1.6-1.5,2.4C122.3,294.7,121.1,301.2,122.2,307.2z M106.5,322.9l-15,15.1
			l-3.8-3.8C93.8,328.5,100.3,324.6,106.5,322.9z M74.7,313.7c-1-3.7-1.6-7.5-1.6-11.5c0-11.2,4.4-21.8,12.3-29.8
			s18.5-12.4,29.8-12.4c3.9,0,7.8,0.6,11.5,1.6L74.7,313.7z M123.2,384.6c-8.9,16.7-22.3,29.6-35.1,33.5c-6,1.9-11.5,1.6-16-0.8
			c-4.4-2.3-7.8-6.8-9.6-12.8c-4-12.9-0.9-31.2,7.9-47.9c3.7-7,8.1-13.1,12.9-18.2l25.6,25.6c5.3,5.3,11.6,9.1,18.4,11.5
			C126.1,378.5,124.8,381.6,123.2,384.6z M129.7,368.6c-0.9-0.2-1.7-0.5-2.5-0.8l3.7-3.7C130.6,365.6,130.2,367.1,129.7,368.6z
			 M112,358.5c-0.2-0.2-0.4-0.4-0.6-0.6l-7.6-7.6l22.5-22.5c2.1,2.4,3.8,5.3,4.9,8.9c0.2,0.7,0.3,1.4,0.5,2.1L112,358.5z
			 M137.4,326.5c1.4,0.8,2.9,1.4,4.5,2l-4.1,4.1c-1.2-3.2-2.7-6.1-4.5-8.6C134.6,324.9,136,325.8,137.4,326.5z M141.2,370.2
			c-1.3,0-2.5,0-3.7-0.1c1.5-5.2,2.5-10.4,2.9-15.4l7.8-7.8c-1.1,5.1,0.3,10.6,4.4,14.6l7.5,4.3
			C154.2,368.7,147.8,370.2,141.2,370.2z M160.2,334.9l2.4-2.4c6.6,0.2,13.5-0.5,20.6-2c-0.3,5.7-1.7,11.1-4.1,16.1l-4.5-7.5
			C170.6,335.2,165.2,333.8,160.2,334.9z M166.9,371.7c0.6-0.4,1.3-0.6,1.8-1l13.7-13.9l21.6,35.9L166.9,371.7z M229.1,292.5
			c-6.2,11.7-21,22.4-38.8,28.1c-1.8-9.3-6.4-17.9-13.2-24.7L153.2,272c5.7-3.4,12-6.2,18.8-8.3c27.4-8.4,54.6-2.5,59.4,13
			C232.9,281.4,232.1,286.9,229.1,292.5z M235,243.9l21.1-37.4c0,0.1,0.1,0.2,0.1,0.3l15.3,15L235,243.9z M265.4,190.6l-4.3,7.5
			c-2.9-5.8-4.5-12.2-4.5-18.9c0-1.3,0-2.5,0.1-3.7c5.2,1.5,10.4,2.5,15.4,3l7.8,7.8C274.9,185.1,269.3,186.5,265.4,190.6z
			 M280.4,217.1l7.5-4.5c3.8-3.9,5.2-9.3,4.1-14.3l2.4,2.4c-0.2,6.6,0.5,13.5,2,20.6C290.8,220.9,285.4,219.5,280.4,217.1z
			 M298.4,180l-4-4.1c3.2-1.2,6.1-2.6,8.6-4.5c-0.9,1.3-1.8,2.7-2.5,4.1C299.6,176.9,299,178.5,298.4,180z M302.5,208.7l10.2,10.3
			c-2.7,1-5.6,1.6-8.4,2C303.4,216.8,302.8,212.7,302.5,208.7z M350.3,269.5c-4.8,1.5-10.3,0.7-15.9-2.2
			c-11.7-6.2-22.4-21-28.1-38.8c9.3-1.8,17.9-6.3,24.7-13.2l23.9-23.9c3.3,5.7,6.2,12,8.3,18.8C371.7,237.5,365.7,264.7,350.3,269.5
			z"/>
	</g>
</g>
</svg>
