<?xml version="1.0" encoding="utf-8"?>
<!-- Generator: Adobe Illustrator 22.1.0, SVG Export Plug-In . SVG Version: 6.00 Build 0)  -->
<svg version="1.1" id="Layer_1" xmlns="http://www.w3.org/2000/svg" xmlns:xlink="http://www.w3.org/1999/xlink" x="0px" y="0px"
	 viewBox="0 0 1920 384" style="enable-background:new 0 0 1920 384;" xml:space="preserve">
<style type="text/css">
	.st0{fill:#4F46E5;}
	.st1{fill:#FFFFFF;}
</style>
<g>
	
		<ellipse transform="matrix(6.628761e-03 -1 1 6.628761e-03 441.9902 840.0491)" class="st0" cx="643.8" cy="197.6" rx="140.2" ry="135.2"/>
</g>
<path class="st1" d="M504.1,197.6c0-75.1,60.9-126.4,139.7-126.4c78.9,0,139.7,51.3,139.7,126.4c0,75.1-60.9,126.4-139.7,126.4
	C564.9,324,504.1,272.7,504.1,197.6z M705,197.6c0-34.1-24.1-61.2-61.2-61.2c-37.1,0-61.2,27.1-61.2,61.2
	c0,34.1,24.1,61.2,61.2,61.2C680.9,258.8,705,231.6,705,197.6z"/>
<g>
	<g>
		<path class="st0" d="M12.6,198.2c0-84.3,65-135.8,144.5-135.8c62.6,0,98.8,34.6,115.4,68.5l-66.9,34.3
			c-7.5-16.1-24.8-32.7-48.4-32.7c-38.2,0-63.8,29.1-63.8,65.7c0,36.6,25.6,65.7,63.8,65.7c15,0,32.7-5.5,40.9-11.8v-9.4l-48.8,0
			l0-69.3l128,0l0,107.5C248,313.2,208.7,334,157.1,334C77.6,334,12.6,282.1,12.6,198.2z"/>
		<path class="st0" d="M312.6,329.3l0-262.6l79.5,0l0,193.3l99.6,0l0,69.3L312.6,329.3z"/>
		<path class="st0" d="M1009.9,329.3L976,180.5l-33.9,148.8l-83.5,0L783.5,66.7l89,0l33.9,160.6l39.8-160.6l59.8,0l39.8,160.6
			l33.5-160.6l89.4,0l-75.2,262.6L1009.9,329.3z"/>
		<path class="st0" d="M1329.6,329.3l-36.2-82.7l-28.7,0l0,82.7l-79.5,0l0-262.6l140.2,0c61.4,0,94.5,40.9,94.5,90.2
			c0,45.3-26.4,69.3-47.2,79.5l47.6,92.9L1329.6,329.3z M1339,156.5c0-14.2-12.6-20.5-26-20.5l-48.4,0l0,41.3l48.4,0
			C1326.4,177.3,1339,171,1339,156.5z"/>
		<path class="st0" d="M1452,329.3l0-262.6l199.2,0l0,69.3l-119.7,0v26l116.9,0l0,69.3l-116.9,0V260l119.7,0l0,69.3L1452,329.3z"/>
		<path class="st0" d="M1666.6,292.3l41.3-59.1c19.7,18.9,49.2,33.9,84.6,33.9c15,0,29.1-3.9,29.1-14.2
			c0-25.2-146.5,0.4-146.5-103.1c0-44.5,37-87,109.1-87c42.9,0,81.5,12.2,111.4,36.6l-42.5,56.3c-22.8-17.3-52.4-26-77.2-26
			c-15.7,0-20.1,5.1-20.1,11.8c0,24.8,146.1,3.5,146.1,101.2c0,57.9-42.9,91.3-113.4,91.3C1732.7,334,1694.5,317.5,1666.6,292.3z"/>
	</g>
	<g>
		<path class="st0" d="M12.6,198.2c0-84.3,65-135.8,144.5-135.8c62.6,0,98.8,34.6,115.4,68.5l-66.9,34.3
			c-7.5-16.1-24.8-32.7-48.4-32.7c-38.2,0-63.8,29.1-63.8,65.7c0,36.6,25.6,65.7,63.8,65.7c15,0,32.7-5.5,40.9-11.8v-9.4l-48.8,0
			l0-69.3l128,0l0,107.5C248,313.2,208.7,334,157.1,334C77.6,334,12.6,282.1,12.6,198.2z"/>
		<path class="st0" d="M312.6,329.3l0-262.6l79.5,0l0,193.3l99.6,0l0,69.3L312.6,329.3z"/>
		<path class="st0" d="M1009.9,329.3L976,180.5l-33.9,148.8l-83.5,0L783.5,66.7l89,0l33.9,160.6l39.8-160.6l59.8,0l39.8,160.6
			l33.5-160.6l89.4,0l-75.2,262.6L1009.9,329.3z"/>
		<path class="st0" d="M1329.6,329.3l-36.2-82.7l-28.7,0l0,82.7l-79.5,0l0-262.6l140.2,0c61.4,0,94.5,40.9,94.5,90.2
			c0,45.3-26.4,69.3-47.2,79.5l47.6,92.9L1329.6,329.3z M1339,156.5c0-14.2-12.6-20.5-26-20.5l-48.4,0l0,41.3l48.4,0
			C1326.4,177.3,1339,171,1339,156.5z"/>
		<path class="st0" d="M1452,329.3l0-262.6l199.2,0l0,69.3l-119.7,0v26l116.9,0l0,69.3l-116.9,0V260l119.7,0l0,69.3L1452,329.3z"/>
		<path class="st0" d="M1666.6,292.3l41.3-59.1c19.7,18.9,49.2,33.9,84.6,33.9c15,0,29.1-3.9,29.1-14.2
			c0-25.2-146.5,0.4-146.5-103.1c0-44.5,37-87,109.1-87c42.9,0,81.5,12.2,111.4,36.6l-42.5,56.3c-22.8-17.3-52.4-26-77.2-26
			c-15.7,0-20.1,5.1-20.1,11.8c0,24.8,146.1,3.5,146.1,101.2c0,57.9-42.9,91.3-113.4,91.3C1732.7,334,1694.5,317.5,1666.6,292.3z"/>
	</g>
</g>
</svg>
