<?xml version="1.0" encoding="utf-8"?>
<!-- Generator: Adobe Illustrator 22.1.0, SVG Export Plug-In . SVG Version: 6.00 Build 0)  -->
<svg version="1.1" xmlns="http://www.w3.org/2000/svg" xmlns:xlink="http://www.w3.org/1999/xlink" x="0px" y="0px"
	 viewBox="0 0 1920 618" style="enable-background:new 0 0 1920 618;" xml:space="preserve">
<style type="text/css">
	.st0{fill:url(#SVGID_1_);}
	.st1{clip-path:url(#SVGID_3_);}
	.st2{fill:#FF9700;}
	.st3{fill:#FFFFFF;}
	.st4{clip-path:url(#SVGID_3_);fill:#FFFFFF;}
	.st5{clip-path:url(#SVGID_3_);fill:#FF9700;}
	.st6{opacity:0.5;clip-path:url(#SVGID_3_);}
	.st7{clip-path:url(#SVGID_3_);fill:none;stroke:#FFFFFF;stroke-width:0.25;stroke-miterlimit:10;}
	.st8{clip-path:url(#SVGID_3_);fill:none;stroke:#FFFFFF;stroke-width:0.483;stroke-miterlimit:10;}
	.st9{fill:none;stroke:#FFFFFF;stroke-width:0.5098;stroke-miterlimit:10;}
	.st10{opacity:0.9375;fill:none;stroke:#FFFFFF;stroke-width:0.5098;stroke-miterlimit:10;}
	.st11{opacity:0.875;fill:none;stroke:#FFFFFF;stroke-width:0.5098;stroke-miterlimit:10;}
	.st12{opacity:0.8125;fill:none;stroke:#FFFFFF;stroke-width:0.5098;stroke-miterlimit:10;}
	.st13{opacity:0.75;fill:none;stroke:#FFFFFF;stroke-width:0.5098;stroke-miterlimit:10;}
	.st14{opacity:0.6875;fill:none;stroke:#FFFFFF;stroke-width:0.5098;stroke-miterlimit:10;}
	.st15{opacity:0.625;fill:none;stroke:#FFFFFF;stroke-width:0.5098;stroke-miterlimit:10;}
	.st16{opacity:0.5625;fill:none;stroke:#FFFFFF;stroke-width:0.5098;stroke-miterlimit:10;}
	.st17{opacity:0.5;fill:none;stroke:#FFFFFF;stroke-width:0.5098;stroke-miterlimit:10;}
	.st18{opacity:0.4375;fill:none;stroke:#FFFFFF;stroke-width:0.5098;stroke-miterlimit:10;}
	.st19{opacity:0.375;fill:none;stroke:#FFFFFF;stroke-width:0.5098;stroke-miterlimit:10;}
	.st20{opacity:0.3125;fill:none;stroke:#FFFFFF;stroke-width:0.5098;stroke-miterlimit:10;}
	.st21{opacity:0.25;fill:none;stroke:#FFFFFF;stroke-width:0.5098;stroke-miterlimit:10;}
	.st22{opacity:0.1875;fill:none;stroke:#FFFFFF;stroke-width:0.5098;stroke-miterlimit:10;}
	.st23{opacity:0.125;fill:none;stroke:#FFFFFF;stroke-width:0.5098;stroke-miterlimit:10;}
	.st24{opacity:6.250000e-02;fill:none;stroke:#FFFFFF;stroke-width:0.5098;stroke-miterlimit:10;}
	.st25{opacity:0;fill:none;stroke:#FFFFFF;stroke-width:0.5098;stroke-miterlimit:10;}
	.st26{fill:none;stroke:#FFFFFF;stroke-width:0.6748;stroke-miterlimit:10;}
	.st27{opacity:0.9375;fill:none;stroke:#FFFFFF;stroke-width:0.6748;stroke-miterlimit:10;}
	.st28{opacity:0.875;fill:none;stroke:#FFFFFF;stroke-width:0.6748;stroke-miterlimit:10;}
	.st29{opacity:0.8125;fill:none;stroke:#FFFFFF;stroke-width:0.6748;stroke-miterlimit:10;}
	.st30{opacity:0.75;fill:none;stroke:#FFFFFF;stroke-width:0.6748;stroke-miterlimit:10;}
	.st31{opacity:0.6875;fill:none;stroke:#FFFFFF;stroke-width:0.6748;stroke-miterlimit:10;}
	.st32{opacity:0.625;fill:none;stroke:#FFFFFF;stroke-width:0.6748;stroke-miterlimit:10;}
	.st33{opacity:0.5625;fill:none;stroke:#FFFFFF;stroke-width:0.6748;stroke-miterlimit:10;}
	.st34{opacity:0.5;fill:none;stroke:#FFFFFF;stroke-width:0.6748;stroke-miterlimit:10;}
	.st35{opacity:0.4375;fill:none;stroke:#FFFFFF;stroke-width:0.6748;stroke-miterlimit:10;}
	.st36{opacity:0.375;fill:none;stroke:#FFFFFF;stroke-width:0.6748;stroke-miterlimit:10;}
	.st37{opacity:0.3125;fill:none;stroke:#FFFFFF;stroke-width:0.6748;stroke-miterlimit:10;}
	.st38{opacity:0.25;fill:none;stroke:#FFFFFF;stroke-width:0.6748;stroke-miterlimit:10;}
	.st39{opacity:0.1875;fill:none;stroke:#FFFFFF;stroke-width:0.6748;stroke-miterlimit:10;}
	.st40{opacity:0.125;fill:none;stroke:#FFFFFF;stroke-width:0.6748;stroke-miterlimit:10;}
	.st41{opacity:6.250000e-02;fill:none;stroke:#FFFFFF;stroke-width:0.6748;stroke-miterlimit:10;}
	.st42{opacity:0;fill:none;stroke:#FFFFFF;stroke-width:0.6748;stroke-miterlimit:10;}
	.st43{fill:#E8E8E8;}
	.st44{opacity:0.5;fill:#E8E8E8;}
	.st45{fill:#B5BFC7;}
	.st46{fill:#131F2D;}
	.st47{fill:#FD7955;}
	.st48{fill:#364154;}
	.st49{fill:#D87F09;}
	.st50{fill:#ED6343;}
	.st51{fill:#A9C2FF;}
	.st52{fill:#214A80;}
	.st53{fill:#E8F2FA;}
</style>
<g id="Layer_1">
	<linearGradient id="SVGID_1_" gradientUnits="userSpaceOnUse" x1="0" y1="309" x2="1920" y2="309">
		<stop  offset="0" style="stop-color:#4F46E5"/>
		<stop  offset="1" style="stop-color:#000000"/>
	</linearGradient>
	<path class="st0" d="M1858.5,618H61.5C27.5,618,0,590.5,0,556.5v-495C0,27.5,27.5,0,61.5,0h1797c34,0,61.5,27.5,61.5,61.5v495
		C1920,590.5,1892.5,618,1858.5,618z"/>
	<g>
		<defs>
			<rect id="SVGID_2_" x="4" width="1916" height="616.7"/>
		</defs>
		<clipPath id="SVGID_3_">
			<use xlink:href="#SVGID_2_"  style="overflow:visible;"/>
		</clipPath>
		<g class="st1">
			<g>
				<path class="st2" d="M47.2,498.8c25.7,7.9,45.4,24.7,64.1,43.4c18,18,35.8,36.9,59.1,47.9c48.2,22.6,104.8,11.1,152.1-8.2
					c52.8-21.6,102.3-54.1,159.4-63.6c28-4.7,57.9-2.4,82.3,13.2c20.2,12.9,31.1,33.4,35.7,56.5c2.6,13.1,3.5,26.4,4.2,39.7h6.1
					c-0.2-3.8-0.4-7.5-0.7-11.3c-1.5-21.8-4.5-44.5-15.9-63.5c-13-21.7-36.1-35.4-60.5-40.4c-29.8-6.1-60.7-0.3-89.2,9.2
					c-27.4,9.1-53.4,22-79.4,34.5C315,579.9,260,604.1,203.6,594c-13.2-2.4-26-6.7-37.7-13.3c-11.5-6.5-21.7-15-31.3-24.1
					c-18.7-17.8-35.7-38-58-51.5c-23.1-13.9-51-20-77.8-17.2c0,0-0.1,0-0.1,0v6.3C14.9,492.4,31.5,494,47.2,498.8z"/>
			</g>
		</g>
		<g class="st1">
			<path class="st3" d="M80,591.9c59,22,124,1.2,168.1-20.1c22.7-11,44.8-24,66.2-36.6c27.7-16.3,56.3-33.2,86.4-45.7
				c29.4-12.2,104-36.6,161.5,1.5c33.1,21.9,56.1,62.4,68.4,120.2c1.2,5.4,2.2,11,3.2,16.5h1.3c-1-5.6-2.1-11.2-3.3-16.7
				c-12.3-58.2-35.5-98.9-68.9-121c-58.1-38.4-133.1-13.9-162.7-1.6c-30.2,12.6-58.9,29.5-86.6,45.8c-21.4,12.6-43.5,25.6-66.1,36.6
				c-43.9,21.2-108.5,42-167.1,20.1c-20.9-7.8-39.9-20.7-58.3-33.1c-7.7-5.2-15.5-10.4-23.4-15.4v1.4c7.7,4.8,15.3,9.9,22.7,14.9
				C39.9,571.1,59,584,80,591.9z"/>
		</g>
		<polygon class="st4" points="228.4,506.2 219.8,506.2 219.8,497.6 214.3,497.6 214.3,506.2 205.7,506.2 205.7,511.8 214.3,511.8 
			214.3,520.4 219.8,520.4 219.8,511.8 228.4,511.8 		"/>
		<polygon class="st5" points="529,549.6 520.6,549.6 520.6,541.2 515.2,541.2 515.2,549.6 506.7,549.6 506.7,555 515.2,555 
			515.2,563.5 520.6,563.5 520.6,555 529,555 		"/>
		<polygon class="st5" points="908,205.1 897.2,205.1 897.2,194.3 890.3,194.3 890.3,205.1 879.5,205.1 879.5,212 890.3,212 
			890.3,222.8 897.2,222.8 897.2,212 908,212 		"/>
		<polygon class="st5" points="440,128.1 429.2,128.1 429.2,117.3 422.3,117.3 422.3,128.1 411.5,128.1 411.5,135.1 422.3,135.1 
			422.3,145.8 429.2,145.8 429.2,135.1 440,135.1 		"/>
		<polygon class="st4" points="932,396 908.9,396 908.9,373 894.1,373 894.1,396 871.1,396 871.1,410.9 894.1,410.9 894.1,433.9 
			908.9,433.9 908.9,410.9 932,410.9 		"/>
		<polygon class="st4" points="632.6,51.1 626.8,51.1 626.8,45.3 623,45.3 623,51.1 617.2,51.1 617.2,54.9 623,54.9 623,60.7 
			626.8,60.7 626.8,54.9 632.6,54.9 		"/>
		<g class="st6">
			<g>
				<circle class="st3" cx="81.1" cy="157.6" r="1.5"/>
				<circle class="st2" cx="102.9" cy="157.6" r="1.5"/>
				<circle class="st2" cx="124.6" cy="157.6" r="1.5"/>
				<path class="st3" d="M147.9,157.6c0,0.8-0.7,1.5-1.5,1.5c-0.8,0-1.5-0.7-1.5-1.5s0.7-1.5,1.5-1.5
					C147.2,156.1,147.9,156.8,147.9,157.6z"/>
				<circle class="st2" cx="168.2" cy="157.6" r="1.5"/>
				<circle class="st2" cx="190" cy="157.6" r="1.5"/>
				<circle class="st2" cx="211.8" cy="157.6" r="1.5"/>
				<circle class="st2" cx="233.5" cy="157.6" r="1.5"/>
				<circle class="st2" cx="255.3" cy="157.6" r="1.5"/>
			</g>
			<g>
				<circle class="st2" cx="81.1" cy="172.3" r="1.5"/>
				<circle class="st2" cx="102.9" cy="172.3" r="1.5"/>
				<circle class="st2" cx="124.6" cy="172.3" r="1.5"/>
				<path class="st2" d="M147.9,172.3c0,0.8-0.7,1.5-1.5,1.5c-0.8,0-1.5-0.7-1.5-1.5s0.7-1.5,1.5-1.5
					C147.2,170.8,147.9,171.5,147.9,172.3z"/>
				<circle class="st2" cx="168.2" cy="172.3" r="1.5"/>
				<circle class="st3" cx="190" cy="172.3" r="1.5"/>
				<circle class="st2" cx="211.8" cy="172.3" r="1.5"/>
				<circle class="st2" cx="233.5" cy="172.3" r="1.5"/>
				<circle class="st3" cx="255.3" cy="172.3" r="1.5"/>
			</g>
			<g>
				<circle class="st2" cx="81.1" cy="186.9" r="1.5"/>
				<circle class="st3" cx="102.9" cy="186.9" r="1.5"/>
				<circle class="st2" cx="124.6" cy="186.9" r="1.5"/>
				<path class="st2" d="M147.9,186.9c0,0.8-0.7,1.5-1.5,1.5c-0.8,0-1.5-0.7-1.5-1.5s0.7-1.5,1.5-1.5
					C147.2,185.4,147.9,186.1,147.9,186.9z"/>
				<circle class="st2" cx="168.2" cy="186.9" r="1.5"/>
				<circle class="st2" cx="190" cy="186.9" r="1.5"/>
				<circle class="st3" cx="211.8" cy="186.9" r="1.5"/>
				<circle class="st2" cx="233.5" cy="186.9" r="1.5"/>
				<circle class="st2" cx="255.3" cy="186.9" r="1.5"/>
			</g>
			<g>
				<circle class="st2" cx="81.1" cy="201.6" r="1.5"/>
				<circle class="st2" cx="102.9" cy="201.6" r="1.5"/>
				<circle class="st3" cx="124.6" cy="201.6" r="1.5"/>
				<path class="st2" d="M147.9,201.6c0,0.8-0.7,1.5-1.5,1.5c-0.8,0-1.5-0.7-1.5-1.5s0.7-1.5,1.5-1.5
					C147.2,200.1,147.9,200.7,147.9,201.6z"/>
				<circle class="st3" cx="168.2" cy="201.6" r="1.5"/>
				<circle class="st2" cx="190" cy="201.6" r="1.5"/>
				<circle class="st2" cx="211.8" cy="201.6" r="1.5"/>
				<circle class="st2" cx="233.5" cy="201.6" r="1.5"/>
				<circle class="st2" cx="255.3" cy="201.6" r="1.5"/>
				<path class="st2" d="M361.3,260.4c0,0.8-0.7,1.5-1.5,1.5s-1.5-0.7-1.5-1.5c0-0.8,0.7-1.5,1.5-1.5S361.3,259.5,361.3,260.4z"/>
				<path class="st2" d="M649.7,531.6c0,0.8-0.7,1.5-1.5,1.5c-0.8,0-1.5-0.7-1.5-1.5c0-0.8,0.7-1.5,1.5-1.5
					C649,530.1,649.7,530.8,649.7,531.6z"/>
				<path class="st2" d="M115.5,76.1c0,0.8-0.7,1.5-1.5,1.5c-0.8,0-1.5-0.7-1.5-1.5c0-0.8,0.7-1.5,1.5-1.5
					C114.8,74.6,115.5,75.3,115.5,76.1z"/>
				<path class="st2" d="M299.7,60.7c0,0.8-0.7,1.5-1.5,1.5s-1.5-0.7-1.5-1.5s0.7-1.5,1.5-1.5S299.7,59.9,299.7,60.7z"/>
				<circle class="st2" cx="123.1" cy="413.4" r="1.5"/>
				<circle class="st2" cx="876.9" cy="308.3" r="1.5"/>
			</g>
			<g>
				<circle class="st2" cx="81.1" cy="216.2" r="1.5"/>
				<circle class="st2" cx="102.9" cy="216.2" r="1.5"/>
				<circle class="st2" cx="124.6" cy="216.2" r="1.5"/>
				<path class="st2" d="M147.9,216.2c0,0.8-0.7,1.5-1.5,1.5c-0.8,0-1.5-0.7-1.5-1.5s0.7-1.5,1.5-1.5
					C147.2,214.7,147.9,215.4,147.9,216.2z"/>
				<circle class="st2" cx="168.2" cy="216.2" r="1.5"/>
				<circle class="st2" cx="190" cy="216.2" r="1.5"/>
				<circle class="st2" cx="211.8" cy="216.2" r="1.5"/>
				<circle class="st3" cx="233.5" cy="216.2" r="1.5"/>
				<path class="st3" d="M749.2,254.1c0,0.8-0.7,1.5-1.5,1.5c-0.8,0-1.5-0.7-1.5-1.5c0-0.8,0.7-1.5,1.5-1.5
					C748.5,252.6,749.2,253.3,749.2,254.1z"/>
				<circle class="st3" cx="255.3" cy="216.2" r="1.5"/>
				<circle class="st3" cx="425.1" cy="503.2" r="1.5"/>
				<circle class="st3" cx="598.4" cy="401.2" r="1.5"/>
				<circle class="st3" cx="753.9" cy="589.3" r="1.5"/>
				<path class="st3" d="M522.7,126.5c0,0.8-0.7,1.5-1.5,1.5c-0.8,0-1.5-0.7-1.5-1.5c0-0.8,0.7-1.5,1.5-1.5
					C522.1,125,522.7,125.7,522.7,126.5z"/>
			</g>
		</g>
		<circle class="st7" cx="217" cy="507.7" r="52"/>
		<circle class="st8" cx="424.3" cy="131.6" r="54.7"/>
		<g class="st1">
			<polygon class="st9" points="990.8,546.3 1001,536.1 974.7,509.8 1001,483.5 990.8,473.3 954.3,509.8 			"/>
			<polygon class="st10" points="953.8,509.8 980.1,483.5 969.9,473.3 933.4,509.8 969.9,546.3 980.1,536.1 			"/>
			<polygon class="st11" points="932.9,509.8 959.1,483.5 948.9,473.3 912.5,509.8 948.9,546.3 959.1,536.1 			"/>
			<polygon class="st12" points="911.9,509.8 938.2,483.5 928,473.3 891.5,509.8 928,546.3 938.2,536.1 			"/>
			<polygon class="st13" points="891,509.8 917.2,483.5 907,473.3 870.6,509.8 907,546.3 917.2,536.1 			"/>
			<polygon class="st14" points="870,509.8 896.3,483.5 886.1,473.3 849.6,509.8 886.1,546.3 896.3,536.1 			"/>
			<polygon class="st15" points="849.1,509.8 875.4,483.5 865.2,473.3 828.7,509.8 865.2,546.3 875.4,536.1 			"/>
			<polygon class="st16" points="828.2,509.8 854.4,483.5 844.2,473.3 807.8,509.8 844.2,546.3 854.4,536.1 			"/>
			<polygon class="st17" points="807.2,509.8 833.5,483.5 823.3,473.3 786.8,509.8 823.3,546.3 833.5,536.1 			"/>
			<polygon class="st18" points="786.3,509.8 812.6,483.5 802.3,473.3 765.9,509.8 802.3,546.3 812.6,536.1 			"/>
			<polygon class="st19" points="765.4,509.8 791.6,483.5 781.4,473.3 744.9,509.8 781.4,546.3 791.6,536.1 			"/>
			<polygon class="st20" points="744.4,509.8 770.7,483.5 760.5,473.3 724,509.8 760.5,546.3 770.7,536.1 			"/>
			<polygon class="st21" points="723.5,509.8 749.7,483.5 739.5,473.3 703.1,509.8 739.5,546.3 749.7,536.1 			"/>
			<polygon class="st22" points="702.5,509.8 728.8,483.5 718.6,473.3 682.1,509.8 718.6,546.3 728.8,536.1 			"/>
			<polygon class="st23" points="681.6,509.8 707.9,483.5 697.7,473.3 661.2,509.8 697.7,546.3 707.9,536.1 			"/>
			<polygon class="st24" points="660.7,509.8 686.9,483.5 676.7,473.3 640.3,509.8 676.7,546.3 686.9,536.1 			"/>
			<polygon class="st25" points="655.8,546.3 666,536.1 639.7,509.8 666,483.5 655.8,473.3 619.3,509.8 			"/>
		</g>
	</g>
	<g>
		<polygon class="st26" points="622.1,100.1 613.4,108.8 635.8,131.3 613.4,153.7 622.1,162.4 653.3,131.3 		"/>
		<polygon class="st27" points="653.7,131.3 631.3,153.7 640,162.4 671.2,131.3 640,100.1 631.3,108.8 		"/>
		<polygon class="st28" points="671.6,131.3 649.2,153.7 657.9,162.4 689.1,131.3 657.9,100.1 649.2,108.8 		"/>
		<polygon class="st29" points="689.5,131.3 667.1,153.7 675.8,162.4 707,131.3 675.8,100.1 667.1,108.8 		"/>
		<polygon class="st30" points="707.4,131.3 685,153.7 693.7,162.4 724.8,131.3 693.7,100.1 685,108.8 		"/>
		<polygon class="st31" points="725.3,131.3 702.9,153.7 711.6,162.4 742.7,131.3 711.6,100.1 702.9,108.8 		"/>
		<polygon class="st32" points="743.2,131.3 720.8,153.7 729.5,162.4 760.6,131.3 729.5,100.1 720.8,108.8 		"/>
		<polygon class="st33" points="761.1,131.3 738.6,153.7 747.4,162.4 778.5,131.3 747.4,100.1 738.6,108.8 		"/>
		<polygon class="st34" points="779,131.3 756.5,153.7 765.3,162.4 796.4,131.3 765.3,100.1 756.5,108.8 		"/>
		<polygon class="st35" points="796.9,131.3 774.4,153.7 783.2,162.4 814.3,131.3 783.2,100.1 774.4,108.8 		"/>
		<polygon class="st36" points="814.8,131.3 792.3,153.7 801.1,162.4 832.2,131.3 801.1,100.1 792.3,108.8 		"/>
		<polygon class="st37" points="832.7,131.3 810.2,153.7 818.9,162.4 850.1,131.3 818.9,100.1 810.2,108.8 		"/>
		<polygon class="st38" points="850.6,131.3 828.1,153.7 836.8,162.4 868,131.3 836.8,100.1 828.1,108.8 		"/>
		<polygon class="st39" points="868.5,131.3 846,153.7 854.7,162.4 885.9,131.3 854.7,100.1 846,108.8 		"/>
		<polygon class="st40" points="886.4,131.3 863.9,153.7 872.6,162.4 903.8,131.3 872.6,100.1 863.9,108.8 		"/>
		<polygon class="st41" points="904.2,131.3 881.8,153.7 890.5,162.4 921.7,131.3 890.5,100.1 881.8,108.8 		"/>
		<polygon class="st42" points="908.4,100.1 899.7,108.8 922.1,131.3 899.7,153.7 908.4,162.4 939.6,131.3 		"/>
	</g>
</g>
<g id="Layer_2">
	<g>
		<path class="st43" d="M1388.7,185.1l10.5-1.2c0.9-0.1,1.7,0.3,2.2,1.1c0.6,0.9,1.3,1.9,2,2.8c1.3,1.7,2.7,3.2,4.2,4.7
			c0.7,0.7,0.9,1.7,0.6,2.5l-4,10.3c-0.4,1.1,0,2.4,1.1,2.9l9.1,4.5c1,0.5,2.3,0.2,2.9-0.8l5.5-8.6c0.5-0.8,1.5-1.2,2.5-1
			c4.2,1.1,8.5,1.5,12.8,1.3c1-0.1,2,0.6,2.3,1.6l1.9,5.9c0.4,1.1,1.5,1.8,2.7,1.6l9.8-2c0.2,0,0.4-0.1,0.6-0.2
			c0.9-0.4,1.4-1.3,1.3-2.3l-0.9-7.9l-0.2-1.9c1.6-0.9,3.2-2,4.8-3.2c2.1-1.6,3.9-3.3,5.6-5.2c0.6-0.7,1.6-1,2.5-0.6l8.3,3.3
			c1.1,0.4,2.4-0.1,3-1.1l3.4-6.9l1-2c0.5-1.1,0.2-2.4-0.8-3.1l-7.2-4.6c-0.8-0.5-1.3-1.5-1-2.5c0.7-2.8,1-5.7,1.1-8.6
			c0-0.3,0-0.5,0-0.7c0-0.1,0-0.2,0-0.2c0.1-0.9,0.7-1.7,1.6-2l9.6-3c0.1,0,0.2-0.1,0.3-0.1c0.9-0.5,1.5-1.5,1.3-2.5l-2-9.8
			c-0.2-1.2-1.3-2-2.5-1.9l-11,1.2c-0.9,0.1-1.8-0.4-2.3-1.2c-1-1.8-2.1-3.6-3.4-5.3c-0.7-0.9-1.4-1.8-2.2-2.6
			c-0.6-0.7-0.8-1.6-0.4-2.5l3.9-9.9c0.4-1.1,0-2.3-1.1-2.9l-9-4.4c-1.1-0.5-2.4-0.2-3.1,0.8l-4.3,6.8c-0.6,0.9-1.7,1.3-2.7,1
			c-4-1.4-8.2-2.1-12.4-2.2c-1,0-1.9-0.7-2.2-1.6l-2.7-8.6c-0.4-1.2-1.6-1.9-2.7-1.6l-9.8,2c-1.2,0.2-2,1.3-1.8,2.5l0,0.5l1,9.1
			c0.1,1-0.4,1.9-1.3,2.4l0,0c-2.1,1.1-4.1,2.4-6.1,3.9c-1,0.8-2,1.6-3,2.5c-0.6,0.6-1.6,0.8-2.4,0.5l-8.4-3.3
			c-1.2-0.5-2.5,0.1-3,1.2l-4.4,8.9c-0.1,0.3-0.2,0.5-0.2,0.8c-0.1,0.9,0.3,1.7,1.1,2.2l5.7,3.6c0.7,0.5,1.1,1.2,1.1,2.1
			c0,0.2,0,0.4-0.1,0.6c-1.7,5.1-2.4,10.5-2.1,15.9c0.1,0.9-0.4,1.8-1.2,2.2c-0.1,0.1-0.2,0.1-0.4,0.1l-7.8,2.5
			c-1.1,0.4-1.8,1.5-1.6,2.7l0,0.2l1.9,9.6C1386.4,184.4,1387.5,185.2,1388.7,185.1z M1456,155.2c0.6,1.5,1.1,3.1,1.4,4.9
			c0.6,3.3,0,8.5-1.5,11.6c-0.2,0.3-0.3,0.6-0.5,1c-10.3,19.1-37.3,15.3-41.7-6.3c-0.6-2.8-0.2-6.9,0.8-10.1c0.2-0.7,0.5-1.4,0.8-2
			c1.4-2.7,3.1-5,5-6.9C1431.4,136.7,1449.9,140.2,1456,155.2z"/>
		<path class="st43" d="M1722.8,148.2c-10.1-20.4-45.1-6.4-45.1-6.4s-17.2,42.6-24.2,44.9c-7,2.3,7.6-39.3,7.6-39.3
			c-14.2,1.4-46.2,25.5-46.2,25.5s11,43.5,3.6,44c-7.4,0.5-7.7-39-7.7-39c-12.6,6.7-22.1,24.9-22.1,24.9
			c-10.6,28.7,26.7,40.8,26.7,40.8s3.5,15.2-2.5,34.5l0,0c0,0-1.5,3.7-2.6,9.6l3.7-0.7c0.1-1,0.2-2.1,0.4-3c0,0,0,0,0,0c0,0,0,0,0,0
			c0.1-0.6,0.3-1.5,0.6-2.6c0,0,0,0,0,0c0,0,0,0,0,0c0.7-2.4,1.1-4.2,1.4-5.5c0,0,0,0,0,0c2-7.6,5-17.5,7.9-20c0,0-0.5-0.5-1.1-1.5
			c0.4,0.5,0.7,1,1.1,1.5c8.9,12.2,40.8,8.2,57.5,1.1c16.8-7.1,8.2-10.5-2.8-16.6c-11-6.1-30.3-0.1-36.8-2.1
			c-6.5-2,1.4-6.8,13.3-8.2c11.8-1.4,20,9.1,39.2,7.1c19.2-1.9,26.5-40.2,26.5-40.2c-12.2,6.6-36.9,4.1-38.7-0.2
			c-1.8-4.3,32.8-10.7,37.9-13.1C1725.6,181.2,1732.9,168.6,1722.8,148.2z"/>
		<path class="st43" d="M1145.7,304.7c-4.1-22.4,32.2-32.2,32.2-32.2s39.2,23.8,46.2,21.4c7-2.3-29.6-26.9-29.6-26.9
			c12.2-7.4,52.3-7.3,52.3-7.3s17.3,41.4,23.5,37.4c6.2-4-17.2-35.9-17.2-35.9c14.1-2.2,32.6,6.7,32.6,6.7c25.7,16.6,3,48.7,3,48.7
			s6.3,14.2,22.6,26.1l0,0c0,0,3.4,2,7.8,6.1l-3.4,1.6c-0.7-0.8-1.4-1.5-2.2-2.2c0,0,0,0,0,0c0,0,0,0,0,0c-0.5-0.4-1.2-1-2-1.7
			c0,0,0,0,0,0c0,0,0,0,0,0c-2-1.5-3.4-2.7-4.4-3.5c0,0,0,0,0,0c-6.1-4.9-14.5-11-18.3-11.3c0,0,0.1-0.7,0-1.9c0,0.6,0,1.2,0,1.9
			c0.1,15.1-27.7,31-45.4,35.4c-17.7,4.4-12.8-3.5-7.7-15c5.1-11.5,24.2-18.2,28.2-23.7c4-5.5-5.2-4.6-15.6,1.4
			c-10.3,6-10.6,19.2-27.1,29.2c-16.5,9.9-45.3-16.3-45.3-16.3c13.7-2,32-18.9,30.9-23.4c-1.1-4.5-32.7,11.1-38.2,12.2
			C1163.2,332.8,1149.8,327.1,1145.7,304.7z"/>
		<path class="st43" d="M1744.4,448.2c17.9-14-2.9-45.4-2.9-45.4s-45.2-8.2-48.8-14.6c-3.7-6.4,40-0.5,40-0.5
			c-4.3-13.6-34.3-40.1-34.3-40.1S1658,367.1,1656,360c-2-7.1,36.6-15.5,36.6-15.5c-9.1-11-28.9-16.6-28.9-16.6
			c-30.2-4.6-34.5,34.5-34.5,34.5s-14.1,6.5-34.3,4.6l0,0c0,0-3.9-0.7-9.9-0.6l1.5,3.4c1-0.1,2.1-0.2,3.1-0.2c0,0,0,0,0,0
			c0,0,0,0,0,0c0.6,0,1.5,0,2.6,0.1c0,0,0,0,0,0c0,0,0,0,0,0c2.5,0.2,4.3,0.2,5.6,0.2c0,0,0,0,0,0c7.8,0.4,18.1,1.4,21.2,3.7
			c0,0,0.4-0.6,1.3-1.4c-0.4,0.4-0.8,0.9-1.3,1.4c-10.1,11.2,0.2,41.6,10.5,56.6c10.3,15,11.9,5.9,15.7-6.1c3.8-12-6-29.7-5.4-36.4
			c0.6-6.7,7,0,10.8,11.3c3.8,11.3-4.8,21.4,1,39.8c5.8,18.4,44.7,17.8,44.7,17.8c-9-10.6-11.5-35.3-7.6-38
			c3.9-2.6,17.1,30,20.5,34.5C1712.7,457.6,1726.5,462.2,1744.4,448.2z"/>
		<g>
			<path class="st44" d="M1582,185c0,0,2.1-41.9,21.7-68.1c2.6-3.5,8.2-1.8,8.4,2.6c0,0.1,0,0.1,0,0.2
				C1612.3,127.1,1590.6,160,1582,185z"/>
			<path class="st44" d="M1580.2,197.1c0,0,17.6-53.4,52.3-78.8c2.1-1.6,5.1-1.3,6.8,0.8c1.1,1.3,1.6,3.5,0.8,7
				C1637.8,135.4,1599.5,168.9,1580.2,197.1z"/>
		</g>
		<g>
			<path class="st44" d="M1280.3,253.1c0,0-17.6-30.7-42.3-42.9c-3.3-1.6-6.8,1.8-5.3,5.1c0,0.1,0.1,0.1,0.1,0.2
				C1235.4,221.1,1264.3,237.6,1280.3,253.1z"/>
			<path class="st44" d="M1286.2,261.5c0,0-33.6-33.4-69.4-39.2c-2.2-0.4-4.3,1-4.8,3.2c-0.3,1.4,0.1,3.3,2.1,5.6
				C1219.4,237.1,1261,247.7,1286.2,261.5z"/>
		</g>
		<path class="st45" d="M1668.3,186.8v265.9c0,4.7-3.4,8.4-7.5,8.4h-383.6c-4.1,0-7.5-3.8-7.5-8.4V186.8c0-4.7,3.4-8.4,7.5-8.4
			h383.6C1665,178.4,1668.3,182.1,1668.3,186.8z"/>
		<g>
			<path class="st2" d="M1668.6,171.6v21.6h-399.2v-21.6c0-4.5,3.4-8.1,7.5-8.1h384.2C1665.2,163.6,1668.6,167.2,1668.6,171.6z"/>
			<g>
				<path class="st2" d="M1281.6,178.4c0-2.1,1.6-3.7,3.5-3.7c1.9,0,3.5,1.7,3.5,3.7c0,2.1-1.6,3.7-3.5,3.7
					C1283.2,182.1,1281.6,180.5,1281.6,178.4z"/>
				<path class="st2" d="M1295.4,178.4c0-2.1,1.6-3.7,3.5-3.7s3.5,1.7,3.5,3.7c0,2.1-1.6,3.7-3.5,3.7S1295.4,180.5,1295.4,178.4z"/>
				<path class="st2" d="M1309.5,178.4c0-2.1,1.6-3.7,3.5-3.7s3.5,1.7,3.5,3.7c0,2.1-1.6,3.7-3.5,3.7S1309.5,180.5,1309.5,178.4z"/>
			</g>
		</g>
		<path class="st43" d="M1498.6,140.3l5.1-0.6c0.4,0,0.8,0.2,1.1,0.5c0.3,0.5,0.6,0.9,1,1.4c0.6,0.8,1.3,1.6,2,2.3
			c0.3,0.3,0.5,0.8,0.3,1.2l-2,5c-0.2,0.5,0,1.1,0.5,1.4l4.4,2.2c0.5,0.2,1.1,0.1,1.4-0.4l2.7-4.2c0.3-0.4,0.7-0.6,1.2-0.5
			c2,0.5,4.1,0.7,6.3,0.6c0.5,0,1,0.3,1.1,0.8l0.9,2.9c0.2,0.5,0.7,0.9,1.3,0.8l4.8-1c0.1,0,0.2,0,0.3-0.1c0.4-0.2,0.7-0.6,0.6-1.1
			l-0.4-3.8l-0.1-0.9c0.8-0.4,1.6-1,2.3-1.5c1-0.8,1.9-1.6,2.7-2.5c0.3-0.3,0.8-0.5,1.2-0.3l4,1.6c0.6,0.2,1.2,0,1.4-0.6l1.7-3.4
			l0.5-1c0.3-0.5,0.1-1.2-0.4-1.5l-3.5-2.2c-0.4-0.3-0.6-0.7-0.5-1.2c0.3-1.4,0.5-2.8,0.5-4.2c0-0.1,0-0.2,0-0.4c0,0,0-0.1,0-0.1
			c0-0.5,0.4-0.8,0.8-1l4.7-1.5c0.1,0,0.1,0,0.2-0.1c0.5-0.2,0.7-0.7,0.6-1.2l-1-4.8c-0.1-0.6-0.7-1-1.2-0.9l-5.3,0.6
			c-0.5,0.1-0.9-0.2-1.1-0.6c-0.5-0.9-1-1.7-1.7-2.6c-0.3-0.4-0.7-0.9-1.1-1.3c-0.3-0.3-0.4-0.8-0.2-1.2l1.9-4.8
			c0.2-0.5,0-1.1-0.5-1.4l-4.4-2.2c-0.5-0.3-1.2-0.1-1.5,0.4l-2.1,3.3c-0.3,0.4-0.8,0.6-1.3,0.5c-1.9-0.7-4-1-6-1.1
			c-0.5,0-0.9-0.3-1.1-0.8l-1.3-4.2c-0.2-0.6-0.8-0.9-1.3-0.8l-4.8,1c-0.6,0.1-1,0.7-0.9,1.2l0,0.2l0.5,4.4c0.1,0.5-0.2,0.9-0.6,1.1
			l0,0c-1,0.5-2,1.2-3,1.9c-0.5,0.4-1,0.8-1.4,1.2c-0.3,0.3-0.8,0.4-1.2,0.2l-4.1-1.6c-0.6-0.2-1.2,0-1.5,0.6l-2.2,4.4
			c-0.1,0.1-0.1,0.3-0.1,0.4c0,0.4,0.2,0.8,0.5,1.1l2.8,1.8c0.3,0.2,0.5,0.6,0.5,1c0,0.1,0,0.2-0.1,0.3c-0.9,2.5-1.2,5.1-1,7.8
			c0,0.4-0.2,0.9-0.6,1.1c-0.1,0-0.1,0.1-0.2,0.1l-3.8,1.2c-0.5,0.2-0.9,0.7-0.8,1.3l0,0.1l0.9,4.7
			C1497.5,140,1498,140.4,1498.6,140.3z M1531.4,125.8c0.3,0.7,0.5,1.5,0.7,2.4c0.3,1.6,0,4.2-0.7,5.6c-0.1,0.2-0.2,0.3-0.2,0.5
			c-5,9.3-18.2,7.5-20.3-3c-0.3-1.4-0.1-3.4,0.4-4.9c0.1-0.4,0.2-0.7,0.4-1c0.7-1.3,1.5-2.5,2.4-3.4
			C1519.4,116.8,1528.4,118.5,1531.4,125.8z"/>
		<g>
			<path class="st46" d="M1200.3,380.9c0,0,0.6-6.2-6.4-6.2c0,0,2.1,0.6,3.2,1.7c0,0-4.4-2.6-9.3,1.4c-4.8,4-1.8,14-3.3,15.9
				c-1.5,1.9-7.2,2.3-6.5,8.4c0.7,6.2,18.1,13.9,17,19c0,0,6.8-10,1.9-14.6c0,0,2.4,2.2,2.6,4.9c0,0,0.6-5.2-2.7-6.9
				c-2.9-1.5-5.3-6.9-5.1-7.8C1192.2,395.8,1200.3,380.9,1200.3,380.9z"/>
			<path class="st47" d="M1193.5,410.8c0,0,5.2,21.5,10.3,25.8c3.1,2.6,12.2,8.5,12.2,8.5l-3.8,1.4c0,0-12.6-4.3-15.5-7.6
				c-2.8-3.3-10.6-20-10.6-20L1193.5,410.8z"/>
			<path class="st48" d="M1144.7,448.6c0,0.1,0.1,0.2,0.1,0.3c1.1,2,3.7,6.8,6.6,12.1c1.4,2.5,2.8,5.1,4.1,7.6c2.3,4.2,4.4,8,5.7,10
				c1.3,2,2.2,3.5,2.6,4c0,0,0,0,0,0c0.1,0.2,0.1,0.4,0.1,0.6c-0.1,1.8-0.1,3.6,0.1,5.3c1.7,17.2,13.4,26.5,13.4,26.5l3.5,0.5
				c0,0-4.9-18.1-6.3-28.4c-0.2-1.7-0.3-3.1-0.3-4.1c0.3-2.7-0.2-6.6-1.1-11.1c-1.6-8-4.5-17.8-7.1-25.7c-0.2-0.5-5-18.1-5-18.1
				c-4.1,3.6-19,5-19,5S1139.5,439.4,1144.7,448.6z"/>
			<path class="st46" d="M1188.1,519.9h-14.4c0,0-0.3-2.2,0.4-3.9c0.7-1.6,1.8-1.7,0.1-4.2c0.9,0.9,3.9,1.3,5.9,1.1
				c0.3,0.4,1.6,3.2,2.5,3.8C1183.6,517.4,1187.8,517.1,1188.1,519.9z"/>
			<path class="st46" d="M1144.7,448.6c0,0.1,0.1,0.2,0.1,0.3c1.1,2,7.3,13.3,10.2,18.6c-3.3-13.7-1-27.4-1-27.4L1144.7,448.6z"/>
			<path class="st46" d="M1198.4,380.1c0.1-0.4-8.2,3.8-8.7,4.2c-3.9,4.3-2.8,10-0.6,10c1.4,0,1.2,2.4,1.2,2.4l16-6.8
				C1206.3,390,1204.4,378.8,1198.4,380.1z"/>
			<path class="st2" d="M1193,407.6c0,0,2.4,4.9,2.1,8.8c0,0-2.9,4.6-10.5,5.8C1184.6,422.2,1191.1,407.6,1193,407.6z"/>
			<path class="st48" d="M1155.9,434.4l0-2.7c-5.4,0.7-18.5-6.4-18.5-6.4s-5.6,3.7-6.4,14.4c-0.4,5.2-2.8,27.3-3,33.8
				c-0.1,2.4-0.1,4.1-0.1,4.8c0,0,0,0,0,0c0,0.2-0.1,0.4-0.2,0.6c-1.1,1.4-2.1,2.9-2.9,4.5c-8.2,15.3-3.9,36-3.9,36l1.9-0.5
				c0,0,6.9-21.5,11.5-30.8c0.8-1.6,1.5-2.8,2.1-3.5c1.7-2.1,3.5-5.6,5.3-9.8C1144.9,466.7,1155.9,434.4,1155.9,434.4z"/>
			<path class="st46" d="M1132.3,519.9h-14.4c0,0-0.3-2.2,0.4-3.9c0.7-1.6,1.9-2.3,1.6-4.3c0.9,0.9,2.4,2,4.5,1.7
				c0.3,0.4,1.6,2.6,2.5,3.2C1127.8,517.4,1132,517.1,1132.3,519.9z"/>
			<path class="st2" d="M1183.6,425.3c-1.9,0.3,0.3,1.9-2.3,2.2c-3.8,0.4-7.7,0.7-9.8,1.5c-0.7,0.3-1.2,0.7-1.4,1.1
				c-0.9,2.7-6.5,7.3-6.5,7.3c-25.1-1.1-26.7-12.3-26.7-12.3c16.3-15.8,30.2-24.5,41.6-25.5c2.8-0.3,6.5,0.1,8.3,0.9
				c4,1.8,6.2,7.2,6.2,7.2S1191,424,1183.6,425.3z"/>
			<path class="st49" d="M1181.3,427.4c-3.8,0.4-7.7,0.7-9.8,1.5c-0.8-12.5,5.1-21.9,5.1-21.9S1180.4,422.7,1181.3,427.4z"/>
			<path class="st47" d="M1186.6,401.4c0.7,2.2,3.1,8.6,6.4,6.2c-0.1-0.5,0.6-1.9,1.4-3.3c1-1.8,2.3-3.6,2.3-3.6l-5.4-4.7l-0.3-0.3
				c-1.4,2.5-2.8,3.7-4,4.6C1186.6,400.5,1186.4,401,1186.6,401.4z"/>
			<path class="st50" d="M1196.7,400.7c0,0-1.2,1.8-2.3,3.6c-3.4-2.1-3.4-6.2-3.1-8.4L1196.7,400.7z"/>
			<path class="st47" d="M1196.9,403c0,0-8.1-4.5-5.2-9.6c2.9-5,3.8-9,9.1-6.3c5.3,2.7,5.2,5.2,4.7,7.1
				C1204.8,396.2,1199.1,404.1,1196.9,403z"/>
			<path class="st46" d="M1206.8,391.3c-0.4-2.2-1.5-2.4-2.3-2.3c-3-5-7.9-3-7.9-3c-2.6,3.3-6.4,3.9-6.4,3.9s0.9,1.8,4.8,2.8
				c1.2,0.3,2.5,0.1,3.8-0.3c-2.7,1.5-5.5,2.1-5.5,2.1c5.1,0.5,10-4.2,10.5-4.7c0.2,0.7,0.7,2.2,0.4,3.4c-0.3,1.5-1.7,4.3-0.9,4.6
				C1203.4,397.7,1207.3,394.7,1206.8,391.3z"/>
			<g>
				
					<rect x="1219.8" y="469.8" transform="matrix(0.8989 0.4382 -0.4382 0.8989 336.5422 -500.965)" class="st2" width="67.6" height="17.7"/>
				<g>
					<path class="st2" d="M1200.4,475.2c-5.6-2.7-9.5-7.8-10.9-13.8c-0.5-2.5,1-4.9,3.5-5.4c2.5-0.5,4.9,1,5.4,3.5
						c0.7,3.3,2.9,6.1,6,7.6c5.5,2.7,12.1,0.4,14.8-5.1c2.7-5.5,0.4-12.1-5.1-14.8c-2.5-1.2-5.3-1.5-8-0.7c-2.4,0.7-5-0.7-5.7-3.1
						c-0.7-2.4,0.7-5,3.1-5.7c4.8-1.4,10-1,14.6,1.2c10,4.9,14.2,17,9.3,27C1222.5,475.9,1210.4,480,1200.4,475.2z"/>
				</g>
				<g>
					<path class="st2" d="M1286.4,517.1c-10-4.9-14.2-17-9.3-27c4.9-10,17-14.2,27-9.3c4.5,2.2,8.1,6,9.9,10.7
						c0.9,2.3-0.2,5-2.6,5.9c-2.3,0.9-5-0.2-5.9-2.6c-1-2.6-2.9-4.7-5.4-5.9c-5.5-2.7-12.1-0.4-14.8,5.1c-2.7,5.5-0.4,12.1,5.1,14.8
						c3.1,1.5,6.6,1.5,9.6,0c2.3-1.1,5-0.1,6.1,2.1c1.1,2.3,0.1,5-2.1,6.1C1298.3,519.8,1291.9,519.8,1286.4,517.1z"/>
				</g>
				<path class="st49" d="M1266.1,487.3l-32-15.6c-0.9-0.4-1.3-1.6-0.9-2.5l0.8-1.7c0.4-0.9,1.6-1.3,2.5-0.9l32,15.6
					c0.9,0.4,1.3,1.6,0.9,2.5l-0.8,1.7C1268.1,487.4,1267,487.8,1266.1,487.3z"/>
			</g>
			<path class="st47" d="M1192.2,459c0,0,0.2,1.5,0.8,2.3s2.5,2.7,2.5,3.8c0,0-0.1,0.5-0.5,0.4c-0.4-0.1-1.8-1.5-2.5-1.4
				c0,0,0.4,2.2,0.8,2.9c0.4,0.6,1.1,3,0.8,3.5c-0.2,0.5-4-2.6-5.1-4.1c-1.1-1.5,0-7.8,0-7.8L1192.2,459z"/>
			<path class="st47" d="M1184.6,404.9c0,0-9.5-0.5-11.2,5.5c-1.7,6,3.2,29.9,4.2,32.4c1.9,4.5,11.2,17.3,11.2,17.3l3.4-1
				c0,0-6.2-19.6-7.6-21.5C1182.4,434.4,1187.4,407.5,1184.6,404.9z"/>
			<path class="st2" d="M1171.4,418.4c0,0.1,9,1.7,14.7-1.2c0,0,4.7-14.7-2-14c-6.7,0.7-10.7,2.8-10.9,6
				C1173,412.4,1171.4,418.4,1171.4,418.4z"/>
			<path class="st47" d="M1211.3,435.5c-0.5,0-1.3,0.2-1.6,0.4c-0.5,0.4-1.1,1.1,0.1,1.7c1.7,0.9,5.2,0.5,5.1,0
				C1214.4,435.9,1213.8,435.4,1211.3,435.5z"/>
		</g>
		<g>
			<path class="st47" d="M1322.4,201c-0.5,0.5-0.5,1.1-0.3,1.7c0,0,0,0,0,0c0.4,1.2,1.8,2.5,3.4,3.8c0.2,0.2,0.4,0.3,0.5,0.5
				c0,0,0.1,0.1,0.1,0.1c0,0,0.1,0.1,0.1,0.1c1.5,1.4,0.9,1.7,3.6,4.5c3.1,3.2,5.2,3.3,5.8,3c0.5-0.2-0.5-2-1.7-3.9
				c-0.1-0.1-0.1-0.2-0.2-0.3c-0.2-0.3-0.3-0.5-0.5-0.8c-1.3-2.3-1-3.4-0.7-6.8c0.3-2.8,4.3-15.6,4.3-15.6l-5.9-1
				c0,0-1.8,10.2-3.7,11.7c-1,0.8-2.2,0.8-3.2,1.5c-0.1,0-0.1,0.1-0.2,0.1C1323.5,200.1,1322.9,200.5,1322.4,201z"/>
			<path class="st46" d="M1322.4,201c-0.5,0.5-0.5,1.1-0.3,1.7c0,0,0,0,0,0c0.5,1.2,1.9,2.5,3.4,3.7c0.2,0.2,0.4,0.3,0.5,0.5
				c0,0,0.1,0.1,0.1,0.1c0,0,0.1,0.1,0.1,0.1c1.5,1.4,0.9,1.7,3.6,4.5c3.1,3.2,5.2,3.3,5.8,3c0.5-0.2-0.5-2-1.7-3.9
				c-0.6-0.2-3.4-1.4-5.5-4.1c-1.9-2.4-3.1-5.4-4.4-7.2c-0.1,0-0.1,0.1-0.2,0.1C1323.5,200.1,1322.9,200.5,1322.4,201z"/>
			<path class="st47" d="M1370.1,197.3c0.4,1.8,3,1.5,5.9,0.8c2.9-0.7,2.2,0.1,6.4-0.3c4.1-0.5,5.4-2,5.5-2.6c0.1-0.5-1.9-0.7-4.1-1
				c-0.3,0-0.6-0.1-0.8-0.1c-2.5-0.3-4.3-1.9-6.5-3.2c-2.1-1.2-5.3-6.3-5.3-6.3l-5.7,0.4c0,0,3,4.5,4.1,6.5c0.7,1.2,0.6,2.7,0.6,3.9
				C1370,196,1370,196.7,1370.1,197.3z"/>
			<path class="st46" d="M1376,198.1c2.9-0.7,2.2,0.1,6.4-0.3c4.1-0.5,5.4-2,5.5-2.6c0.1-0.5-1.9-0.7-4.1-1l0,0c0,0-2.5,1.8-5.9,1.8
				c-2.8,0.1-5.8-0.7-7.7-0.7c0,0.6-0.1,1.3,0,1.9C1370.5,199.1,1373.1,198.8,1376,198.1z"/>
			<path class="st46" d="M1348.3,161l-5.3,14.3l-6.9,18.6c0,0-1.9,0.2-3.7-0.3c-1.7-0.5-3.6-1.7-3.6-1.7s1.9-20,5.5-31.5
				c0.9-2.9,1.9-5.3,3.1-6.7C1343,147.1,1348.3,161,1348.3,161z"/>
			<path class="st48" d="M1343,138.4c-3.5-1.1-13.4,0.3-23.3,2.3l-2.1-3.4l-21.5-1.7c0,0-7.1,15.7-3.2,25.8c0.6,1.5,1.7,2.4,3.6,2.4
				c0,0,0.3,0,0.3,0c0,0,12.8,0,17,0c10.7,0,22.6-7.3,24.2-7.7c2.5-0.5,3.5,4.5,6.1,9.9c2.5,5.3,23.8,23.5,23.8,23.5s3.3,0,4.6-0.5
				c1.4-0.5,2-1.2,2-1.2S1350.8,140.9,1343,138.4z"/>
			<path class="st46" d="M1310.4,71.8c-3-0.8-7.1,0-7.8,0.1c-8.2,0.8-10.9,9.9-9.7,17c1.1,6.5-2.2,8.3-6,13.5
				c-7.7,10.3-2.7,19.1,3.4,21.3c3.6,1.3,8.7-2.1,8.7-2.1c0.1,0,15.9-10.4,22.4-16.2C1332.2,101.2,1318.1,73.7,1310.4,71.8z"/>
			<path class="st47" d="M1311.6,101.7c0.2,0.8-3.4,2.1-6.1,1.6c-2.6-0.5-5.4-3.5-4.9-3.8c1-0.5,1.6-1.6,1.1-7.9l0.5,0.1l8.2,0.9
				c0,0,0,2.6,0.2,5C1310.9,99.6,1311.3,100.5,1311.6,101.7z"/>
			<path class="st50" d="M1310.5,92.6c0,0,0,2.6,0.2,5c-4.5,0.2-7.3-3.7-8.4-5.9L1310.5,92.6z"/>
			<path class="st47" d="M1312.2,94.8c0,0-10.7,1.1-11.3-5.6c-0.6-6.7-2.3-11,4.5-12c6.8-1,8.3,1.5,9.1,3.7
				C1315.2,83,1315,94.3,1312.2,94.8z"/>
			<path class="st46" d="M1311,76.1c0,0-1.3,8.2-7.4,10.1c-4.4,1.4-6.5,0.5-6.5,0.5s2.1-2.8,2.9-6.8c0.2-1.2,1.1-2.1,2.2-2.5
				C1305.4,76.4,1309.2,73.5,1311,76.1z"/>
			<path class="st46" d="M1309,77.9c0,0,2,0.4,3.8,3.1c1,1.4,2.1,5,1.9,6.6c0,0,1.9-7.5-0.9-10.3C1311,74.2,1309,77.9,1309,77.9z"/>
			<path class="st2" d="M1292.4,123.6c0.2,0.8,0.4,1.6,0.5,2.2c0.2,1.1,0.4,2.1,0.5,2.9c0.3,2.6,0.2,4.2,0.4,5.9
				c0.1,1,0.3,2,0.8,3.2c0.4,1.2,12.1,2.3,18.7,1.9c2.1-0.1,3.7-0.4,4.3-0.9c2.4-2,2.1,2.5,2.4-19.1c0.2-10.5-8.9-19.9-8.9-19.9
				s-0.7,4.5-9.7-0.9c-0.3-0.2-3.9,5.1-7.3,11.5C1290.3,117.6,1291.3,119.2,1292.4,123.6z"/>
			<path class="st48" d="M1343,175.3l-6.9,18.6c0,0-1.9,0.2-3.7-0.3c-1.7-0.5-3.6-1.7-3.6-1.7s1.9-20,5.5-31.5L1343,175.3z"/>
			<path class="st2" d="M1311,99.8c0,0,9.3,1.6,10.4,5.6c1.1,4,8.6,26.3,8.6,26.3s-5.8,2-8-0.2c-2.2-2.2-7.6-20.2-7.6-20.2
				L1311,99.8z"/>
			<path class="st3" d="M1309.7,90.8c0,0,0.4,1.1,1.6,1.1c1.2,0,1.5-0.2,1.7-0.4c0.2-0.3,0.4-0.7,0.4-0.7S1311.6,90.4,1309.7,90.8z"
				/>
			<path class="st49" d="M1293.3,128.8c0.3,2.6,0.2,4.2,0.4,5.9c8.4,0,19.7-6.5,19.7-6.5L1293.3,128.8z"/>
			<path class="st49" d="M1313.4,122.6c0,0-13.1-0.4-15.3-7.8c-2.4-8.2-5.1,3.4-5.1,3.4l1.4,7.4h14.4L1313.4,122.6z"/>
			<g>
				<path class="st45" d="M1336.3,102.4l-0.7-1.8c-0.8-1.9-2.6-3.1-4.6-3.1h-13.1v8.3v35.4h54.1v-35.4h-30.6
					C1339.1,105.8,1337.1,104.5,1336.3,102.4z"/>
				<g>
					<path class="st3" d="M1326,124.1V121l11-4.8v3.2l-7.7,3.2l7.7,3.2v3.3L1326,124.1z"/>
					<path class="st3" d="M1348.6,112.4h2.9l-10.1,21.1h-2.9L1348.6,112.4z"/>
					<path class="st3" d="M1363.8,121v3.1l-11,4.8v-3.2l7.7-3.2l-7.7-3.2v-3.3L1363.8,121z"/>
				</g>
			</g>
			<path class="st47" d="M1313.4,124.4l0.9-1.5c0,0,0.8-0.2,1.8-1c1.3-0.9,1.1-2.2,1.7-2.1l0,2.9l-0.1,0c2.7,0.7,5.8-0.1,5.9,0.6
				c0.2,1.8-1.3,2.7-2.4,3.2c-0.9,0.4-1.9,1.1-3.6,0.6c-1.2-0.4-3.1-0.8-3.1-0.8L1313.4,124.4z"/>
			<path class="st2" d="M1301.3,99c0,0-8.5,0.6-10.6,3.9c-2.1,3.3-4.8,20.2-3.7,26c1.1,5.8,28.4-1.1,28.4-1.1l-0.9-5
				c0,0-15.7,0.1-16.6-2C1296.7,118,1301.3,99,1301.3,99z"/>
			<path class="st47" d="M1342.4,105.8c-0.1,0.2,1.3,2.4,3.2,2.1c1.2-0.2,2.8-2.8,1.4-3.4C1344.7,103.5,1342.6,105.2,1342.4,105.8z"
				/>
		</g>
		<g>
			<g>
				
					<rect x="1407.7" y="193" transform="matrix(0.4709 -0.8822 0.8822 0.4709 592.1477 1373.6497)" class="st46" width="67.1" height="0.3"/>
			</g>
			<g>
				
					<rect x="1554.8" y="156.6" transform="matrix(0.7334 -0.6798 0.6798 0.7334 290.3143 1105.7567)" class="st46" width="0.3" height="52.3"/>
			</g>
			<g>
				<path class="st43" d="M1594.8,213.1c0.5,3.8-0.5,7.5-2.7,10.4c-2.1,2.9-5.3,4.9-9.1,5.4l-158.8,21.8
					c-8.1,1.1-15.6-4.3-16.7-11.9c-0.5-3.8,0.6-7.6,3-10.5c2.3-2.9,5.8-5,9.8-5.5l158.8-21.8C1586.8,200,1593.8,205.4,1594.8,213.1z
					"/>
				<path class="st2" d="M1594.8,213.1c0.5,3.8-0.5,7.5-2.7,10.4c-2.1,2.9-5.3,4.9-9.1,5.4l-28.7,3.9l-3.8-27.9l28.7-3.9
					C1586.8,200,1593.8,205.4,1594.8,213.1z"/>
				<g>
					<g>
						<path class="st3" d="M1577.3,220.7c-0.4,0-0.7,0.1-1.1,0.1c-1.9,0-3.7-0.8-5.1-2.2c-2.8-2.8-2.7-7.4,0.1-10.2l0,0
							c2.8-2.8,7.4-2.7,10.2,0.1c2.8,2.8,2.7,7.4-0.1,10.2C1580.2,219.8,1578.8,220.5,1577.3,220.7z M1572.1,209.3
							c-2.4,2.3-2.4,6.1-0.1,8.5c1.1,1.1,2.6,1.8,4.2,1.8c1.6,0,3.1-0.6,4.3-1.7c2.4-2.3,2.4-6.1,0.1-8.5
							C1578.3,207,1574.5,206.9,1572.1,209.3L1572.1,209.3z"/>
					</g>
					
						<rect x="1567.5" y="216.7" transform="matrix(0.6989 0.7152 -0.7152 0.6989 630.6398 -1054.8313)" class="st3" width="1.2" height="9.8"/>
					<path class="st3" d="M1562.2,227.4L1562.2,227.4c-0.4-0.4-0.4-1.1,0-1.5l4.1-4c0.4-0.4,1.1-0.4,1.5,0l0,0
						c0.4,0.4,0.4,1.1,0,1.5l-4.1,4C1563.2,227.8,1562.6,227.8,1562.2,227.4z"/>
				</g>
			</g>
		</g>
		<g>
			<path class="st2" d="M1328.1,364.8h-33.1c-0.7,0-1.3-0.6-1.3-1.3V363c0-0.7,0.6-1.3,1.3-1.3h33.1c0.7,0,1.3,0.6,1.3,1.3v0.5
				C1329.3,364.2,1328.8,364.8,1328.1,364.8z"/>
			<g>
				<path class="st46" d="M1311.1,375.2h-16.4c-0.6,0-1-0.5-1-1l0,0c0-0.6,0.5-1,1-1h16.4c0.6,0,1,0.5,1,1l0,0
					C1312.1,374.7,1311.6,375.2,1311.1,375.2z"/>
				<g>
					<path class="st46" d="M1323.7,370.8h-29.2c-0.5,0-0.9-0.4-0.9-0.9v-0.3c0-0.5,0.4-0.9,0.9-0.9h29.2c0.5,0,0.9,0.4,0.9,0.9v0.3
						C1324.6,370.5,1324.2,370.8,1323.7,370.8z"/>
					<path class="st46" d="M1355.4,370.8h-27.1c-0.5,0-0.9-0.4-0.9-0.9v-0.3c0-0.5,0.4-0.9,0.9-0.9h27.1c0.5,0,0.9,0.4,0.9,0.9v0.3
						C1356.2,370.5,1355.9,370.8,1355.4,370.8z"/>
					<path class="st46" d="M1331.5,375.2h-16.4c-0.6,0-1-0.5-1-1l0,0c0-0.6,0.5-1,1-1h16.4c0.6,0,1,0.5,1,1l0,0
						C1332.5,374.7,1332.1,375.2,1331.5,375.2z"/>
				</g>
			</g>
			<path class="st2" d="M1368.5,364.8h-33.1c-0.7,0-1.3-0.6-1.3-1.3V363c0-0.7,0.6-1.3,1.3-1.3h33.1c0.7,0,1.3,0.6,1.3,1.3v0.5
				C1369.8,364.2,1369.2,364.8,1368.5,364.8z"/>
		</g>
		<g>
			<path class="st2" d="M1328.1,387.6h-33.1c-0.7,0-1.3-0.6-1.3-1.3v-0.5c0-0.7,0.6-1.3,1.3-1.3h33.1c0.7,0,1.3,0.6,1.3,1.3v0.5
				C1329.3,387,1328.8,387.6,1328.1,387.6z"/>
			<g>
				<path class="st46" d="M1311.1,398h-16.4c-0.6,0-1-0.5-1-1l0,0c0-0.6,0.5-1,1-1h16.4c0.6,0,1,0.5,1,1l0,0
					C1312.1,397.5,1311.6,398,1311.1,398z"/>
				<g>
					<path class="st46" d="M1323.7,393.6h-29.2c-0.5,0-0.9-0.4-0.9-0.9v-0.3c0-0.5,0.4-0.9,0.9-0.9h29.2c0.5,0,0.9,0.4,0.9,0.9v0.3
						C1324.6,393.2,1324.2,393.6,1323.7,393.6z"/>
					<path class="st46" d="M1355.4,393.6h-27.1c-0.5,0-0.9-0.4-0.9-0.9v-0.3c0-0.5,0.4-0.9,0.9-0.9h27.1c0.5,0,0.9,0.4,0.9,0.9v0.3
						C1356.2,393.2,1355.9,393.6,1355.4,393.6z"/>
					<path class="st46" d="M1331.5,398h-16.4c-0.6,0-1-0.5-1-1l0,0c0-0.6,0.5-1,1-1h16.4c0.6,0,1,0.5,1,1l0,0
						C1332.5,397.5,1332.1,398,1331.5,398z"/>
				</g>
			</g>
			<path class="st2" d="M1368.5,387.6h-33.1c-0.7,0-1.3-0.6-1.3-1.3v-0.5c0-0.7,0.6-1.3,1.3-1.3h33.1c0.7,0,1.3,0.6,1.3,1.3v0.5
				C1369.8,387,1369.2,387.6,1368.5,387.6z"/>
		</g>
		<g>
			<polygon class="st48" points="1500.6,249 1481.6,253.4 1472.3,270.5 1465.1,231.6 			"/>
			
				<rect x="1483.5" y="248.7" transform="matrix(0.797 -0.604 0.604 0.797 145.2286 949.5523)" class="st48" width="3.5" height="20"/>
		</g>
		<g>
			<path class="st43" d="M1483.5,329.3h-37.2c-4.5,0-8.1-3.6-8.1-8.1V284c0-4.5,3.6-8.1,8.1-8.1h37.2c4.5,0,8.1,3.6,8.1,8.1v37.2
				C1491.6,325.7,1488,329.3,1483.5,329.3z"/>
			<g>
				<path class="st49" d="M1445,318.2l10.4-18.7c1.2-2.2,4.3-2.4,5.7-0.4l6,8.2c1.3,1.7,3.8,1.9,5.3,0.3l0,0
					c1.5-1.6,4.2-1.4,5.4,0.4l6.5,10c1.5,2.3-0.2,5.3-2.9,5.3H1448C1445.4,323.2,1443.7,320.4,1445,318.2z"/>
				<path class="st49" d="M1465.5,290.7c0-2.3,1.8-4.1,4.1-4.1c2.3,0,4.1,1.8,4.1,4.1c0,2.3-1.8,4.1-4.1,4.1
					C1467.3,294.8,1465.5,293,1465.5,290.7z"/>
			</g>
		</g>
		<g>
			<path class="st43" d="M1556.5,330.8l-46.2,6.3c-1.9,0.3-3.6-1.1-3.8-2.9l-6.3-46.2c-0.3-1.9,1.1-3.6,2.9-3.8l46.2-6.3
				c1.9-0.3,3.6,1.1,3.8,2.9l6.3,46.2C1559.7,328.8,1558.4,330.5,1556.5,330.8z"/>
			<g>
				<path class="st49" d="M1512.2,325.6l7.8-19.9c0.9-2.3,3.9-2.9,5.6-1.1l7,7.3c1.5,1.5,4,1.3,5.3-0.4l0,0c1.3-1.8,3.9-2,5.4-0.3
					l7.8,9c1.8,2.1,0.6,5.2-2.1,5.6l-33.1,4.5C1513.3,330.5,1511.3,328,1512.2,325.6z"/>
				<path class="st49" d="M1528.8,295.6c-0.3-2.2,1.3-4.3,3.5-4.6c2.2-0.3,4.3,1.3,4.6,3.5c0.3,2.2-1.3,4.3-3.5,4.6
					C1531.2,299.4,1529.1,297.8,1528.8,295.6z"/>
			</g>
		</g>
		<g>
			<rect x="1393.8" y="495.8" class="st2" width="26.9" height="23.1"/>
			<rect x="1392.7" y="494.9" class="st48" width="28.9" height="1.8"/>
			<rect x="1393.8" y="502.1" class="st48" width="26.9" height="7.3"/>
		</g>
		<path class="st2" d="M1453.5,519h-25.4c-0.9,0-1.7-0.8-1.7-1.7v-2.8c0-1,0.9-1.8,1.9-1.7l25.4,2.8c0.9,0.1,1.5,0.8,1.5,1.7l0,0
			C1455.2,518.2,1454.4,519,1453.5,519z"/>
		<path class="st3" d="M1809.1,521.2l-707.9-0.2c-0.5,0-0.9-0.4-0.9-0.9l0-0.4c0-0.5,0.4-0.9,0.9-0.9l707.9,0.2
			c0.5,0,0.9,0.4,0.9,0.9v0.4C1810,520.8,1809.6,521.2,1809.1,521.2z"/>
		<g>
			<path class="st46" d="M1409.1,331.4h-2.9c-0.3,0-0.5-0.2-0.5-0.5s0.2-0.5,0.5-0.5h2.9c0.3,0,0.5,0.2,0.5,0.5
				S1409.4,331.4,1409.1,331.4z M1403.3,331.4h-2.9c-0.3,0-0.5-0.2-0.5-0.5s0.2-0.5,0.5-0.5h2.9c0.3,0,0.5,0.2,0.5,0.5
				S1403.5,331.4,1403.3,331.4z M1397.4,331.4h-2.9c-0.3,0-0.5-0.2-0.5-0.5s0.2-0.5,0.5-0.5h2.9c0.3,0,0.5,0.2,0.5,0.5
				S1397.7,331.4,1397.4,331.4z M1391.6,331.4h-2.9c-0.3,0-0.5-0.2-0.5-0.5s0.2-0.5,0.5-0.5h2.9c0.3,0,0.5,0.2,0.5,0.5
				S1391.9,331.4,1391.6,331.4z M1385.8,331.4h-2.9c-0.3,0-0.5-0.2-0.5-0.5s0.2-0.5,0.5-0.5h2.9c0.3,0,0.5,0.2,0.5,0.5
				S1386.1,331.4,1385.8,331.4z M1380,331.4h-2.9c-0.3,0-0.5-0.2-0.5-0.5s0.2-0.5,0.5-0.5h2.9c0.3,0,0.5,0.2,0.5,0.5
				S1380.2,331.4,1380,331.4z M1374.2,331.4h-2.9c-0.3,0-0.5-0.2-0.5-0.5s0.2-0.5,0.5-0.5h2.9c0.3,0,0.5,0.2,0.5,0.5
				S1374.4,331.4,1374.2,331.4z M1368.3,331.4h-2.9c-0.3,0-0.5-0.2-0.5-0.5s0.2-0.5,0.5-0.5h2.9c0.3,0,0.5,0.2,0.5,0.5
				S1368.6,331.4,1368.3,331.4z M1362.5,331.4h-2.9c-0.3,0-0.5-0.2-0.5-0.5s0.2-0.5,0.5-0.5h2.9c0.3,0,0.5,0.2,0.5,0.5
				S1362.8,331.4,1362.5,331.4z M1356.7,331.4h-2.9c-0.3,0-0.5-0.2-0.5-0.5s0.2-0.5,0.5-0.5h2.9c0.3,0,0.5,0.2,0.5,0.5
				S1357,331.4,1356.7,331.4z M1350.9,331.4h-2.9c-0.3,0-0.5-0.2-0.5-0.5s0.2-0.5,0.5-0.5h2.9c0.3,0,0.5,0.2,0.5,0.5
				S1351.1,331.4,1350.9,331.4z M1345.1,331.4h-2.9c-0.3,0-0.5-0.2-0.5-0.5s0.2-0.5,0.5-0.5h2.9c0.3,0,0.5,0.2,0.5,0.5
				S1345.3,331.4,1345.1,331.4z M1339.2,331.4h-2.9c-0.3,0-0.5-0.2-0.5-0.5s0.2-0.5,0.5-0.5h2.9c0.3,0,0.5,0.2,0.5,0.5
				S1339.5,331.4,1339.2,331.4z M1333.4,331.4h-2.9c-0.3,0-0.5-0.2-0.5-0.5s0.2-0.5,0.5-0.5h2.9c0.3,0,0.5,0.2,0.5,0.5
				S1333.7,331.4,1333.4,331.4z M1327.6,331.4h-2.9c-0.3,0-0.5-0.2-0.5-0.5s0.2-0.5,0.5-0.5h2.9c0.3,0,0.5,0.2,0.5,0.5
				S1327.9,331.4,1327.6,331.4z M1321.8,331.4h-2.9c-0.3,0-0.5-0.2-0.5-0.5s0.2-0.5,0.5-0.5h2.9c0.3,0,0.5,0.2,0.5,0.5
				S1322,331.4,1321.8,331.4z M1316,331.4h-2.9c-0.3,0-0.5-0.2-0.5-0.5s0.2-0.5,0.5-0.5h2.9c0.3,0,0.5,0.2,0.5,0.5
				S1316.2,331.4,1316,331.4z M1310.1,331.4h-2.6c-0.1,0-0.2,0-0.3,0c-0.3,0-0.5-0.2-0.5-0.5c0-0.3,0.2-0.5,0.5-0.5
				c0.1,0,0.2,0,0.3,0h2.6c0.3,0,0.5,0.2,0.5,0.5S1310.4,331.4,1310.1,331.4z M1411.8,330.6c-0.2,0-0.3-0.1-0.4-0.2
				c-0.1-0.2-0.1-0.5,0.1-0.7c0.7-0.5,1.3-1.2,1.6-2c0.1-0.2,0.4-0.4,0.6-0.3c0.2,0.1,0.4,0.4,0.3,0.6c-0.4,1-1.1,1.8-2,2.4
				C1412,330.6,1411.9,330.6,1411.8,330.6z M1304.5,330.4c-0.1,0-0.2,0-0.3-0.1c-0.9-0.7-1.5-1.5-1.8-2.6c-0.1-0.3,0.1-0.5,0.3-0.6
				c0.3-0.1,0.5,0.1,0.6,0.3c0.3,0.8,0.8,1.6,1.5,2.1c0.2,0.2,0.2,0.5,0.1,0.7C1304.8,330.4,1304.7,330.4,1304.5,330.4z M1414,325.5
				c-0.3,0-0.5-0.2-0.5-0.5v-2.9c0-0.3,0.2-0.5,0.5-0.5s0.5,0.2,0.5,0.5v2.9C1414.5,325.3,1414.3,325.5,1414,325.5z M1302.6,325.2
				c-0.3,0-0.5-0.2-0.5-0.5v-2.9c0-0.3,0.2-0.5,0.5-0.5c0.3,0,0.5,0.2,0.5,0.5v2.9C1303.1,325,1302.9,325.2,1302.6,325.2z
				 M1414,319.7c-0.3,0-0.5-0.2-0.5-0.5v-2.9c0-0.3,0.2-0.5,0.5-0.5s0.5,0.2,0.5,0.5v2.9C1414.5,319.5,1414.3,319.7,1414,319.7z
				 M1302.6,319.4c-0.3,0-0.5-0.2-0.5-0.5V316c0-0.3,0.2-0.5,0.5-0.5c0.3,0,0.5,0.2,0.5,0.5v2.9
				C1303.1,319.2,1302.9,319.4,1302.6,319.4z M1414,313.9c-0.3,0-0.5-0.2-0.5-0.5v-2.9c0-0.3,0.2-0.5,0.5-0.5s0.5,0.2,0.5,0.5v2.9
				C1414.5,313.6,1414.3,313.9,1414,313.9z M1302.6,313.6c-0.3,0-0.5-0.2-0.5-0.5v-2.9c0-0.3,0.2-0.5,0.5-0.5c0.3,0,0.5,0.2,0.5,0.5
				v2.9C1303.1,313.4,1302.9,313.6,1302.6,313.6z M1414,308c-0.3,0-0.5-0.2-0.5-0.5v-2.9c0-0.3,0.2-0.5,0.5-0.5s0.5,0.2,0.5,0.5v2.9
				C1414.5,307.8,1414.3,308,1414,308z M1302.6,307.7c-0.3,0-0.5-0.2-0.5-0.5v-2.9c0-0.3,0.2-0.5,0.5-0.5c0.3,0,0.5,0.2,0.5,0.5v2.9
				C1303.1,307.5,1302.9,307.7,1302.6,307.7z M1414,302.2c-0.3,0-0.5-0.2-0.5-0.5v-2.9c0-0.3,0.2-0.5,0.5-0.5s0.5,0.2,0.5,0.5v2.9
				C1414.5,302,1414.3,302.2,1414,302.2z M1302.6,301.9c-0.3,0-0.5-0.2-0.5-0.5v-2.9c0-0.3,0.2-0.5,0.5-0.5c0.3,0,0.5,0.2,0.5,0.5
				v2.9C1303.1,301.7,1302.9,301.9,1302.6,301.9z M1414,296.4c-0.3,0-0.5-0.2-0.5-0.5V293c0-0.3,0.2-0.5,0.5-0.5s0.5,0.2,0.5,0.5
				v2.9C1414.5,296.2,1414.3,296.4,1414,296.4z M1302.6,296.1c-0.3,0-0.5-0.2-0.5-0.5v-2.9c0-0.3,0.2-0.5,0.5-0.5
				c0.3,0,0.5,0.2,0.5,0.5v2.9C1303.1,295.9,1302.9,296.1,1302.6,296.1z M1414,290.6c-0.3,0-0.5-0.2-0.5-0.5v-2.9
				c0-0.3,0.2-0.5,0.5-0.5s0.5,0.2,0.5,0.5v2.9C1414.5,290.4,1414.3,290.6,1414,290.6z M1302.6,290.3c-0.3,0-0.5-0.2-0.5-0.5v-2.9
				c0-0.3,0.2-0.5,0.5-0.5c0.3,0,0.5,0.2,0.5,0.5v2.9C1303.1,290.1,1302.9,290.3,1302.6,290.3z M1414,284.8c-0.3,0-0.5-0.2-0.5-0.5
				v-2.9c0-0.3,0.2-0.5,0.5-0.5s0.5,0.2,0.5,0.5v2.9C1414.5,284.5,1414.3,284.8,1414,284.8z M1302.6,284.5c-0.3,0-0.5-0.2-0.5-0.5
				v-2.9c0-0.3,0.2-0.5,0.5-0.5c0.3,0,0.5,0.2,0.5,0.5v2.9C1303.1,284.3,1302.9,284.5,1302.6,284.5z M1414,278.9
				c-0.3,0-0.5-0.2-0.5-0.5v-2.9c0-0.3,0.2-0.5,0.5-0.5s0.5,0.2,0.5,0.5v2.9C1414.5,278.7,1414.3,278.9,1414,278.9z M1302.6,278.6
				c-0.3,0-0.5-0.2-0.5-0.5v-2.9c0-0.3,0.2-0.5,0.5-0.5c0.3,0,0.5,0.2,0.5,0.5v2.9C1303.1,278.4,1302.9,278.6,1302.6,278.6z
				 M1414,273.1c-0.3,0-0.5-0.2-0.5-0.5v-1.3c0-0.5-0.1-1-0.2-1.4c-0.1-0.3,0.1-0.5,0.3-0.6c0.3-0.1,0.5,0.1,0.6,0.3
				c0.2,0.6,0.3,1.1,0.3,1.7v1.3C1414.5,272.9,1414.3,273.1,1414,273.1z M1302.6,272.8c-0.3,0-0.5-0.2-0.5-0.5v-1
				c0-0.7,0.1-1.4,0.4-2c0.1-0.2,0.4-0.4,0.6-0.3c0.2,0.1,0.4,0.4,0.3,0.6c-0.2,0.5-0.3,1.1-0.3,1.7v1
				C1303.1,272.6,1302.9,272.8,1302.6,272.8z M1412.1,267.9c-0.1,0-0.2,0-0.3-0.1c-0.7-0.5-1.5-0.9-2.4-0.9c-0.3,0-0.5-0.2-0.5-0.5
				c0-0.3,0.2-0.5,0.5-0.5c1.1,0.1,2.1,0.4,2.9,1.1c0.2,0.2,0.3,0.5,0.1,0.7C1412.4,267.8,1412.2,267.9,1412.1,267.9z M1304.8,267.7
				c-0.2,0-0.3-0.1-0.4-0.2c-0.1-0.2-0.1-0.5,0.1-0.7c0.9-0.6,1.9-0.9,3-0.9c0,0,0,0,0,0c0.3,0,0.5,0.2,0.5,0.5
				c0,0.3-0.2,0.5-0.5,0.5c-0.9,0-1.7,0.3-2.5,0.8C1305,267.7,1304.9,267.7,1304.8,267.7z M1406.5,266.9h-2.9
				c-0.3,0-0.5-0.2-0.5-0.5c0-0.3,0.2-0.5,0.5-0.5h2.9c0.3,0,0.5,0.2,0.5,0.5C1407,266.7,1406.7,266.9,1406.5,266.9z M1400.7,266.9
				h-2.9c-0.3,0-0.5-0.2-0.5-0.5c0-0.3,0.2-0.5,0.5-0.5h2.9c0.3,0,0.5,0.2,0.5,0.5C1401.1,266.7,1400.9,266.9,1400.7,266.9z
				 M1394.8,266.9h-2.9c-0.3,0-0.5-0.2-0.5-0.5c0-0.3,0.2-0.5,0.5-0.5h2.9c0.3,0,0.5,0.2,0.5,0.5
				C1395.3,266.7,1395.1,266.9,1394.8,266.9z M1389,266.9h-2.9c-0.3,0-0.5-0.2-0.5-0.5c0-0.3,0.2-0.5,0.5-0.5h2.9
				c0.3,0,0.5,0.2,0.5,0.5C1389.5,266.7,1389.3,266.9,1389,266.9z M1383.2,266.9h-2.9c-0.3,0-0.5-0.2-0.5-0.5c0-0.3,0.2-0.5,0.5-0.5
				h2.9c0.3,0,0.5,0.2,0.5,0.5C1383.7,266.7,1383.5,266.9,1383.2,266.9z M1377.4,266.9h-2.9c-0.3,0-0.5-0.2-0.5-0.5
				c0-0.3,0.2-0.5,0.5-0.5h2.9c0.3,0,0.5,0.2,0.5,0.5C1377.9,266.7,1377.6,266.9,1377.4,266.9z M1371.6,266.9h-2.9
				c-0.3,0-0.5-0.2-0.5-0.5c0-0.3,0.2-0.5,0.5-0.5h2.9c0.3,0,0.5,0.2,0.5,0.5C1372,266.7,1371.8,266.9,1371.6,266.9z M1365.7,266.9
				h-2.9c-0.3,0-0.5-0.2-0.5-0.5c0-0.3,0.2-0.5,0.5-0.5h2.9c0.3,0,0.5,0.2,0.5,0.5C1366.2,266.7,1366,266.9,1365.7,266.9z
				 M1359.9,266.9h-2.9c-0.3,0-0.5-0.2-0.5-0.5c0-0.3,0.2-0.5,0.5-0.5h2.9c0.3,0,0.5,0.2,0.5,0.5
				C1360.4,266.7,1360.2,266.9,1359.9,266.9z M1354.1,266.9h-2.9c-0.3,0-0.5-0.2-0.5-0.5c0-0.3,0.2-0.5,0.5-0.5h2.9
				c0.3,0,0.5,0.2,0.5,0.5C1354.6,266.7,1354.4,266.9,1354.1,266.9z M1348.3,266.9h-2.9c-0.3,0-0.5-0.2-0.5-0.5
				c0-0.3,0.2-0.5,0.5-0.5h2.9c0.3,0,0.5,0.2,0.5,0.5C1348.8,266.7,1348.5,266.9,1348.3,266.9z M1342.5,266.9h-2.9
				c-0.3,0-0.5-0.2-0.5-0.5c0-0.3,0.2-0.5,0.5-0.5h2.9c0.3,0,0.5,0.2,0.5,0.5C1342.9,266.7,1342.7,266.9,1342.5,266.9z
				 M1336.6,266.9h-2.9c-0.3,0-0.5-0.2-0.5-0.5c0-0.3,0.2-0.5,0.5-0.5h2.9c0.3,0,0.5,0.2,0.5,0.5
				C1337.1,266.7,1336.9,266.9,1336.6,266.9z M1330.8,266.9h-2.9c-0.3,0-0.5-0.2-0.5-0.5c0-0.3,0.2-0.5,0.5-0.5h2.9
				c0.3,0,0.5,0.2,0.5,0.5C1331.3,266.7,1331.1,266.9,1330.8,266.9z M1325,266.9h-2.9c-0.3,0-0.5-0.2-0.5-0.5c0-0.3,0.2-0.5,0.5-0.5
				h2.9c0.3,0,0.5,0.2,0.5,0.5C1325.5,266.7,1325.3,266.9,1325,266.9z M1319.2,266.9h-2.9c-0.3,0-0.5-0.2-0.5-0.5
				c0-0.3,0.2-0.5,0.5-0.5h2.9c0.3,0,0.5,0.2,0.5,0.5C1319.7,266.7,1319.4,266.9,1319.2,266.9z M1313.4,266.9h-2.9
				c-0.3,0-0.5-0.2-0.5-0.5c0-0.3,0.2-0.5,0.5-0.5h2.9c0.3,0,0.5,0.2,0.5,0.5C1313.8,266.7,1313.6,266.9,1313.4,266.9z"/>
		</g>
		<g>
			<path class="st46" d="M1574.5,412.2h-2.6c-0.2,0-0.4-0.2-0.4-0.4c0-0.2,0.2-0.4,0.4-0.4h2.6c0.2,0,0.4,0.2,0.4,0.4
				C1575,412,1574.8,412.2,1574.5,412.2z M1569.4,412.2h-2.6c-0.2,0-0.4-0.2-0.4-0.4c0-0.2,0.2-0.4,0.4-0.4h2.6
				c0.2,0,0.4,0.2,0.4,0.4C1569.8,412,1569.6,412.2,1569.4,412.2z M1564.2,412.2h-2.6c-0.2,0-0.4-0.2-0.4-0.4c0-0.2,0.2-0.4,0.4-0.4
				h2.6c0.2,0,0.4,0.2,0.4,0.4C1564.6,412,1564.4,412.2,1564.2,412.2z M1559,412.2h-2.6c-0.2,0-0.4-0.2-0.4-0.4
				c0-0.2,0.2-0.4,0.4-0.4h2.6c0.2,0,0.4,0.2,0.4,0.4C1559.5,412,1559.3,412.2,1559,412.2z M1553.9,412.2h-2.6
				c-0.2,0-0.4-0.2-0.4-0.4c0-0.2,0.2-0.4,0.4-0.4h2.6c0.2,0,0.4,0.2,0.4,0.4C1554.3,412,1554.1,412.2,1553.9,412.2z M1548.7,412.2
				h-2.6c-0.2,0-0.4-0.2-0.4-0.4c0-0.2,0.2-0.4,0.4-0.4h2.6c0.2,0,0.4,0.2,0.4,0.4C1549.2,412,1549,412.2,1548.7,412.2z
				 M1543.6,412.2h-2.6c-0.2,0-0.4-0.2-0.4-0.4c0-0.2,0.2-0.4,0.4-0.4h2.6c0.2,0,0.4,0.2,0.4,0.4
				C1544,412,1543.8,412.2,1543.6,412.2z M1538.4,412.2h-2.6c-0.2,0-0.4-0.2-0.4-0.4c0-0.2,0.2-0.4,0.4-0.4h2.6
				c0.2,0,0.4,0.2,0.4,0.4C1538.8,412,1538.7,412.2,1538.4,412.2z M1533.3,412.2h-2.6c-0.2,0-0.4-0.2-0.4-0.4c0-0.2,0.2-0.4,0.4-0.4
				h2.6c0.2,0,0.4,0.2,0.4,0.4C1533.7,412,1533.5,412.2,1533.3,412.2z M1528.1,412.2h-2.5c0,0-0.1,0-0.1,0c-0.2,0-0.4-0.2-0.4-0.4
				c0-0.2,0.2-0.4,0.4-0.4c0,0,0,0,0.1,0h2.5c0.2,0,0.4,0.2,0.4,0.4C1528.5,412,1528.3,412.2,1528.1,412.2z M1576.2,410.6
				C1576.2,410.6,1576.2,410.6,1576.2,410.6c-0.2,0-0.4-0.2-0.4-0.4l0,0v-2.5c0-0.2,0.2-0.4,0.4-0.4s0.4,0.2,0.4,0.4l0,2.6
				C1576.6,410.4,1576.4,410.6,1576.2,410.6z M1523.9,410.5c-0.2,0-0.4-0.2-0.4-0.4v-2.6c0-0.2,0.2-0.4,0.4-0.4
				c0.2,0,0.4,0.2,0.4,0.4v2.6C1524.4,410.3,1524.2,410.5,1523.9,410.5z M1576.2,405.4c-0.2,0-0.4-0.2-0.4-0.4v-2.6
				c0-0.2,0.2-0.4,0.4-0.4s0.4,0.2,0.4,0.4v2.6C1576.6,405.2,1576.4,405.4,1576.2,405.4z M1523.9,405.4c-0.2,0-0.4-0.2-0.4-0.4v-2.6
				c0-0.2,0.2-0.4,0.4-0.4c0.2,0,0.4,0.2,0.4,0.4v2.6C1524.4,405.2,1524.2,405.4,1523.9,405.4z M1576.2,400.3
				c-0.2,0-0.4-0.2-0.4-0.4v-2.6c0-0.2,0.2-0.4,0.4-0.4s0.4,0.2,0.4,0.4v2.6C1576.6,400.1,1576.4,400.3,1576.2,400.3z M1523.9,400.2
				c-0.2,0-0.4-0.2-0.4-0.4v-2.5c0,0,0-0.1,0-0.1c0-0.2,0.2-0.4,0.4-0.4c0.2,0,0.4,0.2,0.4,0.4l0,0v2.5
				C1524.4,400,1524.2,400.2,1523.9,400.2z M1574.6,396C1574.6,396,1574.6,396,1574.6,396L1574.6,396l-2.6,0c-0.2,0-0.4-0.2-0.4-0.4
				c0-0.2,0.2-0.4,0.4-0.4h2.5c0,0,0.1,0,0.1,0c0.2,0,0.4,0.2,0.4,0.4C1575,395.8,1574.8,396,1574.6,396z M1569.4,396h-2.6
				c-0.2,0-0.4-0.2-0.4-0.4c0-0.2,0.2-0.4,0.4-0.4h2.6c0.2,0,0.4,0.2,0.4,0.4C1569.9,395.8,1569.7,396,1569.4,396z M1564.3,396h-2.6
				c-0.2,0-0.4-0.2-0.4-0.4c0-0.2,0.2-0.4,0.4-0.4h2.6c0.2,0,0.4,0.2,0.4,0.4C1564.7,395.8,1564.5,396,1564.3,396z M1559.1,396h-2.6
				c-0.2,0-0.4-0.2-0.4-0.4c0-0.2,0.2-0.4,0.4-0.4h2.6c0.2,0,0.4,0.2,0.4,0.4C1559.6,395.8,1559.4,396,1559.1,396z M1554,396h-2.6
				c-0.2,0-0.4-0.2-0.4-0.4c0-0.2,0.2-0.4,0.4-0.4h2.6c0.2,0,0.4,0.2,0.4,0.4C1554.4,395.8,1554.2,396,1554,396z M1548.8,396h-2.6
				c-0.2,0-0.4-0.2-0.4-0.4c0-0.2,0.2-0.4,0.4-0.4h2.6c0.2,0,0.4,0.2,0.4,0.4C1549.2,395.8,1549,396,1548.8,396z M1543.7,396h-2.6
				c-0.2,0-0.4-0.2-0.4-0.4c0-0.2,0.2-0.4,0.4-0.4h2.6c0.2,0,0.4,0.2,0.4,0.4C1544.1,395.8,1543.9,396,1543.7,396z M1538.5,396h-2.6
				c-0.2,0-0.4-0.2-0.4-0.4c0-0.2,0.2-0.4,0.4-0.4h2.6c0.2,0,0.4,0.2,0.4,0.4C1538.9,395.8,1538.7,396,1538.5,396z M1533.3,396h-2.6
				c-0.2,0-0.4-0.2-0.4-0.4c0-0.2,0.2-0.4,0.4-0.4h2.6c0.2,0,0.4,0.2,0.4,0.4C1533.8,395.8,1533.6,396,1533.3,396z M1528.2,396h-2.6
				c-0.2,0-0.4-0.2-0.4-0.4c0-0.2,0.2-0.4,0.4-0.4h2.6c0.2,0,0.4,0.2,0.4,0.4C1528.6,395.8,1528.4,396,1528.2,396z"/>
		</g>
		<g>
			<path class="st46" d="M1390.4,258.4h-2.9c-0.3,0-0.5-0.2-0.5-0.5c0-0.3,0.2-0.5,0.5-0.5h2.9c0.3,0,0.5,0.2,0.5,0.5
				C1390.9,258.1,1390.7,258.4,1390.4,258.4z M1384.7,258.4h-2.9c-0.3,0-0.5-0.2-0.5-0.5c0-0.3,0.2-0.5,0.5-0.5h2.9
				c0.3,0,0.5,0.2,0.5,0.5C1385.2,258.1,1384.9,258.4,1384.7,258.4z M1379,258.4h-2.9c-0.3,0-0.5-0.2-0.5-0.5c0-0.3,0.2-0.5,0.5-0.5
				h2.9c0.3,0,0.5,0.2,0.5,0.5C1379.4,258.1,1379.2,258.4,1379,258.4z M1373.3,258.4h-2.9c-0.3,0-0.5-0.2-0.5-0.5
				c0-0.3,0.2-0.5,0.5-0.5h2.9c0.3,0,0.5,0.2,0.5,0.5C1373.7,258.1,1373.5,258.4,1373.3,258.4z M1367.6,258.4h-2.9
				c-0.3,0-0.5-0.2-0.5-0.5c0-0.3,0.2-0.5,0.5-0.5h2.9c0.3,0,0.5,0.2,0.5,0.5C1368,258.1,1367.8,258.4,1367.6,258.4z M1361.8,258.4
				h-2.9c-0.3,0-0.5-0.2-0.5-0.5c0-0.3,0.2-0.5,0.5-0.5h2.9c0.3,0,0.5,0.2,0.5,0.5C1362.3,258.1,1362.1,258.4,1361.8,258.4z
				 M1356.1,258.4h-2.9c-0.3,0-0.5-0.2-0.5-0.5c0-0.3,0.2-0.5,0.5-0.5h2.9c0.3,0,0.5,0.2,0.5,0.5
				C1356.6,258.1,1356.4,258.4,1356.1,258.4z M1350.5,258.1c-0.1,0-0.2,0-0.2-0.1c-0.9-0.5-1.4-1.5-1.4-2.5v-0.3
				c0-0.3,0.2-0.5,0.5-0.5c0.3,0,0.5,0.2,0.5,0.5v0.3c0,0.7,0.4,1.3,1,1.6c0.2,0.1,0.3,0.4,0.2,0.7
				C1350.8,258,1350.7,258.1,1350.5,258.1z M1392.6,256.8c-0.1,0-0.1,0-0.2,0c-0.2-0.1-0.4-0.4-0.3-0.6c0.1-0.2,0.1-0.4,0.1-0.7v-2
				c0-0.3,0.2-0.5,0.5-0.5s0.5,0.2,0.5,0.5v2c0,0.3-0.1,0.7-0.2,1C1393,256.7,1392.8,256.8,1392.6,256.8z M1349.3,252.8
				c-0.3,0-0.5-0.2-0.5-0.5v-2.9c0-0.3,0.2-0.5,0.5-0.5c0.3,0,0.5,0.2,0.5,0.5v2.9C1349.8,252.6,1349.6,252.8,1349.3,252.8z
				 M1392.7,251.1c-0.3,0-0.5-0.2-0.5-0.5v-2.9c0-0.3,0.2-0.5,0.5-0.5s0.5,0.2,0.5,0.5v2.9C1393.2,250.9,1393,251.1,1392.7,251.1z
				 M1349.3,247.1c-0.3,0-0.5-0.2-0.5-0.5v-2.9c0-0.3,0.2-0.5,0.5-0.5c0.3,0,0.5,0.2,0.5,0.5v2.9
				C1349.8,246.9,1349.6,247.1,1349.3,247.1z M1392.7,245.4c-0.3,0-0.5-0.2-0.5-0.5v-2.9c0-0.3,0.2-0.5,0.5-0.5s0.5,0.2,0.5,0.5v2.9
				C1393.2,245.2,1393,245.4,1392.7,245.4z M1349.3,241.4c-0.3,0-0.5-0.2-0.5-0.5V238c0-0.3,0.2-0.5,0.5-0.5c0.3,0,0.5,0.2,0.5,0.5
				v2.9C1349.8,241.2,1349.6,241.4,1349.3,241.4z M1392.7,239.7c-0.3,0-0.5-0.2-0.5-0.5v-2.9c0-0.3,0.2-0.5,0.5-0.5s0.5,0.2,0.5,0.5
				v2.9C1393.2,239.5,1393,239.7,1392.7,239.7z M1349.3,235.7c-0.3,0-0.5-0.2-0.5-0.5v-2.9c0-0.3,0.2-0.5,0.5-0.5
				c0.3,0,0.5,0.2,0.5,0.5v2.9C1349.8,235.5,1349.6,235.7,1349.3,235.7z M1392.7,234c-0.3,0-0.5-0.2-0.5-0.5v-2.9
				c0-0.3,0.2-0.5,0.5-0.5s0.5,0.2,0.5,0.5v2.9C1393.2,233.8,1393,234,1392.7,234z M1349.3,230c-0.3,0-0.5-0.2-0.5-0.5v-2.9
				c0-0.3,0.2-0.5,0.5-0.5c0.3,0,0.5,0.2,0.5,0.5v2.9C1349.8,229.8,1349.6,230,1349.3,230z M1392.7,228.3c-0.3,0-0.5-0.2-0.5-0.5
				V225c0-0.3,0.2-0.5,0.5-0.5s0.5,0.2,0.5,0.5v2.9C1393.2,228.1,1393,228.3,1392.7,228.3z M1349.3,224.3c-0.3,0-0.5-0.2-0.5-0.5v-2
				c0-0.3,0.1-0.7,0.2-1c0.1-0.2,0.4-0.4,0.6-0.3c0.2,0.1,0.4,0.4,0.3,0.6c-0.1,0.2-0.1,0.4-0.1,0.7v2
				C1349.8,224,1349.6,224.3,1349.3,224.3z M1392.7,222.6c-0.3,0-0.5-0.2-0.5-0.5v-0.3c0-0.7-0.4-1.3-1-1.6
				c-0.2-0.1-0.3-0.4-0.2-0.7c0.1-0.2,0.4-0.3,0.7-0.2c0.9,0.5,1.5,1.5,1.5,2.5v0.3C1393.2,222.4,1393,222.6,1392.7,222.6z
				 M1388.7,219.9h-2.9c-0.3,0-0.5-0.2-0.5-0.5s0.2-0.5,0.5-0.5h2.9c0.3,0,0.5,0.2,0.5,0.5S1389,219.9,1388.7,219.9z M1383,219.9
				h-2.9c-0.3,0-0.5-0.2-0.5-0.5s0.2-0.5,0.5-0.5h2.9c0.3,0,0.5,0.2,0.5,0.5S1383.3,219.9,1383,219.9z M1377.3,219.9h-2.9
				c-0.3,0-0.5-0.2-0.5-0.5s0.2-0.5,0.5-0.5h2.9c0.3,0,0.5,0.2,0.5,0.5S1377.6,219.9,1377.3,219.9z M1371.6,219.9h-2.9
				c-0.3,0-0.5-0.2-0.5-0.5s0.2-0.5,0.5-0.5h2.9c0.3,0,0.5,0.2,0.5,0.5S1371.9,219.9,1371.6,219.9z M1365.9,219.9h-2.9
				c-0.3,0-0.5-0.2-0.5-0.5s0.2-0.5,0.5-0.5h2.9c0.3,0,0.5,0.2,0.5,0.5S1366.2,219.9,1365.9,219.9z M1360.2,219.9h-2.9
				c-0.3,0-0.5-0.2-0.5-0.5s0.2-0.5,0.5-0.5h2.9c0.3,0,0.5,0.2,0.5,0.5S1360.5,219.9,1360.2,219.9z M1354.5,219.9h-2.8
				c-0.3,0-0.5-0.2-0.5-0.5s0.2-0.5,0.5-0.5h2.9c0.3,0,0.5,0.2,0.5,0.5S1354.8,219.9,1354.5,219.9z"/>
		</g>
		<g>
			<path class="st46" d="M1574.5,436h-2.6c-0.2,0-0.4-0.2-0.4-0.4c0-0.2,0.2-0.4,0.4-0.4h2.6c0.2,0,0.4,0.2,0.4,0.4
				C1575,435.8,1574.8,436,1574.5,436z M1569.4,436h-2.6c-0.2,0-0.4-0.2-0.4-0.4c0-0.2,0.2-0.4,0.4-0.4h2.6c0.2,0,0.4,0.2,0.4,0.4
				C1569.8,435.8,1569.6,436,1569.4,436z M1564.2,436h-2.6c-0.2,0-0.4-0.2-0.4-0.4c0-0.2,0.2-0.4,0.4-0.4h2.6c0.2,0,0.4,0.2,0.4,0.4
				C1564.6,435.8,1564.4,436,1564.2,436z M1559,436h-2.6c-0.2,0-0.4-0.2-0.4-0.4c0-0.2,0.2-0.4,0.4-0.4h2.6c0.2,0,0.4,0.2,0.4,0.4
				C1559.5,435.8,1559.3,436,1559,436z M1553.9,436h-2.6c-0.2,0-0.4-0.2-0.4-0.4c0-0.2,0.2-0.4,0.4-0.4h2.6c0.2,0,0.4,0.2,0.4,0.4
				C1554.3,435.8,1554.1,436,1553.9,436z M1548.7,436h-2.6c-0.2,0-0.4-0.2-0.4-0.4c0-0.2,0.2-0.4,0.4-0.4h2.6c0.2,0,0.4,0.2,0.4,0.4
				C1549.2,435.8,1549,436,1548.7,436z M1543.6,436h-2.6c-0.2,0-0.4-0.2-0.4-0.4c0-0.2,0.2-0.4,0.4-0.4h2.6c0.2,0,0.4,0.2,0.4,0.4
				C1544,435.8,1543.8,436,1543.6,436z M1538.4,436h-2.6c-0.2,0-0.4-0.2-0.4-0.4c0-0.2,0.2-0.4,0.4-0.4h2.6c0.2,0,0.4,0.2,0.4,0.4
				C1538.8,435.8,1538.7,436,1538.4,436z M1533.3,436h-2.6c-0.2,0-0.4-0.2-0.4-0.4c0-0.2,0.2-0.4,0.4-0.4h2.6c0.2,0,0.4,0.2,0.4,0.4
				C1533.7,435.8,1533.5,436,1533.3,436z M1528.1,436h-2.5c0,0-0.1,0-0.1,0c-0.2,0-0.4-0.2-0.4-0.4c0-0.2,0.2-0.4,0.4-0.4
				c0,0,0,0,0.1,0h2.5c0.2,0,0.4,0.2,0.4,0.4C1528.5,435.8,1528.3,436,1528.1,436z M1576.2,434.4
				C1576.2,434.4,1576.2,434.4,1576.2,434.4c-0.2,0-0.4-0.2-0.4-0.4l0,0v-2.5c0-0.2,0.2-0.4,0.4-0.4s0.4,0.2,0.4,0.4l0,2.6
				C1576.6,434.2,1576.4,434.4,1576.2,434.4z M1523.9,434.3c-0.2,0-0.4-0.2-0.4-0.4v-2.6c0-0.2,0.2-0.4,0.4-0.4
				c0.2,0,0.4,0.2,0.4,0.4v2.6C1524.4,434.1,1524.2,434.3,1523.9,434.3z M1576.2,429.2c-0.2,0-0.4-0.2-0.4-0.4v-2.6
				c0-0.2,0.2-0.4,0.4-0.4s0.4,0.2,0.4,0.4v2.6C1576.6,429,1576.4,429.2,1576.2,429.2z M1523.9,429.1c-0.2,0-0.4-0.2-0.4-0.4v-2.6
				c0-0.2,0.2-0.4,0.4-0.4c0.2,0,0.4,0.2,0.4,0.4v2.6C1524.4,429,1524.2,429.1,1523.9,429.1z M1576.2,424.1c-0.2,0-0.4-0.2-0.4-0.4
				v-2.6c0-0.2,0.2-0.4,0.4-0.4s0.4,0.2,0.4,0.4v2.6C1576.6,423.9,1576.4,424.1,1576.2,424.1z M1523.9,424c-0.2,0-0.4-0.2-0.4-0.4
				v-2.5c0,0,0-0.1,0-0.1c0-0.2,0.2-0.4,0.4-0.4c0.2,0,0.4,0.2,0.4,0.4l0,0v2.5C1524.4,423.8,1524.2,424,1523.9,424z M1574.6,419.8
				C1574.6,419.8,1574.6,419.8,1574.6,419.8L1574.6,419.8l-2.6,0c-0.2,0-0.4-0.2-0.4-0.4c0-0.2,0.2-0.4,0.4-0.4h2.5c0,0,0.1,0,0.1,0
				c0.2,0,0.4,0.2,0.4,0.4C1575,419.6,1574.8,419.8,1574.6,419.8z M1569.4,419.8h-2.6c-0.2,0-0.4-0.2-0.4-0.4c0-0.2,0.2-0.4,0.4-0.4
				h2.6c0.2,0,0.4,0.2,0.4,0.4C1569.9,419.6,1569.7,419.8,1569.4,419.8z M1564.3,419.8h-2.6c-0.2,0-0.4-0.2-0.4-0.4
				c0-0.2,0.2-0.4,0.4-0.4h2.6c0.2,0,0.4,0.2,0.4,0.4C1564.7,419.6,1564.5,419.8,1564.3,419.8z M1559.1,419.8h-2.6
				c-0.2,0-0.4-0.2-0.4-0.4c0-0.2,0.2-0.4,0.4-0.4h2.6c0.2,0,0.4,0.2,0.4,0.4C1559.6,419.6,1559.4,419.8,1559.1,419.8z M1554,419.8
				h-2.6c-0.2,0-0.4-0.2-0.4-0.4c0-0.2,0.2-0.4,0.4-0.4h2.6c0.2,0,0.4,0.2,0.4,0.4C1554.4,419.6,1554.2,419.8,1554,419.8z
				 M1548.8,419.8h-2.6c-0.2,0-0.4-0.2-0.4-0.4c0-0.2,0.2-0.4,0.4-0.4h2.6c0.2,0,0.4,0.2,0.4,0.4
				C1549.2,419.6,1549,419.8,1548.8,419.8z M1543.7,419.8h-2.6c-0.2,0-0.4-0.2-0.4-0.4c0-0.2,0.2-0.4,0.4-0.4h2.6
				c0.2,0,0.4,0.2,0.4,0.4C1544.1,419.6,1543.9,419.8,1543.7,419.8z M1538.5,419.8h-2.6c-0.2,0-0.4-0.2-0.4-0.4
				c0-0.2,0.2-0.4,0.4-0.4h2.6c0.2,0,0.4,0.2,0.4,0.4C1538.9,419.6,1538.7,419.8,1538.5,419.8z M1533.3,419.8h-2.6
				c-0.2,0-0.4-0.2-0.4-0.4c0-0.2,0.2-0.4,0.4-0.4h2.6c0.2,0,0.4,0.2,0.4,0.4C1533.8,419.6,1533.6,419.8,1533.3,419.8z
				 M1528.2,419.8h-2.6c-0.2,0-0.4-0.2-0.4-0.4c0-0.2,0.2-0.4,0.4-0.4h2.6c0.2,0,0.4,0.2,0.4,0.4
				C1528.6,419.6,1528.4,419.8,1528.2,419.8z"/>
		</g>
		<g>
			<path class="st46" d="M1371.1,418.1h-2.6c-0.2,0-0.4-0.2-0.4-0.4c0-0.2,0.2-0.4,0.4-0.4h2.6c0.2,0,0.4,0.2,0.4,0.4
				C1371.5,417.9,1371.3,418.1,1371.1,418.1z M1366,418.1h-2.6c-0.2,0-0.4-0.2-0.4-0.4c0-0.2,0.2-0.4,0.4-0.4h2.6
				c0.2,0,0.4,0.2,0.4,0.4C1366.4,417.9,1366.2,418.1,1366,418.1z M1360.8,418.1h-2.6c-0.2,0-0.4-0.2-0.4-0.4c0-0.2,0.2-0.4,0.4-0.4
				h2.6c0.2,0,0.4,0.2,0.4,0.4C1361.3,417.9,1361.1,418.1,1360.8,418.1z M1355.7,418.1h-2.6c-0.2,0-0.4-0.2-0.4-0.4
				c0-0.2,0.2-0.4,0.4-0.4h2.6c0.2,0,0.4,0.2,0.4,0.4C1356.2,417.9,1356,418.1,1355.7,418.1z M1350.6,418.1h-2.6
				c-0.2,0-0.4-0.2-0.4-0.4c0-0.2,0.2-0.4,0.4-0.4h2.6c0.2,0,0.4,0.2,0.4,0.4C1351,417.9,1350.9,418.1,1350.6,418.1z M1345.5,418.1
				h-2.6c-0.2,0-0.4-0.2-0.4-0.4c0-0.2,0.2-0.4,0.4-0.4h2.6c0.2,0,0.4,0.2,0.4,0.4C1345.9,417.9,1345.7,418.1,1345.5,418.1z
				 M1340.4,418.1h-2.6c-0.2,0-0.4-0.2-0.4-0.4c0-0.2,0.2-0.4,0.4-0.4h2.6c0.2,0,0.4,0.2,0.4,0.4
				C1340.8,417.9,1340.6,418.1,1340.4,418.1z M1335.3,418.1h-2.6c-0.2,0-0.4-0.2-0.4-0.4c0-0.2,0.2-0.4,0.4-0.4h2.6
				c0.2,0,0.4,0.2,0.4,0.4C1335.7,417.9,1335.5,418.1,1335.3,418.1z M1330.2,418.1h-2.6c-0.2,0-0.4-0.2-0.4-0.4
				c0-0.2,0.2-0.4,0.4-0.4h2.6c0.2,0,0.4,0.2,0.4,0.4C1330.6,417.9,1330.4,418.1,1330.2,418.1z M1325.1,418.1h-2.6
				c-0.2,0-0.4-0.2-0.4-0.4c0-0.2,0.2-0.4,0.4-0.4h2.6c0.2,0,0.4,0.2,0.4,0.4C1325.5,417.9,1325.3,418.1,1325.1,418.1z M1320,418.1
				h-2.6c-0.2,0-0.4-0.2-0.4-0.4c0-0.2,0.2-0.4,0.4-0.4h2.6c0.2,0,0.4,0.2,0.4,0.4C1320.4,417.9,1320.2,418.1,1320,418.1z
				 M1314.8,418.1h-2.6c-0.2,0-0.4-0.2-0.4-0.4c0-0.2,0.2-0.4,0.4-0.4h2.6c0.2,0,0.4,0.2,0.4,0.4
				C1315.3,417.9,1315.1,418.1,1314.8,418.1z M1309.7,418.1h-2.6c-0.2,0-0.4-0.2-0.4-0.4c0-0.2,0.2-0.4,0.4-0.4h2.6
				c0.2,0,0.4,0.2,0.4,0.4C1310.2,417.9,1310,418.1,1309.7,418.1z M1304.6,418.1h-2.6c-0.2,0-0.4-0.2-0.4-0.4c0-0.2,0.2-0.4,0.4-0.4
				h2.6c0.2,0,0.4,0.2,0.4,0.4C1305,417.9,1304.9,418.1,1304.6,418.1z M1299.5,418.1h-2.6c-0.2,0-0.4-0.2-0.4-0.4
				c0-0.2,0.2-0.4,0.4-0.4h2.6c0.2,0,0.4,0.2,0.4,0.4C1299.9,417.9,1299.7,418.1,1299.5,418.1z M1294.4,418.1h-2c-0.2,0-0.4,0-0.6,0
				c-0.2,0-0.4-0.2-0.4-0.5c0-0.2,0.2-0.4,0.5-0.4c0.2,0,0.3,0,0.5,0h2c0.2,0,0.4,0.2,0.4,0.4
				C1294.8,417.9,1294.6,418.1,1294.4,418.1z M1373.5,417.3c-0.1,0-0.3-0.1-0.4-0.2c-0.1-0.2-0.1-0.5,0.1-0.6c0.6-0.4,1.1-1,1.4-1.8
				c0.1-0.2,0.3-0.3,0.6-0.2c0.2,0.1,0.3,0.3,0.2,0.6c-0.4,0.9-1,1.6-1.8,2.1C1373.7,417.3,1373.6,417.3,1373.5,417.3z M1289.5,417
				c-0.1,0-0.2,0-0.3-0.1c-0.7-0.6-1.2-1.4-1.5-2.3c-0.1-0.2,0.1-0.5,0.3-0.5c0.2-0.1,0.5,0.1,0.5,0.3c0.2,0.7,0.6,1.4,1.2,1.9
				c0.2,0.2,0.2,0.4,0,0.6C1289.8,417,1289.7,417,1289.5,417z M1375.4,412.9c-0.2,0-0.4-0.2-0.4-0.4v-2.6c0-0.2,0.2-0.4,0.4-0.4
				s0.4,0.2,0.4,0.4v2.6C1375.8,412.7,1375.7,412.9,1375.4,412.9z M1288,412.4c-0.2,0-0.4-0.2-0.4-0.4v-2.6c0-0.2,0.2-0.4,0.4-0.4
				c0.2,0,0.4,0.2,0.4,0.4v2.6C1288.4,412.2,1288.2,412.4,1288,412.4z M1375.4,407.8c-0.2,0-0.4-0.2-0.4-0.4v-2.6
				c0-0.2,0.2-0.4,0.4-0.4s0.4,0.2,0.4,0.4v2.6C1375.8,407.6,1375.7,407.8,1375.4,407.8z M1288,407.3c-0.2,0-0.4-0.2-0.4-0.4v-2.6
				c0-0.2,0.2-0.4,0.4-0.4c0.2,0,0.4,0.2,0.4,0.4v2.6C1288.4,407.1,1288.2,407.3,1288,407.3z M1375.4,402.7c-0.2,0-0.4-0.2-0.4-0.4
				v-2.6c0-0.2,0.2-0.4,0.4-0.4s0.4,0.2,0.4,0.4v2.6C1375.8,402.5,1375.7,402.7,1375.4,402.7z M1288,402.2c-0.2,0-0.4-0.2-0.4-0.4
				v-2.6c0-0.2,0.2-0.4,0.4-0.4c0.2,0,0.4,0.2,0.4,0.4v2.6C1288.4,402,1288.2,402.2,1288,402.2z M1375.4,397.6
				c-0.2,0-0.4-0.2-0.4-0.4v-2.6c0-0.2,0.2-0.4,0.4-0.4s0.4,0.2,0.4,0.4v2.6C1375.8,397.4,1375.7,397.6,1375.4,397.6z M1288,397.1
				c-0.2,0-0.4-0.2-0.4-0.4v-2.6c0-0.2,0.2-0.4,0.4-0.4c0.2,0,0.4,0.2,0.4,0.4v2.6C1288.4,396.9,1288.2,397.1,1288,397.1z
				 M1375.4,392.4c-0.2,0-0.4-0.2-0.4-0.4v-2.6c0-0.2,0.2-0.4,0.4-0.4s0.4,0.2,0.4,0.4v2.6C1375.8,392.2,1375.7,392.4,1375.4,392.4z
				 M1288,391.9c-0.2,0-0.4-0.2-0.4-0.4V389c0-0.2,0.2-0.4,0.4-0.4c0.2,0,0.4,0.2,0.4,0.4v2.6C1288.4,391.7,1288.2,391.9,1288,391.9
				z M1375.4,387.3c-0.2,0-0.4-0.2-0.4-0.4v-2.6c0-0.2,0.2-0.4,0.4-0.4s0.4,0.2,0.4,0.4v2.6C1375.8,387.1,1375.7,387.3,1375.4,387.3
				z M1288,386.8c-0.2,0-0.4-0.2-0.4-0.4v-2.6c0-0.2,0.2-0.4,0.4-0.4c0.2,0,0.4,0.2,0.4,0.4v2.6
				C1288.4,386.6,1288.2,386.8,1288,386.8z M1375.4,382.2c-0.2,0-0.4-0.2-0.4-0.4v-2.6c0-0.2,0.2-0.4,0.4-0.4s0.4,0.2,0.4,0.4v2.6
				C1375.8,382,1375.7,382.2,1375.4,382.2z M1288,381.7c-0.2,0-0.4-0.2-0.4-0.4v-2.6c0-0.2,0.2-0.4,0.4-0.4c0.2,0,0.4,0.2,0.4,0.4
				v2.6C1288.4,381.5,1288.2,381.7,1288,381.7z M1375.4,377.1c-0.2,0-0.4-0.2-0.4-0.4v-2.6c0-0.2,0.2-0.4,0.4-0.4s0.4,0.2,0.4,0.4
				v2.6C1375.8,376.9,1375.7,377.1,1375.4,377.1z M1288,376.6c-0.2,0-0.4-0.2-0.4-0.4v-2.6c0-0.2,0.2-0.4,0.4-0.4
				c0.2,0,0.4,0.2,0.4,0.4v2.6C1288.4,376.4,1288.2,376.6,1288,376.6z M1375.4,372c-0.2,0-0.4-0.2-0.4-0.4V369
				c0-0.2,0.2-0.4,0.4-0.4s0.4,0.2,0.4,0.4v2.6C1375.8,371.8,1375.7,372,1375.4,372z M1288,371.5c-0.2,0-0.4-0.2-0.4-0.4v-2.6
				c0-0.2,0.2-0.4,0.4-0.4c0.2,0,0.4,0.2,0.4,0.4v2.6C1288.4,371.3,1288.2,371.5,1288,371.5z M1375.4,366.9c-0.2,0-0.4-0.2-0.4-0.4
				v-2.6c0-0.2,0.2-0.4,0.4-0.4s0.4,0.2,0.4,0.4v2.6C1375.8,366.7,1375.7,366.9,1375.4,366.9z M1288,366.4c-0.2,0-0.4-0.2-0.4-0.4
				v-2.6c0-0.2,0.2-0.4,0.4-0.4c0.2,0,0.4,0.2,0.4,0.4v2.6C1288.4,366.2,1288.2,366.4,1288,366.4z M1375.4,361.8
				c-0.2,0-0.4-0.2-0.4-0.4v-2.6c0-0.2,0.2-0.4,0.4-0.4s0.4,0.2,0.4,0.4v2.6C1375.8,361.6,1375.7,361.8,1375.4,361.8z M1288,361.3
				c-0.2,0-0.4-0.2-0.4-0.4v-2.6c0-0.2,0.2-0.4,0.4-0.4c0.2,0,0.4,0.2,0.4,0.4v2.6C1288.4,361.1,1288.2,361.3,1288,361.3z
				 M1375.3,356.7c-0.2,0-0.4-0.1-0.4-0.3c-0.2-0.7-0.6-1.4-1.2-1.9c-0.2-0.2-0.2-0.4,0-0.6c0.2-0.2,0.4-0.2,0.6,0
				c0.7,0.6,1.2,1.4,1.5,2.3c0.1,0.2-0.1,0.5-0.3,0.5C1375.3,356.7,1375.3,356.7,1375.3,356.7z M1288.3,356.2c-0.1,0-0.1,0-0.2,0
				c-0.2-0.1-0.3-0.3-0.2-0.6c0.4-0.9,1-1.6,1.8-2.1c0.2-0.1,0.5-0.1,0.6,0.1c0.1,0.2,0.1,0.5-0.1,0.6c-0.6,0.4-1.1,1-1.4,1.8
				C1288.7,356.1,1288.5,356.2,1288.3,356.2z M1371.6,353.6C1371.6,353.6,1371.5,353.6,1371.6,353.6c-0.2,0-0.4,0-0.5,0h-2
				c-0.2,0-0.4-0.2-0.4-0.4c0-0.2,0.2-0.4,0.4-0.4h2c0.2,0,0.4,0,0.6,0c0.2,0,0.4,0.2,0.4,0.5C1372,353.4,1371.8,353.6,1371.6,353.6
				z M1366.5,353.5h-2.6c-0.2,0-0.4-0.2-0.4-0.4c0-0.2,0.2-0.4,0.4-0.4h2.6c0.2,0,0.4,0.2,0.4,0.4
				C1366.9,353.3,1366.7,353.5,1366.5,353.5z M1361.3,353.5h-2.6c-0.2,0-0.4-0.2-0.4-0.4c0-0.2,0.2-0.4,0.4-0.4h2.6
				c0.2,0,0.4,0.2,0.4,0.4C1361.8,353.3,1361.6,353.5,1361.3,353.5z M1356.2,353.5h-2.6c-0.2,0-0.4-0.2-0.4-0.4
				c0-0.2,0.2-0.4,0.4-0.4h2.6c0.2,0,0.4,0.2,0.4,0.4C1356.7,353.3,1356.5,353.5,1356.2,353.5z M1351.1,353.5h-2.6
				c-0.2,0-0.4-0.2-0.4-0.4c0-0.2,0.2-0.4,0.4-0.4h2.6c0.2,0,0.4,0.2,0.4,0.4C1351.6,353.3,1351.4,353.5,1351.1,353.5z M1346,353.5
				h-2.6c-0.2,0-0.4-0.2-0.4-0.4c0-0.2,0.2-0.4,0.4-0.4h2.6c0.2,0,0.4,0.2,0.4,0.4C1346.4,353.3,1346.3,353.5,1346,353.5z
				 M1340.9,353.5h-2.6c-0.2,0-0.4-0.2-0.4-0.4c0-0.2,0.2-0.4,0.4-0.4h2.6c0.2,0,0.4,0.2,0.4,0.4
				C1341.3,353.3,1341.1,353.5,1340.9,353.5z M1335.8,353.5h-2.6c-0.2,0-0.4-0.2-0.4-0.4c0-0.2,0.2-0.4,0.4-0.4h2.6
				c0.2,0,0.4,0.2,0.4,0.4C1336.2,353.3,1336,353.5,1335.8,353.5z M1330.7,353.5h-2.6c-0.2,0-0.4-0.2-0.4-0.4c0-0.2,0.2-0.4,0.4-0.4
				h2.6c0.2,0,0.4,0.2,0.4,0.4C1331.1,353.3,1330.9,353.5,1330.7,353.5z M1325.6,353.5h-2.6c-0.2,0-0.4-0.2-0.4-0.4
				c0-0.2,0.2-0.4,0.4-0.4h2.6c0.2,0,0.4,0.2,0.4,0.4C1326,353.3,1325.8,353.5,1325.6,353.5z M1320.5,353.5h-2.6
				c-0.2,0-0.4-0.2-0.4-0.4c0-0.2,0.2-0.4,0.4-0.4h2.6c0.2,0,0.4,0.2,0.4,0.4C1320.9,353.3,1320.7,353.5,1320.5,353.5z
				 M1315.3,353.5h-2.6c-0.2,0-0.4-0.2-0.4-0.4c0-0.2,0.2-0.4,0.4-0.4h2.6c0.2,0,0.4,0.2,0.4,0.4
				C1315.8,353.3,1315.6,353.5,1315.3,353.5z M1310.2,353.5h-2.6c-0.2,0-0.4-0.2-0.4-0.4c0-0.2,0.2-0.4,0.4-0.4h2.6
				c0.2,0,0.4,0.2,0.4,0.4C1310.7,353.3,1310.5,353.5,1310.2,353.5z M1305.1,353.5h-2.6c-0.2,0-0.4-0.2-0.4-0.4
				c0-0.2,0.2-0.4,0.4-0.4h2.6c0.2,0,0.4,0.2,0.4,0.4C1305.5,353.3,1305.4,353.5,1305.1,353.5z M1300,353.5h-2.6
				c-0.2,0-0.4-0.2-0.4-0.4c0-0.2,0.2-0.4,0.4-0.4h2.6c0.2,0,0.4,0.2,0.4,0.4C1300.4,353.3,1300.2,353.5,1300,353.5z M1294.9,353.5
				h-2.5c-0.2,0-0.4-0.2-0.4-0.4c0-0.2,0.2-0.4,0.4-0.4h2.6c0.2,0,0.4,0.2,0.4,0.4C1295.3,353.3,1295.1,353.5,1294.9,353.5z"/>
		</g>
		<g>
			<path class="st43" d="M1390.4,339.7h-92.2c-5.3,0-9.6-4.3-9.6-9.6v-45.4c0-5.3,4.3-9.6,9.6-9.6h92.2c5.3,0,9.6,4.3,9.6,9.6v45.4
				C1400,335.5,1395.7,339.7,1390.4,339.7z"/>
			<path class="st2" d="M1331.7,294.7v25.6c0,1.6,1.8,2.6,3.1,1.7l19.5-12.8c1.2-0.8,1.2-2.6,0-3.4l-19.5-12.8
				C1333.5,292.1,1331.7,293.1,1331.7,294.7z"/>
			<g>
				<path class="st51" d="M1294.4,333.9c0-1.1,0.9-2,2-2c1.1,0,2,0.9,2,2c0,1.1-0.9,2-2,2C1295.3,335.9,1294.4,335,1294.4,333.9z"/>
				<path class="st51" d="M1387.3,334.5h-90.4c-0.3,0-0.5-0.2-0.5-0.5l0,0c0-0.3,0.2-0.5,0.5-0.5h90.4c0.3,0,0.5,0.2,0.5,0.5l0,0
					C1387.9,334.2,1387.6,334.5,1387.3,334.5z"/>
			</g>
		</g>
		<rect x="1392.7" y="353.1" class="st43" width="57.6" height="86"/>
		<g>
			<g>
				<g>
					<path class="st48" d="M1427.1,380.7h-0.8v-3.5c0-1.3,1-2.3,2.3-2.3h9.7c0.7,0,1.3-0.5,1.5-1.1l1.5-5.9c0.1-0.5,0-0.9-0.3-1.3
						c-0.3-0.4-0.7-0.6-1.2-0.6h-12.7v-0.8h12.7c0.7,0,1.4,0.3,1.8,0.9c0.4,0.6,0.6,1.3,0.4,2l-1.5,5.9c-0.3,1-1.2,1.7-2.2,1.7h-9.7
						c-0.8,0-1.5,0.7-1.5,1.5V380.7z"/>
				</g>
				<path class="st2" d="M1436,368.9h-16.3c-1.6,0-2.8-1.3-2.8-2.8v-1c0-1.6,1.3-2.8,2.8-2.8h16.3c1.6,0,2.8,1.3,2.8,2.8v1
					C1438.8,367.7,1437.5,368.9,1436,368.9z"/>
				<path class="st48" d="M1426.7,395.4L1426.7,395.4c-1.2,0-2.2-1-2.2-2.2v-13.1c0-1.2,1-2.2,2.2-2.2l0,0c1.2,0,2.2,1,2.2,2.2v13.1
					C1428.9,394.5,1427.9,395.4,1426.7,395.4z"/>
			</g>
			<g>
				<path class="st47" d="M1509.6,423.9c0,0,1.5,4.6,1.4,5.6c-0.1,1.1-1.1,4.6-1.7,5.6c-0.7,0.9-1-3.7-1.5-4.4
					c-0.5-0.7-0.1,1.8-0.5,2c-0.4,0.2-1.2-1.8-1.5-2.5c-0.3-0.7,0.8-3.4,0.8-5.2C1506.6,423.1,1509.6,423.9,1509.6,423.9z"/>
				<path class="st46" d="M1474.6,387.5c-0.4-5.3,5.3-8.9,9.8-6.1c0.1,0.1,0.2,0.1,0.3,0.2c6.8,4.4,21.4,24.7,22.4,26.7
					c1,2,4,18.2,4,18.2s-3.7,1.3-5.4-0.1c0,0-5.9-15.4-6.8-16.1c-0.9-0.8-23.8-13.6-24-18.4C1474.8,390.5,1474.7,389,1474.6,387.5z"
					/>
			</g>
			<g>
				<path class="st52" d="M1515.4,506.3c0,0,2.7,2.5,2.2,4.3c-0.5,1.8-3,2.9-3.3,5.1c-0.3,2.2-1.7,3.3-2.9,3.3c-1.2,0-5.7,0-5.7,0
					s-0.9-1.5,1.2-2c2.1-0.5,2.9-3,2.8-5.4c-0.1-2.4,0.2-5.5,0.2-5.5l4.5-1L1515.4,506.3z"/>
				<path class="st52" d="M1481.9,512.8c0,0,0.5,5.7-0.7,6.3l-15.3,0c0,0,0-1.8,2.5-2.2c2.5-0.4,6.8-1.8,7.5-5
					C1476.6,508.6,1481.9,512.8,1481.9,512.8z"/>
				<path class="st2" d="M1469,432.8c0,0,0.8,9.9,1.8,21.9c1.3,16.2,2.8,36.1,3,39.9c0.3,6.5,1.3,17,1.3,17s2.5,2.5,7.6,1.4
					c0,0,4.5-15,5.8-30.8c0-0.3,0-0.5,0.1-0.8c1.2-16.1,3.1-50,3.1-50L1469,432.8z"/>
				<path class="st49" d="M1469,432.8c0,0,0.8,9.9,1.8,21.9l17.7,27.6c0-0.3,0-0.5,0.1-0.8c1.2-16.1,3.1-50,3.1-50L1469,432.8z"/>
				<path class="st2" d="M1472.7,434c0,0,14.6,35.9,24.1,52.8c9.6,16.9,12.6,21.6,12.6,21.6s5.5-2.2,6-3.6c0,0-3.7-32.6-10.1-40.6
					c-3.6-4.5-7.9-18-8.1-22.7c-0.2-4.7-1.3-14-1.3-14L1472.7,434z"/>
			</g>
			<path class="st47" d="M1485.3,380c0,0-9.8,4.9-15.5,3.3c0,0,1.4-1.8,3.8-3.2c-0.2-1.1-0.4-2.1-0.5-3c-0.3-1.9-0.3-3-0.3-3
				l3.7-3.1l3.5-2.9C1479.9,376.2,1485.3,380,1485.3,380z"/>
			<path class="st48" d="M1495,430.3c-3.9,2.4-7.7,4.2-12,5.2c-5.1,1.2-11.5,0.9-13.6,1.2c-0.2,0-0.4,0-0.6-0.2
				c-0.2-0.1-1.1-6.4-2-14.3c0-0.3-0.1-0.6-0.1-1l0-0.1c-0.4-3.1-0.7-6.4-1-9.6c-0.2-2.5-0.4-5-0.5-7.4c-0.2-3-0.2-5.7-0.2-7.9
				c0-1,0.1-1.9,0.2-2.7c0.6-4.6,2.8-7.9,4.8-10.4l1.7-2c2,0.1,4-0.3,6-1.5c2.1-1.4,4.4-2.9,4.8-2.6c3.2,1.8,5.9,6.3,7.7,12.4
				c1.1,3.5,1.9,7.4,2.4,11.6c0.2,1.3,0.3,2.6,0.4,4c0,0.2,0,0.5,0.1,0.7c0.3,3.6,0.7,7,1.1,10.1c0.6,4.1,1.3,7.5,1.8,9.9
				c0.2,1.2,0.4,2.2,0.6,2.9C1496.7,429.1,1495.5,430,1495,430.3z"/>
			<path class="st50" d="M1480.2,371.3c0,0-2.4,4.6-7.1,6c-0.3-1.9-0.3-3-0.3-3l3.7-3.1L1480.2,371.3z"/>
			<path class="st47" d="M1471,374.1c0,0,9.4,1.4,10.2-4.4c0.8-5.8,2.5-9.5-3.5-10.6s-7.5,1-8.2,2.8
				C1468.8,363.7,1468.6,373.6,1471,374.1z"/>
			<path class="st46" d="M1484.4,358.2c0.1-0.1,0.3-0.2,0.7-0.2c0,0-0.4-0.2-0.8-0.2c-0.1-0.6-0.4-1.7-1.5-1.9c0,0,0.6,0.3,0.7,0.9
				c-1.2-1.2-3.9-2.1-11-1.4c-9.5,0.9-6.2,7-5,7.7c1.2,0.7,4.3-1.3,6.6-1.2s2.8,3.4,3.6,3.9c0.8,0.4,0.5-0.4,1.5-0.9
				c1-0.5,1.2,1.2,0.9,2.4c-0.3,1.1,1.2,2.6,1.2,2.6s0,0,1.4-1.6c1.4-1.6,2.7-8.3,2-9.7C1484.5,358.4,1484.5,358.3,1484.4,358.2z"/>
			<path class="st46" d="M1481.4,396.8c0,0-8,6-16.4,7.4c-0.2-3-0.2-5.7-0.2-7.9L1481.4,396.8z"/>
			<g>
				<path class="st47" d="M1432.6,389c-0.1-0.1-1.7-5.6-4.5-5.2c-1.8,0.3-4.8,1.3-4,3.7c0.3,0.9,5.9,4.2,5.9,4.2L1432.6,389z"/>
				<path class="st48" d="M1482.4,385.1c4.5,2.7,4.2,9.5-0.7,11.6c-0.1,0-0.2,0.1-0.3,0.1c-7.5,3-32.5,3.1-34.7,2.8
					c-2.2-0.4-17.2-7.3-17.2-7.3s1-3.8,3.2-4.4c0,0,16,4,17.1,3.8c1.1-0.3,24.8-11.5,28.9-8.9
					C1479.8,383.5,1481.1,384.3,1482.4,385.1z"/>
			</g>
		</g>
		<g>
			<path class="st53" d="M1650.6,207.2h-19.9c-0.8,0-1.5-0.7-1.5-1.5l0,0c0-0.8,0.7-1.5,1.5-1.5h19.9c0.8,0,1.5,0.7,1.5,1.5l0,0
				C1652.2,206.5,1651.5,207.2,1650.6,207.2z"/>
			<path class="st53" d="M1650.6,213.1h-19.9c-0.8,0-1.5-0.7-1.5-1.5l0,0c0-0.8,0.7-1.5,1.5-1.5h19.9c0.8,0,1.5,0.7,1.5,1.5l0,0
				C1652.2,212.4,1651.5,213.1,1650.6,213.1z"/>
			<path class="st53" d="M1650.6,219.2h-19.9c-0.8,0-1.5-0.7-1.5-1.5l0,0c0-0.8,0.7-1.5,1.5-1.5h19.9c0.8,0,1.5,0.7,1.5,1.5l0,0
				C1652.2,218.5,1651.5,219.2,1650.6,219.2z"/>
		</g>
		<path class="st53" d="M1572.7,362.7h-47.4c-1.1,0-2-0.9-2-2l0,0c0-1.1,0.9-2,2-2h47.4c1.1,0,2,0.9,2,2l0,0
			C1574.7,361.8,1573.8,362.7,1572.7,362.7z"/>
		<path class="st53" d="M1341,224.3h-47.4c-1.1,0-2-0.9-2-2l0,0c0-1.1,0.9-2,2-2h47.4c1.1,0,2,0.9,2,2l0,0
			C1343,223.4,1342.1,224.3,1341,224.3z"/>
		<path class="st53" d="M1572.7,382.8h-47.4c-1.1,0-2-0.9-2-2l0,0c0-1.1,0.9-2,2-2h47.4c1.1,0,2,0.9,2,2l0,0
			C1574.7,381.8,1573.8,382.8,1572.7,382.8z"/>
		<path class="st53" d="M1572.7,372.7H1516c-1.1,0-2-0.9-2-2l0,0c0-1.1,0.9-2,2-2h56.7c1.1,0,2,0.9,2,2l0,0
			C1574.7,371.8,1573.8,372.7,1572.7,372.7z"/>
		<g>
			<path class="st53" d="M1326.8,237h-26.4c-0.9,0-1.7-0.8-1.7-1.7v-0.6c0-0.9,0.8-1.7,1.7-1.7h26.4c0.9,0,1.7,0.8,1.7,1.7v0.6
				C1328.5,236.2,1327.7,237,1326.8,237z"/>
			<path class="st53" d="M1289.8,234.9c0-1.1,0.9-2,2-2c1.1,0,2,0.9,2,2c0,1.1-0.9,2-2,2C1290.7,237,1289.8,236.1,1289.8,234.9z"/>
		</g>
		<g>
			<path class="st53" d="M1332,245h-31.6c-0.9,0-1.7-0.8-1.7-1.7v-0.6c0-0.9,0.8-1.7,1.7-1.7h31.6c0.9,0,1.7,0.8,1.7,1.7v0.6
				C1333.7,244.2,1332.9,245,1332,245z"/>
			<path class="st53" d="M1289.8,243c0-1.1,0.9-2,2-2c1.1,0,2,0.9,2,2c0,1.1-0.9,2-2,2C1290.7,245,1289.8,244.1,1289.8,243z"/>
		</g>
		<g>
			<path class="st53" d="M1326.8,253.7h-26.4c-0.9,0-1.7-0.8-1.7-1.7v-0.6c0-0.9,0.8-1.7,1.7-1.7h26.4c0.9,0,1.7,0.8,1.7,1.7v0.6
				C1328.5,252.9,1327.7,253.7,1326.8,253.7z"/>
			<path class="st53" d="M1289.8,251.7c0-1.1,0.9-2,2-2c1.1,0,2,0.9,2,2c0,1.1-0.9,2-2,2C1290.7,253.7,1289.8,252.8,1289.8,251.7z"
				/>
		</g>
		<g>
			<g>
				<path class="st46" d="M1375.6,241.5c-0.4,0-0.7,0.1-1.1,0.1c-1.9,0-3.7-0.8-5-2.1c-2.7-2.8-2.7-7.3,0.1-10.1v0
					c2.8-2.7,7.3-2.7,10.1,0.1c2.7,2.8,2.7,7.3-0.1,10.1C1378.5,240.6,1377.1,241.3,1375.6,241.5z M1370.5,230.2
					c-2.3,2.3-2.4,6.1-0.1,8.4c1.1,1.1,2.6,1.8,4.2,1.8c1.6,0,3.1-0.6,4.2-1.7c2.3-2.3,2.4-6.1,0.1-8.4
					C1376.6,227.9,1372.8,227.9,1370.5,230.2L1370.5,230.2z"/>
			</g>
			
				<rect x="1365.9" y="237.5" transform="matrix(0.6989 0.7152 -0.7152 0.6989 584.8134 -904.3546)" class="st46" width="1.2" height="9.7"/>
			<path class="st46" d="M1360.6,248.1L1360.6,248.1c-0.4-0.4-0.4-1.1,0-1.5l4.1-4c0.4-0.4,1.1-0.4,1.5,0l0,0c0.4,0.4,0.4,1.1,0,1.5
				l-4.1,4C1361.7,248.6,1361,248.6,1360.6,248.1z"/>
		</g>
		<g>
			<path class="st46" d="M1707.4,519.2L1707.4,519.2c-0.9,0-1.9-0.7-2.1-1.5l-54.7-166.5c-0.3-0.8,0.3-1.5,1.2-1.5l0,0
				c0.9,0,1.9,0.7,2.1,1.5l54.7,166.5C1708.8,518.5,1708.3,519.2,1707.4,519.2z"/>
			<path class="st46" d="M1751.5,518.9L1751.5,518.9c-0.9,0-1.9-0.7-2.1-1.5l-54.7-166.5c-0.3-0.8,0.3-1.5,1.2-1.5l0,0
				c0.9,0,1.9,0.7,2.1,1.5l54.7,166.5C1752.9,518.2,1752.4,518.9,1751.5,518.9z"/>
			<path class="st46" d="M1704,374.1l-44.3,0.3c-0.9,0-1.8-0.6-2-1.4l0,0c-0.3-0.8,0.2-1.4,1.1-1.4l44.3-0.3c0.9,0,1.8,0.6,2,1.4
				l0,0C1705.4,373.5,1704.9,374.1,1704,374.1z"/>
			<path class="st46" d="M1713.6,403.2l-44.3,0.3c-0.9,0-1.8-0.6-2-1.4l0,0c-0.3-0.8,0.2-1.4,1.1-1.4l44.3-0.3c0.9,0,1.8,0.6,2,1.4
				l0,0C1714.9,402.6,1714.4,403.2,1713.6,403.2z"/>
			<path class="st46" d="M1722.8,431.2l-44.3,0.3c-0.9,0-1.8-0.6-2-1.4l0,0c-0.3-0.8,0.2-1.4,1.1-1.4l44.3-0.3c0.9,0,1.8,0.6,2,1.4
				l0,0C1724.1,430.6,1723.6,431.2,1722.8,431.2z"/>
			<path class="st46" d="M1733.1,462.7l-44.3,0.3c-0.9,0-1.8-0.6-2-1.4l0,0c-0.3-0.8,0.2-1.4,1.1-1.4l44.3-0.3c0.9,0,1.8,0.6,2,1.4
				l0,0C1734.5,462.1,1734,462.7,1733.1,462.7z"/>
			<path class="st46" d="M1744,495.7l-44.3,0.3c-0.9,0-1.8-0.6-2-1.4l0,0c-0.3-0.8,0.2-1.4,1.1-1.4l44.3-0.3c0.9,0,1.8,0.6,2,1.4
				l0,0C1745.3,495.1,1744.8,495.7,1744,495.7z"/>
		</g>
		<g>
			<path class="st46" d="M1648.7,274.9L1648.7,274.9c-0.3,0.1-0.7-0.2-0.8-0.5l-0.7-3.7c-0.1-0.3,0.2-0.7,0.5-0.8l0,0
				c0.3-0.1,0.7,0.2,0.8,0.5l0.7,3.7C1649.3,274.5,1649,274.9,1648.7,274.9z"/>
			
				<rect x="1646.8" y="263.8" transform="matrix(0.9818 -0.19 0.19 0.9818 -20.6322 317.7919)" class="st46" width="0.4" height="5.4"/>
			<path class="st47" d="M1646.8,234.1c0,0-0.4-3.6-1.3-5c-0.9-1.4-4.2-2.3-4.4-2.1c-0.7,0.6,1.9,2.9,2,3.7c0.1,0.8-1.3,0.3-0.6,1.9
				c0.6,1.4,2.5,3.1,2.5,3.1L1646.8,234.1z"/>
			<path class="st49" d="M1645.2,233.6c1.2-1,1.5-0.9,1.5-0.9s11.3,9.7,12.3,10.6c1.1,0.9,18,5.8,18,5.8l2.7,13.7
				c0,0-22.9-11-25.6-13.3c-4.5-3.7-10.2-14.2-10.2-14.2S1644.2,234.4,1645.2,233.6z"/>
			<path class="st46" d="M1677.3,365.7c0,0-0.2,4.7-1.1,5.8l-12.5,0.1c0.1-0.5,0.1-1.6,1.9-1.9c2.2-0.4,4.8-1.9,6.1-4.8
				C1673.1,361.8,1677.3,365.7,1677.3,365.7z"/>
			<path class="st46" d="M1702,365c0,0,0.9,6.2-0.3,6.3c-0.2,0-5.1,0.1-7.2,0.1c-2.5,0-6.6,0-6.6,0c-0.5,0-0.9-0.5-0.6-1
				c0.3-0.5,0.8-1,1.9-1.2c2.2-0.4,5.8-2,7.1-4.9C1697.6,361.2,1702,365,1702,365z"/>
			<path class="st46" d="M1670.8,301.1c0,0,3.5,12.2,13.5,33.4c10,21.2,10.4,31.4,10.4,31.4s1.5,0.5,3.5,0.3
				c2.2-0.2,3.7-1.2,3.7-1.2s-0.6-25.2-5.4-35.9c-4.7-10.7-5.7-40-5.7-40L1670.8,301.1z"/>
			<path class="st48" d="M1665.2,290.6c0,0-0.3,18.9,3,42.1c3.3,23.2,1.7,34,1.7,34s0.9,0.6,3.5,0.6c3.1,0,4.7-1.3,4.7-1.3
				s4.7-23.2,3.3-34.8c-1.3-11.6,6.4-39.9,6.4-39.9L1665.2,290.6z"/>
			<path class="st47" d="M1680.7,246.4l-3.7,2.7l-5.3-1.1c0.1-0.5,0.4-2.5,0.7-4.3c0-0.1,0-0.2,0.1-0.3c0.3-1.6,0.5-2.9,0.5-2.9
				l5-2.5l1.9-0.9c0,0-0.1,1.7-0.2,2C1679.3,243.4,1680.7,246.4,1680.7,246.4z"/>
			<path class="st2" d="M1691.2,292.9c-1.2,5.5-27.1,3.1-26.7-0.3c0-0.1,0.1-1.7,0.2-3.8c0.2-4.6,0.5-11.7,0.5-12.2c0,0,0,0,0,0
				c0.5-4.7,0.9-9.3,0.9-12.3c0-2.6,0.4-5.3,0.9-7.7c0.4-2.2,1-4.3,1.4-5.8c0.3-1.1,0.9-2.1,1.8-2.9c0.6-0.5,1.3-1,2-1.3
				c0.2-0.1,0.4-0.2,0.6-0.2c3-0.9,7.3-2,8.4-1.6c3.1,0.9,5.4,6.3,7,13.3C1691.3,271.1,1692,289.3,1691.2,292.9z"/>
			<path class="st50" d="M1679.3,239.1c-1.1,2.1-5.2,3.9-6.9,4.6c0-0.1,0-0.2,0.1-0.3c0.3-1.6,0.5-2.9,0.5-2.9l5-2.5
				C1679,237.9,1679.7,238.2,1679.3,239.1z"/>
			<path class="st47" d="M1670.5,240.1c0,0,9,2.8,10.7-2.8c1.7-5.6,3.9-9.1-1.7-11.1c-5.7-2-7.4-0.2-8.4,1.5
				C1670,229.5,1668.2,239.3,1670.5,240.1z"/>
			<path class="st46" d="M1671.4,227.2c0,0,0.6,6.5,1.9,6.3c1.4-0.3,2.6-0.5,2.4,1.5c-0.2,2-2.1,4.3,2.1,4.6
				c4.2,0.3,10.2-10.4,9-12.5C1683.5,221.2,1666.6,220,1671.4,227.2z"/>
			<path class="st49" d="M1664.7,288.9c0.2-4.6,0.5-11.7,0.5-12.2c0,0,0,0,0,0l15.3-9.1C1680.5,267.5,1681.1,288.8,1664.7,288.9z"/>
			<path class="st47" d="M1652.6,269.8c0,0-3.1-2.1-3.7-2.3c-0.6-0.2-2.5-0.4-2.6-0.2c-0.1,0.2-0.4,0.6,0,0.8
				c0.3,0.2,0.8,0.1,0.6,0.2c-0.1,0.1-1.4-0.5-1.7,0.2c-0.3,0.6-0.6,2.9,0.9,3.5c1.5,0.7,5.2,0.1,5.4,0.1
				C1653.8,272.7,1652.6,269.8,1652.6,269.8z"/>
			<path class="st2" d="M1652.5,269.2c0,0,15.1,2.6,16.5,1.9c2.1-1-0.8-16.4-0.8-16.4s-0.1-3.5,3.9-4.3c3.5-0.7,6.9,1.9,6.9,1.9
				s3.1,2.8,2.7,5.9c-0.9,6.8-2.2,20.7-6.8,22.8c-5.9,2.7-22.9-7.6-22.9-7.6s-0.6-0.7-0.5-2C1651.6,270.3,1652.5,269.2,1652.5,269.2
				z"/>
			<path class="st47" d="M1642.4,232.3c0,0-1-1.9-1.1-2.3c-0.2-0.4,0.2-0.3,0.6-0.1c0.4,0.2,0.9,1.3,1.5,1.2
				C1643.7,231,1642.4,232.3,1642.4,232.3z"/>
		</g>
	</g>
</g>
</svg>
