<?xml version="1.0" encoding="utf-8"?>
<!-- Generator: Adobe Illustrator 22.1.0, SVG Export Plug-In . SVG Version: 6.00 Build 0)  -->
<svg version="1.1" id="Layer_1" xmlns="http://www.w3.org/2000/svg" xmlns:xlink="http://www.w3.org/1999/xlink" x="0px" y="0px"
	 viewBox="0 0 448 420" style="enable-background:new 0 0 448 420;" xml:space="preserve">
<style type="text/css">
	.st0{fill:#FFFFFF;}
</style>
<g>
	<g>
		<path class="st0" d="M325.9,133.4h-4.4c-1.1-1.5-2.2-3-3.6-4.3c-6.2-6.2-14.4-9.6-23.1-9.6c-8.2,0-15.9,3-22,8.5
			c-3.9-3.6-8.5-6.9-13.8-9.7c-12.7-6.7-26.4-8.9-36.5-5.8c-5.4,1.7-9.5,4.8-11.8,9.1c-1.8,3.4-2.4,7.4-1.6,11.7h-42.4
			c-7.1,0-12.9,5.8-12.9,12.9v74.4c-1.2-0.1-2.4-0.2-3.6-0.2c-8.7,0-16.9,3.4-23.1,9.6c-6.2,6.2-9.6,14.4-9.6,23.1
			c0,8.2,3,15.9,8.5,22c-3.6,3.9-6.9,8.5-9.7,13.8c-6.7,12.7-8.9,26.4-5.8,36.5c1.7,5.4,4.8,9.5,9.1,11.8c4.3,2.2,9.4,2.6,14.8,0.9
			c9.2-2.8,18.4-11,25-22c2,1.4,4.4,2.2,7.1,2.2h159c7.1,0,12.9-5.8,12.9-12.9V146.4C338.8,139.3,333,133.4,325.9,133.4z M293.6,125
			c7.6,0,14.8,3,20.2,8.3c5.4,5.4,8.4,12.6,8.4,20.2c0,2.6-0.4,5.3-1.1,7.7L285.9,126C288.3,125.4,291,125,293.6,125z M311.8,175.7
			l-2,2l-14.4-14.3c1.7,0.3,3.4,0.9,5.1,1.8C304.6,167.4,308.4,171,311.8,175.7z M304.6,161.6c-0.5-0.3-1.1-0.7-1.6-1
			c-4.3-2.3-8.7-3-12.8-2.4l-4.7-4.7c0.3-4.9-1.2-10.2-4.3-15.4L304.6,161.6z M281.8,171c0.5-1,1.2-1.9,1.8-2.8l17.8,17.8l-5.2,5.2
			c-0.1,0.1-0.3,0.3-0.4,0.4l-15.9-15.9C280.4,174,281.1,172.5,281.8,171z M272,134.8c3.8,4.2,6.4,8.6,7.7,12.8l-10.2-10.2
			L272,134.8z M276.2,160.9c-1.6,1.4-3.6,2.6-6,3.3c-0.5,0.1-0.9,0.2-1.4,0.3l-13.3-13.4c0.1-0.1,0.2-0.3,0.3-0.4l5.2-5.2
			L276.2,160.9z M215.6,124.3c1.6-3,4.6-5.3,8.7-6.5c8.7-2.7,21.1-0.6,32.5,5.4c4.7,2.5,8.9,5.5,12.3,8.7l-17.4,17.4
			c-3.6,3.6-6.2,7.9-7.7,12.5c-2.1-0.8-4.1-1.7-6.2-2.8c-11.3-6-20.1-15.1-22.7-23.8C213.8,131,214,127.3,215.6,124.3z M251.6,164.1
			c-1-0.3-2-0.5-3-0.8c0.1-0.5,0.3-1.2,0.5-1.7L251.6,164.1z M163.3,247.4c2.2-4.1,5.8-7.9,10.5-11.3l2,2l-14.3,14.3
			C161.9,250.9,162.4,249.2,163.3,247.4z M173.9,268.1c-1.7-0.5-3.3-1.1-4.7-1.8c-1-0.5-2-1.2-2.8-1.8l17.8-17.8l5.2,5.2
			c0.1,0.1,0.3,0.3,0.4,0.4L173.9,268.1z M196.1,262.5c0.7,1.8,1.1,3.8,1.4,5.7c-2.8,0.6-5.6,1-8.3,1.2L196.1,262.5z M156.3,257.8
			l-4.7,4.7c-4.9-0.4-10.2,1.2-15.4,4.3l23.5-23.5c-0.3,0.5-0.7,1.1-1,1.6C156.4,249.3,155.6,253.7,156.3,257.8z M145.7,268.4
			l-10.2,10.2l-2.6-2.6C137.1,272.2,141.5,269.6,145.7,268.4z M124.2,262.2c-0.7-2.5-1.1-5.1-1.1-7.8c0-7.6,3-14.8,8.3-20.2
			c5.4-5.4,12.5-8.4,20.2-8.4c2.6,0,5.3,0.4,7.8,1.1L124.2,262.2z M157,310.3c-6,11.3-15.1,20.1-23.8,22.7
			c-4.1,1.3-7.8,1.1-10.8-0.5c-3-1.6-5.3-4.6-6.5-8.7c-2.7-8.7-0.6-21.1,5.4-32.5c2.5-4.7,5.5-8.9,8.7-12.3l17.4,17.4
			c3.6,3.6,7.9,6.2,12.5,7.8C159,306.1,158.1,308.2,157,310.3z M161.4,299.4c-0.6-0.1-1.2-0.3-1.7-0.5l2.5-2.5
			C162,297.4,161.8,298.4,161.4,299.4z M149.4,292.6c-0.1-0.1-0.3-0.3-0.4-0.4l-5.2-5.2l15.2-15.2c1.4,1.6,2.6,3.6,3.3,6
			c0.1,0.5,0.2,0.9,0.3,1.4L149.4,292.6z M166.6,270.9c0.9,0.5,2,0.9,3,1.4l-2.8,2.8c-0.8-2.2-1.8-4.1-3-5.8
			C164.7,269.8,165.7,270.4,166.6,270.9z M169.2,300.5c-0.9,0-1.7,0-2.5-0.1c1-3.5,1.7-7,2-10.4l5.3-5.3c-0.7,3.5,0.2,7.2,3,9.9
			l5.1,2.9C178,299.5,173.7,300.5,169.2,300.5z M182.1,276.6l1.6-1.6c4.5,0.1,9.1-0.3,14-1.4c-0.2,3.9-1.2,7.5-2.8,10.9l-3-5.1
			C189.1,276.8,185.5,275.8,182.1,276.6z M186.6,301.5c0.4-0.3,0.9-0.4,1.2-0.7l9.3-9.4l14.6,24.3L186.6,301.5z M228.8,247.8
			c-4.2,7.9-14.2,15.2-26.3,19c-1.2-6.3-4.3-12.1-8.9-16.7l-16.2-16.2c3.9-2.3,8.1-4.2,12.7-5.6c18.6-5.7,37-1.7,40.3,8.8
			C231.4,240.3,230.8,244,228.8,247.8z M232.8,214.9l14.3-25.3c0,0.1,0.1,0.1,0.1,0.2l10.4,10.2L232.8,214.9z M253.4,178.8l-2.9,5.1
			c-2-3.9-3-8.3-3-12.8c0-0.9,0-1.7,0.1-2.5c3.5,1,7,1.7,10.4,2l5.3,5.3C259.8,175,256,176,253.4,178.8z M263.6,196.7l5.1-3
			c2.6-2.6,3.5-6.3,2.8-9.7l1.6,1.6c-0.1,4.5,0.3,9.1,1.4,14C270.6,199.3,267,198.4,263.6,196.7z M275.8,171.6l-2.7-2.8
			c2.2-0.8,4.1-1.8,5.8-3c-0.6,0.9-1.2,1.8-1.7,2.8C276.6,169.5,276.2,170.6,275.8,171.6z M278.5,191l6.9,7
			c-1.8,0.7-3.8,1.1-5.7,1.4C279.2,196.5,278.8,193.7,278.5,191z M310.9,232.2c-3.3,1-7,0.5-10.8-1.5c-7.9-4.2-15.2-14.2-19-26.3
			c6.3-1.2,12.1-4.3,16.7-8.9l16.2-16.2c2.2,3.9,4.2,8.1,5.6,12.7C325.4,210.6,321.4,229,310.9,232.2z"/>
	</g>
</g>
</svg>
