<?xml version="1.0" encoding="utf-8"?>
<!-- Generator: Adobe Illustrator 22.1.0, SVG Export Plug-In . SVG Version: 6.00 Build 0)  -->
<svg version="1.1" id="Layer_1" xmlns="http://www.w3.org/2000/svg" xmlns:xlink="http://www.w3.org/1999/xlink" x="0px" y="0px"
	 viewBox="0 0 448 420" style="enable-background:new 0 0 448 420;" xml:space="preserve">
<style type="text/css">
	.st0{fill:#FFFFFF;}
</style>
<path class="st0" d="M288.4,241.8c-10.9,0-21-4.6-30.2-12.1l2.3-10.5l0.1-0.4c2-11.2,8.3-30.1,27.9-30.1c14.6,0,26.6,11.9,26.6,26.6
	C315,229.9,303.1,241.8,288.4,241.8L288.4,241.8z M288.4,161.8c-24.9,0-44.3,16.2-52.2,42.9c-12-18-21.1-39.7-26.4-57.9H183v69.9
	c0,13.8-11.2,25-25,25s-25-11.3-25-25.1v-69.9h-26.8v69.9c-0.1,28.6,23.2,52.1,51.9,52.1c28.6,0,51.9-23.5,51.9-52.1V205
	c5.2,10.9,11.7,21.9,19.4,31.7L212.9,314h27.5l11.9-56.2c10.5,6.7,22.5,10.9,36.2,10.9c29.5,0,53.5-24.2,53.5-53.6
	C341.9,185.7,317.9,161.8,288.4,161.8L288.4,161.8z"/>
</svg>
