<?xml version="1.0" encoding="utf-8"?>
<!-- Generator: Adobe Illustrator 22.1.0, SVG Export Plug-In . SVG Version: 6.00 Build 0)  -->
<svg version="1.1" id="Layer_1" xmlns="http://www.w3.org/2000/svg" xmlns:xlink="http://www.w3.org/1999/xlink" x="0px" y="0px"
	 viewBox="0 0 3079.2 2000" style="enable-background:new 0 0 3079.2 2000;" xml:space="preserve">
<style type="text/css">
	.st0{fill:#E1E1E1;}
	.st1{fill:#FAFAFA;}
	.st2{fill:#ECECEC;}
	.st3{fill:#1A2E35;}
	.st4{fill:#375A64;}
	.st5{fill:#FF4F5B;}
	.st6{fill:#4535CE;}
	.st7{fill:#2C29A1;}
	.st8{fill:#4843DA;}
	.st9{fill:#231FA3;}
	.st10{opacity:0.3;}
	.st11{opacity:0.5;}
	.st12{fill:#FFBF9D;}
	.st13{opacity:0.2;}
	.st14{fill:#F5F5F5;}
	.st15{fill:#FFFFFF;}
	.st16{fill:#1C1C1B;}
	.st17{fill:#0E0E85;}
</style>
<g>
	<g>
		<g>
			<g>
				<path class="st0" d="M2948.1,631.2c0-0.7,3.1-1.2,6.9-1.2c3.8,0,6.9,0.5,6.9,1.2c0,0.7-3.1,1.2-6.9,1.2
					C2951.2,632.4,2948.1,631.9,2948.1,631.2z"/>
			</g>
		</g>
		<g>
			<g>
				<path class="st0" d="M2920.5,631.2c0-0.7,3.1-1.2,6.9-1.2c3.8,0,6.9,0.5,6.9,1.2c0,0.7-3.1,1.2-6.9,1.2
					C2923.6,632.4,2920.5,631.9,2920.5,631.2z"/>
			</g>
		</g>
		<g>
			<g>
				<path class="st0" d="M2892.9,631.2c0-0.7,3.1-1.2,6.9-1.2c3.8,0,6.9,0.5,6.9,1.2c0,0.7-3.1,1.2-6.9,1.2
					C2896,632.4,2892.9,631.9,2892.9,631.2z"/>
			</g>
		</g>
		<g>
			<g>
				<path class="st0" d="M2865.3,631.2c0-0.7,3.1-1.2,6.9-1.2c3.8,0,6.9,0.5,6.9,1.2c0,0.7-3.1,1.2-6.9,1.2
					C2868.4,632.4,2865.3,631.9,2865.3,631.2z"/>
			</g>
		</g>
		<g>
			<g>
				<path class="st0" d="M2837.7,631.2c0-0.7,3.1-1.2,6.9-1.2c3.8,0,6.9,0.5,6.9,1.2c0,0.7-3.1,1.2-6.9,1.2
					C2840.8,632.4,2837.7,631.9,2837.7,631.2z"/>
			</g>
		</g>
		<g>
			<g>
				<path class="st0" d="M2810.1,631.2c0-0.7,3.1-1.2,6.9-1.2c3.8,0,6.9,0.5,6.9,1.2c0,0.7-3.1,1.2-6.9,1.2
					C2813.2,632.4,2810.1,631.9,2810.1,631.2z"/>
			</g>
		</g>
		<g>
			<g>
				<path class="st0" d="M2782.5,631.2c0-0.7,3.1-1.2,6.9-1.2c3.8,0,6.9,0.5,6.9,1.2c0,0.7-3.1,1.2-6.9,1.2
					C2785.6,632.4,2782.5,631.9,2782.5,631.2z"/>
			</g>
		</g>
		<g>
			<g>
				<path class="st0" d="M2754.9,631.2c0-0.7,3.1-1.2,6.9-1.2c3.8,0,6.9,0.5,6.9,1.2c0,0.7-3.1,1.2-6.9,1.2
					C2758,632.4,2754.9,631.9,2754.9,631.2z"/>
			</g>
		</g>
		<g>
			<g>
				<path class="st0" d="M2727.3,631.2c0-0.7,3.1-1.2,6.9-1.2c3.8,0,6.9,0.5,6.9,1.2c0,0.7-3.1,1.2-6.9,1.2
					C2730.4,632.4,2727.3,631.9,2727.3,631.2z"/>
			</g>
		</g>
		<g>
			<g>
				<path class="st0" d="M2699.7,631.2c0-0.7,3.1-1.2,6.9-1.2c3.8,0,6.9,0.5,6.9,1.2c0,0.7-3.1,1.2-6.9,1.2
					C2702.8,632.4,2699.7,631.9,2699.7,631.2z"/>
			</g>
		</g>
		<g>
			<g>
				<path class="st0" d="M2672.1,631.2c0-0.7,3.1-1.2,6.9-1.2c3.8,0,6.9,0.5,6.9,1.2c0,0.7-3.1,1.2-6.9,1.2
					C2675.2,632.4,2672.1,631.9,2672.1,631.2z"/>
			</g>
		</g>
		<g>
			<g>
				<path class="st0" d="M2644.5,631.2c0-0.7,3.1-1.2,6.9-1.2c3.8,0,6.9,0.5,6.9,1.2c0,0.7-3.1,1.2-6.9,1.2
					C2647.6,632.4,2644.5,631.9,2644.5,631.2z"/>
			</g>
		</g>
		<g>
			<g>
				<path class="st0" d="M2624.8,623.3c0.7,0,1.2,3.1,1.2,6.9c0,0.3,0,0.7,0,1l-1.2-1.2c3.3,0.1,5.9,0.6,5.9,1.2
					c0,0.6-2.5,1.1-5.9,1.2l-1.2,0l0-1.2c0-0.4,0-0.7,0-1C2623.6,626.4,2624.2,623.3,2624.8,623.3z"/>
			</g>
		</g>
		<g>
			<g>
				<path class="st0" d="M2624.8,595.7c0.7,0,1.2,3.1,1.2,6.9c0,3.8-0.5,6.9-1.2,6.9c-0.7,0-1.2-3.1-1.2-6.9
					C2623.6,598.8,2624.2,595.7,2624.8,595.7z"/>
			</g>
		</g>
		<g>
			<g>
				<path class="st0" d="M2624.8,568.1c0.7,0,1.2,3.1,1.2,6.9c0,3.8-0.5,6.9-1.2,6.9c-0.7,0-1.2-3.1-1.2-6.9
					C2623.6,571.2,2624.2,568.1,2624.8,568.1z"/>
			</g>
		</g>
		<g>
			<g>
				<path class="st0" d="M2624.8,540.5c0.7,0,1.2,3.1,1.2,6.9c0,3.8-0.5,6.9-1.2,6.9c-0.7,0-1.2-3.1-1.2-6.9
					C2623.6,543.6,2624.2,540.5,2624.8,540.5z"/>
			</g>
		</g>
		<g>
			<g>
				<path class="st0" d="M2624.8,512.9c0.7,0,1.2,3.1,1.2,6.9c0,3.8-0.5,6.9-1.2,6.9c-0.7,0-1.2-3.1-1.2-6.9
					C2623.6,516,2624.2,512.9,2624.8,512.9z"/>
			</g>
		</g>
		<g>
			<g>
				<path class="st0" d="M2624.8,485.3c0.7,0,1.2,3.1,1.2,6.9c0,3.8-0.5,6.9-1.2,6.9c-0.7,0-1.2-3.1-1.2-6.9
					C2623.6,488.4,2624.2,485.3,2624.8,485.3z"/>
			</g>
		</g>
		<g>
			<g>
				<path class="st0" d="M2624.8,457.7c0.7,0,1.2,3.1,1.2,6.9c0,3.8-0.5,6.9-1.2,6.9c-0.7,0-1.2-3.1-1.2-6.9
					C2623.6,460.8,2624.2,457.7,2624.8,457.7z"/>
			</g>
		</g>
		<g>
			<g>
				<path class="st0" d="M2624.8,430.1c0.7,0,1.2,3.1,1.2,6.9c0,3.8-0.5,6.9-1.2,6.9c-0.7,0-1.2-3.1-1.2-6.9
					C2623.6,433.2,2624.2,430.1,2624.8,430.1z"/>
			</g>
		</g>
		<g>
			<g>
				<path class="st0" d="M2624.8,402.5c0.7,0,1.2,3.1,1.2,6.9c0,3.8-0.5,6.9-1.2,6.9c-0.7,0-1.2-3.1-1.2-6.9
					C2623.6,405.6,2624.2,402.5,2624.8,402.5z"/>
			</g>
		</g>
		<g>
			<g>
				<path class="st0" d="M2624.8,374.9c0.7,0,1.2,3.1,1.2,6.9c0,3.8-0.5,6.9-1.2,6.9c-0.7,0-1.2-3.1-1.2-6.9
					C2623.6,378,2624.2,374.9,2624.8,374.9z"/>
			</g>
		</g>
		<g>
			<g>
				<path class="st0" d="M2624.8,347.3c0.7,0,1.2,3.1,1.2,6.9c0,3.8-0.5,6.9-1.2,6.9c-0.7,0-1.2-3.1-1.2-6.9
					C2623.6,350.4,2624.2,347.3,2624.8,347.3z"/>
			</g>
		</g>
		<g>
			<g>
				<path class="st0" d="M2624.8,319.7c0.7,0,1.2,3.1,1.2,6.9c0,3.8-0.5,6.9-1.2,6.9c-0.7,0-1.2-3.1-1.2-6.9
					C2623.6,322.8,2624.2,319.7,2624.8,319.7z"/>
			</g>
		</g>
		<g>
			<g>
				<path class="st0" d="M2626.9,294.1c0,0.3-0.8,0.6-2.1,0.9l0.9-0.9c0.2,1.2,0.3,2.9,0.3,4.8c0,3.8-0.5,6.9-1.2,6.9
					c-0.7,0-1.2-3.1-1.2-6.9c0-1.9,0.1-3.6,0.3-4.8l0.2-1l0.7,0.1C2626.1,293.5,2626.9,293.8,2626.9,294.1z"/>
			</g>
		</g>
		<g>
			<g>
				<path class="st0" d="M2654.5,294.1c0,0.7-3.1,1.2-6.9,1.2c-3.8,0-6.9-0.5-6.9-1.2c0-0.7,3.1-1.2,6.9-1.2
					C2651.4,292.9,2654.5,293.5,2654.5,294.1z"/>
			</g>
		</g>
		<g>
			<g>
				<path class="st0" d="M2682.1,294.1c0,0.7-3.1,1.2-6.9,1.2c-3.8,0-6.9-0.5-6.9-1.2c0-0.7,3.1-1.2,6.9-1.2
					C2679,292.9,2682.1,293.5,2682.1,294.1z"/>
			</g>
		</g>
		<g>
			<g>
				<path class="st0" d="M2709.7,294.1c0,0.7-3.1,1.2-6.9,1.2c-3.8,0-6.9-0.5-6.9-1.2c0-0.7,3.1-1.2,6.9-1.2
					C2706.6,292.9,2709.7,293.5,2709.7,294.1z"/>
			</g>
		</g>
		<g>
			<g>
				<path class="st0" d="M2737.3,294.1c0,0.7-3.1,1.2-6.9,1.2c-3.8,0-6.9-0.5-6.9-1.2c0-0.7,3.1-1.2,6.9-1.2
					C2734.2,292.9,2737.3,293.5,2737.3,294.1z"/>
			</g>
		</g>
		<g>
			<g>
				<path class="st0" d="M2764.9,294.1c0,0.7-3.1,1.2-6.9,1.2c-3.8,0-6.9-0.5-6.9-1.2c0-0.7,3.1-1.2,6.9-1.2
					C2761.8,292.9,2764.9,293.5,2764.9,294.1z"/>
			</g>
		</g>
		<g>
			<g>
				<path class="st0" d="M2792.5,294.1c0,0.7-3.1,1.2-6.9,1.2c-3.8,0-6.9-0.5-6.9-1.2c0-0.7,3.1-1.2,6.9-1.2
					C2789.4,292.9,2792.5,293.5,2792.5,294.1z"/>
			</g>
		</g>
		<g>
			<g>
				<path class="st0" d="M2820.1,294.1c0,0.7-3.1,1.2-6.9,1.2c-3.8,0-6.9-0.5-6.9-1.2c0-0.7,3.1-1.2,6.9-1.2
					C2817,292.9,2820.1,293.5,2820.1,294.1z"/>
			</g>
		</g>
		<g>
			<g>
				<path class="st0" d="M2847.7,294.1c0,0.7-3.1,1.2-6.9,1.2c-3.8,0-6.9-0.5-6.9-1.2c0-0.7,3.1-1.2,6.9-1.2
					C2844.6,292.9,2847.7,293.5,2847.7,294.1z"/>
			</g>
		</g>
		<g>
			<g>
				<path class="st0" d="M2875.3,294.1c0,0.7-3.1,1.2-6.9,1.2c-3.8,0-6.9-0.5-6.9-1.2c0-0.7,3.1-1.2,6.9-1.2
					C2872.2,292.9,2875.3,293.5,2875.3,294.1z"/>
			</g>
		</g>
		<g>
			<g>
				<path class="st0" d="M2902.9,294.1c0,0.7-3.1,1.2-6.9,1.2c-3.8,0-6.9-0.5-6.9-1.2c0-0.7,3.1-1.2,6.9-1.2
					C2899.8,292.9,2902.9,293.5,2902.9,294.1z"/>
			</g>
		</g>
		<g>
			<g>
				<path class="st0" d="M2930.5,294.1c0,0.7-3.1,1.2-6.9,1.2c-3.8,0-6.9-0.5-6.9-1.2c0-0.7,3.1-1.2,6.9-1.2
					C2927.4,292.9,2930.5,293.5,2930.5,294.1z"/>
			</g>
		</g>
		<g>
			<g>
				<path class="st0" d="M2958.1,294.1c0,0.7-3.1,1.2-6.9,1.2c-3.8,0-6.9-0.5-6.9-1.2c0-0.7,3.1-1.2,6.9-1.2
					C2955,292.9,2958.1,293.5,2958.1,294.1z"/>
			</g>
		</g>
		<g>
			<g>
				<path class="st0" d="M2961.9,317.9c-0.7,0-1.2-3.1-1.2-6.9c0-3.8,0.5-6.9,1.2-6.9c0.7,0,1.2,3.1,1.2,6.9
					C2963.1,314.8,2962.6,317.9,2961.9,317.9z"/>
			</g>
		</g>
		<g>
			<g>
				<path class="st0" d="M2961.9,345.5c-0.7,0-1.2-3.1-1.2-6.9c0-3.8,0.5-6.9,1.2-6.9c0.7,0,1.2,3.1,1.2,6.9
					C2963.1,342.4,2962.6,345.5,2961.9,345.5z"/>
			</g>
		</g>
		<g>
			<g>
				<path class="st0" d="M2961.9,373.1c-0.7,0-1.2-3.1-1.2-6.9c0-3.8,0.5-6.9,1.2-6.9c0.7,0,1.2,3.1,1.2,6.9
					C2963.1,370,2962.6,373.1,2961.9,373.1z"/>
			</g>
		</g>
		<g>
			<g>
				<path class="st0" d="M2961.9,400.7c-0.7,0-1.2-3.1-1.2-6.9c0-3.8,0.5-6.9,1.2-6.9c0.7,0,1.2,3.1,1.2,6.9
					C2963.1,397.7,2962.6,400.7,2961.9,400.7z"/>
			</g>
		</g>
		<g>
			<g>
				<path class="st0" d="M2961.9,428.3c-0.7,0-1.2-3.1-1.2-6.9c0-3.8,0.5-6.9,1.2-6.9c0.7,0,1.2,3.1,1.2,6.9
					C2963.1,425.3,2962.6,428.3,2961.9,428.3z"/>
			</g>
		</g>
		<g>
			<g>
				<path class="st0" d="M2961.9,456c-0.7,0-1.2-3.1-1.2-6.9c0-3.8,0.5-6.9,1.2-6.9c0.7,0,1.2,3.1,1.2,6.9
					C2963.1,452.9,2962.6,456,2961.9,456z"/>
			</g>
		</g>
		<g>
			<g>
				<path class="st0" d="M2961.9,483.6c-0.7,0-1.2-3.1-1.2-6.9c0-3.8,0.5-6.9,1.2-6.9c0.7,0,1.2,3.1,1.2,6.9
					C2963.1,480.5,2962.6,483.6,2961.9,483.6z"/>
			</g>
		</g>
		<g>
			<g>
				<path class="st0" d="M2961.9,511.2c-0.7,0-1.2-3.1-1.2-6.9c0-3.8,0.5-6.9,1.2-6.9c0.7,0,1.2,3.1,1.2,6.9
					C2963.1,508.1,2962.6,511.2,2961.9,511.2z"/>
			</g>
		</g>
		<g>
			<g>
				<path class="st0" d="M2961.9,538.8c-0.7,0-1.2-3.1-1.2-6.9c0-3.8,0.5-6.9,1.2-6.9c0.7,0,1.2,3.1,1.2,6.9
					C2963.1,535.7,2962.6,538.8,2961.9,538.8z"/>
			</g>
		</g>
		<g>
			<g>
				<path class="st0" d="M2961.9,566.4c-0.7,0-1.2-3.1-1.2-6.9c0-3.8,0.5-6.9,1.2-6.9c0.7,0,1.2,3.1,1.2,6.9
					C2963.1,563.3,2962.6,566.4,2961.9,566.4z"/>
			</g>
		</g>
		<g>
			<g>
				<path class="st0" d="M2961.9,594c-0.7,0-1.2-3.1-1.2-6.9c0-3.8,0.5-6.9,1.2-6.9c0.7,0,1.2,3.1,1.2,6.9
					C2963.1,590.9,2962.6,594,2961.9,594z"/>
			</g>
		</g>
		<g>
			<g>
				<path class="st0" d="M2961.9,621.6c-0.7,0-1.2-3.1-1.2-6.9c0-3.8,0.5-6.9,1.2-6.9c0.7,0,1.2,3.1,1.2,6.9
					C2963.1,618.5,2962.6,621.6,2961.9,621.6z"/>
			</g>
		</g>
	</g>
	<g>
		<rect x="2949.4" y="615.3" class="st0" width="25" height="25"/>
	</g>
	<g>
		<rect x="2612.3" y="618.8" class="st0" width="25" height="25"/>
	</g>
	<g>
		<rect x="2949.4" y="279.2" class="st0" width="25" height="25"/>
	</g>
	<g>
		<rect x="2612.3" y="281.6" class="st0" width="25" height="25"/>
	</g>
</g>
<g>
	<g>
		<g>
			<g>
				<g>
					<path class="st0" d="M539.6,667.1c59.5-52.2,64.9-137.4,54.1-212.3c-1.8-12.5-1.9-25.9-9.1-36.2c-7.2-10.3-21.9-16.3-32.6-9.8
						c-8.8,5.4-11.7,16.7-15.9,26.2c-5.6,12.7-14.9,23.7-26.3,31.4c-7.5,5-17.1,8.7-25.5,5.2c-11.5-4.8-14.4-19.6-15.7-32.1
						c-2.4-23.3-4.8-46.6-7.3-69.8c-1.3-12.5-2.7-25.2-7.9-36.7c-5.2-11.4-15-21.5-27.2-23.5c-12.2-2-26.2,6.4-27.3,18.9
						c-0.5,5.2,1.1,10.4,1.4,15.6c0.2,5.2-1.6,11.2-6.3,13.2c-4.8,2-10.2-1-14.3-4.2c-14.3-11.2-24.8-26.5-34.8-41.7
						c-10-15.2-19.7-30.9-32.9-43.4c-13.2-12.5-30.6-21.6-48.6-20.6c-18,1-35.8,14.1-38.4,32.1c-2.6,18.1,9.6,34.8,22.4,47.8
						c18.9,19.3,40.6,35.8,64.1,48.9c4.2,2.4,8.8,4.9,10.9,9.4c3.6,8-3.3,17.2-11.3,20.8c-9,4.1-19.2,4.3-28.8,6.5
						c-9.6,2.2-19.7,7.7-22.3,17.3c-3.7,13.3,8.4,25.5,19.9,33.1c23,15.2,48.5,26.4,75.1,33c9.6,2.3,19.5,4.2,27.7,9.9
						c8.1,5.6,13.8,16.4,10.3,25.6c-3.5,9.3-14.7,13.4-24.5,12.7c-9.8-0.7-19-5-28.5-7.4c-17.9-4.6-39.9-1-49.2,15.1
						c-6.1,10.5-5.3,24.2-0.4,35.4c4.9,11.2,13.4,20.4,22.3,28.8c31,29.2,69.1,51.3,110.4,60.7C464.4,686.3,501.7,685.9,539.6,667.1
						"/>
				</g>
			</g>
		</g>
	</g>
	<g>
		<g>
			<g>
				<g>
					<g>
						<path class="st1" d="M546.8,722.7c-6-29.5-16.4-63.9-31.7-100.6c-15.3-36.7-35.3-75.6-57.7-115.5c-5.6-10-11.2-19.8-16.7-29.5
							c-5.5-9.7-10.9-19.3-16.9-28.3c-11.7-18.2-24.4-34.7-36.9-50.1c-12.5-15.4-25-29.5-36.7-42.6c-11.8-13.1-23-25.1-33.6-35.6
							c-21.3-21.1-40.4-36-54-45.8c-6.8-4.9-12.1-8.5-15.8-10.9c-1.8-1.1-3.2-2-4.2-2.7c-1-0.6-1.5-0.9-1.5-0.9c0,0,0.4,0.4,1.3,1.1
							c1,0.7,2.4,1.7,4.1,2.9c3.6,2.5,8.9,6.3,15.6,11.3c13.4,9.9,32.3,25,53.4,46.2c10.6,10.5,21.7,22.6,33.3,35.7
							c11.7,13.2,24,27.3,36.5,42.7c12.4,15.3,25,31.9,36.7,49.9c5.9,9,11.3,18.5,16.8,28.2c5.5,9.7,11,19.5,16.7,29.5
							c22.4,39.9,42.4,78.6,57.7,115.2c15.4,36.5,25.9,70.8,32.1,100.1"/>
					</g>
				</g>
			</g>
		</g>
	</g>
	<g>
		<g>
			<g>
				<g>
					<g>
						<path class="st1" d="M423.1,448.8c0.2,0,0.4-1.9,0.6-5.5c0.3-3.5,0.5-8.6,0.7-14.9c0.4-12.6,0.3-30.1,0.2-49.3
							c-0.1-19.2,0.1-36.6,0.7-49.2c0.3-6.3,0.5-11.4,0.8-14.9c0.2-3.5,0.3-5.5,0.1-5.5c-0.2,0-0.5,1.9-1,5.4
							c-0.5,3.5-1,8.6-1.5,14.9c-1,12.6-1.5,30.1-1.3,49.3c0.2,19,0.3,36.2,0.5,49.3c0,5.9,0,10.9,0,14.9
							C422.9,446.8,423,448.8,423.1,448.8z"/>
					</g>
				</g>
			</g>
		</g>
	</g>
	<g>
		<g>
			<g>
				<g>
					<g>
						<path class="st1" d="M259.4,436.5c0,0.2,2.3,0.2,6.5,0.1c4.2-0.1,10.2-0.2,17.6-0.2c14.9,0,35.4,0.6,58.1,2.4
							c22.6,1.8,43.1,4.3,57.8,6.5c7.4,1.1,13.3,2.1,17.4,2.8c4.1,0.7,6.4,1,6.4,0.8c0-0.2-2.2-0.8-6.3-1.7
							c-4.1-0.9-10-2.2-17.3-3.5c-14.7-2.6-35.2-5.4-57.9-7.2c-22.7-1.7-43.3-2.1-58.3-1.7c-7.5,0.2-13.5,0.6-17.6,1
							C261.6,436,259.3,436.3,259.4,436.5z"/>
					</g>
				</g>
			</g>
		</g>
	</g>
	<g>
		<g>
			<g>
				<g>
					<g>
						<path class="st1" d="M512.7,619.4c0.1,0,0.4-0.7,0.9-2.1c0.6-1.7,1.3-3.7,2.1-6.1c1.8-5.3,4.2-13.1,7.1-22.7
							c5.7-19.2,12.8-46.1,20.2-75.8c7.4-29.7,14.2-56.6,19.5-75.9c2.6-9.4,4.8-17.1,6.3-22.9c0.7-2.5,1.2-4.5,1.7-6.2
							c0.4-1.4,0.5-2.2,0.4-2.2c-0.1,0-0.4,0.7-0.9,2.1c-0.6,1.7-1.3,3.7-2.1,6.1c-1.8,5.3-4.2,13.1-7.1,22.7
							c-5.7,19.2-12.8,46.1-20.2,75.8c-7.4,29.7-14.2,56.6-19.5,75.9c-2.6,9.4-4.8,17.1-6.4,22.9c-0.7,2.5-1.2,4.6-1.7,6.2
							C512.8,618.6,512.6,619.4,512.7,619.4z"/>
					</g>
				</g>
			</g>
		</g>
	</g>
	<g>
		<g>
			<g>
				<g>
					<g>
						<path class="st1" d="M291.9,574.2c0,0.1,0.8,0.3,2.2,0.6c1.7,0.4,3.9,0.8,6.4,1.4c5.9,1.2,13.9,2.9,23.7,4.9
							c20,4.1,47.5,10.1,77.9,16.8c30.4,6.7,58,12.5,78.1,16.2c10,1.9,18.2,3.3,23.8,4.2c2.6,0.4,4.8,0.7,6.5,1
							c1.5,0.2,2.3,0.3,2.3,0.2s-0.8-0.3-2.2-0.6c-1.7-0.4-3.8-0.8-6.4-1.4c-5.9-1.2-13.9-2.9-23.6-4.9c-20-4.1-47.5-10.1-77.9-16.8
							c-30.4-6.7-58-12.5-78.1-16.2c-10-1.9-18.2-3.3-23.8-4.2c-2.6-0.4-4.7-0.7-6.5-1C292.7,574.2,291.9,574.1,291.9,574.2z"/>
					</g>
				</g>
			</g>
		</g>
	</g>
</g>
<g>
	<g>
		<g>
			<g>
				<g>
					<path class="st0" d="M2191.4,691.3c-50.8-27.9-71.3-91.5-78.8-150.6c-1.2-9.9-3.8-20-1-29.3c2.8-9.3,11.7-16.7,20.2-13.9
						c7.1,2.4,11.3,10.4,16,16.8c6.3,8.5,14.8,15.1,24.1,18.6c6.1,2.3,13.4,3.2,18.4-1.1c6.9-5.9,5.9-17.7,4.3-27.5
						c-3-18.2-5.9-36.3-8.9-54.5c-1.6-9.7-3.2-19.7-1.9-29.4c1.3-9.7,5.9-19.3,13.9-23.2c7.9-4,19.1-0.3,22.3,9
						c1.4,3.9,1.3,8.1,2.2,12.1c0.9,4,3.3,8.2,6.9,8.8c3.7,0.6,6.7-2.8,8.9-6c7.5-11.3,11.6-25,15.4-38.5
						c3.8-13.5,7.3-27.4,13.8-39.4c6.5-12.1,16.5-22.4,29-25.3c12.4-2.8,27.1,3.6,32.5,16.8c5.3,13.2,0.3,28.3-5.8,40.8
						c-9,18.4-20.5,35.2-33.9,49.8c-2.4,2.6-5,5.5-5.5,9.3c-0.9,6.8,5.7,12.4,11.8,13.6c6.9,1.4,13.9-0.5,20.8-0.8
						c7-0.2,14.9,1.9,18.6,8.7c5.2,9.4-0.7,21-7,29.1c-12.6,16.1-27.8,29.7-44.6,39.9c-6,3.7-12.5,7.1-16.9,13
						c-4.4,5.9-6.2,15.2-1.9,21.5c4.2,6.4,12.6,7.3,19.2,4.8c6.5-2.5,11.9-7.5,17.9-11.3c11.2-7,26.9-8.6,36.5,1.7
						c6.3,6.8,8.4,17.3,7.2,26.8c-1.1,9.5-5.1,18.2-9.5,26.3c-15.3,28.3-36.9,52.6-63.1,67.9C2246.3,690.9,2220.9,698,2191.4,691.3"
						/>
				</g>
			</g>
		</g>
	</g>
	<g>
		<g>
			<g>
				<g>
					<g>
						<path class="st1" d="M2197.5,734.9c-1.7-23.6-1.5-51.8,1.7-82.7c3.1-30.9,9.1-64.4,16.4-99.1c1.9-8.7,3.7-17.3,5.5-25.7
							c1.8-8.4,3.6-16.8,5.9-24.8c4.4-16.1,9.7-31.2,15.2-45.3c5.5-14.1,11.1-27.3,16.5-39.6c5.4-12.3,10.6-23.6,15.8-33.7
							c10.3-20.2,20.4-35.4,27.7-45.4c3.6-5,6.6-8.9,8.6-11.4c1-1.2,1.7-2.2,2.3-2.9c0.5-0.6,0.8-1,0.8-0.9c0,0-0.2,0.4-0.7,1.1
							c-0.5,0.7-1.3,1.7-2.2,3c-1.9,2.6-4.8,6.5-8.4,11.6c-7.1,10.2-17,25.4-27.1,45.6c-5.1,10.1-10.3,21.4-15.6,33.7
							c-5.3,12.3-10.9,25.5-16.4,39.6c-5.4,14.1-10.7,29.2-15.1,45.2c-2.2,8-4,16.3-5.8,24.7c-1.8,8.4-3.6,17-5.5,25.7
							c-7.3,34.7-13.3,68.1-16.5,98.9c-3.2,30.8-3.6,58.9-2,82.4"/>
					</g>
				</g>
			</g>
		</g>
	</g>
	<g>
		<g>
			<g>
				<g>
					<g>
						<path class="st1" d="M2227.4,502.4c-0.1,0-0.6-1.4-1.5-4c-0.9-2.6-2-6.5-3.4-11.2c-2.8-9.5-6.2-22.8-9.9-37.4
							c-3.7-14.6-7.3-27.8-10.2-37.3c-1.4-4.7-2.6-8.5-3.5-11.2c-0.8-2.6-1.3-4.1-1.2-4.2c0.1,0,0.7,1.3,1.7,3.9c1,2.6,2.4,6.3,4,11
							c3.2,9.4,6.9,22.5,10.7,37.2c3.6,14.5,6.9,27.5,9.4,37.5c1.2,4.5,2.1,8.3,2.9,11.3C2227.2,500.9,2227.5,502.4,2227.4,502.4z"
							/>
					</g>
				</g>
			</g>
		</g>
	</g>
	<g>
		<g>
			<g>
				<g>
					<g>
						<path class="st1" d="M2336.4,460.7c0,0.1-1.5,0.6-4.4,1.3c-2.8,0.8-7,1.8-12,3.3c-10.1,2.9-24,7.5-39,13.3
							c-15,5.8-28.4,11.7-38,16.3c-4.8,2.3-8.6,4.2-11.3,5.5c-2.7,1.3-4.2,2-4.2,1.9c-0.1-0.1,1.3-1,3.9-2.6
							c2.6-1.5,6.3-3.7,11.1-6.1c9.5-4.9,22.8-11,37.9-16.9c15.1-5.8,29-10.2,39.3-12.8c5.1-1.3,9.3-2.2,12.2-2.8
							C2334.7,460.8,2336.4,460.6,2336.4,460.7z"/>
					</g>
				</g>
			</g>
		</g>
	</g>
	<g>
		<g>
			<g>
				<g>
					<g>
						<path class="st1" d="M2200.2,649.7c0,0-0.4-0.4-1-1.4c-0.7-1.1-1.6-2.5-2.6-4.2c-2.3-3.7-5.4-9.1-9.3-15.8
							c-7.7-13.5-17.8-32.5-28.7-53.6c-10.9-21.1-20.8-40.2-28.3-53.8c-3.6-6.6-6.6-12.1-8.8-16.1c-1-1.8-1.7-3.2-2.4-4.4
							c-0.5-1-0.8-1.6-0.7-1.6c0,0,0.4,0.5,1,1.4c0.7,1.1,1.6,2.5,2.6,4.2c2.3,3.7,5.4,9.1,9.3,15.8c7.7,13.5,17.8,32.5,28.7,53.6
							c10.9,21.1,20.8,40.1,28.3,53.8c3.6,6.6,6.6,12.1,8.8,16.1c1,1.8,1.7,3.2,2.4,4.4C2200,649.1,2200.3,649.7,2200.2,649.7z"/>
					</g>
				</g>
			</g>
		</g>
	</g>
	<g>
		<g>
			<g>
				<g>
					<g>
						<path class="st1" d="M2341.5,571.7c0,0.1-0.5,0.4-1.4,0.9c-1.1,0.6-2.5,1.4-4.1,2.3c-3.8,2.1-8.9,4.9-15.1,8.4
							c-12.8,7.1-30.3,17.1-49.6,28.2c-19.4,11.1-37,20.9-49.9,27.7c-6.5,3.4-11.7,6.1-15.4,7.9c-1.7,0.8-3.1,1.5-4.2,2
							c-1,0.4-1.5,0.6-1.5,0.6c0-0.1,0.5-0.4,1.4-0.9c1.1-0.6,2.5-1.4,4.1-2.3c3.8-2.1,8.9-4.9,15.1-8.4
							c12.8-7.1,30.3-17.1,49.6-28.2c19.3-11.1,37-20.9,49.9-27.7c6.5-3.4,11.7-6.1,15.4-7.9c1.7-0.8,3.1-1.5,4.2-2
							C2340.9,571.8,2341.5,571.6,2341.5,571.7z"/>
					</g>
				</g>
			</g>
		</g>
	</g>
</g>
<g>
	<g>
		<g>
			<g>
				<g>
					<path class="st0" d="M2185,716.3c25.3-28.2,26.2-75.9,20.2-118c-1-7-1.3-14.5-4.6-20.4c-3.3-5.9-9.9-9.5-14.5-6
						c-3.8,2.9-4.9,9.2-6.6,14.4c-2.3,7-6.1,13-11,17.1c-3.2,2.7-7.4,4.6-11.1,2.5c-5.1-2.9-6.6-11.2-7.4-18.2
						c-1.4-13.1-2.9-26.2-4.3-39.2c-0.8-7-1.6-14.2-4.1-20.7c-2.5-6.5-6.9-12.3-12.3-13.6c-5.4-1.3-11.4,3.2-11.7,10.2
						c-0.1,2.9,0.7,5.8,0.9,8.7c0.2,2.9-0.5,6.3-2.6,7.3c-2.1,1-4.5-0.7-6.4-2.6c-6.5-6.5-11.3-15.2-15.9-23.9
						c-4.6-8.7-9.2-17.6-15.2-24.8c-6-7.2-13.8-12.6-21.7-12.3c-7.9,0.2-15.5,7.3-16.3,17.4c-0.8,10.1,4.8,19.7,10.6,27.2
						c8.6,11.1,18.4,20.7,28.9,28.5c1.9,1.4,4,2.9,4.9,5.4c1.7,4.6-1.2,9.6-4.6,11.5c-3.9,2.2-8.3,2.1-12.5,3.2
						c-4.2,1.1-8.5,4-9.5,9.3c-1.4,7.4,4.1,14.4,9.3,18.9c10.3,8.9,21.7,15.6,33.5,19.7c4.2,1.5,8.6,2.7,12.3,6
						c3.7,3.3,6.3,9.4,5,14.5c-1.4,5.1-6.2,7.2-10.5,6.7c-4.3-0.6-8.4-3.1-12.7-4.6c-7.9-2.9-17.5-1.2-21.4,7.6
						c-2.5,5.8-1.9,13.5,0.4,19.8c2.4,6.4,6.2,11.6,10.3,16.5c14.1,16.9,31.2,29.9,49.5,35.8C2152.3,725.7,2168.7,726.2,2185,716.3"
						/>
				</g>
			</g>
		</g>
	</g>
	<g>
		<g>
			<g>
				<g>
					<g>
						<path class="st1" d="M2189.1,747.5c-3.1-16.6-8.3-36.1-15.6-56.9c-7.3-20.8-16.8-42.9-27.2-65.7c-2.6-5.7-5.2-11.3-7.8-16.8
							c-2.6-5.5-5.1-11-7.9-16.1c-5.5-10.4-11.3-19.9-17-28.7c-5.7-8.8-11.4-16.9-16.8-24.5c-5.4-7.5-10.5-14.4-15.3-20.5
							c-9.7-12.2-18.3-20.9-24.4-26.5c-3.1-2.8-5.5-5-7.1-6.4c-0.8-0.7-1.4-1.2-1.9-1.6c-0.4-0.3-0.7-0.5-0.7-0.5
							c0,0,0.2,0.2,0.6,0.6c0.5,0.4,1.1,1,1.8,1.7c1.6,1.5,4,3.7,7,6.6c6,5.8,14.6,14.6,24.2,26.8c4.8,6.1,9.9,13,15.2,20.6
							c5.3,7.6,11,15.7,16.7,24.5c5.7,8.8,11.5,18.3,16.9,28.6c2.7,5.1,5.2,10.6,7.8,16.1c2.6,5.5,5.2,11.1,7.8,16.8
							c10.5,22.7,19.9,44.7,27.3,65.5c7.4,20.7,12.5,40.1,15.8,56.6"/>
					</g>
				</g>
			</g>
		</g>
	</g>
	<g>
		<g>
			<g>
				<g>
					<g>
						<path class="st1" d="M2130.2,592c0.1,0,0.1-1.1,0.2-3c0.1-2,0.1-4.8,0.1-8.4c0-7.1-0.4-16.8-0.7-27.6
							c-0.4-10.8-0.6-20.5-0.5-27.6c0-3.5,0.1-6.4,0.1-8.3c0-2,0-3.1,0-3.1c-0.1,0-0.2,1.1-0.3,3c-0.2,1.9-0.3,4.8-0.4,8.3
							c-0.2,7-0.1,16.8,0.2,27.6c0.4,10.6,0.7,20.3,1,27.6c0.1,3.3,0.2,6.1,0.3,8.4C2130.1,590.9,2130.2,592,2130.2,592z"/>
					</g>
				</g>
			</g>
		</g>
	</g>
	<g>
		<g>
			<g>
				<g>
					<g>
						<path class="st1" d="M2058.2,582.4c0,0.1,1,0.1,2.8,0.1c1.8,0,4.5,0,7.7,0.2c6.5,0.2,15.6,0.9,25.5,2.3
							c10,1.4,19,3.1,25.5,4.6c3.3,0.7,5.9,1.4,7.7,1.8c1.8,0.5,2.8,0.7,2.8,0.6c0-0.1-1-0.5-2.8-1.1c-1.8-0.6-4.4-1.4-7.7-2.2
							c-6.5-1.7-15.5-3.6-25.5-5c-10-1.3-19.1-1.9-25.6-1.9c-3.3,0-5.9,0.1-7.7,0.2C2059.2,582.2,2058.2,582.3,2058.2,582.4z"/>
					</g>
				</g>
			</g>
		</g>
	</g>
	<g>
		<g>
			<g>
				<g>
					<g>
						<path class="st1" d="M2172.4,689.1c0,0,0.2-0.4,0.4-1.1c0.2-0.9,0.5-2,0.8-3.4c0.7-2.9,1.6-7.2,2.7-12.6
							c2.2-10.7,4.8-25.6,7.6-42.1c2.8-16.5,5.3-31.4,7.3-42.2c1-5.2,1.8-9.5,2.4-12.7c0.3-1.4,0.5-2.5,0.6-3.5
							c0.1-0.8,0.2-1.2,0.2-1.2c0,0-0.2,0.4-0.4,1.2c-0.2,0.9-0.5,2-0.8,3.4c-0.7,2.9-1.6,7.2-2.7,12.6c-2.2,10.7-4.8,25.6-7.6,42.1
							c-2.7,16.5-5.3,31.4-7.3,42.2c-1,5.2-1.8,9.5-2.4,12.7c-0.3,1.4-0.5,2.5-0.6,3.5C2172.4,688.7,2172.4,689.1,2172.4,689.1z"/>
					</g>
				</g>
			</g>
		</g>
	</g>
	<g>
		<g>
			<g>
				<g>
					<g>
						<path class="st1" d="M2074.7,660.1c0,0,0.3,0.2,1,0.4c0.8,0.2,1.7,0.5,2.8,0.9c2.6,0.8,6.2,1.8,10.5,3.1
							c8.8,2.6,21,6.5,34.5,10.7c13.5,4.3,25.7,7.9,34.5,10.4c4.4,1.2,8,2.1,10.5,2.7c1.1,0.3,2.1,0.5,2.9,0.6c0.7,0.1,1,0.2,1,0.1
							s-0.3-0.2-1-0.4c-0.8-0.2-1.7-0.5-2.8-0.9c-2.6-0.8-6.2-1.8-10.5-3.1c-8.8-2.6-21-6.5-34.5-10.7c-13.5-4.3-25.7-7.9-34.5-10.4
							c-4.4-1.2-8-2.1-10.5-2.7c-1.1-0.3-2.1-0.5-2.9-0.6C2075.1,660.1,2074.7,660.1,2074.7,660.1z"/>
					</g>
				</g>
			</g>
		</g>
	</g>
</g>
<g>
	<g>
		<g>
			<g>
				<g>
					<path class="st0" d="M538.5,672.3c-39-21.4-54.8-70.3-60.5-115.6c-1-7.6-2.9-15.4-0.8-22.5c2.2-7.1,9-12.9,15.5-10.7
						c5.4,1.8,8.6,8,12.3,12.9c4.9,6.5,11.4,11.6,18.5,14.3c4.7,1.8,10.3,2.4,14.1-0.9c5.3-4.5,4.5-13.6,3.3-21.1
						c-2.3-13.9-4.5-27.9-6.8-41.8c-1.2-7.5-2.4-15.1-1.5-22.6c1-7.4,4.6-14.8,10.6-17.8c6.1-3,14.6-0.2,17.1,6.9c1,3,1,6.2,1.7,9.3
						c0.7,3.1,2.5,6.3,5.3,6.7c2.8,0.4,5.2-2.1,6.8-4.6c5.8-8.7,8.9-19.2,11.8-29.6c2.9-10.4,5.6-21,10.6-30.3
						c5-9.3,12.7-17.2,22.2-19.4c9.5-2.2,20.8,2.8,24.9,12.9c4.1,10.2,0.2,21.8-4.4,31.3c-6.9,14.1-15.7,27-26,38.2
						c-1.9,2-3.9,4.2-4.2,7.1c-0.7,5.2,4.4,9.5,9,10.4c5.3,1,10.7-0.4,16-0.6c5.4-0.2,11.4,1.5,14.3,6.7c4,7.2-0.5,16.2-5.4,22.3
						c-9.7,12.4-21.3,22.8-34.2,30.6c-4.6,2.8-9.6,5.4-12.9,9.9c-3.4,4.5-4.7,11.6-1.5,16.5c3.2,4.9,9.7,5.6,14.7,3.7
						c5-1.9,9.2-5.8,13.8-8.7c8.6-5.4,20.7-6.6,28,1.3c4.8,5.2,6.4,13.3,5.6,20.6c-0.9,7.3-3.9,13.9-7.3,20.2
						c-11.8,21.8-28.3,40.4-48.4,52.2C580.7,672,561.2,677.5,538.5,672.3"/>
				</g>
			</g>
		</g>
	</g>
	<g>
		<g>
			<g>
				<g>
					<g>
						<path class="st1" d="M543.3,705.8c-1.3-18.1-1.1-39.8,1.3-63.5c2.4-23.7,7-49.4,12.6-76.1c1.4-6.7,2.8-13.2,4.2-19.7
							c1.4-6.5,2.8-12.9,4.5-19.1c3.4-12.4,7.5-23.9,11.7-34.8c4.2-10.9,8.6-21,12.7-30.4c4.2-9.4,8.2-18.1,12.1-25.9
							c7.9-15.5,15.6-27.1,21.2-34.9c2.8-3.9,5.1-6.8,6.6-8.8c0.8-0.9,1.3-1.7,1.8-2.2c0.4-0.5,0.6-0.7,0.6-0.7c0,0-0.2,0.3-0.5,0.8
							c-0.4,0.6-1,1.3-1.7,2.3c-1.5,2-3.7,5-6.4,8.9c-5.5,7.8-13.1,19.5-20.8,35c-3.9,7.8-7.9,16.5-12,25.9
							c-4.1,9.4-8.4,19.6-12.6,30.4c-4.2,10.8-8.2,22.4-11.6,34.7c-1.7,6.1-3.1,12.5-4.5,19c-1.4,6.5-2.8,13.1-4.2,19.7
							c-5.6,26.7-10.2,52.3-12.7,75.9c-2.5,23.6-2.8,45.2-1.6,63.2"/>
					</g>
				</g>
			</g>
		</g>
	</g>
	<g>
		<g>
			<g>
				<g>
					<g>
						<path class="st1" d="M566.2,527.3c-0.1,0-0.5-1.1-1.2-3.1c-0.7-2-1.6-5-2.6-8.6c-2.1-7.3-4.7-17.5-7.6-28.7
							c-2.9-11.2-5.6-21.4-7.8-28.6c-1.1-3.6-2-6.6-2.7-8.6c-0.6-2-1-3.2-0.9-3.2c0.1,0,0.6,1,1.3,3c0.8,2,1.8,4.8,3.1,8.4
							c2.4,7.2,5.3,17.3,8.2,28.6c2.8,11.1,5.3,21.1,7.2,28.8c0.9,3.5,1.6,6.4,2.2,8.7C566,526.1,566.3,527.3,566.2,527.3z"/>
					</g>
				</g>
			</g>
		</g>
	</g>
	<g>
		<g>
			<g>
				<g>
					<g>
						<path class="st1" d="M649.8,495.3c0,0.1-1.2,0.5-3.4,1c-2.2,0.6-5.3,1.4-9.2,2.6c-7.8,2.2-18.4,5.7-30,10.2
							c-11.6,4.5-21.8,9-29.2,12.5c-3.7,1.7-6.6,3.2-8.7,4.2c-2,1-3.2,1.6-3.2,1.5c0-0.1,1-0.8,3-2c2-1.2,4.9-2.8,8.5-4.7
							c7.3-3.8,17.5-8.5,29.1-13c11.6-4.5,22.3-7.8,30.2-9.8c3.9-1,7.1-1.7,9.4-2.1C648.6,495.3,649.8,495.2,649.8,495.3z"/>
					</g>
				</g>
			</g>
		</g>
	</g>
	<g>
		<g>
			<g>
				<g>
					<g>
						<path class="st1" d="M545.3,640.4c0,0-0.3-0.3-0.8-1.1c-0.5-0.9-1.2-1.9-2-3.2c-1.7-2.8-4.2-7-7.1-12.2
							c-5.9-10.3-13.7-24.9-22-41.1c-8.4-16.2-16-30.8-21.7-41.3c-2.8-5.1-5.1-9.3-6.8-12.4c-0.7-1.4-1.3-2.5-1.8-3.4
							c-0.4-0.8-0.6-1.2-0.6-1.2c0,0,0.3,0.3,0.8,1.1c0.5,0.9,1.2,1.9,2,3.2c1.7,2.8,4.2,7,7.1,12.2c5.9,10.3,13.7,24.9,22,41.1
							c8.4,16.2,16,30.8,21.7,41.3c2.8,5.1,5.1,9.3,6.8,12.4c0.7,1.4,1.3,2.5,1.8,3.4C545.2,639.9,545.4,640.3,545.3,640.4z"/>
					</g>
				</g>
			</g>
		</g>
	</g>
	<g>
		<g>
			<g>
				<g>
					<g>
						<path class="st1" d="M653.8,580.5c0,0-0.3,0.3-1.1,0.7c-0.8,0.5-1.9,1.1-3.1,1.8c-2.9,1.6-6.8,3.8-11.6,6.4
							c-9.8,5.4-23.3,13.1-38.1,21.6c-14.9,8.5-28.4,16.1-38.3,21.3c-5,2.6-9,4.7-11.8,6c-1.3,0.6-2.4,1.1-3.2,1.5
							c-0.7,0.3-1.2,0.5-1.2,0.5c0,0,0.3-0.3,1.1-0.7c0.8-0.5,1.9-1.1,3.1-1.8c2.9-1.6,6.8-3.8,11.6-6.4
							c9.8-5.4,23.3-13.1,38.1-21.6c14.9-8.5,28.4-16.1,38.3-21.3c5-2.6,9-4.7,11.8-6c1.3-0.6,2.4-1.1,3.2-1.5
							C653.3,580.6,653.7,580.4,653.8,580.5z"/>
					</g>
				</g>
			</g>
		</g>
	</g>
</g>
<g>
	<g>
		
			<ellipse transform="matrix(0.7071 -0.7071 0.7071 0.7071 -560.0799 1521.9961)" class="st0" cx="1557.2" cy="1437.1" rx="491" ry="491"/>
	</g>
	<g>
		<path class="st1" d="M1557.2,1824.6c-213.7,0-387.5-173.8-387.5-387.5c0-213.7,173.8-387.5,387.5-387.5
			c213.7,0,387.5,173.8,387.5,387.5C1944.7,1650.7,1770.8,1824.6,1557.2,1824.6z M1557.2,1053.5c-211.5,0-383.5,172.1-383.5,383.5
			s172.1,383.5,383.5,383.5s383.5-172.1,383.5-383.5S1768.7,1053.5,1557.2,1053.5z"/>
	</g>
	<g>
		<path class="st1" d="M1557.2,1886.4c-247.7,0-449.3-201.6-449.3-449.3s201.6-449.3,449.3-449.3c247.7,0,449.3,201.6,449.3,449.3
			S1804.9,1886.4,1557.2,1886.4z M1557.2,991.7c-245.6,0-445.4,199.8-445.4,445.4c0,245.6,199.8,445.4,445.4,445.4
			c245.6,0,445.4-199.8,445.4-445.4C2002.5,1191.5,1802.7,991.7,1557.2,991.7z"/>
	</g>
	<g>
		<path class="st1" d="M1557.2,1773.1c-185.3,0-336-150.7-336-336c0-185.3,150.7-336,336-336c185.3,0,336,150.7,336,336
			C1893.1,1622.3,1742.4,1773.1,1557.2,1773.1z M1557.2,1105c-183.1,0-332,148.9-332,332c0,183.1,148.9,332,332,332
			c183.1,0,332-148.9,332-332C1889.2,1254,1740.3,1105,1557.2,1105z"/>
	</g>
	<g>
		<path class="st1" d="M1557.2,1720.4c-156.2,0-283.3-127.1-283.3-283.3s127.1-283.3,283.3-283.3c156.2,0,283.3,127.1,283.3,283.3
			S1713.4,1720.4,1557.2,1720.4z M1557.2,1157.7c-154.1,0-279.4,125.3-279.4,279.4c0,154.1,125.3,279.4,279.4,279.4
			c154.1,0,279.4-125.3,279.4-279.4C1836.6,1283,1711.2,1157.7,1557.2,1157.7z"/>
	</g>
	<g>
		<path class="st1" d="M1557.2,1666.4c-126.5,0-229.4-102.9-229.4-229.4c0-126.5,102.9-229.4,229.4-229.4
			c126.5,0,229.4,102.9,229.4,229.4C1786.5,1563.5,1683.6,1666.4,1557.2,1666.4z M1557.2,1211.6c-124.3,0-225.4,101.1-225.4,225.4
			c0,124.3,101.1,225.4,225.4,225.4c124.3,0,225.4-101.1,225.4-225.4C1782.6,1312.8,1681.5,1211.6,1557.2,1211.6z"/>
	</g>
	<g>
		<path class="st1" d="M1557.2,1617.9c-99.7,0-180.8-81.1-180.8-180.8c0-99.7,81.1-180.8,180.8-180.8c99.7,0,180.8,81.1,180.8,180.8
			C1738,1536.8,1656.9,1617.9,1557.2,1617.9z M1557.2,1260.2c-97.5,0-176.9,79.3-176.9,176.9c0,97.5,79.3,176.9,176.9,176.9
			c97.5,0,176.9-79.3,176.9-176.9C1734,1339.6,1654.7,1260.2,1557.2,1260.2z"/>
	</g>
</g>
<g>
	<rect x="1370.3" y="130" class="st2" width="362.2" height="362.2"/>
</g>
<g>
	<g>
		
			<rect x="1350.3" y="1264" transform="matrix(0.9973 -7.294961e-02 7.294961e-02 0.9973 -105.2167 118.1382)" class="st3" width="428.7" height="470.9"/>
	</g>
	<g>
		<polygon class="st4" points="1748.3,1486.3 1742.1,1347.4 1368.6,1382.5 1382.8,1526.7 		"/>
	</g>
	<g>
		<path class="st4" d="M1826.5,1727.2l-478.7,32.2c-16.7,1.1-31.1-11.5-32.2-28.2l0,0c-1.1-16.7,11.5-31.1,28.2-32.2l478.7-32.2
			c16.7-1.1,31.1,11.5,32.2,28.2l0,0C1855.8,1711.6,1843.2,1726,1826.5,1727.2z"/>
	</g>
</g>
<g>
	<g>
		<rect x="161.3" y="675.4" class="st2" width="2800.9" height="721.6"/>
	</g>
	<g>
		<polygon class="st0" points="161.3,1397 233.7,1418.5 2892.9,1417.1 2962.3,1397 		"/>
	</g>
</g>
<g>
	<g>
		<g>
			<g>
				<polygon class="st4" points="1145.3,1335 1142.2,804.8 1956.9,804.8 1956.9,1340.5 				"/>
			</g>
			<g>
				<g>
					<path class="st1" d="M1313.4,1234.1c31.5-1.6,63.6,5.8,95.1,9.4l-16.9-4.5c-2.6-29.9,8.8-60.8,30.4-81.8
						c21.6-20.9,52.7-31.5,82.6-28.1c22.4,2.6,44.4,12.7,66.7,8.9c40.8-6.9,61.8-55.4,100.5-70c49.5-18.6,107.2,24.9,156,4.5
						c19.8-8.2,34.2-25.7,52.5-36.7c15.7-9.4,38.5-12.2,51.8-1.3V920.7c-13.1,25.2-45.2,37.5-74.1,35.1
						c-30.7-2.5-58.6-17.9-85.3-33.2c-26.7-15.3-54.1-31.3-84.7-35.2c-43.5-5.6-85.6,13.8-127.8,25.7c-38.1,10.7-79.1,15.4-117,4.4
						c-1.3-0.4-2.5-0.8-3.8-1.3c-4.8,4.5-9.9,8.4-15.8,11.3c-32.3,15.7-75.5-5.3-105,15.1c-17.7,12.3-23.8,35.2-36.8,52.4
						c-24,31.7-81.7,40.8-114.9,18.6v262l0.1,33.9l17.4,0C1212.7,1266.3,1261.7,1236.8,1313.4,1234.1z M1812.4,1000.4
						c2-1.6,4.2-2.6,6.6-3.2c0.3-0.1,0.6-0.3,0.9-0.3l-0.4,0.2c7.7-1.7,16.6,1.3,20.9,8.1c5.7,9,1.9,22.7-7.7,27.4
						c-9.6,4.7-22.8-0.6-26.4-10.6c-2.9-8.1,0.9-17.6,7.9-22.4L1812.4,1000.4z"/>
				</g>
				<g>
					<path class="st5" d="M1932.1,1034.6c-13.3-10.9-36-8.1-51.8,1.3c-18.4,11-32.7,28.5-52.5,36.7c-48.8,20.3-106.5-23.1-156-4.5
						c-38.7,14.5-59.7,63.1-100.5,70c-22.3,3.7-44.3-6.3-66.7-8.9c-29.9-3.5-61,7.1-82.6,28.1c-21.6,20.9-33,51.8-30.4,81.8
						l16.9,4.5c24.6,2.8,48.8,3.4,72.1-4.5c67.2-22.7,103.8-108.3,174.3-116.4c39.1-4.5,78.1,17.2,116.9,10.6
						c31.5-5.4,56.5-28.2,82.5-46.7c25.5-18.2,51.1-35.5,80.1-24.9v-24.9C1933.6,1036,1932.8,1035.3,1932.1,1034.6z"/>
				</g>
				<g>
					<g>
						<path class="st6" d="M1854.2,1086.5c-26,18.5-51,41.3-82.5,46.7c-38.8,6.6-77.8-15.1-116.9-10.6
							c-70.5,8.1-107.1,93.7-174.3,116.4c-23.3,7.9-47.5,7.4-72.1,4.5c-31.5-3.6-63.6-11-95.1-9.4c-51.6,2.7-100.7,32.3-128.9,75.4
							l17.1,0c16.5-17.1,38.2-29,61.9-34.7c34.4-8.4,72.3-1.1,101,19.5c6.6,4.7,12.8,10.1,19.1,15.5l128.2,0.1
							c5.7-3.2,11.3-6.4,17.1-9.3c23.2-11.8,49.8-20,75.2-14.6c15.7,3.3,30.5,11.9,39.3,24l137.3,0.1c4.5-9.1,12.4-16.6,22.2-19.5
							c10.4-3.2,22.3-2,31.2-8.2c10.3-7.3,12.2-21.4,16.4-33.3c11.7-33,49.3-54.4,83.6-47.9v-139.6
							C1905.3,1050.9,1879.7,1068.3,1854.2,1086.5z M1732.8,1282.4c-21.9,10.8-51.8-1.3-60.1-24.2c-6.5-18.1,1.7-39.5,17.1-50.5
							l-3.4,1.6c3.8-3,8.1-5.2,12.7-6.6c1.5-0.5,2.9-1,4.5-1.4l-0.8,0.4c17.6-3.8,37.8,3,47.5,18.4
							C1763.4,1240.6,1754.7,1271.6,1732.8,1282.4z M1885.2,1126.6c-5.9,2.9-13.9-0.4-16.1-6.5c-1.8-4.9,0.6-10.7,4.8-13.7l-1.2,0.5
							c1.2-0.9,2.6-1.6,4-1.9c0.2-0.1,0.4-0.2,0.6-0.2l-0.2,0.1c4.7-1,10.1,0.8,12.7,4.9C1893.3,1115.4,1891,1123.7,1885.2,1126.6z"
							/>
					</g>
				</g>
				<g>
					<path class="st7" d="M1850.6,1249.1c-4.2,11.9-6.1,26-16.4,33.3c-8.9,6.2-20.8,5-31.2,8.2c-9.8,3-17.6,10.4-22.2,19.5
						l153.4,0.2v-109C1899.9,1194.7,1862.3,1216.1,1850.6,1249.1z"/>
				</g>
				<g>
					<path class="st8" d="M1263.5,1274.7c-23.7,5.8-45.4,17.6-61.9,34.7l182.1,0.2c-6.3-5.3-12.5-10.7-19.1-15.5
						C1335.8,1273.6,1297.9,1266.3,1263.5,1274.7z"/>
				</g>
				<g>
					<path class="st8" d="M1604.3,1285.9c-25.5-5.4-52,2.8-75.2,14.6c-5.8,2.9-11.5,6.1-17.1,9.3l131.7,0.1
						C1634.7,1297.8,1619.9,1289.2,1604.3,1285.9z"/>
				</g>
				<g>
					<path class="st6" d="M1551.1,865.1c-22.9,1.7-47.4-2.2-67.8,8.4c-18.3,9.5-29.3,28.9-44.3,42.8c1.3,0.4,2.5,0.9,3.8,1.3
						c38,11,79,6.4,117-4.4c42.2-11.9,84.3-31.3,127.8-25.7c30.6,3.9,58,19.9,84.7,35.2c26.7,15.3,54.6,30.7,85.3,33.2
						c28.9,2.4,61-9.9,74.1-35.1V911v-84.1l0,0l-329.3-0.2C1600.7,849.5,1573.9,863.4,1551.1,865.1z"/>
				</g>
				<g>
					<path class="st8" d="M1806.4,1021.9c3.6,10.1,16.8,15.4,26.4,10.6c9.6-4.7,13.4-18.4,7.7-27.4c-4.3-6.8-13.2-9.8-20.9-8.1
						l0.4-0.2c-0.3,0.1-0.6,0.2-0.9,0.3c-2.4,0.6-4.7,1.6-6.6,3.2l1.9-0.9C1807.4,1004.3,1803.5,1013.8,1806.4,1021.9z"/>
				</g>
				<g>
					<path class="st5" d="M1702.8,1201.6l0.8-0.4c-1.5,0.4-3,0.8-4.5,1.4c-4.6,1.4-8.9,3.6-12.7,6.6l3.4-1.6
						c-15.4,11-23.6,32.5-17.1,50.5c8.3,22.9,38.2,35,60.1,24.2c21.9-10.8,30.6-41.8,17.5-62.4
						C1740.6,1204.6,1720.4,1197.8,1702.8,1201.6z"/>
				</g>
				<g>
					<g>
						<path class="st8" d="M1702.8,1201.6l0.8-0.4c-1.5,0.4-3,0.8-4.5,1.4c-4.6,1.4-8.9,3.6-12.7,6.6l3.4-1.6
							c-15.4,11-23.6,32.5-17.1,50.5c8.3,22.9,38.2,35,60.1,24.2c21.9-10.8,30.6-41.8,17.5-62.4
							C1740.6,1204.6,1720.4,1197.8,1702.8,1201.6z"/>
					</g>
				</g>
				<g>
					<path class="st8" d="M1889.8,1109.9c-2.6-4.1-8-6-12.7-4.9l0.2-0.1c-0.2,0-0.4,0.1-0.6,0.2c-1.5,0.4-2.8,1-4,1.9l1.2-0.5
						c-4.3,2.9-6.6,8.7-4.8,13.7c2.2,6.1,10.2,9.4,16.1,6.5C1891,1123.7,1893.3,1115.4,1889.8,1109.9z"/>
				</g>
				<g>
					<path class="st5" d="M1281.8,994.9c13-17.2,19.1-40.1,36.8-52.4c29.5-20.5,72.7,0.5,105-15.1c5.9-2.9,11.1-6.8,15.8-11.3
						c14.9-14,26-33.3,44.3-42.8c20.4-10.6,44.9-6.7,67.8-8.4c22.8-1.7,49.1-15.5,50.8-38.1c0-0.1,0,0.1,0,0h-122.2h-314.7
						l0.6,186.2c0.3,0.2,0.6,0.4,0.9,0.5C1200.2,1035.8,1257.9,1026.6,1281.8,994.9z"/>
				</g>
				<g>
					<g>
						<path class="st8" d="M1932.1,1034.6c-13.3-10.9-36-8.1-51.8,1.3c-18.4,11-32.7,28.5-52.5,36.7c-48.8,20.3-106.5-23.1-156-4.5
							c-38.7,14.5-59.7,63.1-100.5,70c-22.3,3.7-44.3-6.3-66.7-8.9c-29.9-3.5-61,7.1-82.6,28.1c-21.6,20.9-33,51.8-30.4,81.8
							l16.9,4.5c24.6,2.8,48.8,3.4,72.1-4.5c67.2-22.7,103.8-108.3,174.3-116.4c39.1-4.5,78.1,17.2,116.9,10.6
							c31.5-5.4,56.5-28.2,82.5-46.7c25.5-18.2,51.1-35.5,80.1-24.9v-24.9C1933.6,1036,1932.8,1035.3,1932.1,1034.6z"/>
					</g>
				</g>
				<g>
					<g>
						<path class="st8" d="M1480.1,826.8h-314.7l0.6,186.2c0.3,0.2,0.6,0.4,0.9,0.5c33.2,22.2,90.9,13,114.9-18.6
							c13-17.2,19.1-40.1,36.8-52.4c29.5-20.5,72.7,0.5,105-15.1c5.9-2.9,11.1-6.8,15.8-11.3c14.9-14,26-33.3,44.3-42.8
							c20.4-10.6,44.9-6.7,67.8-8.4c22.8-1.7,49.1-15.5,50.8-38.1"/>
					</g>
				</g>
			</g>
		</g>
		<g>
			<g>
				<g>
					<path class="st3" d="M1721.3,1052.5c-1.4-5.5-11.6-45.1-30.2-117.7l0.4,0.2c-82.1,20.9-202.8,51.6-337,85.8l0,0l0.3-0.5
						c10.4,41,20.5,80.8,29.9,117.8l-0.5-0.3C1577.7,1088.8,1711.3,1055,1721.3,1052.5c-10,2.5-143.5,36.6-336.9,86l-0.4,0.1
						l-0.1-0.4c-9.4-37-19.5-76.8-29.9-117.8l-0.1-0.4l0.4-0.1l0,0c134.3-34,255-64.6,337.1-85.5l0.3-0.1l0.1,0.3
						C1710,1007.4,1719.9,1047,1721.3,1052.5z"/>
				</g>
			</g>
			<g>
				
					<rect x="1716.5" y="1046.8" transform="matrix(0.9692 -0.2462 0.2462 0.9692 -205.8577 456.0656)" class="st4" width="9" height="9"/>
			</g>
			<g>
				
					<rect x="1379.7" y="1133.6" transform="matrix(0.9692 -0.2462 0.2462 0.9692 -237.6043 375.8488)" class="st4" width="9" height="9"/>
			</g>
			<g>
				
					<rect x="1686.4" y="928.5" transform="matrix(0.9692 -0.2462 0.2462 0.9692 -177.6657 445.0294)" class="st4" width="9" height="9"/>
			</g>
			<g>
				
					<rect x="1516.6" y="971.7" transform="matrix(0.9692 -0.2462 0.2462 0.9692 -193.5201 404.5293)" class="st4" width="9" height="9"/>
			</g>
			<g>
				
					<rect x="1546.6" y="1090" transform="matrix(0.9692 -0.2462 0.2462 0.9692 -221.712 415.5654)" class="st4" width="9" height="9"/>
			</g>
			<g>
				
					<rect x="1364.3" y="1072.7" transform="matrix(0.9692 -0.2462 0.2462 0.9692 -223.0806 370.1476)" class="st4" width="9" height="9"/>
			</g>
			<g>
				
					<rect x="1701.3" y="987.1" transform="matrix(0.9692 -0.2462 0.2462 0.9692 -191.6025 450.4071)" class="st4" width="9" height="9"/>
			</g>
			<g>
				
					<rect x="1349.8" y="1015.8" transform="matrix(0.9692 -0.2462 0.2462 0.9692 -209.5182 364.8528)" class="st4" width="9" height="9"/>
			</g>
			<g>
				<path class="st3" d="M1437.1,1030.6l-24.3,6.2l-2.9-11.5l62.1-15.8l2.9,11.5l-24.3,6.2l15.7,61.7l-13.6,3.5L1437.1,1030.6z"/>
				<path class="st3" d="M1540.1,1044.8l-43.8,11.1c3.6,7.8,11.8,11.3,21.5,8.8c6.3-1.6,10.7-4.8,13.6-9.9l9,6.3
					c-3.5,7.2-10.5,12.4-20.2,14.8c-18.7,4.8-33.9-4.2-38.1-20.8c-4.2-16.6,5-31.7,21.6-35.9c16.3-4.1,31.1,4.2,35.6,21.7
					C1539.6,1041.9,1539.9,1043.5,1540.1,1044.8z M1494,1047.3l31.7-8c-3.1-7.8-10.7-11.8-19.2-9.6
					C1498,1031.8,1493.2,1038.8,1494,1047.3z"/>
				<path class="st3" d="M1592.9,1056.7l-19.2-15.7l-9.5,23l-14.4,3.7l14.6-33.9l-27.8-22.2l14.5-3.7l18.3,14.8l9.1-21.8l14.1-3.6
					l-14,32.6l29.1,23L1592.9,1056.7z"/>
				<path class="st3" d="M1650.1,1038.9c-2.5,3.3-6.9,5.8-11.6,7c-12.2,3.1-20.9-1.6-24-13.9l-6.8-26.9l-9.2,2.3l-2.7-10.5l9.2-2.3
					l-3.2-12.8l13.1-3.3l3.2,12.8l15-3.8l2.7,10.5l-15,3.8l6.7,26.6c1.4,5.4,4.8,7.7,9.9,6.4c2.7-0.7,5.1-2.1,6.7-4.2L1650.1,1038.9
					z"/>
			</g>
			<g>
				<g>
					<path class="st3" d="M1714.5,1025.8c0.1,0.2-75.3,19.6-168.4,43.2c-93.1,23.6-168.6,42.6-168.6,42.4
						c-0.1-0.2,75.3-19.6,168.4-43.2C1638.9,1044.5,1714.5,1025.6,1714.5,1025.8z"/>
				</g>
			</g>
		</g>
		<g>
			<g>
				<path class="st3" d="M2417.7,1028.7c-0.1-0.2,2.9-1.2,6.8-5.3c3.9-4,8-11.8,8.3-22.6c0.1-5.3-0.6-11.4-3.4-17.2
					c-2.6-5.9-7.4-11.4-13.7-15.5c-12.6-8.4-31.7-10.1-49.3-2.5c-17.9,7.1-33.9,21.3-51.5,35.5c-8.9,7-18.5,14.1-29.5,19.3
					c-11.1,5.1-23.6,8-36.5,8.2c-25.7,0.2-53.1-10.3-71.9-31.4c-9.5-10.3-16.6-23.2-20.1-37.3c-3.4-14-2.9-29.9,4.9-43
					c3.8-6.5,9-12.1,15.3-16.1c6.2-4.1,13.7-6.4,21.1-6.1c7.4,0.5,14.5,3.9,19.7,9c5.2,5.2,8.5,11.8,10.4,18.6
					c3.8,13.6,2.5,28.5-4.3,40.4c-6.9,11.9-18.3,20.2-30.5,24.4c-12.3,4.2-25.2,4.9-37.3,2.8c-12.1-2.1-23.2-6.5-33.3-11.6
					c-20.4-10.3-37.4-22.9-54-32.6c-16.5-9.8-32.7-16.8-47.8-19.2c-15-2.4-28.4-0.2-38.3,3.9c-10,4-16.5,9.5-20.4,13.6
					c-0.9,1-1.8,2-2.5,2.8c-0.6,0.8-1.2,1.5-1.6,2.1c-0.9,1.2-1.4,1.7-1.4,1.7s0.4-0.6,1.2-1.8c0.4-0.6,1-1.4,1.6-2.2
					c0.7-0.8,1.5-1.8,2.4-2.9c3.8-4.2,10.3-9.9,20.4-14.1c10-4.2,23.5-6.6,38.9-4.3c15.3,2.3,31.7,9.3,48.4,19.1
					c16.8,9.6,33.9,22.2,54.1,32.3c10.1,5,21,9.3,32.8,11.3c11.7,2,24.4,1.3,36.2-2.8c11.8-4.1,22.8-12.2,29.3-23.5
					c6.5-11.3,7.7-25.7,4.1-38.7c-1.9-6.5-5-12.8-9.9-17.6c-4.8-4.8-11.4-7.9-18.3-8.3c-6.9-0.3-13.9,1.8-19.8,5.7
					c-6,3.8-10.9,9.2-14.6,15.4c-7.4,12.4-8,27.8-4.7,41.4c3.4,13.7,10.4,26.3,19.6,36.4c18.3,20.6,45.2,31,70.3,30.8
					c12.6-0.2,24.8-3,35.7-8c10.8-5.1,20.3-12,29.2-19c17.6-14.1,33.8-28.4,52.1-35.6c18-7.6,37.7-5.8,50.6,2.9
					c6.5,4.3,11.3,10,14,16.1c2.8,6.1,3.5,12.3,3.3,17.7c-0.5,10.9-4.8,18.9-8.9,22.8c-1,1.1-1.9,1.9-2.8,2.5
					c-0.8,0.7-1.6,1.2-2.3,1.5C2418.4,1028.4,2417.7,1028.7,2417.7,1028.7z"/>
			</g>
		</g>
		<g>
			<g>
				<path class="st9" d="M1850.6,1249.1c-4.2,11.9-6.1,26-16.4,33.3c-8.9,6.2-20.8,5-31.2,8.2c-9.8,3-17.6,10.4-22.2,19.5l153.4,0.2
					v-109C1899.9,1194.7,1862.3,1216.1,1850.6,1249.1z"/>
			</g>
		</g>
		<g class="st10">
			<g>
				<path d="M1889.8,1109.9c-2.6-4.1-8-6-12.7-4.9l0.2-0.1c-0.2,0-0.4,0.1-0.6,0.2c-1.5,0.4-2.8,1-4,1.9l1.2-0.5
					c-4.3,2.9-6.6,8.7-4.8,13.7c2.2,6.1,10.2,9.4,16.1,6.5C1891,1123.7,1893.3,1115.4,1889.8,1109.9z"/>
			</g>
		</g>
		<g class="st10">
			<g>
				<path d="M1263.5,1274.7c-23.7,5.8-45.4,17.6-61.9,34.7l182.1,0.2c-6.3-5.3-12.5-10.7-19.1-15.5
					C1335.8,1273.6,1297.9,1266.3,1263.5,1274.7z"/>
			</g>
		</g>
		<g class="st10">
			<g>
				<path d="M1604.3,1285.9c-25.5-5.4-52,2.8-75.2,14.6c-5.8,2.9-11.5,6.1-17.1,9.3l131.7,0.1
					C1634.7,1297.8,1619.9,1289.2,1604.3,1285.9z"/>
			</g>
		</g>
	</g>
	<g>
		<g>
			<path class="st9" d="M1364.7,1520.2c11.8-21.2,39.1-28.7,63.4-27.8c24.3,0.8,48.2,7.8,72.5,6.7c55.5-2.6,103.5-46.8,159-45.3
				c33.3,1,65.9,18.6,98.6,12.5c7.9-1.5,17.3-4,23.1,1.6c4.8,4.6,4.2,12.8,0.5,18.2c-3.7,5.5-9.8,8.8-15.7,11.8
				c-84.7,42.8-182.8,47-277,58.8c-24.1,3-48.6,6.6-72.5,2.4c-23.9-4.2-47.7-17.8-57.3-40.1"/>
		</g>
		<g class="st11">
			<g>
				<path class="st9" d="M1364.7,1520.2c11.8-21.2,39.1-28.7,63.4-27.8c24.3,0.8,48.2,7.8,72.5,6.7c55.5-2.6,103.5-46.8,159-45.3
					c33.3,1,65.9,18.6,98.6,12.5c7.9-1.5,17.3-4,23.1,1.6c4.8,4.6,4.2,12.8,0.5,18.2c-3.7,5.5-9.8,8.8-15.7,11.8
					c-84.7,42.8-182.8,47-277,58.8c-24.1,3-48.6,6.6-72.5,2.4c-23.9-4.2-47.7-17.8-57.3-40.1"/>
			</g>
		</g>
	</g>
	<g>
		<g>
			<g>
				<path class="st12" d="M2034.7,1382.3l-153.6-270.9l-12.5-24.2c-5.8-11.1-16.9-18.5-29.4-19.6l-24.8-2.1c0,0,1.8-28.7-11.6-26.5
					c-8.6,1.5-39.9,28.3-33.8,36.2c6.1,7.9,23.8-12.5,23.8-12.5l6.8,50.3c0,0-47.1-27.4-54.7-25.8c-7.6,1.6-7.9,10-1.9,13.5
					c36,21.2,50.6,50,54.1,58l-0.1,0.1l108.8,243l-37.2,29.7l44.2,115.5l93-63.7C2042.8,1464.4,2056,1418,2034.7,1382.3z"/>
			</g>
			<g>
				<g>
					
						<rect x="1718.2" y="1060.9" transform="matrix(0.8868 0.4621 -0.4621 0.8868 685.1894 -675.0251)" class="st3" width="5.1" height="0.9"/>
				</g>
				<g>
					<path class="st3" d="M1722.7,1061.3l19.3,0.5l109.9,60.4c4,2.2,5.4,7.1,3.3,11.1l0,0c-2.1,4.1-7.2,5.6-11.2,3.4l-109-58.3
						l-13.3-15.1C1720.9,1062.6,1721.6,1061.3,1722.7,1061.3z"/>
				</g>
				<g>
					<polygon class="st4" points="1840.9,1116.2 1833.1,1131.2 1828.6,1128.9 1836.5,1113.8 					"/>
				</g>
			</g>
		</g>
		<g>
			<path class="st12" d="M1399.4,1121.7c-7.7-0.8-36.9,25.2-36.9,25.2l-14.4-51.9c0,0,19.3,1.7,24.5-6.8c5.2-8.5-47.2-7.7-48.4-1.9
				c-1.2,5.8,3,21.4,3,21.4l-19.8,3.8c-16.7,3.2-29.3,16.9-31.3,33.7l-3.2,27.7l0.6,0.2L1120,1429.6c-24.4,40.7-16,93.1,19.8,124.2
				l153.7,109.2l57.4-125.1l-113.7-74.7l130.2-251.2c0,0,29.3-73.5,35.3-77.2C1408.7,1131.3,1407.1,1122.5,1399.4,1121.7z"/>
		</g>
		<g>
			<path class="st6" d="M1936.1,1554.2l-1.8-17.9c-2.1-21.1-12.8-40.5-29.6-53.6l0,0c-19.6-15.3-30.7-39.1-29.9-64l0.2-7.4
				l-78.6,48.3c0,0-11.4,7.3-23.4,19l-0.2-0.4c0,0-167.9,2.8-411.5,38.4l-92.3-33.4l8,6.2c4.4,24.5-3.8,46.2-21,64.2v0
				c-14.7,15.3-22.5,36-21.6,57.2l0.8,17.9c0,0,55.1,35.9,95.2,49.4c0.5,0.2,1,0.3,1.5,0.4c46.8,20.9,121.4,44.7,214.1,40.9
				c150-6.1,273.2-86,289.4-96.9C1873.4,1603,1936.1,1554.2,1936.1,1554.2z"/>
		</g>
		<g>
			<g>
				<g>
					<path class="st3" d="M1361.5,1516.7c0.1-0.1,0.6,0.4,1.6,1.3c1,0.9,2.5,2.3,4.4,4.1c3.7,3.7,8.8,9.2,14.1,16.9
						c5.3,7.6,10.6,17.6,14,29.4c3.4,11.8,5.5,25.5,3.3,39.7c-1,7.1-3.2,13.8-6,19.9c-3,6.1-6.4,11.5-9.9,16.6
						c-7,10.1-15.1,18-22.9,23.1c-7.8,5.2-15,7.8-19.9,9.4c-2.5,0.8-4.4,1.2-5.8,1.5c-1.3,0.3-2,0.4-2.1,0.3
						c-0.1-0.2,2.7-0.9,7.6-2.7c4.8-1.8,11.8-4.5,19.3-9.8c7.6-5.1,15.3-13,22.1-23c3.4-5,6.8-10.5,9.6-16.3
						c2.7-5.9,4.8-12.4,5.8-19.3c2.1-13.8,0.2-27.2-3.1-38.8c-3.3-11.7-8.3-21.5-13.3-29.1c-5-7.7-9.9-13.3-13.4-17.1
						C1363.4,1518.8,1361.4,1516.8,1361.5,1516.7z"/>
				</g>
			</g>
			<g class="st13">
				<g>
					<path d="M1790,1649.3c12.1-8.7,6.1-26.3-7.4-32.7c-13.5-6.4-29.4-2.5-43.6,2.1c-45.8,15-89.1,36.9-134.9,52.1
						c-45.8,15.2-95.8,23.3-142.1,9.7c-32.2-9.5-53.9-30.6-87.2-26.8c-15.2,1.7-19.9,21-42.4,25.7c0,0,41.8,19.6,100.8,31.7
						c37.2,7.6,81.6,11.2,125.8,7.9c44-3.3,89.3-13.2,127.2-25.5C1746.8,1673.6,1790,1649.3,1790,1649.3z"/>
				</g>
			</g>
			<g class="st13">
				<path d="M1397.8,1579.8c0,0,4-40.8-20.6-65.4l-16.4,2.5C1360.8,1516.8,1382.4,1532.4,1397.8,1579.8z"/>
			</g>
			<g>
				<g>
					<path class="st12" d="M1475.9,1471.5c-0.8,2.2,8.3,96.5,8.3,96.5s47.8,66.7,122.9,1.8l9.1-102.8L1475.9,1471.5z"/>
				</g>
				<g class="st13">
					<path d="M1484.2,1568c0,0-22.2-36.8-28.3-64.1l18.2-2.2l4.5,5.1L1484.2,1568z"/>
				</g>
			</g>
			<g>
				<g>
					<path class="st3" d="M1878.9,1594.7c0,0.1-0.6,0.5-1.8,1.3c-1.2,0.8-3.1,1.9-5.6,3.2c-4.9,2.6-12.2,6.3-22,8.5
						c-4.9,1.1-10.4,1.8-16.4,1.3c-5.9-0.5-12.1-1.7-18.4-3.9c-12.6-4.3-25.3-12.4-35.3-24c-5-5.8-9.1-12.2-12-18.8
						c-2.9-6.6-5-13.2-6.7-19.6c-3.3-12.8-4.2-24.9-2.6-34.9c1.4-10,5.2-17.4,8.3-22.1c1.5-2.4,2.9-4,4-5.1c1-1.1,1.5-1.6,1.6-1.6
						c0.1,0.1-0.4,0.7-1.2,1.9c-0.9,1.2-2.2,2.9-3.6,5.2c-2.8,4.7-6.3,12-7.4,21.8c-1.3,9.7-0.3,21.6,3,34.1
						c1.7,6.3,3.8,12.8,6.7,19.3c2.9,6.4,6.9,12.6,11.7,18.3c19.6,22.9,49.2,31.1,68.1,26.5c9.6-2,17-5.4,22-7.7
						C1876.2,1596,1878.9,1594.5,1878.9,1594.7z"/>
				</g>
			</g>
			<g>
				<g>
					<path class="st3" d="M1771.9,1570.9c0,0-0.3,0.2-0.8,0.6c-0.7,0.4-1.5,0.9-2.6,1.5c-2.5,1.3-5.8,3.1-10.1,5.4
						c-4.4,2.4-9.7,5.2-16.1,8.1c-6.4,2.9-13.5,6.6-21.8,9.8c-8.2,3.4-17.1,7.2-27,10.6c-9.8,3.7-20.4,6.9-31.6,10.4
						c-22.5,6.4-47.7,12.2-74.5,16.1c-26.8,3.7-52.6,5.2-76.1,5.5c-5.9-0.1-11.6-0.1-17.1-0.2c-5.6,0-10.9-0.5-16.1-0.7
						c-10.4-0.4-20.1-1.4-28.9-2.2c-8.8-0.7-16.8-2-23.7-2.9c-7-0.9-13-1.9-17.8-2.8c-4.7-0.9-8.5-1.6-11.2-2.1
						c-1.2-0.2-2.1-0.4-2.9-0.6c-0.7-0.1-1-0.2-1-0.3c0,0,0.4,0,1,0.1c0.8,0.1,1.8,0.2,2.9,0.4c2.8,0.4,6.5,1,11.3,1.6
						c4.9,0.8,10.9,1.7,17.9,2.4c7,0.7,14.9,2,23.7,2.5c8.8,0.7,18.5,1.6,28.9,1.9c5.2,0.2,10.6,0.6,16.1,0.6c5.5,0,11.2,0,17.1,0.1
						c23.4-0.4,49.1-1.9,75.8-5.6c26.7-3.9,51.8-9.6,74.3-15.9c11.2-3.4,21.8-6.5,31.6-10.1c9.9-3.3,18.8-7,27-10.3
						c8.3-3.1,15.4-6.7,21.9-9.5c6.5-2.8,11.9-5.5,16.3-7.7c4.3-2.1,7.7-3.8,10.2-5c1.1-0.5,2-0.9,2.7-1.3
						C1771.5,1571,1771.9,1570.9,1771.9,1570.9z"/>
				</g>
			</g>
			<g class="st13">
				<g>
					<path d="M1526.5,1594.4c-3.5,9.1-2.2,20,3.4,28.1c5.6,8,15.4,13,25.2,12.8c4.5-0.1,9.1-1.1,13.3,0.5c5,2,7.8,7.2,11.1,11.5
						c9.9,12.7,28.1,18.4,43.5,13.5c15.4-4.9,26.9-20,27.6-36.1c0.1-3.1,0-6.5,2-8.8c4.3-5,12.1-0.1,17.9,2.9
						c14.8,7.7,34.8,0,43-14.6c8.2-14.6,5.6-33.7-3.8-47.5c-9.4-13.8-24.7-22.9-40.7-27.8c-10.3-3.1-21.5-5-29.5-12.1
						c-11.6-10.3-12.6-27.7-12.9-43.2"/>
				</g>
			</g>
		</g>
		<g>
			<g>
				<path class="st3" d="M1648.8,1301.9c10.5,23,16,36.3,17.6,60.9c2.9,44.7-7.1,81.5-31.6,119.1c-0.2,0.3,0.2-0.3,0,0
					c-17.9,27.3-71.5,61.3-87.4,65.9c-15.9,4.6-79-34.7-91.7-78.9c-12.8-44.2-29.1-71-7.4-148.2c22.3-79.1,128.9-82,128.9-82
					s71.6,0,84.7,41.5C1674.9,1321.7,1648.8,1301.9,1648.8,1301.9z"/>
			</g>
			<g>
				<path class="st3" d="M1536,1390.5c-17.6,1.7-33.9,13.3-41.3,29.3c-7.5,16-5.8,35.9,4.2,50.5c8.8,12.9,23.4,21.5,30.3,35.5
					c6.3,12.9,5,28.1,2,42.1c-3,14-7.6,27.9-7.4,42.2c0.2,14.3,6.5,29.7,19.4,35.8c13,6.1,31.9-2.5,31.9-16.8
					c-4.3,22.7,21.8,44.9,43.5,37c21.7-7.9,27.4-41.8,9.4-56.3c15.9,3.7,33.6,3.7,47.2-5.3c13.6-9,20.5-29,11.2-42.4
					c-11-15.9-35.9-14.4-49.8-27.9c-11.4-11.1-12.1-28.9-12.9-44.8c-1.2-22.9-4.6-46.4-16.3-66.1c-11.7-19.7-33.3-34.9-56.1-33.4"/>
			</g>
			<g>
				<g>
					<path class="st1" d="M1577.1,1608.3c0,0.1-0.8-0.3-2.3-1.1c-0.7-0.4-1.6-0.9-2.6-1.6c-1-0.6-2.2-1.5-3.4-2.5
						c-4.9-3.9-11-11.1-15.2-21.7c-2-5.3-3.6-11.3-4.3-17.9c-0.7-6.6-0.4-13.8,0.7-21.1c2.1-14.8,7.7-30.2,13.9-46.1
						c6.1-15.8,11.7-31.1,13.7-45.6c1.1-7.2,1.3-14.2,0.7-20.6c-0.7-6.4-2.2-12.3-4.2-17.5c-4-10.3-9.9-17.4-14.6-21.3
						c-4.7-4-7.9-5.4-7.8-5.6c0-0.1,0.8,0.3,2.3,1c0.8,0.3,1.6,0.8,2.7,1.5c1,0.6,2.2,1.4,3.4,2.4c5,3.8,11.2,10.9,15.5,21.4
						c2.1,5.2,3.8,11.3,4.5,17.9c0.7,6.6,0.6,13.8-0.5,21.1c-2,14.8-7.6,30.3-13.7,46.1c-6.1,15.8-11.7,31.1-13.9,45.6
						c-1.1,7.2-1.4,14.2-0.9,20.6c0.6,6.5,2,12.4,3.9,17.5c3.8,10.4,9.6,17.6,14.2,21.6C1574.1,1606.6,1577.3,1608,1577.1,1608.3z"
						/>
				</g>
			</g>
			<g>
				<g>
					<path class="st4" d="M1641.8,1591.1c0,0.1-0.9,0.3-2.7,0.6c-1.8,0.2-4.4,0.5-7.8,0.4c-6.7-0.3-17-2.4-26.7-10.2
						c-4.8-3.9-9.2-9.2-12.3-15.8c-3.1-6.5-5-14.3-4.5-22.5c0.4-8.2,2.9-16.4,6-24.6c3.1-8.2,6.6-16.4,9-25.3
						c4.8-17.7,5.3-35.6,2.1-51.1c-3.1-15.6-10.1-28.5-17.6-37.8c-7.5-9.4-15.5-15.2-21.3-18.6c-5.8-3.4-9.3-4.7-9.2-5
						c0-0.1,0.9,0.2,2.6,0.9c1.7,0.6,4.1,1.7,7.1,3.3c5.9,3.3,14.2,9,22.1,18.4c7.8,9.3,15.1,22.5,18.4,38.3
						c3.4,15.8,3,34.1-1.9,52.1c-2.4,9-6,17.4-9.1,25.5c-3.1,8.1-5.5,16.1-6,23.9c-1,15.8,6.7,29.5,15.8,37
						c9.2,7.7,19.2,10,25.8,10.5C1638.1,1591.7,1641.8,1590.8,1641.8,1591.1z"/>
				</g>
			</g>
			<g>
				<g>
					<path class="st6" d="M1576.8,1374.8c-0.3,0.3-2.4-2.9-7.6-5.9c-4.9-2.9-13.5-5.2-21.8-2.1c-8.3,3.2-13.3,10.5-15.1,15.9
						c-1.9,5.6-1.4,9.4-1.9,9.4c-0.1,0-0.4-0.9-0.5-2.6c-0.1-1.7,0-4.2,0.9-7.2c1.5-5.9,6.6-14,15.8-17.5c9.2-3.4,18.4-0.6,23.4,2.9
						c2.6,1.7,4.4,3.5,5.4,4.9C1576.5,1373.9,1576.9,1374.7,1576.8,1374.8z"/>
				</g>
			</g>
			<g>
				<g>
					<path class="st4" d="M1535.8,1550.3c-0.1,0.1-0.6-0.4-1.6-1.2c-1-0.8-2.3-2.1-4-3.9c-3.3-3.6-7.8-9.1-11.7-16.9
						c-3.8-7.8-7.5-17.9-7.6-29.6c-0.1-5.8,0.9-12.1,3.8-17.9c2.8-5.8,7.4-10.7,11.7-15.6c4.3-4.9,8.4-9.9,10.1-15.7
						c1.8-5.7,1-11.7-0.6-17.1c-3.2-10.8-8.9-19.8-9.9-28.8c-1.3-8.7,0.4-16.2,3.5-20.1c1.5-2,3-3.2,4.1-3.9
						c1.1-0.6,1.7-0.9,1.8-0.8c0.2,0.3-2.6,1.2-5.2,5.2c-2.7,3.9-4.2,11-2.7,19.4c1.2,8.5,6.9,17.3,10.3,28.4
						c1.7,5.5,2.6,12,0.7,18.3c-1.9,6.3-6.2,11.6-10.5,16.5c-4.4,4.9-8.8,9.7-11.4,15.1c-2.7,5.4-3.7,11.3-3.7,16.9
						c0,11.3,3.4,21.2,7,28.9c3.7,7.7,7.9,13.4,11,17.1C1534,1548.3,1536,1550.2,1535.8,1550.3z"/>
				</g>
			</g>
			<g>
				<g>
					<path class="st4" d="M1626.9,1506.3c-0.2,0,0-2.2,0.3-6.1c0.3-3.9,0.7-9.6,0.9-16.7c0.3-14-0.4-33.8-7.7-54
						c-7.4-20.1-20.9-35.2-32.5-42.9c-11.6-7.9-20.6-9.4-20.4-9.9c0-0.1,0.6,0,1.6,0.2c1,0.3,2.6,0.5,4.4,1.2
						c3.8,1.1,9.2,3.4,15.2,7.2c12.1,7.5,26.2,22.8,33.7,43.4c7.5,20.6,7.9,40.8,7.2,54.8c-0.4,7.1-1,12.8-1.6,16.7
						C1627.5,1504.1,1627,1506.3,1626.9,1506.3z"/>
				</g>
			</g>
			<g>
				<g>
					<path class="st4" d="M1587.8,1385c-0.3,0-0.1-3.9,0.2-10.1c0.1-6.1,0.3-14.9-3.6-23.4c-3.7-8.6-11.4-13.3-17.2-14.9
						c-5.9-1.6-9.8-0.9-9.8-1.3c-0.1-0.2,3.9-1.5,10.2-0.2c3.1,0.7,6.8,2.1,10.2,4.7c3.5,2.5,6.6,6.3,8.6,10.8
						c4.1,9.1,3.6,18.3,3.1,24.4C1588.9,1381.2,1588.1,1385,1587.8,1385z"/>
				</g>
			</g>
			<g>
				<g>
					<path class="st14" d="M1594.8,1305c-0.2,0.3-2.3-1-5.9-2.2c-3.6-1.3-8.9-2.4-14.6-1.9c-5.8,0.5-10.8,2.6-14.1,4.4
						c-3.4,1.9-5.2,3.5-5.4,3.2c-0.2-0.2,1.3-2.2,4.6-4.6c3.3-2.3,8.5-4.8,14.7-5.3c6.2-0.5,11.8,1,15.4,2.7
						C1593.1,1303.1,1594.9,1304.8,1594.8,1305z"/>
				</g>
			</g>
			<g>
				<g>
					<path class="st4" d="M1646.6,1304.9c-0.4,0.3-3.5-5-11-10.9c-7.3-5.9-19.8-12.1-34.4-12c-14.6,0.2-26.9,6.8-34.1,12.9
						c-7.4,6.1-10.3,11.5-10.7,11.2c-0.1-0.1,0.5-1.4,2-3.7c1.5-2.3,4-5.4,7.6-8.7c7.1-6.6,19.8-13.7,35.1-13.9
						c15.3-0.2,28.1,6.6,35.4,13c3.7,3.2,6.3,6.3,7.9,8.5C1646.1,1303.4,1646.7,1304.8,1646.6,1304.9z"/>
				</g>
			</g>
			<g>
				<g>
					<path class="st14" d="M1622.4,1244.4c0,0.4-5.5,0.7-14,3.3c-8.5,2.5-19.8,7.7-29.7,16.9c-9.9,9.2-16,20.2-19.1,28.4
						c-3.2,8.3-3.9,13.8-4.3,13.8c-0.1,0-0.1-1.4,0.3-3.9c0.4-2.5,1.1-6.1,2.6-10.4c2.8-8.6,8.8-20,19-29.5
						c10.2-9.5,22.1-14.7,30.8-16.8c4.4-1.1,8-1.6,10.5-1.8C1621,1244.2,1622.4,1244.3,1622.4,1244.4z"/>
				</g>
			</g>
			<g>
				<g>
					<path class="st4" d="M1555,1244c0.3,0.3-2.4,3.1-5.3,8.4c-2.9,5.3-5.8,13.4-5.8,22.7c0.1,9.3,3.2,17.3,6.2,22.6
						c3,5.3,5.7,8.1,5.4,8.3c-0.1,0.2-3.3-2.2-6.8-7.5c-3.5-5.2-7-13.6-7.1-23.4c-0.1-9.8,3.3-18.2,6.6-23.5
						C1551.7,1246.2,1554.8,1243.8,1555,1244z"/>
				</g>
			</g>
			<g>
				<g>
					<path class="st4" d="M1495.6,1260c0.4-0.1,0.4,4.6,3.3,11.1c2.8,6.5,9.1,14.5,18.3,20.3c9.3,5.8,18.9,8.6,25.8,10.6
						c6.9,2,11.3,3.1,11.2,3.4c-0.1,0.3-4.5-0.3-11.6-1.9c-7-1.6-17-4.3-26.6-10.3c-9.6-6-16-14.6-18.6-21.6c-1.3-3.5-1.9-6.4-2-8.5
						C1495.4,1261.1,1495.5,1260,1495.6,1260z"/>
				</g>
			</g>
			<g>
				<g>
					<path class="st4" d="M1528.4,1448c0,0.1-0.7-0.1-2.1-0.5c-1.4-0.4-3.3-1.1-5.9-2.1c-5-2-12-5.6-19.6-11.7
						c-7.4-6.1-15.4-15-20.8-26.7c-5.5-11.7-7.7-26.3-5-41c2.7-14.6,10.2-27.7,20.1-36c9.9-8.5,21.3-12.5,30.8-13.8
						c9.7-1.3,17.6,0,22.8,1.5c2.6,0.8,4.6,1.5,5.8,2.2c1.3,0.6,1.9,0.9,1.9,1c-0.1,0.2-2.8-1.1-8-2.4c-5.1-1.3-12.9-2.2-22.3-0.8
						c-9.3,1.5-20.3,5.6-29.7,13.8c-9.5,8.1-16.6,20.7-19.3,34.9c-2.6,14.2-0.6,28.4,4.7,39.7c5.1,11.5,12.8,20.2,19.9,26.3
						c7.3,6.1,14.1,9.9,18.9,12.2C1525.6,1446.9,1528.5,1447.8,1528.4,1448z"/>
				</g>
			</g>
			<g>
				<g>
					<path class="st4" d="M1522.7,1493.4c0,0.1-1-0.4-2.7-1.2c-1.7-0.9-4.3-2.2-7.4-4.1c-6.3-3.8-15.1-9.9-24.7-19
						c-9.4-9.2-19.6-21.4-27.8-36.9c-4.1-7.7-7.6-16.2-10.5-25.3c-2.7-9.1-4.6-18.9-4.4-29.1c0.2-10.2,2.9-20.1,7.5-28.5
						c4.5-8.5,10.6-15.6,17.3-21.3c13.4-11.6,29.1-16.7,42-18.8c13.1-2,23.9-1.3,31.2-0.4c3.7,0.5,6.5,1,8.4,1.4
						c1.9,0.4,2.9,0.7,2.9,0.7c0,0.1-1,0-2.9-0.3c-1.9-0.3-4.7-0.7-8.4-1c-7.3-0.6-17.9-1.1-30.8,1.1c-12.7,2.3-27.9,7.4-41,18.8
						c-12.9,11-23.7,28.4-23.9,48.3c-0.2,9.9,1.6,19.5,4.3,28.4c2.8,9,6.2,17.3,10.2,25c7.9,15.3,17.8,27.5,27,36.8
						c9.3,9.2,17.9,15.4,24,19.4C1519.2,1491.4,1522.8,1493.2,1522.7,1493.4z"/>
				</g>
			</g>
			<g>
				<g>
					<path class="st4" d="M1626.6,1447.3c-0.5-0.3,6.5-8.6,11.5-24.8c2.4-8.1,4.1-18.1,3.5-29.2c-0.5-11.1-3.5-23.2-9.5-34.5
						c-12-22.9-32.8-36.9-48.9-41.2c-8.1-2.2-15.1-2-19.6-1c-4.6,1-6.9,2.3-7,2.1c0-0.1,0.5-0.4,1.6-1c1.1-0.6,2.9-1.3,5.2-2
						c4.6-1.3,11.8-1.8,20.2,0.3c8.4,2.1,17.8,6.5,26.8,13.5c9,6.9,17.5,16.5,23.6,28.2c6.2,11.6,9.2,24.1,9.6,35.5
						c0.5,11.4-1.5,21.6-4.1,29.8c-2.7,8.2-6,14.3-8.6,18.3c-1.3,2-2.4,3.5-3.1,4.5C1627.1,1446.8,1626.7,1447.3,1626.6,1447.3z"/>
				</g>
			</g>
		</g>
	</g>
</g>
<g>
	<g>
		<rect x="2264.3" y="409.4" class="st15" width="607" height="452.6"/>
	</g>
	<g>
		<g>
			<path class="st3" d="M2871.3,862.1c0,0-0.1-2.9-0.1-8.3c0-5.5-0.1-13.5-0.1-24c0-21.1-0.1-52-0.2-91.4
				c-0.1-78.9-0.3-191.9-0.4-328.9l0.8,0.8c-171.1,0.1-380.8,0.1-607,0.2h-0.1l1-1c0,162.6-0.1,316.7-0.1,452.6l-0.9-0.9
				c179.7,0.2,331.3,0.3,438.1,0.5c53.4,0.1,95.6,0.2,124.5,0.2c14.4,0,25.5,0.1,33,0.1c3.7,0,6.6,0,8.5,0.1
				C2870.3,862,2871.3,862.1,2871.3,862.1s-0.9,0-2.8,0.1c-1.9,0-4.7,0-8.4,0.1c-7.5,0-18.5,0.1-32.8,0.1
				c-28.8,0.1-70.9,0.1-124.3,0.2c-106.9,0.1-258.8,0.3-438.7,0.5l-0.9,0l0-0.9c0-135.9-0.1-290-0.1-452.6l0-1h1h0.1
				c226.2,0.1,435.9,0.1,607,0.2h0.8l0,0.8c-0.2,137.1-0.3,250.4-0.4,329.4c-0.1,39.4-0.2,70.2-0.2,91.3c0,10.5-0.1,18.5-0.1,23.9
				C2871.4,859.4,2871.3,862.1,2871.3,862.1z"/>
		</g>
	</g>
</g>
<g>
	<g>
		<g>
			<rect x="2577.3" y="676.7" class="st1" width="369.1" height="143.5"/>
		</g>
		<g>
			<g>
				<path class="st3" d="M2946.4,820.2c0,0,0-0.9-0.1-2.6c0-1.7,0-4.2-0.1-7.4c0-6.6-0.1-16.2-0.2-28.5c-0.1-24.8-0.2-60.5-0.4-105
					l0.7,0.7c-92.7,0.1-223.8,0.2-369.1,0.3h0l1-1c0,50.2,0,98.7,0,143.5l-1-1c106.7,0.2,198.8,0.3,264.4,0.5
					c32.8,0.1,58.9,0.2,76.9,0.3c8.9,0.1,15.9,0.1,20.6,0.1c2.3,0,4.1,0,5.4,0.1C2945.7,820.1,2946.4,820.2,2946.4,820.2
					s-0.6,0-1.7,0.1c-1.2,0-3,0-5.2,0.1c-4.7,0-11.6,0.1-20.4,0.1c-17.9,0.1-44,0.2-76.7,0.3c-65.7,0.1-158.1,0.3-265.1,0.5l-1,0v-1
					c0-44.8,0-93.3,0-143.5l0-1h1h0c145.3,0.1,276.4,0.2,369.1,0.3l0.7,0l0,0.7c-0.2,44.6-0.3,80.5-0.4,105.4
					c-0.1,12.3-0.1,21.8-0.2,28.4c0,3.2-0.1,5.6-0.1,7.3C2946.4,819.4,2946.4,820.2,2946.4,820.2z"/>
			</g>
		</g>
	</g>
	<g>
		<rect x="2577.3" y="676.7" class="st3" width="369.1" height="30.7"/>
	</g>
	<g>
		<rect x="2621.1" y="730.9" class="st3" width="36.2" height="36.2"/>
	</g>
	<g>
		<rect x="2643.1" y="752.8" class="st3" width="36.2" height="36.2"/>
	</g>
	<g>
		<rect x="2707.5" y="730.9" class="st3" width="36.2" height="36.2"/>
	</g>
	<g>
		<g>
			<rect x="2729.5" y="752.8" class="st14" width="36.2" height="36.2"/>
		</g>
		<g>
			<g>
				<path class="st3" d="M2765.7,789.1c-0.1-0.1-0.1-1-0.2-2.8c-0.1-2-0.1-4.5-0.2-7.5c-0.2-6.4-0.4-15.3-0.5-26l0.9,0.9
					c-10.6,0-23,0.1-36.2,0.1c-0.2,0.2,1.9-1.9,1-1v0v0v0v0.1v0.2v0.3v0.6l0,1.2l0,2.5c0,1.6,0,3.2,0,4.8c0,3.2,0,6.3,0,9.4
					c0,6.1-0.1,11.8-0.1,17.1l-0.9-0.9c10.7,0.1,19.6,0.3,26,0.5c3,0.1,5.4,0.2,7.5,0.2C2764.7,788.9,2765.7,789,2765.7,789.1
					c0.1,0.1-0.8,0.1-2.4,0.2c-2,0.1-4.4,0.1-7.3,0.2c-6.3,0.2-15.5,0.4-26.6,0.5l-0.9,0l0-0.9c0-5.3-0.1-11-0.1-17.1
					c0-3,0-6.2,0-9.4c0-1.6,0-3.2,0-4.8l0-2.5l0-1.2v-0.6v-0.3V753v-0.1v0v0v0c-0.9,0.9,1.2-1.3,1-1c13.2,0.1,25.6,0.1,36.2,0.1
					l0.9,0l0,0.9c-0.1,11.1-0.3,20.2-0.5,26.6c-0.1,2.9-0.2,5.3-0.2,7.3C2765.9,788.3,2765.8,789.1,2765.7,789.1z"/>
			</g>
		</g>
	</g>
	<g>
		<g>
			<g>
				<rect x="2788.1" y="730.9" class="st14" width="36.2" height="36.2"/>
			</g>
			<g>
				<g>
					<path class="st3" d="M2824.4,767.1c-0.1-0.1-0.1-1-0.2-2.8c-0.1-2-0.1-4.5-0.2-7.5c-0.2-6.4-0.4-15.3-0.5-26l0.9,0.9
						c-10.6,0-23,0.1-36.2,0.1c-0.2,0.2,1.9-1.9,1-1v0v0v0v0.1v0.2v0.3v0.6l0,1.2l0,2.5c0,1.6,0,3.2,0,4.8c0,3.2,0,6.3,0,9.4
						c0,6.1-0.1,11.8-0.1,17.1l-0.9-0.9c10.7,0.1,19.6,0.3,26,0.5c3,0.1,5.4,0.2,7.5,0.2C2823.4,767,2824.3,767,2824.4,767.1
						c0.1,0.1-0.8,0.1-2.4,0.2c-2,0.1-4.4,0.1-7.3,0.2c-6.3,0.2-15.5,0.4-26.6,0.5l-0.9,0l0-0.9c0-5.3-0.1-11-0.1-17.1
						c0-3,0-6.2,0-9.4c0-1.6,0-3.2,0-4.8l0-2.5l0-1.2v-0.6l0-0.3V731v-0.1v0v0v0c-0.9,0.9,1.2-1.3,1-1c13.2,0.1,25.6,0.1,36.2,0.1
						l0.9,0l0,0.9c-0.1,11.1-0.3,20.2-0.5,26.6c-0.1,2.9-0.2,5.3-0.2,7.3C2824.5,766.3,2824.5,767.2,2824.4,767.1z"/>
				</g>
			</g>
		</g>
		<g>
			<g>
				<rect x="2810.1" y="752.8" class="st14" width="36.2" height="36.2"/>
			</g>
			<g>
				<g>
					<path class="st3" d="M2846.4,789.1c-0.1-0.1-0.1-1-0.2-2.8c-0.1-2-0.1-4.5-0.2-7.5c-0.2-6.4-0.4-15.3-0.5-26l0.9,0.9
						c-10.6,0-23,0.1-36.2,0.1c-0.2,0.2,1.9-1.9,1-1v0v0v0v0.1v0.2v0.3v0.6l0,1.2l0,2.5c0,1.6,0,3.2,0,4.8c0,3.2,0,6.3,0,9.4
						c0,6.1-0.1,11.8-0.1,17.1l-0.9-0.9c10.7,0.1,19.6,0.3,26,0.5c3,0.1,5.4,0.2,7.5,0.2C2845.3,788.9,2846.3,789,2846.4,789.1
						c0.1,0.1-0.8,0.1-2.4,0.2c-2,0.1-4.4,0.1-7.3,0.2c-6.3,0.2-15.5,0.4-26.6,0.5l-0.9,0l0-0.9c0-5.3-0.1-11-0.1-17.1
						c0-3,0-6.2,0-9.4c0-1.6,0-3.2,0-4.8l0-2.5l0-1.2v-0.6v-0.3V753v-0.1v0v0v0c-0.9,0.9,1.2-1.3,1-1c13.2,0.1,25.6,0.1,36.2,0.1
						l0.9,0l0,0.9c-0.1,11.1-0.3,20.2-0.5,26.6c-0.1,2.9-0.2,5.3-0.2,7.3C2846.5,788.3,2846.4,789.1,2846.4,789.1z"/>
				</g>
			</g>
		</g>
		<g>
			<rect x="2810.1" y="752.8" class="st3" width="14.3" height="14.3"/>
		</g>
	</g>
	<g>
		<g>
			<rect x="2862.3" y="730.9" class="st3" width="36.2" height="36.2"/>
		</g>
		<g>
			<rect x="2884.2" y="752.8" class="st3" width="36.2" height="36.2"/>
		</g>
		<g>
			<rect x="2884.2" y="752.8" class="st1" width="14.3" height="14.3"/>
		</g>
	</g>
</g>
<g>
	<g>
		<rect x="2104.5" y="1070" class="st1" width="354.7" height="137.9"/>
		<path class="st16" d="M2459.8,1208.4H2104v-138.9h355.7V1208.4z M2105,1207.4h353.7v-136.9H2105V1207.4z"/>
	</g>
	<g>
		<rect x="2104.5" y="1070" class="st3" width="354.7" height="29.6"/>
	</g>
	<g>
		<g>
			<g>
				<rect x="2124.5" y="1136.4" class="st14" width="35" height="35"/>
			</g>
			<g>
				<g>
					<path class="st3" d="M2159.6,1171.5c-0.1-0.1-0.1-1-0.2-2.7c-0.1-2-0.1-4.4-0.2-7.2c-0.2-6.2-0.4-14.8-0.5-25.1l0.9,0.9
						c-10.3,0-22.3,0.1-35,0.1c-0.2,0.2,1.9-1.9,1-1v0v0v0v0.1v0.2v0.3v0.6l0,1.2l0,2.4c0,1.6,0,3.1,0,4.7c0,3.1,0,6.1,0,9.1
						c0,5.9-0.1,11.4-0.1,16.5l-0.9-0.9c10.3,0.1,19,0.3,25.1,0.5c2.8,0.1,5.2,0.2,7.2,0.2
						C2158.6,1171.3,2159.5,1171.4,2159.6,1171.5c0.1,0.1-3.2,0.3-9.4,0.4c-6.1,0.2-15,0.4-25.7,0.5l-0.9,0l0-0.9
						c0-5.1-0.1-10.7-0.1-16.5c0-2.9,0-6,0-9.1c0-1.5,0-3.1,0-4.7l0-2.4l0-1.2l0-0.6v-0.3v-0.2v-0.1v0v0v0c-0.9,0.9,1.2-1.3,1-1
						c12.8,0.1,24.8,0.1,35,0.1l0.9,0l0,0.9c-0.1,10.7-0.3,19.6-0.5,25.7C2159.8,1168.2,2159.7,1171.6,2159.6,1171.5z"/>
				</g>
			</g>
		</g>
		<g>
			<g>
				<line class="st1" x1="2159.6" y1="1136.4" x2="2124.5" y2="1171.5"/>
			</g>
			<g>
				<g>
					<path class="st5" d="M2124.5,1171.5c-0.4-0.4,7.1-8.6,16.8-18.2c9.7-9.7,17.8-17.2,18.3-16.8c0.4,0.4-7.1,8.6-16.8,18.3
						C2133.1,1164.3,2124.9,1171.9,2124.5,1171.5z"/>
				</g>
			</g>
		</g>
	</g>
	<g>
		<g>
			<rect x="2170.1" y="1136.4" class="st2" width="35" height="35"/>
		</g>
	</g>
	<g>
		<g>
			<rect x="2215.7" y="1136.4" class="st4" width="35" height="35"/>
		</g>
	</g>
	<g>
		<g>
			<rect x="2261.3" y="1136.4" class="st6" width="35" height="35"/>
		</g>
	</g>
	<g>
		<g>
			<rect x="2306.9" y="1136.4" class="st5" width="35" height="35"/>
		</g>
	</g>
	<g>
		<g>
			<rect x="2306.9" y="1136.4" class="st8" width="35" height="35"/>
		</g>
	</g>
	<g>
		<g>
			<rect x="2352.6" y="1136.4" class="st5" width="35" height="35"/>
		</g>
	</g>
	<g>
		<g>
			<rect x="2352.6" y="1136.4" class="st9" width="35" height="35"/>
		</g>
	</g>
	<g>
		<g>
			<rect x="2398.2" y="1136.4" class="st5" width="35" height="35"/>
		</g>
	</g>
	<g>
		<g>
			<rect x="2398.2" y="1136.4" class="st17" width="35" height="35"/>
		</g>
	</g>
</g>
<g>
	<g>
		<g>
			<g>
				<g>
					<rect x="1167.2" y="197.3" class="st15" width="739.9" height="515.2"/>
				</g>
				<g>
					<g>
						<path class="st3" d="M1907.1,712.5c0,0-0.1-3.2-0.1-9.4c0-6.2-0.1-15.4-0.1-27.3c-0.1-23.9-0.2-59-0.3-103.8
							c-0.2-89.6-0.4-218.3-0.6-374.7l1.2,1.2c-205.5,0.1-462.1,0.2-739.8,0.3h-0.1l1.5-1.5c0,184.1-0.1,359-0.1,515.2l-1.4-1.4
							c218.2,0.3,403,0.5,533.3,0.7c65.2,0.2,116.8,0.3,152.1,0.4c17.6,0.1,31.2,0.1,40.4,0.2c4.6,0,8,0.1,10.4,0.1
							C1905.8,712.4,1907.1,712.5,1907.1,712.5s-1.1,0.1-3.4,0.1c-2.4,0-5.8,0-10.3,0.1c-9.2,0-22.6,0.1-40.2,0.2
							c-35.3,0.1-86.7,0.2-151.8,0.4c-130.5,0.2-315.6,0.4-534.2,0.7l-1.4,0l0-1.4c0-156.2-0.1-331.1-0.1-515.2l0-1.5h1.5h0.1
							c277.7,0.1,534.3,0.2,739.8,0.3l1.2,0l0,1.2c-0.3,156.8-0.5,285.7-0.6,375.5c-0.1,44.7-0.2,79.7-0.3,103.5
							c-0.1,11.8-0.1,20.9-0.1,27C1907.2,709.4,1907.1,712.5,1907.1,712.5z"/>
					</g>
				</g>
			</g>
		</g>
		<g>
			<g>
				<rect x="1167.2" y="197.3" class="st3" width="739.9" height="64.4"/>
			</g>
		</g>
		<g>
			<g>
				<path class="st15" d="M1207.4,231.3c0,4.5-3.5,8.1-7.7,8.1c-4.3,0-7.7-3.6-7.7-8.1s3.5-8.1,7.7-8.1
					C1203.9,223.2,1207.4,226.8,1207.4,231.3z"/>
			</g>
		</g>
		<g>
			<g>
				<path class="st15" d="M1238.7,231.3c0,4.5-3.5,8.1-7.7,8.1c-4.3,0-7.7-3.6-7.7-8.1s3.5-8.1,7.7-8.1
					C1235.2,223.2,1238.7,226.8,1238.7,231.3z"/>
			</g>
		</g>
		<g>
			<g>
				<path class="st15" d="M1270,231.3c0,4.5-3.5,8.1-7.7,8.1c-4.3,0-7.7-3.6-7.7-8.1s3.5-8.1,7.7-8.1
					C1266.6,223.2,1270,226.8,1270,231.3z"/>
			</g>
		</g>
	</g>
	<g>
		<rect x="1237.6" y="324.8" class="st8" width="105.4" height="253"/>
	</g>
	<g>
		<rect x="1400.2" y="324.8" class="st2" width="105.4" height="253"/>
	</g>
	<g>
		<rect x="1562.8" y="324.8" class="st1" width="105.4" height="253"/>
	</g>
	<g>
		<rect x="1725.3" y="326.7" class="st0" width="105.4" height="253"/>
	</g>
	<g>
		<rect x="1225.4" y="605.6" class="st8" width="639.1" height="57.8"/>
	</g>
	<g>
		<polygon class="st3" points="1815.8,651.6 1829.6,721.2 1840.9,701.8 1865.2,736.5 1877.3,728.7 1853,694 1875.3,690.7 		"/>
	</g>
</g>
<g>
	<g>
		<g>
			<rect x="821.8" y="751.6" class="st1" width="218.3" height="374.5"/>
		</g>
		<g>
			<g>
				<path class="st16" d="M1040.2,1126c0,0,0-0.6-0.1-1.9c0-1.3,0-3-0.1-5.3c0-4.7-0.1-11.7-0.1-20.6c-0.1-18-0.1-44.3-0.3-77.4
					c-0.1-66.2-0.3-159.6-0.5-269.3l1,1c-67.2,0-141,0-218.3,0.1h0l1-1c-0.1,142.9-0.2,273.9-0.2,374.5l-0.8-0.8
					c66.9,0.2,121.3,0.3,159.2,0.4c18.9,0.1,33.6,0.2,43.7,0.2c5,0,8.8,0.1,11.5,0.1C1038.8,1126,1040.2,1126,1040.2,1126
					s-1.3,0.1-3.8,0.1c-2.6,0-6.4,0-11.3,0.1c-10,0-24.7,0.1-43.6,0.2c-37.9,0.1-92.6,0.2-159.7,0.4l-0.8,0l0-0.8
					c-0.1-100.6-0.1-231.6-0.2-374.5l0-1h1h0c77.3,0,151.1,0,218.3,0.1h1l0,1c-0.2,109.9-0.4,203.6-0.5,269.9
					c-0.1,33-0.2,59.2-0.3,77.2c-0.1,8.9-0.1,15.7-0.1,20.5c0,2.3,0,4-0.1,5.2C1040.2,1125.5,1040.2,1126,1040.2,1126z"/>
			</g>
		</g>
	</g>
	<g>
		<rect x="821.8" y="751.6" class="st3" width="218.3" height="31.6"/>
	</g>
	<g>
		<g>
			<polygon class="st3" points="874.3,822.5 876.9,857.5 886.7,844.7 903,844 			"/>
		</g>
		<g>
			<g>
				<path class="st3" d="M968.7,822.5c0-0.1,0.7,0.4,2.1,1.4c1.7,1.2,3.7,2.6,6,4.3c5.1,3.7,12.6,9,21.1,15.4l1.3,1l-1.6,0.1
					c-4.9,0.2-10.2,0.4-15.8,0.7l-0.6,0l0.5-0.2c-3.4,4.5-6.7,8.8-9.8,12.7l-0.9,1.2l-0.1-1.5c-0.7-10.4-1.2-19.3-1.6-25.4
					c-0.2-2.7-0.3-5.1-0.4-7.2C968.7,823.3,968.6,822.4,968.7,822.5c0,0.1,0.1,1,0.3,2.8c0.2,2.1,0.4,4.5,0.7,7.3
					c0.6,6.2,1.4,14.8,2.2,24.8l-1-0.3c3-4,6.3-8.3,9.7-12.8l0.2-0.2l0.3,0l0.6,0c5.5-0.2,10.8-0.4,15.8-0.6l-0.3,1.1
					c-8.2-6.2-15.2-11.6-20.2-15.6c-2.3-1.8-4.3-3.3-6-4.6C969.5,823.2,968.7,822.5,968.7,822.5z"/>
			</g>
		</g>
		<g>
			<g>
				<path class="st3" d="M868,974.6c-0.2-0.2,10.6-11.8,24.3-25.9c13.7-14.1,24.9-25.3,25.2-25c0.2,0.2-10.6,11.8-24.3,25.9
					C879.5,963.6,868.2,974.9,868,974.6z"/>
			</g>
		</g>
		<g>
			<g>
				<path class="st3" d="M1019.5,948.8c-0.2,0,0-2.9-1.2-7.8c-1.2-4.8-4.3-12-11.4-17.6c-3.5-2.8-8-5.1-13.2-6.1
					c-5.2-0.9-11-0.7-16.5,1.5c-5.5,2-10.7,6-14.4,11.3c-3.8,5.2-5.9,11.9-5.9,18.7c0.1,6.8,2.1,13.5,5.9,18.7
					c3.7,5.3,8.9,9.2,14.4,11.3c5.5,2.2,11.4,2.4,16.5,1.5c5.2-1,9.7-3.3,13.2-6.1c7.1-5.6,10.2-12.8,11.4-17.6
					C1019.5,951.7,1019.3,948.8,1019.5,948.8c0,0,0.3,2.9-0.7,7.9c-1.1,4.9-4.1,12.3-11.3,18.2c-3.6,2.9-8.2,5.3-13.6,6.4
					c-5.3,1-11.4,0.8-17.1-1.4c-5.8-2.1-11.1-6.2-15-11.6c-3.9-5.4-6.1-12.3-6.2-19.4c0.1-7.1,2.2-14,6.2-19.4
					c3.8-5.5,9.2-9.5,15-11.6c5.7-2.2,11.8-2.4,17.1-1.4c5.4,1,10,3.5,13.6,6.4c7.3,5.9,10.2,13.3,11.3,18.2
					C1019.9,946,1019.5,948.8,1019.5,948.8z"/>
			</g>
		</g>
		<g>
			<g>
				<path class="st3" d="M991.3,1032c0,0,0.3,0.2,0.8,0.6c0.7,0.6,1.4,1.2,2.3,1.9c2.3,1.9,5.1,4.4,8.6,7.4l0.3,0.2l-0.2,0.3
					c-8.8,10.1-21.8,25.1-36.7,42.1l-0.1,0.2l-0.2,0c-1.4,0.2-2.9,0.4-4.4,0.7c-2.7,0.4-5.3,0.8-8,1.2l-0.9,0.1l0.2-0.9
					c1-5,2-9.9,2.9-14.4l0-0.2l0.1-0.1c9.9-11.7,18.6-21.7,24.9-28.6C987,1035.6,991,1031.7,991.3,1032c0,0-0.3,0.3-0.7,0.7
					c-0.4,0.5-1.2,1.2-2,2.1c-1.7,1.9-4.2,4.7-7.2,8.2c-6.1,7.1-14.7,17.1-24.6,28.9l0.1-0.3c-0.9,4.6-1.8,9.4-2.8,14.5l-0.7-0.7
					c2.6-0.4,5.3-0.8,7.9-1.2c1.5-0.2,3-0.5,4.4-0.7l-0.4,0.2c15-16.9,28.2-31.8,37-41.8l0,0.5c-3.3-3.1-6.1-5.6-8.2-7.6
					c-0.8-0.8-1.5-1.5-2.2-2.1C991.5,1032.3,991.2,1032,991.3,1032z"/>
			</g>
		</g>
		<g>
			<g>
				<path class="st3" d="M911.4,1083.1c0,0,0-0.4-0.1-1c0-0.8,0-1.8-0.1-2.9c0-2.8-0.1-6.3-0.1-10.8c-0.1-9.5-0.2-22.5-0.3-38
					l0.5,0.5c-15,0-32.5,0.1-51.2,0.1c-0.1,0.1,1.2-1.2,0.6-0.6v0v0v0.1v0.1v0.2v0.5l0,0.9v1.8l0,3.6c0,2.4,0,4.7,0,7.1
					c0,4.6,0,9.2,0,13.6c0,8.8,0,17.2-0.1,24.8l-0.5-0.5c15.1,0.1,27.7,0.2,37,0.3c4.3,0.1,7.8,0.1,10.5,0.1c1.1,0,2,0,2.8,0.1
					C911,1083,911.4,1083.1,911.4,1083.1c0,0-0.3,0-0.9,0.1c-0.8,0-1.7,0-2.7,0.1c-2.7,0-6.1,0.1-10.3,0.1
					c-9.3,0.1-22.1,0.2-37.3,0.3l-0.5,0l0-0.5c0-7.7,0-16-0.1-24.8c0-4.4,0-9,0-13.6c0-2.3,0-4.7,0-7.1l0-3.6l0-1.8v-0.9v-0.5v-0.2
					v-0.1v-0.1v0v0c-0.5,0.5,0.7-0.8,0.6-0.6c18.7,0,36.2,0.1,51.2,0.1l0.5,0l0,0.5c-0.1,15.6-0.2,28.8-0.3,38.3
					c-0.1,4.4-0.1,7.9-0.1,10.6c0,1.1,0,2-0.1,2.8C911.4,1082.8,911.4,1083.1,911.4,1083.1z"/>
			</g>
		</g>
		<g>
			<g>
				<path class="st3" d="M868,1030.4c0,0.3-5,0.6-11.1,0.6c-6.1,0-11.1-0.3-11.1-0.6s5-0.6,11.1-0.6
					C863,1029.8,868,1030.1,868,1030.4z"/>
			</g>
		</g>
		<g>
			<g>
				<path class="st3" d="M860.2,1040.5c-0.3,0-0.6-5.6-0.6-12.5c0-6.9,0.3-12.5,0.6-12.5c0.3,0,0.6,5.6,0.6,12.5
					C860.8,1034.9,860.5,1040.5,860.2,1040.5z"/>
			</g>
		</g>
	</g>
</g>
<g>
	<rect x="252.3" y="863.1" class="st14" width="289.1" height="289.1"/>
</g>
<g>
	<g>
		
			<ellipse transform="matrix(0.7071 -0.7071 0.7071 0.7071 -578.4002 1135.5284)" class="st0" cx="1081.5" cy="1266" rx="54.2" ry="54.2"/>
	</g>
	<g>
		<g>
			
				<ellipse transform="matrix(0.7071 -0.7071 0.7071 0.7071 -561.5027 1132.9116)" class="st1" cx="1086.8" cy="1244.2" rx="47.4" ry="47.4"/>
		</g>
		<g>
			<circle class="st8" cx="1086.8" cy="1244.2" r="45.7"/>
		</g>
		<g>
			<path class="st3" d="M1086.8,1279.2c-19.3,0-35-15.7-35-35s15.7-35,35-35s35,15.7,35,35S1106.1,1279.2,1086.8,1279.2z
				 M1086.8,1209.5c-19.2,0-34.8,15.6-34.8,34.8c0,19.2,15.6,34.8,34.8,34.8c19.2,0,34.8-15.6,34.8-34.8
				C1121.6,1225.1,1106,1209.5,1086.8,1209.5z"/>
		</g>
		<g class="st13">
			<g>
				<path d="M1090.5,1212.3c-8.9-2.1-18.9,1.8-24,9.4s-4.9,18.3,0.4,25.7c5.3,7.4,15.4,11.1,24.2,8.7c8.8-2.3,15.8-10.5,16.7-19.6
					c0.5-4.6-0.6-9.5-3.2-13.4C1100.6,1217.4,1097.5,1213.9,1090.5,1212.3"/>
			</g>
		</g>
		<g>
			<polygon class="st3" points="1078.2,1273.7 1080.8,1277.3 1094.8,1276.9 1097.4,1273.7 			"/>
		</g>
	</g>
</g>
<g>
	<g>
		<circle class="st3" cx="2010.9" cy="1272.3" r="28.9"/>
	</g>
	<g>
		<path class="st4" d="M2021.5,1272.3c0,5.8-4.7,10.6-10.6,10.6c-5.8,0-10.6-4.7-10.6-10.6s4.7-10.6,10.6-10.6
			C2016.7,1261.7,2021.5,1266.5,2021.5,1272.3z"/>
	</g>
</g>
<g>
	<g>
		<g>
			<g>
				<path class="st3" d="M478.6,1193c0-0.5,2.5-1,5.6-1c3.1,0,5.6,0.4,5.6,1c0,0.5-2.5,1-5.6,1C481.1,1194,478.6,1193.6,478.6,1193z
					"/>
			</g>
		</g>
		<g>
			<g>
				<path class="st3" d="M456.2,1193c0-0.5,2.5-1,5.6-1c3.1,0,5.6,0.4,5.6,1c0,0.5-2.5,1-5.6,1C458.7,1194,456.2,1193.6,456.2,1193z
					"/>
			</g>
		</g>
		<g>
			<g>
				<path class="st3" d="M433.8,1193c0-0.5,2.5-1,5.6-1c3.1,0,5.6,0.4,5.6,1c0,0.5-2.5,1-5.6,1C436.3,1194,433.8,1193.6,433.8,1193z
					"/>
			</g>
		</g>
		<g>
			<g>
				<path class="st3" d="M411.4,1193c0-0.5,2.5-1,5.6-1c3.1,0,5.6,0.4,5.6,1c0,0.5-2.5,1-5.6,1C413.9,1194,411.4,1193.6,411.4,1193z
					"/>
			</g>
		</g>
		<g>
			<g>
				<path class="st3" d="M389,1193c0-0.5,2.5-1,5.6-1c3.1,0,5.6,0.4,5.6,1c0,0.5-2.5,1-5.6,1C391.5,1194,389,1193.6,389,1193z"/>
			</g>
		</g>
		<g>
			<g>
				<path class="st3" d="M366.6,1193c0-0.5,2.5-1,5.6-1c3.1,0,5.6,0.4,5.6,1c0,0.5-2.5,1-5.6,1C369.1,1194,366.6,1193.6,366.6,1193z
					"/>
			</g>
		</g>
		<g>
			<g>
				<path class="st3" d="M344.2,1193c0-0.5,2.5-1,5.6-1c3.1,0,5.6,0.4,5.6,1c0,0.5-2.5,1-5.6,1C346.7,1194,344.2,1193.6,344.2,1193z
					"/>
			</g>
		</g>
		<g>
			<g>
				<path class="st3" d="M321.8,1193c0-0.5,2.5-1,5.6-1c3.1,0,5.6,0.4,5.6,1c0,0.5-2.5,1-5.6,1C324.3,1194,321.8,1193.6,321.8,1193z
					"/>
			</g>
		</g>
		<g>
			<g>
				<path class="st3" d="M299.4,1193c0-0.5,2.5-1,5.6-1c3.1,0,5.6,0.4,5.6,1c0,0.5-2.5,1-5.6,1C301.9,1194,299.4,1193.6,299.4,1193z
					"/>
			</g>
		</g>
		<g>
			<g>
				<path class="st3" d="M277,1193c0-0.5,2.5-1,5.6-1c3.1,0,5.6,0.4,5.6,1c0,0.5-2.5,1-5.6,1C279.5,1194,277,1193.6,277,1193z"/>
			</g>
		</g>
		<g>
			<g>
				<path class="st3" d="M254.6,1193c0-0.5,2.5-1,5.6-1c3.1,0,5.6,0.4,5.6,1c0,0.5-2.5,1-5.6,1C257.1,1194,254.6,1193.6,254.6,1193z
					"/>
			</g>
		</g>
		<g>
			<g>
				<path class="st3" d="M232.2,1193c0-0.5,2.5-1,5.6-1c3.1,0,5.6,0.4,5.6,1c0,0.5-2.5,1-5.6,1C234.7,1194,232.2,1193.6,232.2,1193z
					"/>
			</g>
		</g>
		<g>
			<g>
				<path class="st3" d="M216.3,1186.6c0.5,0,1,2.5,1,5.6c0,0.3,0,0.5,0,0.8l-1-1c2.7,0.1,4.8,0.5,4.8,1c0,0.5-2.1,0.9-4.8,1l-0.9,0
					l0-1c0-0.3,0-0.6,0-0.8C215.3,1189.1,215.7,1186.6,216.3,1186.6z"/>
			</g>
		</g>
		<g>
			<g>
				<path class="st3" d="M216.3,1164.2c0.5,0,1,2.5,1,5.6c0,3.1-0.4,5.6-1,5.6c-0.5,0-1-2.5-1-5.6
					C215.3,1166.7,215.7,1164.2,216.3,1164.2z"/>
			</g>
		</g>
		<g>
			<g>
				<path class="st3" d="M216.3,1141.8c0.5,0,1,2.5,1,5.6c0,3.1-0.4,5.6-1,5.6c-0.5,0-1-2.5-1-5.6
					C215.3,1144.3,215.7,1141.8,216.3,1141.8z"/>
			</g>
		</g>
		<g>
			<g>
				<path class="st3" d="M216.3,1119.4c0.5,0,1,2.5,1,5.6c0,3.1-0.4,5.6-1,5.6c-0.5,0-1-2.5-1-5.6
					C215.3,1121.9,215.7,1119.4,216.3,1119.4z"/>
			</g>
		</g>
		<g>
			<g>
				<path class="st3" d="M216.3,1097c0.5,0,1,2.5,1,5.6c0,3.1-0.4,5.6-1,5.6c-0.5,0-1-2.5-1-5.6C215.3,1099.5,215.7,1097,216.3,1097
					z"/>
			</g>
		</g>
		<g>
			<g>
				<path class="st3" d="M216.3,1074.6c0.5,0,1,2.5,1,5.6c0,3.1-0.4,5.6-1,5.6c-0.5,0-1-2.5-1-5.6
					C215.3,1077.1,215.7,1074.6,216.3,1074.6z"/>
			</g>
		</g>
		<g>
			<g>
				<path class="st3" d="M216.3,1052.2c0.5,0,1,2.5,1,5.6c0,3.1-0.4,5.6-1,5.6c-0.5,0-1-2.5-1-5.6
					C215.3,1054.7,215.7,1052.2,216.3,1052.2z"/>
			</g>
		</g>
		<g>
			<g>
				<path class="st3" d="M216.3,1029.8c0.5,0,1,2.5,1,5.6c0,3.1-0.4,5.6-1,5.6c-0.5,0-1-2.5-1-5.6
					C215.3,1032.3,215.7,1029.8,216.3,1029.8z"/>
			</g>
		</g>
		<g>
			<g>
				<path class="st3" d="M216.3,1007.4c0.5,0,1,2.5,1,5.6c0,3.1-0.4,5.6-1,5.6c-0.5,0-1-2.5-1-5.6
					C215.3,1009.9,215.7,1007.4,216.3,1007.4z"/>
			</g>
		</g>
		<g>
			<g>
				<path class="st3" d="M216.3,985c0.5,0,1,2.5,1,5.6c0,3.1-0.4,5.6-1,5.6c-0.5,0-1-2.5-1-5.6C215.3,987.5,215.7,985,216.3,985z"/>
			</g>
		</g>
		<g>
			<g>
				<path class="st3" d="M216.3,962.6c0.5,0,1,2.5,1,5.6c0,3.1-0.4,5.6-1,5.6c-0.5,0-1-2.5-1-5.6
					C215.3,965.1,215.7,962.6,216.3,962.6z"/>
			</g>
		</g>
		<g>
			<g>
				<path class="st3" d="M216.3,940.2c0.5,0,1,2.5,1,5.6c0,3.1-0.4,5.6-1,5.6c-0.5,0-1-2.5-1-5.6
					C215.3,942.7,215.7,940.2,216.3,940.2z"/>
			</g>
		</g>
		<g>
			<g>
				<path class="st3" d="M217.9,919.5c0,0.3-0.6,0.5-1.7,0.7l0.7-0.7c0.2,1,0.3,2.4,0.3,3.9c0,3.1-0.4,5.6-1,5.6c-0.5,0-1-2.5-1-5.6
					c0-1.5,0.1-2.9,0.3-3.9l0.1-0.8l0.6,0.1C217.3,919,217.9,919.2,217.9,919.5z"/>
			</g>
		</g>
		<g>
			<g>
				<path class="st3" d="M240.3,919.5c0,0.5-2.5,1-5.6,1c-3.1,0-5.6-0.4-5.6-1c0-0.5,2.5-1,5.6-1
					C237.8,918.5,240.3,918.9,240.3,919.5z"/>
			</g>
		</g>
		<g>
			<g>
				<path class="st3" d="M262.7,919.5c0,0.5-2.5,1-5.6,1c-3.1,0-5.6-0.4-5.6-1c0-0.5,2.5-1,5.6-1
					C260.2,918.5,262.7,918.9,262.7,919.5z"/>
			</g>
		</g>
		<g>
			<g>
				<path class="st3" d="M285.1,919.5c0,0.5-2.5,1-5.6,1c-3.1,0-5.6-0.4-5.6-1c0-0.5,2.5-1,5.6-1
					C282.6,918.5,285.1,918.9,285.1,919.5z"/>
			</g>
		</g>
		<g>
			<g>
				<path class="st3" d="M307.5,919.5c0,0.5-2.5,1-5.6,1c-3.1,0-5.6-0.4-5.6-1c0-0.5,2.5-1,5.6-1C305,918.5,307.5,918.9,307.5,919.5
					z"/>
			</g>
		</g>
		<g>
			<g>
				<path class="st3" d="M329.9,919.5c0,0.5-2.5,1-5.6,1c-3.1,0-5.6-0.4-5.6-1c0-0.5,2.5-1,5.6-1
					C327.4,918.5,329.9,918.9,329.9,919.5z"/>
			</g>
		</g>
		<g>
			<g>
				<path class="st3" d="M352.3,919.5c0,0.5-2.5,1-5.6,1c-3.1,0-5.6-0.4-5.6-1c0-0.5,2.5-1,5.6-1
					C349.8,918.5,352.3,918.9,352.3,919.5z"/>
			</g>
		</g>
		<g>
			<g>
				<path class="st3" d="M374.7,919.5c0,0.5-2.5,1-5.6,1c-3.1,0-5.6-0.4-5.6-1c0-0.5,2.5-1,5.6-1
					C372.2,918.5,374.7,918.9,374.7,919.5z"/>
			</g>
		</g>
		<g>
			<g>
				<path class="st3" d="M397.1,919.5c0,0.5-2.5,1-5.6,1c-3.1,0-5.6-0.4-5.6-1c0-0.5,2.5-1,5.6-1
					C394.6,918.5,397.1,918.9,397.1,919.5z"/>
			</g>
		</g>
		<g>
			<g>
				<path class="st3" d="M419.5,919.5c0,0.5-2.5,1-5.6,1c-3.1,0-5.6-0.4-5.6-1c0-0.5,2.5-1,5.6-1C417,918.5,419.5,918.9,419.5,919.5
					z"/>
			</g>
		</g>
		<g>
			<g>
				<path class="st3" d="M441.9,919.5c0,0.5-2.5,1-5.6,1c-3.1,0-5.6-0.4-5.6-1c0-0.5,2.5-1,5.6-1
					C439.4,918.5,441.9,918.9,441.9,919.5z"/>
			</g>
		</g>
		<g>
			<g>
				<path class="st3" d="M464.3,919.5c0,0.5-2.5,1-5.6,1c-3.1,0-5.6-0.4-5.6-1c0-0.5,2.5-1,5.6-1
					C461.8,918.5,464.3,918.9,464.3,919.5z"/>
			</g>
		</g>
		<g>
			<g>
				<path class="st3" d="M486.7,919.5c0,0.5-2.5,1-5.6,1c-3.1,0-5.6-0.4-5.6-1c0-0.5,2.5-1,5.6-1
					C484.2,918.5,486.7,918.9,486.7,919.5z"/>
			</g>
		</g>
		<g>
			<g>
				<path class="st3" d="M489.8,938.8c-0.5,0-1-2.5-1-5.6c0-3.1,0.4-5.6,1-5.6s1,2.5,1,5.6C490.8,936.3,490.3,938.8,489.8,938.8z"/>
			</g>
		</g>
		<g>
			<g>
				<path class="st3" d="M489.8,961.2c-0.5,0-1-2.5-1-5.6c0-3.1,0.4-5.6,1-5.6s1,2.5,1,5.6C490.8,958.7,490.3,961.2,489.8,961.2z"/>
			</g>
		</g>
		<g>
			<g>
				<path class="st3" d="M489.8,983.6c-0.5,0-1-2.5-1-5.6c0-3.1,0.4-5.6,1-5.6s1,2.5,1,5.6C490.8,981.1,490.3,983.6,489.8,983.6z"/>
			</g>
		</g>
		<g>
			<g>
				<path class="st3" d="M489.8,1006c-0.5,0-1-2.5-1-5.6c0-3.1,0.4-5.6,1-5.6s1,2.5,1,5.6C490.8,1003.5,490.3,1006,489.8,1006z"/>
			</g>
		</g>
		<g>
			<g>
				<path class="st3" d="M489.8,1028.4c-0.5,0-1-2.5-1-5.6c0-3.1,0.4-5.6,1-5.6s1,2.5,1,5.6C490.8,1025.9,490.3,1028.4,489.8,1028.4
					z"/>
			</g>
		</g>
		<g>
			<g>
				<path class="st3" d="M489.8,1050.8c-0.5,0-1-2.5-1-5.6c0-3.1,0.4-5.6,1-5.6s1,2.5,1,5.6C490.8,1048.3,490.3,1050.8,489.8,1050.8
					z"/>
			</g>
		</g>
		<g>
			<g>
				<path class="st3" d="M489.8,1073.2c-0.5,0-1-2.5-1-5.6c0-3.1,0.4-5.6,1-5.6s1,2.5,1,5.6C490.8,1070.7,490.3,1073.2,489.8,1073.2
					z"/>
			</g>
		</g>
		<g>
			<g>
				<path class="st3" d="M489.8,1095.6c-0.5,0-1-2.5-1-5.6c0-3.1,0.4-5.6,1-5.6s1,2.5,1,5.6C490.8,1093.1,490.3,1095.6,489.8,1095.6
					z"/>
			</g>
		</g>
		<g>
			<g>
				<path class="st3" d="M489.8,1118c-0.5,0-1-2.5-1-5.6c0-3.1,0.4-5.6,1-5.6s1,2.5,1,5.6C490.8,1115.5,490.3,1118,489.8,1118z"/>
			</g>
		</g>
		<g>
			<g>
				<path class="st3" d="M489.8,1140.4c-0.5,0-1-2.5-1-5.6c0-3.1,0.4-5.6,1-5.6s1,2.5,1,5.6C490.8,1137.9,490.3,1140.4,489.8,1140.4
					z"/>
			</g>
		</g>
		<g>
			<g>
				<path class="st3" d="M489.8,1162.8c-0.5,0-1-2.5-1-5.6c0-3.1,0.4-5.6,1-5.6s1,2.5,1,5.6C490.8,1160.3,490.3,1162.8,489.8,1162.8
					z"/>
			</g>
		</g>
		<g>
			<g>
				<path class="st3" d="M489.8,1185.2c-0.5,0-1-2.5-1-5.6c0-3.1,0.4-5.6,1-5.6s1,2.5,1,5.6C490.8,1182.7,490.3,1185.2,489.8,1185.2
					z"/>
			</g>
		</g>
	</g>
	<g>
		<rect x="479.7" y="1180.1" class="st3" width="20.3" height="20.3"/>
	</g>
	<g>
		<rect x="206.1" y="1182.9" class="st3" width="20.3" height="20.3"/>
	</g>
	<g>
		<rect x="479.7" y="907.4" class="st3" width="20.3" height="20.3"/>
	</g>
	<g>
		<rect x="206.1" y="909.3" class="st3" width="20.3" height="20.3"/>
	</g>
</g>
</svg>
