<?xml version="1.0" encoding="utf-8"?>
<!-- Generator: Adobe Illustrator 22.1.0, SVG Export Plug-In . SVG Version: 6.00 Build 0)  -->
<svg version="1.1" id="Layer_1" xmlns="http://www.w3.org/2000/svg" xmlns:xlink="http://www.w3.org/1999/xlink" x="0px" y="0px"
	 viewBox="0 0 3079.2 2000" style="enable-background:new 0 0 3079.2 2000;" xml:space="preserve">
<style type="text/css">
	.st0{fill:#EFEFEF;}
	.st1{fill:#D1D1D1;}
	.st2{fill:#6B6B6B;}
	.st3{fill:#969696;}
	.st4{fill:#4338CA;}
	.st5{fill:#FFFFFF;}
	.st6{fill:#9BC1F9;}
	.st7{fill:#DD513A;}
	.st8{fill:#0E2E35;}
	.st9{fill:#231FA3;}
	.st10{fill:#4843DA;}
	.st11{fill:#F79C8D;}
	.st12{fill:#2F2CAF;}
	.st13{fill:#F7A491;}
	.st14{fill:#606060;}
	.st15{fill:#F47458;}
	.st16{fill:#C6C7CE;}
</style>
<g>
	<g>
		<g>
			<path class="st0" d="M1005,124.3c417.4-25.9,855.1,109.2,790.7,305.1c-64.3,195.9,343.9-69.6,506.8,1
				c116,50.3,69.6,203.4,125.7,265.1c128.7,141.4,245.4-54.3,419.3,137.4c131.4,144.8,86,897.6-365.6,1040.7l-1928.9-2l-134.5-22.2
				c0,0-387.3-226.9-110.3-436.2c187.3-141.5,52.5-244.3,32.2-309.1c-23.4-74.4-78-204.3,159.9-299.7
				c237.8-95.3,176.4-302.8,170.6-345.8C665.1,415.8,587.6,150.3,1005,124.3L1005,124.3z"/>
			<g>
				<g>
					<path class="st1" d="M553.7,1421.7c-48.1-71.7-59.7-159.9-61-221.3c-1.4-66.6,8.7-116.9,8.8-117.4l-3.3-1.1
						c-0.1,0.5-10.3,51.2-8.9,118.3c1.3,62,13.1,151.1,61.7,223.7L553.7,1421.7z"/>
				</g>
				<g>
					<path class="st1" d="M512.3,1070.4c-0.6,15.1-6.6,28-15.6,36.1c-8.3-10.2-13.3-24.4-12.7-39.5c0.6-15.1,6.6-28,15.6-36.1
						C507.9,1041.1,512.9,1055.3,512.3,1070.4z"/>
				</g>
				<g>
					<path class="st1" d="M482.8,1106.3c8.2,12.8,11.1,27.5,9.1,40.5c-11.9-2.5-23.6-10.6-31.8-23.4c-8.2-12.8-11.1-27.5-9.1-40.5
						C462.9,1085.4,474.6,1093.5,482.8,1106.3z"/>
				</g>
				<g>
					<path class="st1" d="M466.9,1147.8c12.3,7.6,20.8,19.7,24.4,32.7c-11.3,3.8-24.7,2.2-36.9-5.4c-12.3-7.6-20.8-19.7-24.4-32.7
						C441.2,1138.7,454.6,1140.2,466.9,1147.8z"/>
				</g>
				<g>
					<path class="st1" d="M474.3,1204.7c9.7,6,16,16.8,18,28.8c-9.7,4.7-20.9,4.6-30.6-1.5c-9.7-6-16-16.8-18-28.8
						C453.4,1198.5,464.5,1198.6,474.3,1204.7z"/>
				</g>
				<g>
					<path class="st1" d="M511,1135.7c10.4-6.3,22.4-7,32.7-3.1c-2.3,11.5-9.1,21.9-19.5,28.2c-10.5,6.3-22.4,7-32.7,3.1
						C493.8,1152.4,500.6,1142,511,1135.7z"/>
				</g>
				<g>
					<path class="st1" d="M511.3,1175.1c10.4-6.3,22.4-7,32.7-3.1c-2.3,11.5-9.1,21.9-19.6,28.2c-10.4,6.3-22.4,7-32.7,3.1
						C494,1191.9,500.8,1181.4,511.3,1175.1z"/>
				</g>
			</g>
			<g>
				<g>
					<path class="st1" d="M504.2,1773.7c-100.8-36.7-171.3-124.2-212.7-191.2c-44.9-72.7-66.2-137.5-66.4-138.2l-4.5,1.8
						c0.2,0.7,21.7,66,66.9,139.2c41.8,67.6,113,156.1,215.1,193.2L504.2,1773.7z"/>
				</g>
				<g>
					<path class="st1" d="M229,1420.7c9.2,17.3,10.8,36.9,5.9,54c-16-3.9-30.9-15.2-40.1-32.5c-9.2-17.3-10.8-36.9-5.9-54
						C205,1392.1,219.8,1403.5,229,1420.7z"/>
				</g>
				<g>
					<path class="st1" d="M219.1,1486.9c17.5,6.9,30.4,20.7,36.6,36.9c-15,7.9-33.5,9.3-51.1,2.4c-17.5-6.9-30.4-20.7-36.6-36.9
						C183.1,1481.4,201.6,1480,219.1,1486.9z"/>
				</g>
				<g>
					
						<ellipse transform="matrix(0.99 -0.1411 0.1411 0.99 -218.9617 48.1509)" class="st1" cx="230" cy="1567.9" rx="47.4" ry="20.8"/>
				</g>
				<g>
					<path class="st1" d="M263.7,1605c18.8-2.5,36.3,3.3,48.8,14.5c-10.2,14.2-26.4,24.5-45.1,26.9c-18.8,2.5-36.3-3.3-48.8-14.5
						C228.9,1617.8,245,1607.5,263.7,1605z"/>
				</g>
				<g>
					<path class="st1" d="M260.9,1515c1-18.3,8.6-34.7,19.8-46c10,10.9,15.7,27.1,14.7,45.4c-1,18.3-8.6,34.7-19.8,46
						C265.7,1549.5,259.9,1533.2,260.9,1515z"/>
				</g>
				<g>
					<path class="st1" d="M298,1574.8c0.8-18.3,8.1-34.9,19.2-46.3c10.1,10.7,16.2,26.8,15.4,45.1c-0.8,18.3-8.1,34.9-19.2,46.3
						C303.3,1609.2,297.2,1593.1,298,1574.8z"/>
				</g>
				<g>
					<path class="st1" d="M324.3,1664.8c7.2-3.8,15-3.9,21.7-1c-2,7.5-7,14.1-14.1,17.9s-15,3.9-21.7,1
						C312.2,1675.2,317.2,1668.6,324.3,1664.8z"/>
				</g>
			</g>
			<path class="st2" d="M745.9,1676.6c0,0,78.4-173,52.2-211.6c-36.2-53.3-81.2,110.4-83.4,96c-20.7-135.9-16.4-307.2-113.4-333.2
				c-55.1-14.8,3.6,128-3.2,164.8c-6.8,36.8-98.5-94.5-155-164c-56.5-69.5-91.1-31.1-58.3,53.1c31.7,81.5,146.3,177,120.7,185.2
				c-25.7,8.2-169.6-105.4-191.3-63.5c-26.6,51.3,195.1,141.9,172.9,152.1c-22.2,10.2-127.9-37.8-127.9,3.1
				c0,40.9,146,51.1,142.2,68.7c-6.1,28.6-97.8-44.6-105-4.9c-7.3,40.6,124.5,43.7,119.9,75.4c-2.6,18.3-35.8-0.9-41.8,24.2
				c-13.7,57.2,194,137.4,194,137.4L745.9,1676.6z"/>
			<path class="st1" d="M890.5,1715.9c31.5,14.8,23,51.4,23,51.4s85.5-66.7,117.4-27.8c32,39,15.2,115.3-22.3,127.7
				c-13.3,4.4-62.4,6.3-120.7,6.7c-106.4,0.8-242.7-3-242.7-3S862.2,1702.6,890.5,1715.9z"/>
			<g>
				<g>
					<g>
						<path class="st1" d="M664.2,1808.8l3-2.6c-68.5-83.4-97.7-188-110.2-261.1c-13.5-79.3-10.8-139.5-10.8-140.1l-4.2-0.7
							c0,0.6-2.8,61.3,10.8,141C565.4,1619,594.9,1724.5,664.2,1808.8z"/>
					</g>
					<g>
						<path class="st1" d="M555.4,1391.8c2,18-2.6,33.6-11.6,43.6c-11.5-11.8-19.8-28.5-21.8-46.5c-2-18,2.6-33.6,11.6-43.6
							C545,1357.1,553.3,1373.8,555.4,1391.8z"/>
					</g>
					<g>
						<path class="st1" d="M528.6,1433.7c11.7,14.9,17.8,32.3,17.8,47.8c-14.2-2.5-29.3-11.7-41-26.5
							c-11.7-14.9-17.8-32.3-17.8-47.8C501.9,1409.7,516.9,1418.9,528.6,1433.7z"/>
					</g>
					<g>
						<path class="st1" d="M517.6,1483.8c15.5,8.6,27.6,22.7,34.1,37.9c-12.4,4.9-28.2,3.6-43.7-4.9c-15.5-8.6-27.6-22.6-34.1-37.9
							C486.3,1474,502.1,1475.3,517.6,1483.8z"/>
					</g>
					<g>
						<path class="st1" d="M545.4,1566.3c6.7,3.1,12.2,8.7,15.3,14.9c-5,2.5-11.6,2.5-18.3-0.6c-6.7-3.1-12.2-8.7-15.3-14.9
							C532.1,1563.2,538.7,1563.2,545.4,1566.3z"/>
					</g>
					<g>
						<path class="st1" d="M553.8,1597.1c6.7,3.1,12.2,8.7,15.3,14.9c-5,2.5-11.6,2.5-18.3-0.6c-6.7-3.1-12.2-8.7-15.3-14.9
							C540.5,1593.9,547.1,1594,553.8,1597.1z"/>
					</g>
					<g>
						<path class="st1" d="M566.6,1467.6c11-7.9,24.6-9.3,37.3-5.1c-0.6,13.7-6.6,26.5-17.6,34.3c-11,7.9-24.6,9.3-37.3,5.1
							C549.6,1488.2,555.6,1475.5,566.6,1467.6z"/>
					</g>
					<g>
						<path class="st1" d="M573.9,1514.5c11-7.9,24.6-9.3,37.3-5.1c-0.6,13.7-6.6,26.5-17.6,34.3c-11,7.9-24.6,9.3-37.3,5.1
							C556.9,1535.1,562.9,1522.4,573.9,1514.5z"/>
					</g>
					<g>
						<path class="st1" d="M578.7,1582.2c7.1-5.1,16-6,24.3-3.3c-0.4,8.9-4.3,17.2-11.4,22.4c-7.1,5.1-16,6-24.3,3.3
							C567.6,1595.7,571.5,1587.4,578.7,1582.2z"/>
					</g>
				</g>
			</g>
			<path class="st3" d="M715.8,1871.4c0,0-100.1-128.6-142-148.3c-44.6-21-5.9,51.7-5.9,51.7s-95.4-93.7-117.8-70.3
				c-22.4,23.4,1.5,45.3,1.5,45.3s-79.9-14.8-91.5,15.1c-17.9,46,113.4,68.8,113.4,68.8s-62.9-13.8-50.3,14.7
				C442.3,1891.4,715.8,1871.4,715.8,1871.4z"/>
			<path class="st1" d="M360.2,1765c11.6-29.9,91.5-15.1,91.5-15.1s-23.9-21.9-1.5-45.3c22.4-23.4,97,31.8,97,31.8
				s-11.6-50.8,44.5-10.8c40.1,28.5,117.4,134.9,117.4,134.9L360.2,1765z"/>
			<g>
				<g>
					<path class="st3" d="M642.2,1869.5c0,0,159.5,11.3,190.6-17.3c31.1-28.6,0.2-80.3,0.2-80.3s54.8-43.3,53.9-71.5
						c-0.9-28.3-36.5-13.9-36.5-13.9s60.5-77.8,46.1-92.6c-26.7-27.6-96.6,53.3-96.6,53.3s20.7-38.5-1.1-44.6
						c-33-9.2-57.3,85.7-57.3,85.7s6.2-37.5-16.6-32.5C684.1,1664.7,642.2,1869.5,642.2,1869.5z"/>
				</g>
			</g>
			<path class="st3" d="M2267.7,1429.7l12.9-31.2c10-23,35.6-33.9,57.1-24.5l0,0c54.3,23.8,77.9,90,52.7,147.9l-18.4,42.3
				c-8.1,18.5-5.3,38.9,5.6,53.3c9.9,13.1,11.5,31.2,4.6,47l-9.7,22.3c-10.5,24.2-31,42-55.2,49.4c-14.2,4.3-26.7,15-33.3,30.2
				l-13.7,31.6c-15.2,34.9-54.1,51.6-86.8,37.3l-18.7-8.2c-32.8-14.4-47-54.3-31.8-89.2l0,0c24.6-41.8,22.6-72.9,13.9-94.1
				c-12.8-31.1-12.7-66.9,1.2-98.7l1.9-4.5c14.6-33.6,42.8-58.7,76.5-69.4C2241.3,1466.4,2256.7,1454.8,2267.7,1429.7z"/>
			<path class="st1" d="M2033.6,1868.4c26.4-34.3,172.8-216.4,267-247c104-33.8,6,100.4,6,100.4s184.5-202.5,252.2-184.2
				c62.1,16.7,0,142.2,0,142.2s69.9-69.5,154.7-69.5c82.5,0-62,250.2-69.5,263.3l-402-0.8L2033.6,1868.4z"/>
			<g>
				<g>
					<path class="st3" d="M2591.9,1477.5c-75.4,118.1-130.3,255.2-161.8,394.7l-7.5-0.1c31.3-136.5,88.2-274.7,163.4-392.7
						c17.5-27.4,36.4-60,69.1-70.7c0.6-0.2,0.9,0.8,0.3,1C2625.6,1421,2608.2,1451.8,2591.9,1477.5z"/>
				</g>
				<g>
					<path class="st3" d="M2447.2,1872.4c84.2-115,187.6-222.4,309.4-314.8c1.2-0.9,2.9,1.2,1.6,2.1
						c-115.5,89.1-217.3,193.8-303.3,312.7L2447.2,1872.4z"/>
				</g>
				<path class="st3" d="M2598.8,1404.2c1.9,2.9,9.4,10.3,11.6,20.1c2.9,9.3,0.6,21,0.4,20.6c-0.6,0.2,8.6-7.5,11.5-19.9
					c3.7-11.8,1.1-28.3-3.5-33.7c-8-12.3-21.9-13.6-24.6-7.6C2591.2,1389.6,2594.9,1397.7,2598.8,1404.2z"/>
				<path class="st3" d="M2616.8,1509.7c-2.8-2-10.1-9.6-19.8-12c-9.2-3.1-20.9-1-20.5-0.8c-0.2,0.6,7.7-8.5,20-11.1
					c11.9-3.5,28.2-0.6,33.5,4.2c12.1,8.2,13.1,22.2,7.1,24.8C2631.2,1517.5,2623.2,1513.7,2616.8,1509.7z"/>
				<path class="st3" d="M2589.6,1555.9c-2.8-2-10.1-9.6-19.8-12c-9.2-3.1-20.9-1-20.5-0.8c-0.2,0.6,7.7-8.5,20-11.1
					c11.9-3.5,28.2-0.6,33.5,4.2c12.1,8.2,13.1,22.2,7.1,24.8C2604,1563.8,2596,1559.9,2589.6,1555.9z"/>
				<path class="st3" d="M2686.7,1663.1c-2.8-2-10.1-9.6-19.8-12c-9.2-3.1-20.9-1-20.5-0.8c-0.2,0.6,7.7-8.5,20-11.1
					c11.9-3.5,28.2-0.6,33.5,4.2c12.1,8.2,13.1,22.2,7.1,24.8C2701.1,1671,2693.1,1667.2,2686.7,1663.1z"/>
				<path class="st3" d="M2736.3,1619.3c-2.8-2-10.1-9.6-19.8-12c-9.2-3.1-20.9-1-20.5-0.8c-0.2,0.6,7.7-8.5,20-11.1
					c11.9-3.5,28.2-0.6,33.5,4.2c12.1,8.2,13.1,22.2,7.1,24.8C2750.7,1627.1,2742.7,1623.3,2736.3,1619.3z"/>
				<path class="st3" d="M2560.7,1456.5c2.4,2.5,10.9,8.7,14.6,18.1c4.4,8.7,3.9,20.6,3.6,20.2c-0.5,0.3,7.3-8.8,8.2-21.5
					c1.8-12.3-3.3-28.1-8.8-32.8c-9.8-10.9-23.7-9.9-25.4-3.6C2551,1443.3,2555.8,1450.7,2560.7,1456.5z"/>
				<path class="st3" d="M2520.7,1508.9c3.4,1.8,15.1,5,21.1,13.9c6.7,7.9,7.5,21.3,7.1,21c-0.6,0.6,8.4-13,8-27.5
					c0.8-14.5-7.7-29.9-15.3-32.8c-14-7.9-31.9-0.9-33.4,6.9C2506.5,1498.4,2513.6,1504.6,2520.7,1508.9z"/>
				<path class="st3" d="M2478.5,1588.3c3.6,1.2,15.8,2.4,23.1,10.1c7.9,6.6,11,19.7,10.5,19.5c-0.5,0.7,6.1-14.2,3.3-28.4
					c-1.6-14.4-12.6-28.2-20.6-29.7c-15.1-5.5-31.6,4.5-31.7,12.5C2462.8,1580.3,2470.9,1585.2,2478.5,1588.3z"/>
				<path class="st3" d="M2603.2,1643.6c2.6,1.7,12,5,16.3,12.5c5,6.8,4.9,17.8,4.6,17.5c-0.5,0.4,7.6-10.1,8.1-21.9
					c1.5-11.7-4.6-24.8-10.6-27.5c-10.9-7.3-25.9-2.5-27.5,3.7C2592.2,1634.3,2597.7,1639.7,2603.2,1643.6z"/>
				<path class="st3" d="M2668.1,1422.8c-1.6-1.3-5.6-6.1-11.2-8c-5.3-2.3-12.3-1.5-12.1-1.4c-0.2,0.3,4.9-4.7,12.3-5.7
					c7.2-1.5,16.7,0.9,19.7,3.9c6.8,5.4,6.8,13.7,3.1,15C2676.3,1428.1,2671.7,1425.5,2668.1,1422.8z"/>
				<path class="st3" d="M2653,1389.1c0.1,2.1,1.4,8.2-0.6,13.8c-1.5,5.6-6.3,10.7-6.3,10.4c-0.4-0.1,6.7-1,12-6.3
					c5.6-4.8,9.5-13.8,8.9-18c-0.1-8.7-6.7-13.7-9.9-11.6C2653.8,1379.4,2653.1,1384.6,2653,1389.1z"/>
				<path class="st3" d="M2772,1574.6c-1.6-1.3-5.6-6.1-11.2-8c-5.3-2.3-12.3-1.5-12.1-1.4c-0.2,0.3,4.9-4.7,12.3-5.7
					c7.2-1.5,16.7,0.9,19.7,3.9c6.8,5.4,6.8,13.7,3.1,15C2780.2,1579.9,2775.6,1577.3,2772,1574.6z"/>
				<path class="st3" d="M2753.8,1540.6c0.2,2,2.1,8,0.6,13.8c-1,5.7-5.4,11.2-5.4,10.9c-0.4,0,6.6-1.6,11.5-7.3
					c5.2-5.2,8.3-14.6,7.4-18.7c-0.8-8.7-7.8-13.1-10.8-10.8C2753.8,1530.8,2753.5,1536.1,2753.8,1540.6z"/>
			</g>
			<g>
				<path class="st3" d="M2670.1,1736.3c0.5,3.2,3.8,12.4,1.8,21.5c-1.2,9-7.7,17.8-7.8,17.4c-0.6,0,10.2-2.9,17.4-12.1
					c7.8-8.5,12.1-23.3,10.3-29.7c-1.8-13.5-13-20-17.6-16.1C2669.5,1721.1,2669.4,1729.3,2670.1,1736.3z"/>
				<path class="st3" d="M2602.3,1760.7c0.5,3.2,3.8,12.4,1.8,21.5c-1.2,9-7.7,17.8-7.8,17.4c-0.6,0,10.2-2.9,17.4-12.1
					c7.8-8.5,12.1-23.3,10.3-29.7c-1.8-13.5-13-20-17.6-16.1C2601.7,1745.5,2601.6,1753.7,2602.3,1760.7z"/>
				<path class="st3" d="M2533.4,1791.5c0.5,3.2,3.8,12.4,1.8,21.5c-1.2,9-7.7,17.8-7.8,17.4c-0.6,0,10.2-2.9,17.4-12.1
					c7.8-8.5,12.1-23.3,10.3-29.7c-1.8-13.5-13-20-17.6-16.1C2532.8,1776.3,2532.7,1784.5,2533.4,1791.5z"/>
				<path class="st3" d="M2690.4,1799.9c-1.4-2.6-4.1-11.2-10.6-16.8c-5.9-5.9-15.6-8.8-15.4-8.5c-0.4,0.3,9.1-3.5,19.6-0.8
					c10.4,1.9,21.8,10.4,24.1,16.1c6.1,10.9,1.6,22-4,21.7C2698.4,1811.4,2693.7,1805.5,2690.4,1799.9z"/>
				<path class="st3" d="M2619.8,1824.9c-1.4-2.6-4.1-11.2-10.6-16.8c-5.9-5.9-15.6-8.8-15.4-8.5c-0.4,0.3,9.1-3.5,19.6-0.8
					c10.4,1.9,21.8,10.4,24.1,16.1c6.1,10.9,1.6,22-4,21.7C2627.8,1836.5,2623.2,1830.5,2619.8,1824.9z"/>
				<path class="st3" d="M2744.1,1774.1c-1.2-1.5-4-6.5-8.9-9.1c-4.5-2.9-11-3.5-10.8-3.3c-0.2,0.3,5.3-3.4,12.2-3.1
					c6.8-0.2,15.1,3.6,17.3,6.9c5.3,6.1,3.9,13.6,0.3,14.2C2750.6,1780.3,2746.9,1777.1,2744.1,1774.1z"/>
				<path class="st3" d="M2735.9,1740.8c-0.3,1.9-0.1,7.7-2.8,12.5c-2.3,4.9-7.5,8.7-7.5,8.4c-0.3-0.1,6.3,0.2,12-3.8
					c5.9-3.4,10.9-11,11.1-14.9c1.4-7.9-3.8-13.6-7.1-12.2C2738.3,1732.1,2736.8,1736.7,2735.9,1740.8z"/>
				<path class="st3" d="M2739.4,1759.6c-21.7,2-43.2,6-64.3,11.5c-38.5,10.1-75.5,25.1-111.9,40.9c-17.9,7.8-35.9,15.5-53.5,24.1
					c-8.2,4-16.5,8-24,13.1c-10.2,6.9-26.1,20.8-28,22.9l8.4,0.2c5.7-4.7,26.7-22.4,55.8-36.4c69-33.3,140.7-67.3,217.7-75.8
					C2739.9,1760.2,2739.8,1759.6,2739.4,1759.6z"/>
			</g>
		</g>
		<g>
			<path class="st4" d="M887.9,1873.9l-0.8-1022.6c0-19.5,15.8-35.4,35.4-35.4l1283.3-1.1c19.5,0,35.4,15.8,35.4,35.4l0.8,1022.6
				L887.9,1873.9z"/>
			<polygon class="st5" points="2222.6,1853.4 907.3,1854.5 908.6,914.7 2223.8,913.6 			"/>
			<path class="st1" d="M1568.5,1006.6l-563,0.5c-11.6,0-20.9-9.3-20.9-20.9l0,0c0-11.6,9.3-20.9,20.9-20.9l563-0.5
				c11.6,0,20.9,9.3,20.9,20.9l0,0C1589.4,997.3,1580,1006.6,1568.5,1006.6z"/>
			<path class="st1" d="M1445.1,1067.8l-439.6,0.4c-11.6,0-20.9-9.3-20.9-20.9l0,0c0-11.6,9.3-20.9,20.9-20.9l439.6-0.4
				c11.6,0,20.9,9.3,20.9,20.9l0,0C1466,1058.4,1456.6,1067.8,1445.1,1067.8z"/>
			<path class="st1" d="M1194.4,1129l-188.8,0.2c-11.6,0-20.9-9.3-20.9-20.9l0,0c0-11.6,9.4-20.9,20.9-20.9l188.8-0.2
				c11.6,0,20.9,9.3,20.9,20.9l0,0C1215.3,1119.7,1206,1129,1194.4,1129z"/>
			<path class="st1" d="M1353.2,1190l-347.6,0.3c-11.6,0-20.9-9.4-20.9-20.9l0,0c0-11.6,9.3-20.9,20.9-20.9l347.6-0.3
				c11.6,0,20.9,9.3,20.9,20.9l0,0C1374.1,1180.6,1364.7,1190,1353.2,1190z"/>
			<path class="st1" d="M1518,1189.8l-103.7,0.1c-11.6,0-20.9-9.3-20.9-20.9l0,0c0-11.6,9.3-20.9,20.9-20.9l103.7-0.1
				c11.6,0,20.9,9.3,20.9,20.9l0,0C1538.9,1180.4,1529.5,1189.8,1518,1189.8z"/>
			<path class="st1" d="M1680.8,1189.7l-103.7,0.1c-11.6,0-20.9-9.3-20.9-20.9l0,0c0-11.6,9.3-20.9,20.9-20.9l103.7-0.1
				c11.6,0,20.9,9.3,20.9,20.9l0,0C1701.7,1180.3,1692.3,1189.7,1680.8,1189.7z"/>
			<path class="st1" d="M1612.9,1067.7l-103.7,0.1c-11.6,0-20.9-9.3-20.9-20.9l0,0c0-11.6,9.3-20.9,20.9-20.9l103.7-0.1
				c11.6,0,20.9,9.3,20.9,20.9l0,0C1633.8,1058.3,1624.5,1067.6,1612.9,1067.7z"/>
			<path class="st1" d="M1776.1,1067.5l-103.7,0.1c-11.6,0-20.9-9.3-20.9-20.9l0,0c0-11.6,9.3-20.9,20.9-20.9l103.7-0.1
				c11.6,0,20.9,9.3,20.9,20.9l0,0C1797,1058.1,1787.7,1067.5,1776.1,1067.5z"/>
			<path class="st1" d="M1942.1,1067.4l-103.7,0.1c-11.6,0-20.9-9.3-20.9-20.9l0,0c0-11.6,9.3-20.9,20.9-20.9l103.7-0.1
				c11.6,0,20.9,9.3,20.9,20.9l0,0C1963,1058,1953.6,1067.4,1942.1,1067.4z"/>
			<path class="st1" d="M1839.8,1189.6l-103.7,0.1c-11.6,0-20.9-9.3-20.9-20.9l0,0c0-11.6,9.3-20.9,20.9-20.9l103.7-0.1
				c11.6,0,20.9,9.3,20.9,20.9l0,0C1860.8,1180.2,1851.4,1189.6,1839.8,1189.6z"/>
			<path class="st1" d="M1998.8,1189.4l-103.7,0.1c-11.6,0-20.9-9.3-20.9-20.9l0,0c0-11.6,9.3-20.9,20.9-20.9l103.7-0.1
				c11.6,0,20.9,9.3,20.9,20.9l0,0C2019.7,1180,2010.4,1189.4,1998.8,1189.4z"/>
			<path class="st1" d="M1888,1250.6l-882.3,0.7c-11.6,0-20.9-9.3-20.9-20.9l0,0c0-11.6,9.3-20.9,20.9-20.9l882.3-0.7
				c11.6,0,20.9,9.3,20.9,20.9l0,0C1908.9,1241.2,1899.5,1250.6,1888,1250.6z"/>
			<path class="st1" d="M1499,1311.9l-493.3,0.4c-11.6,0-20.9-9.3-20.9-20.9l0,0c0-11.6,9.3-20.9,20.9-20.9l493.3-0.4
				c11.6,0,20.9,9.3,20.9,20.9l0,0C1519.9,1302.5,1510.5,1311.9,1499,1311.9z"/>
			<path class="st1" d="M1425.3,1373l-419.5,0.3c-11.6,0-20.9-9.3-20.9-20.9l0,0c0-11.6,9.3-20.9,20.9-20.9l419.5-0.3
				c11.6,0,20.9,9.3,20.9,20.9l0,0C1446.2,1363.7,1436.8,1373,1425.3,1373z"/>
			<path class="st1" d="M1747.9,1372.8l-266.7,0.2c-11.6,0-20.9-9.3-20.9-20.9l0,0c0-11.6,9.3-20.9,20.9-20.9l266.7-0.2
				c11.6,0,20.9,9.3,20.9,20.9l0,0C1768.8,1363.4,1759.4,1372.8,1747.9,1372.8z"/>
			<path class="st1" d="M2070.5,1372.5l-266.7,0.2c-11.6,0-20.9-9.3-20.9-20.9l0,0c0-11.6,9.3-20.9,20.9-20.9l266.7-0.2
				c11.6,0,20.9,9.3,20.9,20.9l0,0C2091.4,1363.1,2082,1372.5,2070.5,1372.5z"/>
			<path class="st1" d="M1678.6,1433.9l-672.8,0.6c-11.6,0-20.9-9.3-20.9-20.9l0,0c0-11.6,9.3-20.9,20.9-20.9l672.8-0.6
				c11.6,0,20.9,9.3,20.9,20.9l0,0C1699.5,1424.5,1690.2,1433.9,1678.6,1433.9z"/>
			<path class="st1" d="M1918.4,1433.7l-182.1,0.1c-11.6,0-20.9-9.3-20.9-20.9l0,0c0-11.6,9.3-20.9,20.9-20.9l182.1-0.1
				c11.6,0,20.9,9.3,20.9,20.9l0,0C1939.4,1424.3,1930,1433.7,1918.4,1433.7z"/>
			<path class="st1" d="M1546.4,1495l-540.5,0.4c-11.6,0-20.9-9.3-20.9-20.9l0,0c0-11.6,9.4-20.9,20.9-20.9l540.5-0.4
				c11.6,0,20.9,9.3,20.9,20.9l0,0C1567.3,1485.6,1557.9,1495,1546.4,1495z"/>
			<path class="st1" d="M1733.4,1494.9l-129.3,0.1c-11.6,0-20.9-9.3-20.9-20.9l0,0c0-11.6,9.3-20.9,20.9-20.9l129.3-0.1
				c11.6,0,20.9,9.3,20.9,20.9l0,0C1754.3,1485.5,1745,1494.9,1733.4,1494.9z"/>
			<path class="st1" d="M1298.8,1556.3l-292.9,0.2c-11.6,0-20.9-9.3-20.9-20.9l0,0c0-11.6,9.3-20.9,20.9-20.9l292.9-0.2
				c11.6,0,20.9,9.3,20.9,20.9l0,0C1319.8,1546.9,1310.4,1556.3,1298.8,1556.3z"/>
			<path class="st1" d="M1185.7,1617.4l-179.7,0.1c-11.6,0-20.9-9.3-20.9-20.9l0,0c0-11.6,9.3-20.9,20.9-20.9l179.7-0.1
				c11.6,0,20.9,9.3,20.9,20.9l0,0C1206.6,1608,1197.2,1617.4,1185.7,1617.4z"/>
			<path class="st1" d="M1348.1,1617.3l-102.3,0.1c-11.6,0-20.9-9.3-20.9-20.9l0,0c0-11.6,9.3-20.9,20.9-20.9l102.3-0.1
				c11.6,0,20.9,9.3,20.9,20.9v0C1369,1607.9,1359.7,1617.3,1348.1,1617.3z"/>
			<path class="st1" d="M1508.5,1617.1l-102.3,0.1c-11.6,0-20.9-9.3-20.9-20.9l0,0c0-11.6,9.3-20.9,20.9-20.9l102.3-0.1
				c11.6,0,20.9,9.3,20.9,20.9l0,0C1529.4,1607.8,1520,1617.1,1508.5,1617.1z"/>
			<path class="st1" d="M1670.2,1617l-102.3,0.1c-11.6,0-20.9-9.3-20.9-20.9l0,0c0-11.6,9.3-20.9,20.9-20.9l102.3-0.1
				c11.6,0,20.9,9.3,20.9,20.9l0,0C1691.1,1607.6,1681.8,1617,1670.2,1617z"/>
			<path class="st1" d="M1489.3,1678.2l-483.3,0.4c-11.6,0-20.9-9.3-20.9-20.9l0,0c0-11.6,9.4-20.9,20.9-20.9l483.3-0.4
				c11.6,0,20.9,9.3,20.9,20.9l0,0C1510.2,1668.8,1500.9,1678.2,1489.3,1678.2z"/>
			<path class="st1" d="M1712.5,1678l-166.3,0.1c-11.6,0-20.9-9.3-20.9-20.9l0,0c0-11.6,9.3-20.9,20.9-20.9l166.3-0.1
				c11.6,0,20.9,9.3,20.9,20.9l0,0C1733.4,1668.6,1724,1678,1712.5,1678z"/>
			<path class="st1" d="M1933.3,1677.8L1767,1678c-11.6,0-20.9-9.3-20.9-20.9l0,0c0-11.6,9.3-20.9,20.9-20.9l166.3-0.1
				c11.6,0,20.9,9.3,20.9,20.9l0,0C1954.2,1668.5,1944.9,1677.8,1933.3,1677.8z"/>
			<path class="st1" d="M1265.2,1739.4l-259.2,0.2c-11.6,0-20.9-9.3-20.9-20.9l0,0c0-11.6,9.3-20.9,20.9-20.9l259.2-0.2
				c11.6,0,20.9,9.3,20.9,20.9l0,0C1286.1,1730.1,1276.8,1739.4,1265.2,1739.4z"/>
			<path class="st1" d="M1425.6,1739.3l-102.1,0.1c-11.6,0-20.9-9.3-20.9-20.9l0,0c0-11.6,9.3-20.9,20.9-20.9l102.1-0.1
				c11.6,0,20.9,9.3,20.9,20.9l0,0C1446.5,1729.9,1437.1,1739.3,1425.6,1739.3z"/>
			<path class="st1" d="M1583.6,1739.2l-102.1,0.1c-11.6,0-20.9-9.3-20.9-20.9l0,0c0-11.6,9.3-20.9,20.9-20.9l102.1-0.1
				c11.6,0,20.9,9.3,20.9,20.9l0,0C1604.5,1729.8,1595.1,1739.2,1583.6,1739.2z"/>
			<path class="st6" d="M2073.1,887.3L2073.1,887.3c-6.3,0-11.5-5.1-11.5-11.4l0,0c0-6.3,5.1-11.5,11.4-11.5l0,0
				c6.3,0,11.5,5.1,11.5,11.4l0,0C2084.6,882.1,2079.4,887.3,2073.1,887.3z"/>
			<path class="st6" d="M2128.6,887.2L2128.6,887.2c-10.4,0-18.9-8.4-18.9-18.9l0,0c0-10.4,8.4-18.9,18.9-18.9l0,0
				c10.4,0,18.9,8.4,18.9,18.9l0,0C2147.4,878.7,2139,887.2,2128.6,887.2z"/>
			<path class="st7" d="M2192.6,887.2L2192.6,887.2c-12.6,0-22.9-10.2-22.9-22.9l0,0c0-12.6,10.2-22.9,22.9-22.9l0,0
				c12.6,0,22.9,10.2,22.9,22.9l0,0C2215.5,876.9,2205.3,887.1,2192.6,887.2z"/>
		</g>
		<g>
			<polygon class="st8" points="707.7,1884.5 687,1884.5 764.2,1483.6 781.4,1486.9 			"/>
			<polygon class="st8" points="1278.5,1882.7 1295.7,1879.4 1221.4,1483.6 1204.2,1486.9 			"/>
			<polygon class="st8" points="1086.7,1884.5 1066,1884.5 1143.2,1483.6 1160.4,1486.9 			"/>
			<polygon class="st8" points="896.3,1884.5 913.1,1884.7 839.2,1485.4 822,1488.7 			"/>
			<path class="st9" d="M971.4,943.8c-68.2,7.3-156.4,15-244.9,165.8c-96.8,164.8-45.8,410.9,30.5,479.3
				c76.4,68.4,325.8,152.9,535.5,26.4c0,0,126.6-76.6,61.6-203.8c-100-195.7-85.9-236.5-130.6-313.2
				C1179,1021.7,1116.1,928.2,971.4,943.8z"/>
			<path class="st10" d="M726.5,1109.6c60.4-102.9,120.7-139.2,174.6-154.1c-20.8,21.6-41.9,49.5-63.1,85.4
				c-96.8,164.8-45.8,410.9,30.5,479.3c67.7,60.7,271.6,133.9,463.1,61.6c-19.7,21.9-39,33.6-39,33.6
				c-209.7,126.4-459.2,42-535.5-26.4C680.7,1520.5,629.8,1274.4,726.5,1109.6z"/>
			<g>
				<polygon class="st11" points="1190.2,1194.2 1207.7,1247 1154.4,1225.9 				"/>
				<path class="st12" d="M1135.2,1037.3c3.6,0.1,13.3,3.4,27.6,30.4c18.2,34.4,44.8,138.4,44.8,138.4l-79.5,29.6l-10.2-21.7
					l-16.8-167.1C1101.1,1046.9,1134.2,1037.3,1135.2,1037.3z"/>
				<path class="st4" d="M1030.2,1022.3c22.7,0,78.9,6.7,105,15c0,0,19.2,164.7-17.3,289.9c-8.2,28,6.7,116.2,6.7,116.2l-235.4-3.1
					c0,0,27.9-213.1,17.4-247.5c-10.5-34.4-10.8-154.4-10.8-154.4s1.6-0.3,52.9-9.1C972.7,1025.2,1005.9,1022.3,1030.2,1022.3z"/>
				<path class="st13" d="M1002.7,1749.2c0,0,5.2,60.1,14.8,76.8c9.6,16.6-0.5,44.9-1,48.8c-0.5,3.9-20.2,9.4-51.4,6.1
					c-31.2-3.3-30.7-10.5-28.2-22.2c2.5-11.7,19.2-26.6,20.2-37.7c1-11.1-9.6-51.1-9.6-51.1L1002.7,1749.2z"/>
				<path class="st14" d="M1098.1,1393.8c0,0,162.5-9,198.8,13c36.3,22-6.6,67.1-6.6,67.1s-132.3,57.5-353.8,70.3
					c-52.5,3-57-136.8-47.2-148.3C899.2,1384.3,1098.1,1393.8,1098.1,1393.8z"/>
				<path class="st9" d="M961.2,1885.5c-32.2-3.4-28.2-19.2-25.6-31.2c1.6-7.5,10.9-16.4,16.4-24.7c2.9,2.3,7.6,6.3,21.5,10.5
					c14.5,4.3,34.4-4.2,47.1-9.5c4.5,16.8,4.7,38.3,4.3,41.5C1024.3,1876,993.4,1889,961.2,1885.5z"/>
				<path class="st1" d="M979,1510.1c6.5,49.1,38.6,293.7,38.6,293.7L943,1813c0,0-91.7-319.3-87-368.1c4.7-48.8,39-52.9,39-52.9
					S961.8,1380,979,1510.1z"/>
				<path class="st13" d="M893.3,1056.7c22-8.3,32.8,190.1,35.7,271.7c39,3.8,106.9,0,123.8-1.2c8-0.6,26.3-7.3,34.2-8.4
					c8.1-1.1,15.5-1.6,19.4-0.9c1.5,0.3,42.1,16.9,45.6,20.5c4.3,4.5,16,15.9,14,20.8c-2,4.9-22.4-13.7-22.4-13.7l-10-5.6
					c12.4,12.2,36.2,28.2,32.7,34c-3.3,5.7-24.7-10.6-40-21.6c13.1,11.8,29.3,33,25.6,36.3c-3.4,3-21.9-21.5-41.6-28.6
					c-7.3-2.6-14.6,4.6-20.4,5.5c-4.2,0.6-10.8,2-14.9,0.8l-21.4-6.1c-7.3,0.7-7.5,5-14.8,6.5c-8.5,1.8-22.6,3.7-33.4,6.4
					c-62.7,15.3-83.6,22.4-102.7,22.4C844.7,1395.6,841.3,1076.2,893.3,1056.7z"/>
				<path class="st12" d="M851.5,1242.9c-4.1-83.6-3.5-186.7,43.4-204.3c18.5-6.9,51.1,34.8,45.2,206
					C915.1,1246.7,878.4,1248.4,851.5,1242.9z"/>
				<polygon class="st11" points="1113.8,1207 1109,1207 1037.2,1383.5 1042.1,1382.8 				"/>
				<path class="st13" d="M1220.9,1800.6c0,0-6.5,20.9,5.1,34.7c11.7,13.8,60.1,27.3,66.4,34.8c6.4,7.5,5.9,13.8,5.9,13.8
					l-135.9-3.7l1.5-41l6.3-29.5L1220.9,1800.6z"/>
				<path class="st9" d="M1234.5,1842.1c0,0-34.9,14.1-51.8,5.8c-16.9-8.4-16.4-10.7-21.2-7.6c-4.9,3.1-6.6,41.6-6.6,41.6l152.8,4.5
					c10.6-0.2,16-8.1,7.4-14.8c-5.9-4.6-12.8-7.7-16.7-9.9C1286.4,1854.9,1234.5,1842.1,1234.5,1842.1z"/>
				<path class="st1" d="M1215.7,1432.3c10.5-22.1,34.4-50.9,76.4-33.6c40.1,16.5,50.9,57.2,38.2,98.8
					c-12.7,41.6-95.9,286.2-98.8,319.9l-66.5,0.4c0,0,12.1-193.7,15.1-240.5C1182.9,1532.3,1197.5,1470.6,1215.7,1432.3z"/>
				<path d="M1323.7,1207h-222.3c-5.9,0-11.2,3.6-13.4,9l-68.4,167.5H897c-3.4,0-6.2,2.8-6.2,6.2l0,0c0,3.4,2.8,6.2,6.2,6.2h348.8
					c9.6,0,18.3-5.6,22.2-14.4l68.9-154C1341.2,1217.9,1334.2,1207,1323.7,1207z"/>
				<path class="st5" d="M1204,1304.5c-1.5,7.5-8,12.6-14.6,11.2c-6.6-1.3-10.7-8.5-9.2-16c1.5-7.5,8-12.6,14.6-11.2
					C1201.4,1289.8,1205.5,1297,1204,1304.5z"/>
				<g>
					<path class="st8" d="M1083,821.1c-6.7-2.3-13.3-4.8-19.7-7.9c-7.2-3.5-16.5-7.5-22.4-8.4c-12.4-1.9-33.7-0.6-45.5,12.1
						c-14.7,15.9-40.7,2.9-35.5,86.2c5.9,94.3,58.4,83.9,59.6,82.3c1.3-1.6,46.8-60.3,46.8-60.3s15.9,34.8,15.9,33.5
						C1082.3,957.4,1163.5,848.2,1083,821.1z"/>
					<path class="st13" d="M1043.2,992.4l4.5,33.7c0,0,10.1,48.5-2.9,57.9c-13,9.4-55.5-59.3-55.5-59.3l4.5-85.4L1043.2,992.4z"/>
					<path class="st15" d="M992.4,967c10.8,29.1,36.4,47,54.7,54l-3.8-28.6l-49.4-53.1L992.4,967z"/>
					<path class="st13" d="M1040.5,846.4c27.6-4.5,52.4,17.8,51.7,45.4c-0.3,12-1.3,27-3.8,43.2c-6,38.9-32.5,73.1-50.1,70.1
						c-17.5-3.1-61.7-36.6-53.9-92C989.3,879,1011.5,851.1,1040.5,846.4z"/>
					<path class="st13" d="M996.6,919.8c-1.5,8.6-8.3,14.5-15.3,13.3c-7-1.2-11.4-9.1-9.9-17.7c1.5-8.6,8.3-14.5,15.3-13.3
						C993.7,903.3,998.1,911.3,996.6,919.8z"/>
					<path class="st8" d="M986.7,902.1c0,0,21.2,5.3,29.1-8.4c7.9-13.6,36-43.1,71.8-30.9c35.8,12.2-31.5-29.7-34.4-29.7
						s-37.2-0.2-37.2-0.2s-26.5,21.8-27.4,24.2c-1,2.4-8.6,28.5-8.6,28.5L986.7,902.1z"/>
				</g>
				<path class="st5" d="M1025.5,959l38.6,7.4c0,0-3.7,14.5-20.8,11.8C1022.5,974.9,1025.5,959,1025.5,959z"/>
			</g>
		</g>
		<g>
			<path class="st4" d="M1723.3,352.6h371.1c20.2,0,36.6,16.3,36.6,36.3v151.1c0,20.1-16.4,36.3-36.6,36.3h-283l-56.5,41.3
				l11.4-41.3h-42.9c-20.2,0-36.6-16.3-36.6-36.3V389C1686.8,368.9,1703.1,352.6,1723.3,352.6z"/>
		</g>
		<g>
			<path class="st16" d="M1572.8,537l-359.1-0.7c-18.5,0-33.4,20.3-33.4,38.7v128.1c0,18.4,15,33.2,33.4,33.2h62.2l-19.7,48l63.6-48
				h253c18.5,0,33.4-14.9,33.4-33.2V573.7C1606.3,555.3,1591.3,537,1572.8,537z"/>
		</g>
	</g>
</g>
<g>
	<path class="st5" d="M1750.3,492.5l-7.6-17.4h-6.1v17.4h-16.8v-55.4h29.6c13,0,19.9,8.6,19.9,19c0,9.5-5.6,14.6-10,16.8l10,19.6
		H1750.3z M1752.3,456c0-3-2.7-4.3-5.5-4.3h-10.2v8.7h10.2C1749.7,460.4,1752.3,459.1,1752.3,456z"/>
	<path class="st5" d="M1776.2,492.5v-55.4h42v14.6h-25.2v5.5h24.7v14.6h-24.7v6.1h25.2v14.6H1776.2z"/>
	<path class="st5" d="M1862.6,492.5l-2-6.5h-19.9l-2,6.5h-19l20.4-55.4h21.1l20.4,55.4H1862.6z M1850.6,453.5l-5.5,17.9h11
		L1850.6,453.5z"/>
	<path class="st5" d="M1881.6,464.8c0-17.1,13.1-28.6,30.5-28.6c14.5,0,21.8,8.5,25.2,16.1l-14.4,6.7c-1.4-4.3-5.7-8.1-10.7-8.1
		c-8.1,0-13.5,6.1-13.5,13.9s5.4,13.9,13.5,13.9c5,0,9.3-3.7,10.7-8.1l14.4,6.6c-3.2,7.4-10.6,16.2-25.2,16.2
		C1894.7,493.4,1881.6,481.8,1881.6,464.8z"/>
	<path class="st5" d="M1954.3,492.5v-40.8h-14.9v-14.6h46.4v14.6h-14.8v40.8H1954.3z"/>
	<path class="st5" d="M2008.6,489l6.8-12.8c1.8,1.2,4.3,2.5,7.1,2.5c3.7,0,6.1-2.3,6.1-6.2v-35.4h16.8v35.6
		c0,14.2-8.6,20.8-21.4,20.8C2018.6,493.4,2012.9,492.3,2008.6,489z"/>
	<path class="st5" d="M2050.2,484.6l8.7-12.5c4.2,4,10.4,7.1,17.9,7.1c3.2,0,6.1-0.8,6.1-3c0-5.3-30.9,0.1-30.9-21.8
		c0-9.4,7.8-18.4,23-18.4c9.1,0,17.2,2.6,23.5,7.7l-9,11.9c-4.8-3.7-11-5.5-16.3-5.5c-3.3,0-4.2,1.1-4.2,2.5
		c0,5.2,30.8,0.7,30.8,21.3c0,12.2-9.1,19.3-23.9,19.3C2064.1,493.4,2056.1,490,2050.2,484.6z"/>
</g>
<g>
	<path class="st4" d="M1266.1,660.3l-20.4-55.4h19l12,37.3l12-37.3h19l-20.4,55.4H1266.1z"/>
	<path class="st4" d="M1310.6,637.6V605h17V637c0,5.3,3.5,9.5,10.4,9.5c6.8,0,10.3-4.2,10.3-9.5V605h17v32.6
		c0,13.8-8.6,23.8-27.3,23.8S1310.6,651.3,1310.6,637.6z"/>
	<path class="st4" d="M1374.3,660.3V605h42v14.6h-25.2v5.5h24.7v14.6h-24.7v6.1h25.2v14.6H1374.3z"/>
	<path class="st4" d="M1440.5,656.9l6.8-12.8c1.8,1.2,4.3,2.5,7.1,2.5c3.7,0,6.1-2.3,6.1-6.2V605h16.8v35.6
		c0,14.2-8.6,20.8-21.4,20.8C1450.5,661.3,1444.8,660.2,1440.5,656.9z"/>
	<path class="st4" d="M1482.1,652.5l8.7-12.5c4.2,4,10.4,7.1,17.9,7.1c3.2,0,6.1-0.8,6.1-3c0-5.3-30.9,0.1-30.9-21.8
		c0-9.4,7.8-18.4,23-18.4c9.1,0,17.2,2.6,23.5,7.7l-9,11.9c-4.8-3.7-11-5.5-16.3-5.5c-3.3,0-4.2,1.1-4.2,2.5
		c0,5.2,30.8,0.7,30.8,21.3c0,12.2-9.1,19.3-23.9,19.3C1496,661.3,1488,657.9,1482.1,652.5z"/>
</g>
</svg>
