<?xml version="1.0" encoding="utf-8"?>
<!-- Generator: Adobe Illustrator 22.1.0, SVG Export Plug-In . SVG Version: 6.00 Build 0)  -->
<svg version="1.1" id="Layer_1" xmlns="http://www.w3.org/2000/svg" xmlns:xlink="http://www.w3.org/1999/xlink" x="0px" y="0px"
	 viewBox="0 0 3079.2 2000" style="enable-background:new 0 0 3079.2 2000;" xml:space="preserve">
<style type="text/css">
	.st0{fill:#E8E8E8;}
	.st1{opacity:0.5;fill:#E8E8E8;}
	.st2{fill:#B5BFC7;}
	.st3{fill:#4338CA;}
	.st4{fill:#131F2D;}
	.st5{fill:#FD7955;}
	.st6{fill:#364154;}
	.st7{fill:#2825AF;}
	.st8{fill:#ED6343;}
	.st9{fill:#FFFFFF;}
	.st10{fill:#9D462D;}
	.st11{fill:#A9C2FF;}
	.st12{fill:#214A80;}
	.st13{fill:#E8F2FA;}
</style>
<g>
	<path class="st0" d="M1302.8,583.6l40-4.5c3.3-0.3,6.6,1.2,8.4,4c2.3,3.6,4.8,7.1,7.4,10.6c4.9,6.4,10.2,12.3,15.8,17.7
		c2.6,2.5,3.5,6.3,2.2,9.7l-15.3,39.2c-1.7,4.2,0.2,9,4.3,11l34.5,17.1c3.9,1.9,8.6,0.6,11-3l20.8-32.7c2-3.2,5.9-4.7,9.6-3.7
		c15.8,4.2,32.3,5.8,48.8,4.9c4-0.2,7.7,2.4,8.9,6.1l7.1,22.5c1.4,4.3,5.7,6.9,10.2,6l37.4-7.6c0.8-0.1,1.5-0.4,2.2-0.7
		c3.2-1.5,5.2-5.1,4.8-8.8l-3.3-29.9l-0.8-7.3c6.2-3.5,12.3-7.5,18.2-12c7.8-6,15-12.7,21.3-19.7c2.4-2.7,6.2-3.7,9.6-2.3l31.5,12.4
		c4.3,1.7,9.2-0.2,11.2-4.3l13.1-26.3l3.7-7.6c2-4.1,0.7-9.2-3.2-11.6l-27.3-17.4c-3.2-2-4.8-5.8-3.8-9.3c2.5-10.8,4-21.8,4.2-32.8
		c0.1-1,0.1-1.8,0.1-2.8c0-0.3,0-0.6,0.1-0.9c0.3-3.5,2.8-6.5,6.2-7.5l36.5-11.5c0.4-0.1,0.8-0.3,1.2-0.5c3.5-1.7,5.6-5.7,4.8-9.7
		l-7.5-37.3c-0.9-4.5-5.1-7.6-9.7-7.1l-41.7,4.7c-3.5,0.4-6.9-1.4-8.6-4.5c-3.8-6.9-8.1-13.5-13.1-20c-2.6-3.4-5.4-6.7-8.2-9.8
		c-2.3-2.6-3-6.2-1.7-9.4l14.7-37.7c1.6-4.1-0.2-8.9-4.2-10.9l-34.1-16.8c-4.1-2-9.1-0.7-11.6,3.2l-16.5,25.8
		c-2.2,3.5-6.4,4.9-10.3,3.7c-15.2-5.3-31-8.1-47.1-8.5c-3.8,0-7.2-2.5-8.3-6.2l-10.4-32.9c-1.4-4.4-5.9-7-10.4-6.2l-37.2,7.4
		c-4.5,0.9-7.5,5.1-7,9.5l0.2,1.7l3.9,34.7c0.4,3.7-1.5,7.2-4.8,9l0,0c-8,4.1-15.7,9-23.1,14.7c-3.9,3-7.6,6.2-11.2,9.5
		c-2.5,2.3-6,3-9.2,1.8l-32-12.6c-4.4-1.7-9.4,0.2-11.4,4.4l-16.8,34c-0.5,1-0.7,2-0.9,3c-0.3,3.2,1.2,6.6,4,8.4l21.8,13.9
		c2.7,1.7,4.2,4.8,4.1,7.8c0,0.8-0.2,1.6-0.4,2.4c-6.6,19.5-9.3,40.1-7.9,60.6c0.3,3.5-1.6,6.7-4.7,8.3c-0.4,0.2-0.9,0.4-1.4,0.6
		l-29.5,9.3c-4.3,1.3-6.9,5.7-6,10.1l0.2,0.9l7.3,36.4C1294,581.1,1298.2,584.2,1302.8,583.6z M1558.8,470
		c2.3,5.7,4.1,11.9,5.4,18.5c2.4,12.6-0.1,32.4-5.8,43.9c-0.6,1.2-1.2,2.4-1.9,3.6c-39.1,72.7-141.7,58.2-158.6-23.8
		c-2.2-10.7-0.8-26.3,3-38.3c0.9-2.8,1.9-5.4,3.1-7.6c5.2-10.4,11.7-19.2,19.1-26.3C1465.2,399.7,1535.6,413,1558.8,470z"/>
	<path class="st0" d="M2573,443.5c-38.4-77.4-171.4-24.4-171.4-24.4s-65.3,161.8-91.9,170.6c-26.6,8.8,28.8-149.2,28.8-149.2
		c-53.8,5.4-175.6,96.9-175.6,96.9s41.7,165.3,13.8,167.3c-27.9,2-29.5-148.3-29.5-148.3c-48.1,25.5-83.9,94.6-83.9,94.6
		C2023,760.1,2165,806.2,2165,806.2s13.2,57.6-9.4,131.2l0,0c0,0-5.6,13.9-9.7,36.4l13.9-2.8c0.4-4,0.9-7.8,1.6-11.6c0,0,0,0,0-0.1
		c0-0.1,0-0.1,0-0.2c0.5-2.3,1.3-5.7,2.3-9.8c0,0,0,0,0,0c0,0,0,0,0,0c2.6-9.2,4.3-15.9,5.2-20.7c0,0,0,0,0,0
		c7.6-28.7,19.2-66.4,30-76c0,0-2-1.9-4.3-5.8c1.4,1.8,2.8,3.8,4.3,5.8c34,46.4,155,31.2,218.8,4.4c63.8-26.8,31.1-39.8-10.8-63.1
		c-41.8-23.3-115.2-0.4-139.8-7.9c-24.5-7.5,5.5-25.9,50.5-31.3c45-5.4,75.9,34.5,148.9,27.1c72.9-7.4,100.7-152.9,100.7-152.9
		c-46.4,25.2-140.4,15.5-147.2-0.9c-6.8-16.4,124.8-40.7,144.2-49.9C2583.8,568.9,2611.4,520.9,2573,443.5z"/>
	<path class="st0" d="M379.2,1038.4c-15.6-85,122.6-122.2,122.6-122.2s149.2,90.4,175.8,81.5c26.6-8.9-112.5-102.2-112.5-102.2
		c46.3-28,198.7-27.7,198.7-27.7s65.7,157.3,89.3,142.2c23.6-15.1-65.3-136.4-65.3-136.4c53.8-8.4,123.9,25.5,123.9,25.5
		c97.6,63.1,11.6,185.2,11.6,185.2s23.9,54,86.1,99.4l0,0c0,0,12.8,7.7,29.6,23.3l-12.8,6.1c-2.7-2.9-5.4-5.7-8.2-8.3c0,0,0,0-0.1,0
		c0,0-0.1-0.1-0.1-0.1c-1.8-1.6-4.4-3.8-7.7-6.5c0,0,0,0,0,0c0,0,0,0,0,0c-7.6-5.8-12.9-10.2-16.6-13.5c0,0,0,0,0,0
		c-23.3-18.4-55.2-41.7-69.6-42.9c0,0,0.5-2.7-0.1-7.2c0,2.3,0,4.7,0.1,7.2c0.6,57.5-105.4,117.9-172.5,134.6
		c-67.1,16.7-48.7-13.3-29.2-57c19.5-43.7,92-69.4,107.1-90.1c15.1-20.7-19.9-17.4-59.2,5.2c-39.2,22.6-40.1,73.1-102.9,110.9
		c-62.8,37.8-172.2-62-172.2-62c52.2-7.6,121.7-71.7,117.3-88.9c-4.4-17.2-124.3,42.2-145.4,46.5
		C445.7,1145.3,394.8,1123.4,379.2,1038.4z"/>
	<path class="st0" d="M2655,1583.9c68-53.3-10.8-172.8-10.8-172.8s-171.7-31.1-185.7-55.4c-14-24.2,152-2,152-2
		c-16.2-51.6-130.5-152.3-130.5-152.3s-153.4,74.4-161.1,47.4c-7.6-27,139.2-58.9,139.2-58.9c-34.7-41.9-109.7-63-109.7-63
		c-114.9-17.4-131.3,131-131.3,131s-53.7,24.6-130.4,17.4l0,0c0,0-14.7-2.7-37.6-2.1l5.5,13.1c4-0.4,7.9-0.7,11.7-0.7c0,0,0,0,0.1,0
		c0.1,0,0.1,0,0.2,0c2.4,0,5.8,0.1,10,0.2c0,0,0,0,0,0c0,0,0,0,0,0c9.5,0.7,16.4,0.9,21.3,0.9c0,0,0,0,0,0c29.6,1.6,69,5.3,80.5,14
		c0,0,1.4-2.3,4.8-5.3c-1.5,1.7-3.1,3.5-4.8,5.3c-38.5,42.7,0.9,158.1,40.1,215.1c39.2,57,45.3,22.3,59.6-23.4
		c14.3-45.7-23-112.9-20.6-138.5c2.4-25.5,26.5,0.1,40.9,43.1c14.4,43-18.4,81.4,3.6,151.3c22,69.9,170.1,67.6,170.1,67.6
		c-34-40.3-43.6-134.4-29-144.3c14.6-10,65.2,113.9,78.1,131.1C2534.4,1619.8,2587,1637.2,2655,1583.9z"/>
	<g>
		<path class="st1" d="M2037.6,583.5c0,0,8-159.2,82.4-259c9.9-13.3,31-6.7,31.8,9.8c0,0.3,0,0.6,0,0.8
			C2152.8,363.3,2070.4,488.4,2037.6,583.5z"/>
		<path class="st1" d="M2030.9,629.4c0,0,67-202.9,198.7-299.7c8-5.9,19.5-4.8,25.7,3.1c4,5.1,6.3,13.3,3,26.6
			C2249.9,394.8,2104.3,522.2,2030.9,629.4z"/>
	</g>
	<g>
		<path class="st1" d="M890.7,842.1c0,0-66.8-116.5-160.8-163.1c-12.5-6.2-25.9,6.8-20.1,19.5c0.1,0.2,0.2,0.4,0.3,0.6
			C720.1,720.8,829.8,783.2,890.7,842.1z"/>
		<path class="st1" d="M913.3,874c0,0-127.9-126.8-263.8-149.2c-8.3-1.4-16.5,3.9-18.2,12.1c-1.1,5.4,0.4,12.4,7.9,21.1
			C659.2,781.4,817.2,821.6,913.3,874z"/>
	</g>
	<path class="st2" d="M2365.9,590.2V1601c0,17.7-12.8,32-28.5,32H879c-15.7,0-28.5-14.3-28.5-32V590.2c0-17.7,12.8-32,28.5-32
		h1458.4C2353.1,558.2,2365.9,572.5,2365.9,590.2z"/>
	<g>
		<path class="st3" d="M2369.5,534.2v76.6H847.8v-76.6c0-15.8,12.8-28.6,28.6-28.6h1464.4C2356.7,505.5,2369.5,518.3,2369.5,534.2z"
			/>
		<g>
			<path class="st0" d="M894.4,558.2c0-7.4,6-13.3,13.3-13.3c7.4,0,13.3,6,13.3,13.3c0,7.4-6,13.3-13.3,13.3
				C900.4,571.5,894.4,565.5,894.4,558.2z"/>
			<path class="st0" d="M946.9,558.2c0-7.4,6-13.3,13.3-13.3c7.4,0,13.3,6,13.3,13.3c0,7.4-6,13.3-13.3,13.3
				C952.9,571.5,946.9,565.5,946.9,558.2z"/>
			<path class="st0" d="M1000.7,558.2c0-7.4,6-13.3,13.3-13.3c7.4,0,13.3,6,13.3,13.3c0,7.4-6,13.3-13.3,13.3
				C1006.7,571.5,1000.7,565.5,1000.7,558.2z"/>
		</g>
	</g>
	<path class="st0" d="M1720.6,413.6l19.5-2.2c1.6-0.2,3.2,0.6,4.1,2c1.1,1.8,2.3,3.5,3.6,5.1c2.4,3.1,5,6,7.7,8.6
		c1.3,1.2,1.7,3.1,1.1,4.7l-7.5,19.1c-0.8,2,0.1,4.4,2.1,5.3l16.8,8.3c1.9,0.9,4.2,0.3,5.3-1.5l10.2-15.9c1-1.6,2.8-2.3,4.7-1.8
		c7.7,2,15.7,2.8,23.8,2.4c1.9-0.1,3.7,1.1,4.3,3l3.4,10.9c0.7,2.1,2.8,3.4,5,2.9l18.2-3.7c0.4-0.1,0.7-0.2,1.1-0.3
		c1.6-0.8,2.6-2.5,2.3-4.3l-1.6-14.6l-0.4-3.5c3-1.7,6-3.7,8.8-5.8c3.8-2.9,7.3-6.2,10.4-9.6c1.2-1.3,3-1.8,4.7-1.1l15.4,6
		c2.1,0.8,4.5-0.1,5.5-2.1l6.4-12.8l1.8-3.7c1-2,0.3-4.5-1.6-5.7l-13.3-8.5c-1.6-1-2.3-2.8-1.9-4.5c1.2-5.2,1.9-10.6,2-16
		c0-0.5,0-0.9,0-1.4c0-0.2,0-0.3,0-0.5c0.2-1.7,1.4-3.1,3-3.7l17.8-5.6c0.2,0,0.4-0.1,0.6-0.2c1.7-0.8,2.7-2.8,2.3-4.7l-3.6-18.2
		c-0.4-2.2-2.5-3.7-4.7-3.4l-20.3,2.3c-1.7,0.2-3.4-0.7-4.2-2.2c-1.8-3.3-4-6.6-6.4-9.7c-1.3-1.7-2.6-3.3-4-4.8
		c-1.1-1.2-1.4-3-0.8-4.6l7.2-18.3c0.8-2-0.1-4.3-2-5.3l-16.6-8.2c-2-1-4.4-0.3-5.7,1.6l-8,12.6c-1.1,1.7-3.1,2.4-5,1.8
		c-7.4-2.6-15.1-3.9-22.9-4.1c-1.8,0-3.5-1.2-4-3l-5.1-16c-0.7-2.1-2.9-3.4-5.1-3l-18.1,3.6c-2.2,0.4-3.7,2.5-3.4,4.6l0.1,0.9
		l1.9,16.9c0.2,1.8-0.7,3.5-2.3,4.4l0,0c-3.9,2-7.6,4.4-11.2,7.1c-1.9,1.5-3.7,3-5.5,4.6c-1.2,1.1-2.9,1.5-4.5,0.9l-15.6-6.1
		c-2.1-0.8-4.6,0.1-5.6,2.1l-8.2,16.5c-0.2,0.5-0.4,1-0.4,1.5c-0.2,1.6,0.6,3.2,2,4.1l10.6,6.8c1.3,0.8,2,2.3,2,3.8
		c0,0.4-0.1,0.8-0.2,1.2c-3.2,9.5-4.5,19.5-3.8,29.5c0.1,1.7-0.8,3.3-2.3,4.1c-0.2,0.1-0.4,0.2-0.7,0.3l-14.4,4.5
		c-2.1,0.7-3.3,2.8-2.9,4.9l0.1,0.4l3.5,17.7C1716.3,412.3,1718.4,413.8,1720.6,413.6z M1845.3,358.2c1.1,2.8,2,5.8,2.6,9
		c1.2,6.1,0,15.8-2.8,21.4c-0.3,0.6-0.6,1.2-0.9,1.8c-19.1,35.4-69,28.3-77.3-11.6c-1.1-5.2-0.4-12.8,1.5-18.6
		c0.5-1.3,0.9-2.6,1.5-3.7c2.5-5.1,5.7-9.3,9.3-12.8C1799.7,324,1834,330.4,1845.3,358.2z"/>
	<g>
		<path class="st4" d="M586.8,1328.2c0,0,2.2-23.7-24.3-23.7c0,0,8,2.2,12.2,6.5c0,0-16.9-9.9-35.2,5.3
			c-18.3,15.2-6.9,53.3-12.5,60.6c-5.6,7.2-27.3,8.7-24.6,32.1c2.7,23.4,68.9,52.7,64.7,72.1c0,0,26-38.2,7.4-55.6
			c0,0,9.1,8.5,10,18.7c0,0,2.5-19.8-10.1-26.1c-11.1-5.6-20.3-26.1-19.3-29.8C555.9,1384.6,586.8,1328.2,586.8,1328.2z"/>
		<path class="st5" d="M560.8,1441.7c0,0,19.7,81.7,39.1,98c11.7,9.8,46.3,32.3,46.3,32.3l-14.4,5.2c0,0-48-16.2-58.8-28.9
			c-10.8-12.6-40.2-76-40.2-76L560.8,1441.7z"/>
		<path class="st6" d="M375.2,1585.3c0.2,0.3,0.4,0.6,0.5,1c4.3,7.5,14.2,25.9,25.2,46.1c5.2,9.6,10.6,19.5,15.7,28.9
			c8.8,16.2,16.9,30.5,21.6,38.1c4.8,7.7,8.3,13.2,9.7,15.3c0,0,0,0,0,0c0.4,0.7,0.5,1.5,0.5,2.2c-0.5,6.8-0.4,13.6,0.3,20.3
			c6.6,65.5,50.8,100.6,50.8,100.6l13.1,1.9c0,0-18.6-68.9-24.1-107.8c-0.9-6.6-1.3-11.9-1-15.4c1-10.1-0.8-25-4.2-42.1
			c-6.1-30.4-17.2-67.7-26.9-97.5c-0.6-1.9-19.1-68.7-19.1-68.7c-15.5,13.6-72.1,19.1-72.1,19.1S355.7,1550.5,375.2,1585.3z"/>
		<path class="st4" d="M540.1,1856.3h-54.8c0,0-1.3-8.4,1.5-14.7c2.7-6.1,6.7-6.3,0.5-15.8c3.5,3.6,14.7,5.1,22.6,4
			c1,1.6,6.3,12.1,9.5,14.5C523.1,1846.8,539,1845.9,540.1,1856.3z"/>
		<path class="st4" d="M375.2,1585.3c0.2,0.3,0.4,0.6,0.5,1c4.3,7.5,27.7,50.7,38.6,70.8c-12.7-52-3.9-104.1-3.9-104.1L375.2,1585.3
			z"/>
		<path class="st4" d="M579.3,1324.8c0.4-1.4-31.3,14.3-32.9,16.1c-14.9,16.5-10.6,38-2.1,38.2c5.5,0.1,4.4,9.2,4.4,9.2l60.7-25.7
			C609.4,1362.6,602.1,1320,579.3,1324.8z"/>
		<path class="st7" d="M558.9,1429.5c0,0,9.2,18.5,8.1,33.4c0,0-11.1,17.6-40,22C527,1485,551.8,1429.5,558.9,1429.5z"/>
		<path class="st6" d="M418,1531.3l0.2-10.3c-20.4,2.6-70.4-24.4-70.4-24.4s-21.4,14.2-24.3,54.8c-1.4,19.8-10.5,103.6-11.5,128.6
			c-0.4,9.1-0.5,15.5-0.5,18.1c0,0,0,0,0,0c0,0.8-0.4,1.5-0.9,2.1c-4.2,5.4-7.9,11.1-11.1,17c-31.2,58-14.9,136.8-14.9,136.8
			l7.2-1.8c0,0,26.4-81.7,43.6-117c2.9-6,5.6-10.7,7.8-13.4c6.5-7.9,13.3-21.2,20-37.3C376,1654.1,418,1531.3,418,1531.3z"/>
		<path class="st4" d="M328.2,1856.3h-54.8c0,0-1.3-8.4,1.5-14.7c2.7-6.1,7-8.8,6-16.2c3.5,3.6,9.2,7.6,17.1,6.5
			c1,1.6,6.3,10,9.5,12.3C311.1,1846.8,327.1,1845.9,328.2,1856.3z"/>
		<path class="st3" d="M523.3,1496.7c-7.4,1.3,1.2,7.1-8.9,8.2c-14.4,1.6-29.3,2.7-37.1,5.8c-2.8,1.1-4.7,2.5-5.3,4.3
			c-3.4,10.2-24.8,27.6-24.8,27.6c-95.5-4.3-101.6-46.9-101.6-46.9c62-60.2,114.7-93,158.2-97c10.6-1,24.9,0.3,31.6,3.3
			c15.2,6.8,23.6,27.4,23.6,27.4S551.3,1492,523.3,1496.7z"/>
		<path class="st7" d="M514.4,1504.9c-14.4,1.6-29.3,2.7-37.1,5.8c-3.2-47.6,19.3-83.4,19.3-83.4S511.2,1486.9,514.4,1504.9z"/>
		<path class="st5" d="M534.5,1406c2.7,8.5,11.8,32.9,24.4,23.5c-0.4-1.8,2.2-7.1,5.3-12.5c4-6.9,8.7-13.9,8.7-13.9l-20.5-18
			l-1.2-1.1c-5.4,9.4-10.6,13.9-15.3,17.3C534.6,1402.5,534,1404.3,534.5,1406z"/>
		<path class="st8" d="M573,1403.2c0,0-4.7,7-8.7,13.8c-12.8-7.9-12.8-23.7-11.8-31.8L573,1403.2z"/>
		<path class="st5" d="M573.6,1412.2c0,0-31-17.2-19.9-36.4c11-19.1,14.5-34.2,34.7-24c20.2,10.2,19.8,19.7,17.7,27
			C603.9,1386,581.9,1416.2,573.6,1412.2z"/>
		<path class="st4" d="M611.3,1367.6c-1.4-8.5-5.7-9.3-8.7-8.7c-11.4-18.9-30.1-11.5-30.1-11.5c-10,12.5-24.4,14.7-24.4,14.7
			s3.6,6.7,18.4,10.8c4.5,1.3,9.7,0.5,14.6-1.2c-10.3,5.7-21,7.9-21,7.9c19.5,1.8,38.1-16.1,40-18c0.9,2.8,2.5,8.6,1.5,12.8
			c-1.3,5.7-6.4,16.2-3.3,17.5C598.3,1391.9,613.4,1380.3,611.3,1367.6z"/>
		<g>
			
				<rect x="661" y="1666" transform="matrix(0.8989 0.4382 -0.4382 0.8989 824.6863 -174.0772)" class="st3" width="257.1" height="67.4"/>
			<g>
				<path class="st3" d="M586.9,1686.4c-21.2-10.3-36.3-29.5-41.3-52.6c-2.1-9.4,3.9-18.6,13.2-20.7c9.4-2.1,18.6,3.9,20.7,13.2
					c2.8,12.6,11,23.1,22.7,28.8c20.8,10.2,46.1,1.5,56.2-19.4c10.2-20.8,1.5-46.1-19.4-56.2c-9.5-4.6-20.2-5.5-30.3-2.5
					c-9.2,2.7-18.9-2.5-21.6-11.7c-2.7-9.2,2.5-18.9,11.7-21.6c18.4-5.4,38.1-3.8,55.4,4.6c38,18.5,53.9,64.6,35.4,102.6
					C671,1689.1,625,1704.9,586.9,1686.4z"/>
			</g>
			<g>
				<path class="st3" d="M913.8,1845.7c-38-18.5-53.9-64.6-35.4-102.6c18.5-38,64.6-53.9,102.6-35.4c17.3,8.4,30.7,22.9,37.7,40.8
					c3.5,8.9-0.8,19-9.8,22.5c-8.9,3.5-19-0.8-22.5-9.8c-3.9-9.8-11.2-17.7-20.7-22.3c-20.8-10.2-46.1-1.5-56.2,19.4
					c-10.2,20.8-1.5,46.1,19.4,56.2c11.6,5.7,25,5.7,36.6,0.1c8.6-4.1,19-0.5,23.2,8.1c4.1,8.6,0.5,19-8.1,23.2
					C959.4,1856.1,935,1856.1,913.8,1845.7z"/>
			</g>
			<path class="st7" d="M836.6,1732.6l-121.7-59.3c-3.5-1.7-5-6-3.3-9.4l3.1-6.3c1.7-3.5,6-5,9.4-3.3l121.7,59.3
				c3.5,1.7,5,6,3.3,9.4l-3.1,6.3C844.4,1732.9,840.1,1734.3,836.6,1732.6z"/>
		</g>
		<path class="st5" d="M555.8,1624.8c0,0,0.7,5.8,3.1,8.8c2.4,3,9.5,10.2,9.7,14.4c0,0-0.4,1.9-1.9,1.5c-1.5-0.3-6.8-5.6-9.5-5.2
			c0,0,1.4,8.5,2.9,10.8c1.4,2.4,4.1,11.4,3.2,13.4c-0.9,2.1-15.2-9.9-19.6-15.8c-4.3-5.8-0.1-29.6-0.1-29.6L555.8,1624.8z"/>
		<path class="st5" d="M526.8,1419.2c0,0-36.3-2-42.7,20.8c-6.4,22.8,12.1,113.6,16.1,123c7.3,17.1,42.7,65.8,42.7,65.8l13-4
			c0,0-23.6-74.4-28.9-81.8C518.7,1531.5,537.6,1429.1,526.8,1419.2z"/>
		<path class="st7" d="M476.9,1470.4c0.1,0.5,34.3,6.3,55.7-4.6c0,0,17.9-56-7.7-53.3c-25.5,2.7-40.7,10.7-41.3,23
			C483,1447.7,476.9,1470.4,476.9,1470.4z"/>
		<path class="st5" d="M628.4,1535.7c-1.7,0.1-4.9,0.6-6,1.5c-2,1.5-4.2,4.2,0.2,6.4c6.6,3.3,19.9,1.8,19.4-0.2
			C640.4,1537.1,638,1535.2,628.4,1535.7z"/>
	</g>
	<g>
		<path class="st5" d="M1050.9,644.2c-1.7,2-2,4.2-1.1,6.6c0,0,0,0,0,0c1.6,4.4,6.9,9.4,13,14.3c0.8,0.6,1.5,1.2,2.1,1.7
			c0.2,0.1,0.3,0.3,0.5,0.4c0.1,0.1,0.2,0.2,0.4,0.3c5.7,5.3,3.6,6.5,13.9,17.2c11.7,12.2,19.8,12.4,22.1,11.3
			c1.9-0.9-2-7.4-6.4-14.7c-0.2-0.4-0.4-0.7-0.6-1.1c-0.6-1-1.2-1.9-1.7-2.9c-5.1-8.8-3.8-12.9-2.6-25.9c1-10.6,16.5-59.1,16.5-59.1
			l-22.5-3.9c0,0-6.8,38.7-14.2,44.6c-4,3.2-8.5,3.2-12.3,5.6c-0.3,0.2-0.5,0.3-0.8,0.5C1054.9,640.7,1052.6,642.2,1050.9,644.2z"/>
		<path class="st4" d="M1050.9,644.2c-1.7,2-2,4.2-1.1,6.6c0,0,0,0,0,0c2,4.4,7.1,9.3,13,14.2c0.8,0.6,1.5,1.2,2.1,1.8
			c0.2,0.1,0.3,0.3,0.5,0.4c0.1,0.1,0.2,0.2,0.4,0.3c5.7,5.3,3.6,6.5,13.9,17.2c11.7,12.2,19.8,12.4,22.1,11.3
			c1.9-0.9-2-7.4-6.4-14.7c-2.3-0.8-12.9-5.1-20.9-15.4c-7.1-9-11.8-20.6-16.6-27.3c-0.3,0.2-0.5,0.3-0.8,0.5
			C1054.9,640.7,1052.6,642.2,1050.9,644.2z"/>
		<path class="st5" d="M1232.1,630.1c1.4,6.9,11.3,5.8,22.3,3.1c11-2.7,8.4,0.5,24.1-1.2c15.7-1.7,20.5-7.6,21-9.9
			c0.4-2.1-7.3-2.8-15.7-3.8c-1-0.1-2.1-0.2-3.2-0.4c-9.4-1.2-16.3-7.3-24.8-12.2c-8.1-4.7-20.2-24-20.2-24l-21.6,1.7
			c0,0,11.3,17.2,15.7,24.7c2.6,4.4,2.4,10.2,2.1,14.7C1231.8,625.2,1231.6,627.7,1232.1,630.1z"/>
		<path class="st4" d="M1254.4,633.2c11-2.7,8.4,0.5,24.1-1.2c15.7-1.7,20.5-7.6,21-9.9c0.4-2.1-7.3-2.8-15.7-3.8l-0.1,0.2
			c0,0-9.4,6.7-22.5,7c-10.7,0.3-22-2.8-29.3-2.7c-0.2,2.4-0.3,4.9,0.2,7.4C1233.5,637.1,1243.4,635.9,1254.4,633.2z"/>
		<path class="st4" d="M1149.5,492.2l-20.2,54.2l-26.3,70.8c0,0-7.1,0.7-14-1.3c-6.3-1.8-13.5-6.6-13.5-6.6s7.3-76.1,20.9-119.7
			c3.5-11.2,7.4-20.3,11.7-25.4C1129.3,439.4,1149.5,492.2,1149.5,492.2z"/>
		<path class="st6" d="M1129,406.1c-13.2-4.3-50.9,1.2-88.7,8.6l-7.9-13.1l-81.7-6.4c0,0-27,59.8-12.2,97.9
			c2.2,5.6,6.5,9.2,13.8,9.3c0,0,1.2,0,1.2,0c0,0,48.6,0,64.4,0c40.6,0,86-27.9,91.9-29.1c9.6-1.9,13.5,17.3,23.1,37.5
			c9.6,20.2,90.3,89.3,90.3,89.3s12.4,0.1,17.5-1.8c5.5-2.1,7.5-4.8,7.5-4.8S1158.8,415.7,1129,406.1z"/>
		<path class="st4" d="M1005.3,152.8c-11.5-2.9-27.1,0-29.7,0.2c-31.1,3.1-41.5,37.8-36.8,64.7c4.3,24.8-8.3,31.7-22.9,51.3
			c-29.3,39.3-10.1,72.5,13,81.1c13.9,5.1,33.1-7.8,33.1-7.8c0.3,0.1,60.5-39.4,85.1-61.7C1088.1,264.6,1034.5,160.3,1005.3,152.8z"
			/>
		<path class="st5" d="M1009.9,266.6c0.8,2.9-12.8,8.2-23.2,6.2c-9.8-1.8-20.7-13.3-18.5-14.3c3.7-1.8,6.3-6.2,4.2-30.1l1.9,0.2
			l31.3,3.6c0,0,0.1,9.7,0.8,18.9C1007,258.7,1008.5,261.9,1009.9,266.6z"/>
		<path class="st8" d="M1005.6,232.2c0,0,0.1,9.7,0.8,18.9c-17.2,0.9-27.6-14-32.1-22.4L1005.6,232.2z"/>
		<path class="st5" d="M1012,240.4c0,0-40.7,4-42.8-21.4c-2.1-25.4-8.8-41.9,17.1-45.6c25.9-3.6,31.7,5.6,34.5,13.9
			C1023.6,195.7,1022.5,238.7,1012,240.4z"/>
		<path class="st4" d="M1007.7,169.4c0,0-5.1,31-28.3,38.3c-16.9,5.4-24.5,1.8-24.5,1.8s8.1-10.8,11-25.8c0.9-4.4,4-8.1,8.3-9.5
			C986.1,170.4,1000.7,159.6,1007.7,169.4z"/>
		<path class="st4" d="M1000,176.1c0,0,7.7,1.7,14.5,11.6c3.7,5.4,8,19,7.3,25.1c0,0,7.1-28.7-3.3-39.3
			C1007.5,162.1,1000,176.1,1000,176.1z"/>
		<path class="st3" d="M936.6,349.9c0.7,3.1,1.3,5.9,1.9,8.5c0.8,4.2,1.4,7.9,1.8,11.1c1.2,10,0.9,15.9,1.7,22.4
			c0.5,3.6,1.3,7.4,3,12.2c1.7,4.6,45.9,8.8,71,7.1c8-0.5,14.1-1.6,16.2-3.5c9-7.8,8.1,9.3,9.3-72.6c0.6-40-33.9-75.6-33.9-75.6
			s-2.8,17.1-37-3.2c-1.2-0.7-14.7,19.3-27.7,43.8C928.7,327.3,932.6,333,936.6,349.9z"/>
		<path class="st6" d="M1129.3,546.5l-26.3,70.8c0,0-7.1,0.7-14-1.3c-6.3-1.8-13.5-6.6-13.5-6.6s7.3-76.1,20.9-119.7L1129.3,546.5z"
			/>
		<path class="st3" d="M1007.7,259.5c0,0,35.2,6,39.4,21.1c4.1,15.2,32.7,100,32.7,100s-22.1,7.6-30.4-0.7
			c-8.3-8.3-28.8-76.8-28.8-76.8L1007.7,259.5z"/>
		<path class="st9" d="M1002.6,225.4c0,0,1.7,4.2,6.2,4.2c4.5,0,5.7-0.7,6.6-1.6c0.9-1,1.7-2.8,1.7-2.8S1009.6,223.7,1002.6,225.4z"
			/>
		<path class="st7" d="M940.3,369.5c1.2,10,0.9,15.9,1.7,22.4c32,0.1,74.8-24.7,74.8-24.7L940.3,369.5z"/>
		<path class="st7" d="M1016.7,346.2c0,0-49.8-1.5-58.2-29.8c-9.2-31.1-19.6,12.8-19.6,12.8l5.5,28h54.7L1016.7,346.2z"/>
		<g>
			<path class="st2" d="M1103.6,269.4l-2.7-6.7c-2.9-7.2-9.8-11.8-17.5-11.8h-49.7v31.5V417h205.5V282.4h-116.3
				C1114.4,282.4,1106.8,277.3,1103.6,269.4z"/>
			<g>
				<path class="st9" d="M1064.7,351.9v-12l42-18.4v12.2l-29.3,12.1l29.3,12.1v12.4L1064.7,351.9z"/>
				<path class="st9" d="M1150.3,307.2h11.2l-38.4,80.3h-11.2L1150.3,307.2z"/>
				<path class="st9" d="M1208.2,339.9v12l-42,18.4v-12.2l29.3-12.1l-29.3-12.1v-12.4L1208.2,339.9z"/>
			</g>
		</g>
		<path class="st5" d="M1016.7,352.8l3.6-5.7c0,0,2.9-0.9,6.9-3.7c4.8-3.3,4.1-8.3,6.5-7.8l0,11l-0.3,0c10.2,2.7,22.2-0.2,22.4,2.3
			c0.7,7-4.8,10.1-9.3,12.3c-3.5,1.7-7.4,4.2-13.7,2.2c-4.6-1.4-11.8-2.9-11.8-2.9L1016.7,352.8z"/>
		<path class="st3" d="M970.7,256.3c0,0-32.3,2.1-40.4,14.7c-8.1,12.6-18.1,76.7-13.9,98.7c4.2,22,107.8-4.2,107.8-4.2l-3.3-19.1
			c0,0-59.8,0.3-63.2-7.4C953.1,328.6,970.7,256.3,970.7,256.3z"/>
		<path class="st5" d="M1126.8,282.3c-0.3,0.8,4.9,9.3,12.2,7.8c4.6-0.9,10.5-10.8,5.3-13C1135.6,273.6,1127.5,280.1,1126.8,282.3z"
			/>
	</g>
	<g>
		<g>
			
				<rect x="1375" y="613.8" transform="matrix(0.4709 -0.8822 0.8822 0.4709 252.9898 1650.6383)" class="st4" width="255.1" height="1.2"/>
		</g>
		<g>
			
				<rect x="1934.3" y="475.4" transform="matrix(0.7334 -0.6798 0.6798 0.7334 125.1497 1468.5641)" class="st4" width="1.2" height="198.7"/>
		</g>
		<g>
			<path class="st0" d="M2086.4,690.1c2,14.6-2,28.7-10.1,39.6c-8.1,10.9-20.2,18.7-34.5,20.6l-603.8,83
				c-30.8,4.2-59.3-16.2-63.3-45.4c-2-14.6,2.5-28.7,11.3-39.7c8.8-11,22-18.9,37.4-21l603.8-83
				C2055.8,640.2,2082.4,660.9,2086.4,690.1z"/>
			<path class="st3" d="M2086.4,690.1c2,14.6-2,28.7-10.1,39.6c-8.1,10.9-20.2,18.7-34.5,20.6l-109.3,15L1918,659.2l109.3-15
				C2055.8,640.2,2082.4,660.9,2086.4,690.1z"/>
			<g>
				<g>
					<path class="st9" d="M2019.9,718.9c-1.3,0.2-2.7,0.3-4.1,0.3c-7.3-0.1-14.1-3-19.2-8.2c-10.5-10.8-10.3-28.1,0.4-38.6l0,0
						c10.8-10.5,28.1-10.3,38.6,0.4c10.5,10.8,10.3,28.1-0.4,38.6C2031,715.5,2025.7,718.1,2019.9,718.9z M2000.2,675.5
						c-9,8.8-9.2,23.3-0.4,32.2c4.3,4.4,10,6.8,16,6.9c6.1,0.1,11.8-2.2,16.2-6.5c9-8.8,9.2-23.3,0.4-32.2
						C2023.7,666.9,2009.2,666.8,2000.2,675.5L2000.2,675.5z"/>
				</g>
				
					<rect x="1982.7" y="703.7" transform="matrix(0.6989 0.7152 -0.7152 0.6989 1114.3187 -1202.1392)" class="st9" width="4.5" height="37.3"/>
				<path class="st9" d="M1962.3,744.4L1962.3,744.4c-1.5-1.6-1.5-4.1,0.1-5.7l15.7-15.3c1.6-1.5,4.1-1.5,5.7,0.1l0,0
					c1.5,1.6,1.5,4.1-0.1,5.7l-15.7,15.3C1966.4,746.1,1963.9,746,1962.3,744.4z"/>
			</g>
		</g>
	</g>
	<g>
		<path class="st3" d="M1074.3,1266.7H944.6c-1.6,0-3-1.3-3-3v-5.6c0-1.6,1.3-3,3-3h129.7c1.6,0,3,1.3,3,3v5.6
			C1077.2,1265.4,1075.9,1266.7,1074.3,1266.7z"/>
		<g>
			<path class="st4" d="M1007.8,1306.3h-62.2c-2.2,0-3.9-1.8-3.9-3.9l0,0c0-2.2,1.8-3.9,3.9-3.9h62.2c2.2,0,3.9,1.8,3.9,3.9l0,0
				C1011.7,1304.5,1009.9,1306.3,1007.8,1306.3z"/>
			<g>
				<path class="st4" d="M1056.8,1289.8H943.9c-1.3,0-2.3-1-2.3-2.3v-3.3c0-1.3,1-2.3,2.3-2.3h112.9c1.3,0,2.3,1,2.3,2.3v3.3
					C1059.1,1288.8,1058.1,1289.8,1056.8,1289.8z"/>
				<path class="st4" d="M1177.3,1289.8H1072c-1.2,0-2.2-1-2.2-2.2v-3.4c0-1.2,1-2.2,2.2-2.2h105.3c1.2,0,2.2,1,2.2,2.2v3.4
					C1179.5,1288.8,1178.5,1289.8,1177.3,1289.8z"/>
				<path class="st4" d="M1085.4,1306.3h-62.2c-2.2,0-3.9-1.8-3.9-3.9l0,0c0-2.2,1.8-3.9,3.9-3.9h62.2c2.2,0,3.9,1.8,3.9,3.9l0,0
					C1089.3,1304.5,1087.6,1306.3,1085.4,1306.3z"/>
			</g>
		</g>
		<path class="st3" d="M1227.9,1266.7h-129.7c-1.6,0-3-1.3-3-3v-5.6c0-1.6,1.3-3,3-3h129.7c1.6,0,3,1.3,3,3v5.6
			C1230.8,1265.4,1229.5,1266.7,1227.9,1266.7z"/>
	</g>
	<g>
		<path class="st3" d="M1074.3,1353.4H944.6c-1.6,0-3-1.3-3-3v-5.6c0-1.6,1.3-3,3-3h129.7c1.6,0,3,1.3,3,3v5.6
			C1077.2,1352.1,1075.9,1353.4,1074.3,1353.4z"/>
		<g>
			<path class="st4" d="M1007.8,1393h-62.2c-2.2,0-3.9-1.8-3.9-3.9l0,0c0-2.2,1.8-3.9,3.9-3.9h62.2c2.2,0,3.9,1.8,3.9,3.9l0,0
				C1011.7,1391.2,1009.9,1393,1007.8,1393z"/>
			<g>
				<path class="st4" d="M1056.8,1376.5H943.9c-1.3,0-2.3-1-2.3-2.3v-3.3c0-1.3,1-2.3,2.3-2.3h112.9c1.3,0,2.3,1,2.3,2.3v3.3
					C1059.1,1375.5,1058.1,1376.5,1056.8,1376.5z"/>
				<path class="st4" d="M1177.3,1376.5H1072c-1.2,0-2.2-1-2.2-2.2v-3.4c0-1.2,1-2.2,2.2-2.2h105.3c1.2,0,2.2,1,2.2,2.2v3.4
					C1179.5,1375.5,1178.5,1376.5,1177.3,1376.5z"/>
				<path class="st4" d="M1085.4,1393h-62.2c-2.2,0-3.9-1.8-3.9-3.9l0,0c0-2.2,1.8-3.9,3.9-3.9h62.2c2.2,0,3.9,1.8,3.9,3.9l0,0
					C1089.3,1391.2,1087.6,1393,1085.4,1393z"/>
			</g>
		</g>
		<path class="st3" d="M1227.9,1353.4h-129.7c-1.6,0-3-1.3-3-3v-5.6c0-1.6,1.3-3,3-3h129.7c1.6,0,3,1.3,3,3v5.6
			C1230.8,1352.1,1229.5,1353.4,1227.9,1353.4z"/>
	</g>
	<g>
		<polygon class="st6" points="1728.2,826.7 1656.1,843.5 1620.5,908.3 1593.3,760.6 		"/>
		
			<rect x="1663.4" y="825.5" transform="matrix(0.797 -0.604 0.604 0.797 -182.5951 1183.8737)" class="st6" width="13.2" height="76.2"/>
	</g>
	<g>
		<path class="st0" d="M1685.9,1132.1H1499c-4.5,0-8.1-3.6-8.1-8.1V937.1c0-4.5,3.6-8.1,8.1-8.1h186.9c4.5,0,8.1,3.6,8.1,8.1V1124
			C1694,1128.5,1690.4,1132.1,1685.9,1132.1z"/>
		<g>
			<path class="st3" d="M1516.8,1089.6l39.5-71.2c4.6-8.3,16.2-9,21.8-1.4l22.8,31.1c4.8,6.6,14.5,7.1,20,1.1l0,0
				c5.7-6.3,15.9-5.4,20.5,1.7l24.6,37.9c5.6,8.6-0.6,20-10.9,20h-126.9C1518.3,1108.9,1512,1098.2,1516.8,1089.6z"/>
			<path class="st3" d="M1594.7,985.2c0-8.6,7-15.5,15.5-15.5c8.6,0,15.5,7,15.5,15.5c0,8.6-7,15.5-15.5,15.5
				C1601.7,1000.7,1594.7,993.8,1594.7,985.2z"/>
		</g>
	</g>
	<g>
		<path class="st0" d="M1940.8,1137.5l-175.5,23.9c-7.1,1-13.6-4-14.6-11.1l-23.9-175.5c-1-7.1,4-13.6,11.1-14.6l175.5-23.9
			c7.1-1,13.6,4,14.6,11.1l23.9,175.5C1952.9,1130,1947.9,1136.6,1940.8,1137.5z"/>
		<g>
			<path class="st3" d="M1772.4,1117.6l29.5-75.8c3.4-8.8,14.9-11.1,21.4-4.3l26.8,27.7c5.7,5.9,15.3,5.1,20-1.6l0,0
				c4.8-7,15-7.5,20.5-1.1l29.5,34.3c6.7,7.8,2.1,19.9-8.1,21.3l-125.7,17.2C1776.5,1136.6,1768.8,1126.9,1772.4,1117.6z"/>
			<path class="st3" d="M1835.5,1003.7c-1.2-8.5,4.8-16.3,13.3-17.5c8.5-1.2,16.3,4.8,17.5,13.3c1.2,8.5-4.8,16.3-13.3,17.5
				C1844.5,1018.1,1836.6,1012.2,1835.5,1003.7z"/>
		</g>
	</g>
	<g>
		<rect x="1322.4" y="1765" class="st3" width="102.4" height="87.8"/>
		<rect x="1318.2" y="1761.3" class="st6" width="110" height="6.8"/>
		<rect x="1322.4" y="1788.8" class="st9" width="102.4" height="27.9"/>
	</g>
	<path class="st3" d="M1549.3,1852.9h-96.7c-3.5,0-6.4-2.9-6.4-6.4v-10.7c0-3.8,3.3-6.8,7.1-6.4l96.7,10.7c3.2,0.4,5.7,3.1,5.7,6.4
		l0,0C1555.7,1850,1552.8,1852.9,1549.3,1852.9z"/>
	<path class="st10" d="M2901.2,1861.5l-2691-0.9c-1.8,0-3.3-1.5-3.3-3.3l0-1.7c0-1.8,1.5-3.3,3.3-3.3l2691,0.9
		c1.8,0,3.3,1.5,3.3,3.3v1.7C2904.5,1860.1,2903,1861.5,2901.2,1861.5z"/>
	<g>
		<path class="st4" d="M1380.4,1140.1h-11.1c-1,0-1.8-0.8-1.8-1.8c0-1,0.8-1.8,1.8-1.8h11.1c1,0,1.9,0.8,1.9,1.8
			C1382.2,1139.2,1381.4,1140.1,1380.4,1140.1z M1358.2,1140.1h-11.1c-1,0-1.8-0.8-1.8-1.8c0-1,0.8-1.8,1.8-1.8h11.1
			c1,0,1.8,0.8,1.8,1.8C1360.1,1139.2,1359.2,1140.1,1358.2,1140.1z M1336.1,1140.1H1325c-1,0-1.8-0.8-1.8-1.8c0-1,0.8-1.8,1.8-1.8
			h11.1c1,0,1.8,0.8,1.8,1.8C1337.9,1139.2,1337.1,1140.1,1336.1,1140.1z M1314,1140.1h-11.1c-1,0-1.8-0.8-1.8-1.8
			c0-1,0.8-1.8,1.8-1.8h11.1c1,0,1.8,0.8,1.8,1.8C1315.8,1139.2,1315,1140.1,1314,1140.1z M1291.9,1140.1h-11.1
			c-1,0-1.8-0.8-1.8-1.8c0-1,0.8-1.8,1.8-1.8h11.1c1,0,1.8,0.8,1.8,1.8C1293.7,1139.2,1292.9,1140.1,1291.9,1140.1z M1269.7,1140.1
			h-11.1c-1,0-1.8-0.8-1.8-1.8c0-1,0.8-1.8,1.8-1.8h11.1c1,0,1.8,0.8,1.8,1.8C1271.6,1139.2,1270.7,1140.1,1269.7,1140.1z
			 M1247.6,1140.1h-11.1c-1,0-1.8-0.8-1.8-1.8c0-1,0.8-1.8,1.8-1.8h11.1c1,0,1.8,0.8,1.8,1.8
			C1249.4,1139.2,1248.6,1140.1,1247.6,1140.1z M1225.5,1140.1h-11.1c-1,0-1.8-0.8-1.8-1.8c0-1,0.8-1.8,1.8-1.8h11.1
			c1,0,1.8,0.8,1.8,1.8C1227.3,1139.2,1226.5,1140.1,1225.5,1140.1z M1203.4,1140.1h-11.1c-1,0-1.8-0.8-1.8-1.8c0-1,0.8-1.8,1.8-1.8
			h11.1c1,0,1.8,0.8,1.8,1.8C1205.2,1139.2,1204.4,1140.1,1203.4,1140.1z M1181.2,1140.1h-11.1c-1,0-1.8-0.8-1.8-1.8
			c0-1,0.8-1.8,1.8-1.8h11.1c1,0,1.8,0.8,1.8,1.8C1183.1,1139.2,1182.2,1140.1,1181.2,1140.1z M1159.1,1140.1H1148
			c-1,0-1.8-0.8-1.8-1.8c0-1,0.8-1.8,1.8-1.8h11.1c1,0,1.8,0.8,1.8,1.8C1160.9,1139.2,1160.1,1140.1,1159.1,1140.1z M1137,1140.1
			h-11.1c-1,0-1.8-0.8-1.8-1.8c0-1,0.8-1.8,1.8-1.8h11.1c1,0,1.8,0.8,1.8,1.8C1138.8,1139.2,1138,1140.1,1137,1140.1z
			 M1114.8,1140.1h-11.1c-1,0-1.8-0.8-1.8-1.8c0-1,0.8-1.8,1.8-1.8h11.1c1,0,1.8,0.8,1.8,1.8
			C1116.7,1139.2,1115.9,1140.1,1114.8,1140.1z M1092.7,1140.1h-11.1c-1,0-1.8-0.8-1.8-1.8c0-1,0.8-1.8,1.8-1.8h11.1
			c1,0,1.8,0.8,1.8,1.8C1094.6,1139.2,1093.7,1140.1,1092.7,1140.1z M1070.6,1140.1h-11.1c-1,0-1.8-0.8-1.8-1.8c0-1,0.8-1.8,1.8-1.8
			h11.1c1,0,1.8,0.8,1.8,1.8C1072.4,1139.2,1071.6,1140.1,1070.6,1140.1z M1048.5,1140.1h-11.1c-1,0-1.8-0.8-1.8-1.8
			c0-1,0.8-1.8,1.8-1.8h11.1c1,0,1.8,0.8,1.8,1.8C1050.3,1139.2,1049.5,1140.1,1048.5,1140.1z M1026.3,1140.1h-11.1
			c-1,0-1.8-0.8-1.8-1.8c0-1,0.8-1.8,1.8-1.8h11.1c1,0,1.8,0.8,1.8,1.8C1028.2,1139.2,1027.4,1140.1,1026.3,1140.1z M1004.2,1140.1
			h-9.9c-0.4,0-0.9,0-1.3,0c-1-0.1-1.8-0.9-1.7-1.9c0.1-1,0.9-1.8,1.9-1.7c0.4,0,0.7,0,1.1,0h9.9c1,0,1.8,0.8,1.8,1.8
			C1006,1139.2,1005.2,1140.1,1004.2,1140.1z M1390.9,1136.8c-0.6,0-1.2-0.3-1.5-0.8c-0.6-0.8-0.4-2,0.5-2.5
			c2.8-1.9,4.9-4.5,6.2-7.7c0.4-0.9,1.4-1.4,2.4-1c0.9,0.4,1.4,1.4,1,2.4c-1.5,3.8-4.1,7-7.5,9.3
			C1391.6,1136.7,1391.2,1136.8,1390.9,1136.8z M983,1136.2c-0.4,0-0.8-0.1-1.1-0.4c-3.2-2.5-5.7-5.9-6.9-9.7c-0.3-1,0.2-2,1.2-2.3
			c1-0.3,2,0.2,2.3,1.2c1.1,3.2,3,5.9,5.7,8c0.8,0.6,0.9,1.8,0.3,2.6C984,1135.9,983.5,1136.2,983,1136.2z M1399,1117.5
			c-1,0-1.8-0.8-1.8-1.8v-11.1c0-1,0.8-1.8,1.8-1.8s1.8,0.8,1.8,1.8v11.1C1400.9,1116.6,1400.1,1117.5,1399,1117.5z M975.7,1116.3
			c-1,0-1.8-0.8-1.8-1.8v-11.1c0-1,0.8-1.8,1.8-1.8c1,0,1.8,0.8,1.8,1.8v11.1C977.5,1115.5,976.7,1116.3,975.7,1116.3z M1399,1095.3
			c-1,0-1.8-0.8-1.8-1.8v-11.1c0-1,0.8-1.8,1.8-1.8s1.8,0.8,1.8,1.8v11.1C1400.9,1094.5,1400.1,1095.3,1399,1095.3z M975.7,1094.2
			c-1,0-1.8-0.8-1.8-1.8v-11.1c0-1,0.8-1.8,1.8-1.8c1,0,1.8,0.8,1.8,1.8v11.1C977.5,1093.4,976.7,1094.2,975.7,1094.2z M1399,1073.2
			c-1,0-1.8-0.8-1.8-1.8v-11.1c0-1,0.8-1.8,1.8-1.8s1.8,0.8,1.8,1.8v11.1C1400.9,1072.4,1400.1,1073.2,1399,1073.2z M975.7,1072.1
			c-1,0-1.8-0.8-1.8-1.8v-11.1c0-1,0.8-1.8,1.8-1.8c1,0,1.8,0.8,1.8,1.8v11.1C977.5,1071.3,976.7,1072.1,975.7,1072.1z M1399,1051.1
			c-1,0-1.8-0.8-1.8-1.8v-11.1c0-1,0.8-1.8,1.8-1.8s1.8,0.8,1.8,1.8v11.1C1400.9,1050.3,1400.1,1051.1,1399,1051.1z M975.7,1050
			c-1,0-1.8-0.8-1.8-1.8v-11.1c0-1,0.8-1.8,1.8-1.8c1,0,1.8,0.8,1.8,1.8v11.1C977.5,1049.1,976.7,1050,975.7,1050z M1399,1029
			c-1,0-1.8-0.8-1.8-1.8v-11.1c0-1,0.8-1.8,1.8-1.8s1.8,0.8,1.8,1.8v11.1C1400.9,1028.1,1400.1,1029,1399,1029z M975.7,1027.8
			c-1,0-1.8-0.8-1.8-1.8v-11.1c0-1,0.8-1.8,1.8-1.8c1,0,1.8,0.8,1.8,1.8v11.1C977.5,1027,976.7,1027.8,975.7,1027.8z M1399,1006.8
			c-1,0-1.8-0.8-1.8-1.8v-11.1c0-1,0.8-1.8,1.8-1.8s1.8,0.8,1.8,1.8v11.1C1400.9,1006,1400.1,1006.8,1399,1006.8z M975.7,1005.7
			c-1,0-1.8-0.8-1.8-1.8v-11.1c0-1,0.8-1.8,1.8-1.8c1,0,1.8,0.8,1.8,1.8v11.1C977.5,1004.9,976.7,1005.7,975.7,1005.7z M1399,984.7
			c-1,0-1.8-0.8-1.8-1.8v-11.1c0-1,0.8-1.8,1.8-1.8s1.8,0.8,1.8,1.8v11.1C1400.9,983.9,1400.1,984.7,1399,984.7z M975.7,983.6
			c-1,0-1.8-0.8-1.8-1.8v-11.1c0-1,0.8-1.8,1.8-1.8c1,0,1.8,0.8,1.8,1.8v11.1C977.5,982.8,976.7,983.6,975.7,983.6z M1399,962.6
			c-1,0-1.8-0.8-1.8-1.8v-11.1c0-1,0.8-1.8,1.8-1.8s1.8,0.8,1.8,1.8v11.1C1400.9,961.8,1400.1,962.6,1399,962.6z M975.7,961.5
			c-1,0-1.8-0.8-1.8-1.8v-11.1c0-1,0.8-1.8,1.8-1.8c1,0,1.8,0.8,1.8,1.8v11.1C977.5,960.6,976.7,961.5,975.7,961.5z M1399,940.5
			c-1,0-1.8-0.8-1.8-1.8v-11.1c0-1,0.8-1.8,1.8-1.8s1.8,0.8,1.8,1.8v11.1C1400.9,939.6,1400.1,940.5,1399,940.5z M975.7,939.3
			c-1,0-1.8-0.8-1.8-1.8v-11.1c0-1,0.8-1.8,1.8-1.8c1,0,1.8,0.8,1.8,1.8v11.1C977.5,938.5,976.7,939.3,975.7,939.3z M1399,918.3
			c-1,0-1.8-0.8-1.8-1.8v-5c0-1.8-0.3-3.7-0.9-5.4c-0.3-1,0.2-2,1.2-2.3c1-0.3,2,0.2,2.3,1.2c0.7,2.1,1.1,4.3,1.1,6.5v5
			C1400.9,917.5,1400.1,918.3,1399,918.3z M975.7,917.2c-1,0-1.8-0.8-1.8-1.8v-3.9c0-2.7,0.5-5.3,1.5-7.7c0.4-0.9,1.4-1.4,2.4-1
			c0.9,0.4,1.4,1.4,1,2.4c-0.8,2-1.2,4.1-1.2,6.3v3.9C977.5,916.4,976.7,917.2,975.7,917.2z M1391.7,898.5c-0.4,0-0.8-0.1-1.1-0.4
			c-2.7-2-5.8-3.2-9.2-3.4c-1-0.1-1.8-0.9-1.7-1.9c0.1-1,0.9-1.8,1.9-1.7c4.1,0.3,8,1.7,11.2,4.2c0.8,0.6,1,1.8,0.3,2.6
			C1392.8,898.3,1392.3,898.5,1391.7,898.5z M983.9,897.9c-0.6,0-1.2-0.3-1.5-0.8c-0.6-0.8-0.3-2,0.5-2.5c3.4-2.3,7.3-3.5,11.4-3.5
			c0,0,0,0,0,0c1,0,1.8,0.8,1.8,1.8c0,1-0.8,1.8-1.8,1.8c-3.4,0-6.6,1-9.4,2.9C984.6,897.8,984.3,897.9,983.9,897.9z M1370.5,894.7
			h-11.1c-1,0-1.8-0.8-1.8-1.8s0.8-1.8,1.8-1.8h11.1c1,0,1.8,0.8,1.8,1.8S1371.5,894.7,1370.5,894.7z M1348.3,894.7h-11.1
			c-1,0-1.8-0.8-1.8-1.8s0.8-1.8,1.8-1.8h11.1c1,0,1.8,0.8,1.8,1.8S1349.3,894.7,1348.3,894.7z M1326.2,894.7h-11.1
			c-1,0-1.8-0.8-1.8-1.8s0.8-1.8,1.8-1.8h11.1c1,0,1.8,0.8,1.8,1.8S1327.2,894.7,1326.2,894.7z M1304.1,894.7H1293
			c-1,0-1.8-0.8-1.8-1.8s0.8-1.8,1.8-1.8h11.1c1,0,1.8,0.8,1.8,1.8S1305.1,894.7,1304.1,894.7z M1282,894.7h-11.1
			c-1,0-1.8-0.8-1.8-1.8s0.8-1.8,1.8-1.8h11.1c1,0,1.8,0.8,1.8,1.8S1283,894.7,1282,894.7z M1259.8,894.7h-11.1
			c-1,0-1.8-0.8-1.8-1.8s0.8-1.8,1.8-1.8h11.1c1,0,1.8,0.8,1.8,1.8S1260.8,894.7,1259.8,894.7z M1237.7,894.7h-11.1
			c-1,0-1.8-0.8-1.8-1.8s0.8-1.8,1.8-1.8h11.1c1,0,1.8,0.8,1.8,1.8S1238.7,894.7,1237.7,894.7z M1215.6,894.7h-11.1
			c-1,0-1.8-0.8-1.8-1.8s0.8-1.8,1.8-1.8h11.1c1,0,1.8,0.8,1.8,1.8S1216.6,894.7,1215.6,894.7z M1193.5,894.7h-11.1
			c-1,0-1.8-0.8-1.8-1.8s0.8-1.8,1.8-1.8h11.1c1,0,1.8,0.8,1.8,1.8S1194.5,894.7,1193.5,894.7z M1171.3,894.7h-11.1
			c-1,0-1.8-0.8-1.8-1.8s0.8-1.8,1.8-1.8h11.1c1,0,1.8,0.8,1.8,1.8S1172.3,894.7,1171.3,894.7z M1149.2,894.7h-11.1
			c-1,0-1.8-0.8-1.8-1.8s0.8-1.8,1.8-1.8h11.1c1,0,1.8,0.8,1.8,1.8S1150.2,894.7,1149.2,894.7z M1127.1,894.7H1116
			c-1,0-1.8-0.8-1.8-1.8s0.8-1.8,1.8-1.8h11.1c1,0,1.8,0.8,1.8,1.8S1128.1,894.7,1127.1,894.7z M1104.9,894.7h-11.1
			c-1,0-1.8-0.8-1.8-1.8s0.8-1.8,1.8-1.8h11.1c1,0,1.8,0.8,1.8,1.8S1106,894.7,1104.9,894.7z M1082.8,894.7h-11.1
			c-1,0-1.8-0.8-1.8-1.8s0.8-1.8,1.8-1.8h11.1c1,0,1.8,0.8,1.8,1.8S1083.8,894.7,1082.8,894.7z M1060.7,894.7h-11.1
			c-1,0-1.8-0.8-1.8-1.8s0.8-1.8,1.8-1.8h11.1c1,0,1.8,0.8,1.8,1.8S1061.7,894.7,1060.7,894.7z M1038.6,894.7h-11.1
			c-1,0-1.8-0.8-1.8-1.8s0.8-1.8,1.8-1.8h11.1c1,0,1.8,0.8,1.8,1.8S1039.6,894.7,1038.6,894.7z M1016.4,894.7h-11.1
			c-1,0-1.8-0.8-1.8-1.8s0.8-1.8,1.8-1.8h11.1c1,0,1.8,0.8,1.8,1.8S1017.5,894.7,1016.4,894.7z"/>
	</g>
	<g>
		<path class="st4" d="M2009.3,1447.1h-9.9c-0.9,0-1.6-0.7-1.6-1.6c0-0.9,0.7-1.6,1.6-1.6h9.8c0.9,0,1.7,0.7,1.7,1.6
			C2010.9,1446.4,2010.2,1447.1,2009.3,1447.1z M1989.7,1447.1h-9.8c-0.9,0-1.6-0.7-1.6-1.6c0-0.9,0.7-1.6,1.6-1.6h9.8
			c0.9,0,1.6,0.7,1.6,1.6C1991.3,1446.4,1990.6,1447.1,1989.7,1447.1z M1970.1,1447.1h-9.8c-0.9,0-1.6-0.7-1.6-1.6
			c0-0.9,0.7-1.6,1.6-1.6h9.8c0.9,0,1.6,0.7,1.6,1.6C1971.7,1446.4,1970.9,1447.1,1970.1,1447.1z M1950.5,1447.1h-9.8
			c-0.9,0-1.6-0.7-1.6-1.6c0-0.9,0.7-1.6,1.6-1.6h9.8c0.9,0,1.6,0.7,1.6,1.6C1952.1,1446.4,1951.3,1447.1,1950.5,1447.1z
			 M1930.9,1447.1h-9.8c-0.9,0-1.6-0.7-1.6-1.6c0-0.9,0.7-1.6,1.6-1.6h9.8c0.9,0,1.6,0.7,1.6,1.6
			C1932.5,1446.4,1931.7,1447.1,1930.9,1447.1z M1911.2,1447.1h-9.8c-0.9,0-1.6-0.7-1.6-1.6c0-0.9,0.7-1.6,1.6-1.6h9.8
			c0.9,0,1.6,0.7,1.6,1.6C1912.9,1446.4,1912.1,1447.1,1911.2,1447.1z M1891.6,1447.1h-9.8c-0.9,0-1.6-0.7-1.6-1.6
			c0-0.9,0.7-1.6,1.6-1.6h9.8c0.9,0,1.6,0.7,1.6,1.6C1893.3,1446.4,1892.5,1447.1,1891.6,1447.1z M1872,1447.1h-9.8
			c-0.9,0-1.6-0.7-1.6-1.6c0-0.9,0.7-1.6,1.6-1.6h9.8c0.9,0,1.6,0.7,1.6,1.6C1873.7,1446.4,1872.9,1447.1,1872,1447.1z
			 M1852.4,1447.1h-9.8c-0.9,0-1.6-0.7-1.6-1.6c0-0.9,0.7-1.6,1.6-1.6h9.8c0.9,0,1.6,0.7,1.6,1.6
			C1854.1,1446.4,1853.3,1447.1,1852.4,1447.1z M1832.8,1447.1h-9.5c-0.1,0-0.3,0-0.4,0c-0.9,0-1.6-0.8-1.5-1.7
			c0-0.9,0.8-1.6,1.7-1.5c0.1,0,0.2,0,0.3,0h9.5c0.9,0,1.6,0.7,1.6,1.6C1834.5,1446.4,1833.7,1447.1,1832.8,1447.1z M2015.7,1440.9
			C2015.6,1440.9,2015.6,1440.9,2015.7,1440.9c-0.9,0-1.7-0.8-1.6-1.7l0-0.2v-9.6c0-0.9,0.7-1.6,1.6-1.6s1.6,0.7,1.6,1.6l0,9.9
			C2017.3,1440.2,2016.5,1440.9,2015.7,1440.9z M1817,1440.6c-0.9,0-1.6-0.7-1.6-1.6v-9.8c0-0.9,0.7-1.6,1.6-1.6
			c0.9,0,1.6,0.7,1.6,1.6v9.8C1818.6,1439.9,1817.9,1440.6,1817,1440.6z M2015.7,1421.3c-0.9,0-1.6-0.7-1.6-1.6v-9.8
			c0-0.9,0.7-1.6,1.6-1.6s1.6,0.7,1.6,1.6v9.8C2017.3,1420.6,2016.6,1421.3,2015.7,1421.3z M1817,1421c-0.9,0-1.6-0.7-1.6-1.6v-9.8
			c0-0.9,0.7-1.6,1.6-1.6c0.9,0,1.6,0.7,1.6,1.6v9.8C1818.6,1420.3,1817.9,1421,1817,1421z M2015.7,1401.7c-0.9,0-1.6-0.7-1.6-1.6
			v-9.8c0-0.9,0.7-1.6,1.6-1.6s1.6,0.7,1.6,1.6v9.8C2017.3,1401,2016.6,1401.7,2015.7,1401.7z M1817,1401.4c-0.9,0-1.6-0.7-1.6-1.6
			v-9.6c0-0.1,0-0.2,0-0.3c0-0.9,0.8-1.6,1.7-1.6c0.9,0,1.6,0.8,1.6,1.7l0,0.2v9.6C1818.6,1400.7,1817.9,1401.4,1817,1401.4z
			 M2009.6,1385.5C2009.5,1385.5,2009.5,1385.5,2009.6,1385.5l-0.3,0h-9.5c-0.9,0-1.6-0.7-1.6-1.6s0.7-1.6,1.6-1.6h9.5
			c0.1,0,0.2,0,0.4,0c0.9,0,1.6,0.8,1.5,1.7C2011.1,1384.8,2010.4,1385.5,2009.6,1385.5z M1990,1385.4h-9.8c-0.9,0-1.6-0.7-1.6-1.6
			s0.7-1.6,1.6-1.6h9.8c0.9,0,1.6,0.7,1.6,1.6S1990.8,1385.4,1990,1385.4z M1970.4,1385.4h-9.8c-0.9,0-1.6-0.7-1.6-1.6
			s0.7-1.6,1.6-1.6h9.8c0.9,0,1.6,0.7,1.6,1.6S1971.2,1385.4,1970.4,1385.4z M1950.8,1385.4h-9.8c-0.9,0-1.6-0.7-1.6-1.6
			s0.7-1.6,1.6-1.6h9.8c0.9,0,1.6,0.7,1.6,1.6S1951.6,1385.4,1950.8,1385.4z M1931.1,1385.4h-9.8c-0.9,0-1.6-0.7-1.6-1.6
			s0.7-1.6,1.6-1.6h9.8c0.9,0,1.6,0.7,1.6,1.6S1932,1385.4,1931.1,1385.4z M1911.5,1385.4h-9.8c-0.9,0-1.6-0.7-1.6-1.6
			s0.7-1.6,1.6-1.6h9.8c0.9,0,1.6,0.7,1.6,1.6S1912.4,1385.4,1911.5,1385.4z M1891.9,1385.4h-9.8c-0.9,0-1.6-0.7-1.6-1.6
			s0.7-1.6,1.6-1.6h9.8c0.9,0,1.6,0.7,1.6,1.6S1892.8,1385.4,1891.9,1385.4z M1872.3,1385.4h-9.8c-0.9,0-1.6-0.7-1.6-1.6
			s0.7-1.6,1.6-1.6h9.8c0.9,0,1.6,0.7,1.6,1.6S1873.2,1385.4,1872.3,1385.4z M1852.7,1385.4h-9.8c-0.9,0-1.6-0.7-1.6-1.6
			s0.7-1.6,1.6-1.6h9.8c0.9,0,1.6,0.7,1.6,1.6S1853.6,1385.4,1852.7,1385.4z M1833.1,1385.4h-9.8c-0.9,0-1.6-0.7-1.6-1.6
			s0.7-1.6,1.6-1.6h9.8c0.9,0,1.6,0.7,1.6,1.6S1834,1385.4,1833.1,1385.4z"/>
	</g>
	<g>
		<path class="st4" d="M1309.3,862.2h-10.9c-1,0-1.8-0.8-1.8-1.8c0-1,0.8-1.8,1.8-1.8h10.8c1,0,1.9,0.8,1.9,1.8
			C1311.1,861.4,1310.3,862.2,1309.3,862.2z M1287.5,862.2h-10.8c-1,0-1.8-0.8-1.8-1.8c0-1,0.8-1.8,1.8-1.8h10.8
			c1,0,1.8,0.8,1.8,1.8C1289.4,861.4,1288.6,862.2,1287.5,862.2z M1265.9,862.2H1255c-1,0-1.8-0.8-1.8-1.8c0-1,0.8-1.8,1.8-1.8h10.8
			c1,0,1.8,0.8,1.8,1.8C1267.7,861.4,1266.9,862.2,1265.9,862.2z M1244.2,862.2h-10.8c-1,0-1.8-0.8-1.8-1.8c0-1,0.8-1.8,1.8-1.8
			h10.8c1,0,1.8,0.8,1.8,1.8C1246,861.4,1245.2,862.2,1244.2,862.2z M1222.5,862.2h-10.8c-1,0-1.8-0.8-1.8-1.8c0-1,0.8-1.8,1.8-1.8
			h10.8c1,0,1.8,0.8,1.8,1.8C1224.3,861.4,1223.5,862.2,1222.5,862.2z M1200.8,862.2h-10.8c-1,0-1.8-0.8-1.8-1.8
			c0-1,0.8-1.8,1.8-1.8h10.8c1,0,1.8,0.8,1.8,1.8C1202.6,861.4,1201.8,862.2,1200.8,862.2z M1179.1,862.2h-10.8
			c-1,0-1.8-0.8-1.8-1.8c0-1,0.8-1.8,1.8-1.8h10.8c1,0,1.8,0.8,1.8,1.8C1180.9,861.4,1180.1,862.2,1179.1,862.2z M1157.6,861.1
			c-0.3,0-0.6-0.1-0.9-0.2c-3.4-1.9-5.5-5.5-5.5-9.4v-1.3c0-1,0.8-1.8,1.8-1.8c1,0,1.8,0.8,1.8,1.8v1.3c0,2.6,1.4,5,3.6,6.2
			c0.9,0.5,1.2,1.6,0.7,2.5C1158.9,860.7,1158.2,861.1,1157.6,861.1z M1317.7,856.4c-0.2,0-0.4,0-0.6-0.1c-0.9-0.4-1.4-1.4-1.1-2.4
			c0.3-0.8,0.5-1.7,0.5-2.5v-7.6c0-1,0.8-1.8,1.8-1.8c1,0,1.8,0.8,1.8,1.8v7.6c0,1.3-0.2,2.6-0.7,3.8
			C1319.1,855.9,1318.4,856.4,1317.7,856.4z M1153,841c-1,0-1.8-0.8-1.8-1.8v-10.8c0-1,0.8-1.8,1.8-1.8c1,0,1.8,0.8,1.8,1.8v10.8
			C1154.9,840.2,1154.1,841,1153,841z M1318.2,834.8c-1,0-1.8-0.8-1.8-1.8v-10.8c0-1,0.8-1.8,1.8-1.8c1,0,1.8,0.8,1.8,1.8v10.8
			C1320.1,833.9,1319.3,834.8,1318.2,834.8z M1153,819.3c-1,0-1.8-0.8-1.8-1.8v-10.8c0-1,0.8-1.8,1.8-1.8c1,0,1.8,0.8,1.8,1.8v10.8
			C1154.9,818.5,1154.1,819.3,1153,819.3z M1318.2,813.1c-1,0-1.8-0.8-1.8-1.8v-10.8c0-1,0.8-1.8,1.8-1.8c1,0,1.8,0.8,1.8,1.8v10.8
			C1320.1,812.3,1319.3,813.1,1318.2,813.1z M1153,797.7c-1,0-1.8-0.8-1.8-1.8V785c0-1,0.8-1.8,1.8-1.8c1,0,1.8,0.8,1.8,1.8v10.8
			C1154.9,796.8,1154.1,797.7,1153,797.7z M1318.2,791.4c-1,0-1.8-0.8-1.8-1.8v-10.8c0-1,0.8-1.8,1.8-1.8c1,0,1.8,0.8,1.8,1.8v10.8
			C1320.1,790.6,1319.3,791.4,1318.2,791.4z M1153,776c-1,0-1.8-0.8-1.8-1.8v-10.8c0-1,0.8-1.8,1.8-1.8c1,0,1.8,0.8,1.8,1.8v10.8
			C1154.9,775.1,1154.1,776,1153,776z M1318.2,769.7c-1,0-1.8-0.8-1.8-1.8V757c0-1,0.8-1.8,1.8-1.8c1,0,1.8,0.8,1.8,1.8v10.8
			C1320.1,768.9,1319.3,769.7,1318.2,769.7z M1153,754.3c-1,0-1.8-0.8-1.8-1.8v-10.8c0-1,0.8-1.8,1.8-1.8c1,0,1.8,0.8,1.8,1.8v10.8
			C1154.9,753.5,1154.1,754.3,1153,754.3z M1318.2,748c-1,0-1.8-0.8-1.8-1.8v-10.8c0-1,0.8-1.8,1.8-1.8c1,0,1.8,0.8,1.8,1.8v10.8
			C1320.1,747.2,1319.3,748,1318.2,748z M1153,732.6c-1,0-1.8-0.8-1.8-1.8v-7.6c0-1.3,0.2-2.6,0.7-3.9c0.4-0.9,1.4-1.4,2.4-1.1
			c0.9,0.4,1.4,1.4,1.1,2.4c-0.3,0.8-0.5,1.7-0.5,2.6v7.6C1154.9,731.8,1154.1,732.6,1153,732.6z M1318.2,726.3
			c-1,0-1.8-0.8-1.8-1.8v-1.3c0-2.6-1.4-5-3.7-6.3c-0.9-0.5-1.2-1.6-0.7-2.5c0.5-0.9,1.6-1.2,2.5-0.7c3.4,1.9,5.5,5.5,5.5,9.5v1.3
			C1320.1,725.5,1319.3,726.3,1318.2,726.3z M1303,716h-10.8c-1,0-1.8-0.8-1.8-1.8c0-1,0.8-1.8,1.8-1.8h10.8c1,0,1.8,0.8,1.8,1.8
			C1304.8,715.2,1304,716,1303,716z M1281.3,716h-10.8c-1,0-1.8-0.8-1.8-1.8c0-1,0.8-1.8,1.8-1.8h10.8c1,0,1.8,0.8,1.8,1.8
			C1283.1,715.2,1282.3,716,1281.3,716z M1259.6,716h-10.8c-1,0-1.8-0.8-1.8-1.8c0-1,0.8-1.8,1.8-1.8h10.8c1,0,1.8,0.8,1.8,1.8
			C1261.4,715.2,1260.6,716,1259.6,716z M1237.9,716h-10.8c-1,0-1.8-0.8-1.8-1.8c0-1,0.8-1.8,1.8-1.8h10.8c1,0,1.8,0.8,1.8,1.8
			C1239.8,715.2,1238.9,716,1237.9,716z M1216.2,716h-10.8c-1,0-1.8-0.8-1.8-1.8c0-1,0.8-1.8,1.8-1.8h10.8c1,0,1.8,0.8,1.8,1.8
			C1218.1,715.2,1217.2,716,1216.2,716z M1194.5,716h-10.8c-1,0-1.8-0.8-1.8-1.8c0-1,0.8-1.8,1.8-1.8h10.8c1,0,1.8,0.8,1.8,1.8
			C1196.4,715.2,1195.6,716,1194.5,716z M1172.9,716H1162c-1,0-1.8-0.8-1.8-1.8c0-1,0.8-1.8,1.8-1.8h10.8c1,0,1.8,0.8,1.8,1.8
			C1174.7,715.2,1173.9,716,1172.9,716z"/>
	</g>
	<g>
		<path class="st4" d="M2009.3,1537.5h-9.9c-0.9,0-1.6-0.7-1.6-1.6c0-0.9,0.7-1.6,1.6-1.6h9.8c0.9,0,1.7,0.7,1.7,1.6
			C2010.9,1536.8,2010.2,1537.5,2009.3,1537.5z M1989.7,1537.5h-9.8c-0.9,0-1.6-0.7-1.6-1.6c0-0.9,0.7-1.6,1.6-1.6h9.8
			c0.9,0,1.6,0.7,1.6,1.6C1991.3,1536.8,1990.6,1537.5,1989.7,1537.5z M1970.1,1537.5h-9.8c-0.9,0-1.6-0.7-1.6-1.6
			c0-0.9,0.7-1.6,1.6-1.6h9.8c0.9,0,1.6,0.7,1.6,1.6C1971.7,1536.8,1970.9,1537.5,1970.1,1537.5z M1950.5,1537.5h-9.8
			c-0.9,0-1.6-0.7-1.6-1.6c0-0.9,0.7-1.6,1.6-1.6h9.8c0.9,0,1.6,0.7,1.6,1.6C1952.1,1536.8,1951.3,1537.5,1950.5,1537.5z
			 M1930.9,1537.5h-9.8c-0.9,0-1.6-0.7-1.6-1.6c0-0.9,0.7-1.6,1.6-1.6h9.8c0.9,0,1.6,0.7,1.6,1.6
			C1932.5,1536.8,1931.7,1537.5,1930.9,1537.5z M1911.2,1537.5h-9.8c-0.9,0-1.6-0.7-1.6-1.6c0-0.9,0.7-1.6,1.6-1.6h9.8
			c0.9,0,1.6,0.7,1.6,1.6C1912.9,1536.8,1912.1,1537.5,1911.2,1537.5z M1891.6,1537.5h-9.8c-0.9,0-1.6-0.7-1.6-1.6
			c0-0.9,0.7-1.6,1.6-1.6h9.8c0.9,0,1.6,0.7,1.6,1.6C1893.3,1536.8,1892.5,1537.5,1891.6,1537.5z M1872,1537.5h-9.8
			c-0.9,0-1.6-0.7-1.6-1.6c0-0.9,0.7-1.6,1.6-1.6h9.8c0.9,0,1.6,0.7,1.6,1.6C1873.7,1536.8,1872.9,1537.5,1872,1537.5z
			 M1852.4,1537.5h-9.8c-0.9,0-1.6-0.7-1.6-1.6c0-0.9,0.7-1.6,1.6-1.6h9.8c0.9,0,1.6,0.7,1.6,1.6
			C1854.1,1536.8,1853.3,1537.5,1852.4,1537.5z M1832.8,1537.5h-9.5c-0.1,0-0.3,0-0.4,0c-0.9,0-1.6-0.8-1.5-1.7
			c0-0.9,0.8-1.6,1.7-1.5c0.1,0,0.2,0,0.3,0h9.5c0.9,0,1.6,0.7,1.6,1.6C1834.5,1536.8,1833.7,1537.5,1832.8,1537.5z M2015.7,1531.3
			C2015.6,1531.3,2015.6,1531.3,2015.7,1531.3c-0.9,0-1.7-0.8-1.6-1.7l0-0.2v-9.6c0-0.9,0.7-1.6,1.6-1.6s1.6,0.7,1.6,1.6l0,9.9
			C2017.3,1530.6,2016.5,1531.3,2015.7,1531.3z M1817,1531.1c-0.9,0-1.6-0.7-1.6-1.6v-9.8c0-0.9,0.7-1.6,1.6-1.6
			c0.9,0,1.6,0.7,1.6,1.6v9.8C1818.6,1530.3,1817.9,1531.1,1817,1531.1z M2015.7,1511.7c-0.9,0-1.6-0.7-1.6-1.6v-9.8
			c0-0.9,0.7-1.6,1.6-1.6s1.6,0.7,1.6,1.6v9.8C2017.3,1511,2016.6,1511.7,2015.7,1511.7z M1817,1511.5c-0.9,0-1.6-0.7-1.6-1.6v-9.8
			c0-0.9,0.7-1.6,1.6-1.6c0.9,0,1.6,0.7,1.6,1.6v9.8C1818.6,1510.7,1817.9,1511.5,1817,1511.5z M2015.7,1492.1
			c-0.9,0-1.6-0.7-1.6-1.6v-9.8c0-0.9,0.7-1.6,1.6-1.6s1.6,0.7,1.6,1.6v9.8C2017.3,1491.4,2016.6,1492.1,2015.7,1492.1z
			 M1817,1491.9c-0.9,0-1.6-0.7-1.6-1.6v-9.6c0-0.1,0-0.2,0-0.3c0-0.9,0.8-1.6,1.7-1.6c0.9,0,1.6,0.8,1.6,1.7l0,0.2v9.6
			C1818.6,1491.1,1817.9,1491.9,1817,1491.9z M2009.6,1475.9C2009.5,1475.9,2009.5,1475.9,2009.6,1475.9l-0.3,0h-9.5
			c-0.9,0-1.6-0.7-1.6-1.6c0-0.9,0.7-1.6,1.6-1.6h9.5c0.1,0,0.2,0,0.4,0c0.9,0,1.6,0.8,1.5,1.7
			C2011.1,1475.2,2010.4,1475.9,2009.6,1475.9z M1990,1475.9h-9.8c-0.9,0-1.6-0.7-1.6-1.6c0-0.9,0.7-1.6,1.6-1.6h9.8
			c0.9,0,1.6,0.7,1.6,1.6C1991.6,1475.2,1990.8,1475.9,1990,1475.9z M1970.4,1475.9h-9.8c-0.9,0-1.6-0.7-1.6-1.6
			c0-0.9,0.7-1.6,1.6-1.6h9.8c0.9,0,1.6,0.7,1.6,1.6C1972,1475.2,1971.2,1475.9,1970.4,1475.9z M1950.8,1475.9h-9.8
			c-0.9,0-1.6-0.7-1.6-1.6c0-0.9,0.7-1.6,1.6-1.6h9.8c0.9,0,1.6,0.7,1.6,1.6C1952.4,1475.2,1951.6,1475.9,1950.8,1475.9z
			 M1931.1,1475.9h-9.8c-0.9,0-1.6-0.7-1.6-1.6c0-0.9,0.7-1.6,1.6-1.6h9.8c0.9,0,1.6,0.7,1.6,1.6
			C1932.8,1475.2,1932,1475.9,1931.1,1475.9z M1911.5,1475.9h-9.8c-0.9,0-1.6-0.7-1.6-1.6c0-0.9,0.7-1.6,1.6-1.6h9.8
			c0.9,0,1.6,0.7,1.6,1.6C1913.2,1475.2,1912.4,1475.9,1911.5,1475.9z M1891.9,1475.9h-9.8c-0.9,0-1.6-0.7-1.6-1.6
			c0-0.9,0.7-1.6,1.6-1.6h9.8c0.9,0,1.6,0.7,1.6,1.6C1893.6,1475.2,1892.8,1475.9,1891.9,1475.9z M1872.3,1475.9h-9.8
			c-0.9,0-1.6-0.7-1.6-1.6c0-0.9,0.7-1.6,1.6-1.6h9.8c0.9,0,1.6,0.7,1.6,1.6C1874,1475.2,1873.2,1475.9,1872.3,1475.9z
			 M1852.7,1475.9h-9.8c-0.9,0-1.6-0.7-1.6-1.6c0-0.9,0.7-1.6,1.6-1.6h9.8c0.9,0,1.6,0.7,1.6,1.6
			C1854.4,1475.2,1853.6,1475.9,1852.7,1475.9z M1833.1,1475.9h-9.8c-0.9,0-1.6-0.7-1.6-1.6c0-0.9,0.7-1.6,1.6-1.6h9.8
			c0.9,0,1.6,0.7,1.6,1.6C1834.8,1475.2,1834,1475.9,1833.1,1475.9z"/>
	</g>
	<g>
		<path class="st4" d="M1235.9,1469.4h-9.8c-0.9,0-1.6-0.7-1.6-1.6c0-0.9,0.7-1.6,1.6-1.6h9.7c0.9,0,1.7,0.7,1.7,1.6
			C1237.5,1468.7,1236.8,1469.4,1235.9,1469.4z M1216.4,1469.4h-9.7c-0.9,0-1.6-0.7-1.6-1.6c0-0.9,0.7-1.6,1.6-1.6h9.7
			c0.9,0,1.6,0.7,1.6,1.6C1218,1468.7,1217.3,1469.4,1216.4,1469.4z M1197,1469.4h-9.7c-0.9,0-1.6-0.7-1.6-1.6
			c0-0.9,0.7-1.6,1.6-1.6h9.7c0.9,0,1.6,0.7,1.6,1.6C1198.6,1468.7,1197.9,1469.4,1197,1469.4z M1177.5,1469.4h-9.7
			c-0.9,0-1.6-0.7-1.6-1.6c0-0.9,0.7-1.6,1.6-1.6h9.7c0.9,0,1.6,0.7,1.6,1.6C1179.2,1468.7,1178.4,1469.4,1177.5,1469.4z
			 M1158.1,1469.4h-9.7c-0.9,0-1.6-0.7-1.6-1.6c0-0.9,0.7-1.6,1.6-1.6h9.7c0.9,0,1.6,0.7,1.6,1.6
			C1159.7,1468.7,1159,1469.4,1158.1,1469.4z M1138.7,1469.4h-9.7c-0.9,0-1.6-0.7-1.6-1.6c0-0.9,0.7-1.6,1.6-1.6h9.7
			c0.9,0,1.6,0.7,1.6,1.6C1140.3,1468.7,1139.6,1469.4,1138.7,1469.4z M1119.2,1469.4h-9.7c-0.9,0-1.6-0.7-1.6-1.6
			c0-0.9,0.7-1.6,1.6-1.6h9.7c0.9,0,1.6,0.7,1.6,1.6C1120.9,1468.7,1120.1,1469.4,1119.2,1469.4z M1099.8,1469.4h-9.7
			c-0.9,0-1.6-0.7-1.6-1.6c0-0.9,0.7-1.6,1.6-1.6h9.7c0.9,0,1.6,0.7,1.6,1.6C1101.4,1468.7,1100.7,1469.4,1099.8,1469.4z
			 M1080.4,1469.4h-9.7c-0.9,0-1.6-0.7-1.6-1.6c0-0.9,0.7-1.6,1.6-1.6h9.7c0.9,0,1.6,0.7,1.6,1.6
			C1082,1468.7,1081.3,1469.4,1080.4,1469.4z M1061,1469.4h-9.7c-0.9,0-1.6-0.7-1.6-1.6c0-0.9,0.7-1.6,1.6-1.6h9.7
			c0.9,0,1.6,0.7,1.6,1.6C1062.6,1468.7,1061.8,1469.4,1061,1469.4z M1041.5,1469.4h-9.7c-0.9,0-1.6-0.7-1.6-1.6
			c0-0.9,0.7-1.6,1.6-1.6h9.7c0.9,0,1.6,0.7,1.6,1.6C1043.1,1468.7,1042.4,1469.4,1041.5,1469.4z M1022.1,1469.4h-9.7
			c-0.9,0-1.6-0.7-1.6-1.6c0-0.9,0.7-1.6,1.6-1.6h9.7c0.9,0,1.6,0.7,1.6,1.6C1023.7,1468.7,1023,1469.4,1022.1,1469.4z
			 M1002.7,1469.4h-9.7c-0.9,0-1.6-0.7-1.6-1.6c0-0.9,0.7-1.6,1.6-1.6h9.7c0.9,0,1.6,0.7,1.6,1.6
			C1004.3,1468.7,1003.6,1469.4,1002.7,1469.4z M983.2,1469.4h-9.7c-0.9,0-1.6-0.7-1.6-1.6c0-0.9,0.7-1.6,1.6-1.6h9.7
			c0.9,0,1.6,0.7,1.6,1.6C984.8,1468.7,984.1,1469.4,983.2,1469.4z M963.8,1469.4h-9.7c-0.9,0-1.6-0.7-1.6-1.6
			c0-0.9,0.7-1.6,1.6-1.6h9.7c0.9,0,1.6,0.7,1.6,1.6C965.4,1468.7,964.7,1469.4,963.8,1469.4z M944.4,1469.4h-7.8
			c-0.7,0-1.4,0-2.1-0.1c-0.9-0.1-1.5-0.9-1.4-1.8c0.1-0.9,0.9-1.5,1.8-1.4c0.6,0.1,1.2,0.1,1.8,0.1h7.8c0.9,0,1.6,0.7,1.6,1.6
			C946,1468.7,945.3,1469.4,944.4,1469.4z M1245.1,1466.6c-0.5,0-1-0.3-1.3-0.7c-0.5-0.7-0.3-1.8,0.4-2.3c2.5-1.6,4.3-4,5.5-6.7
			c0.3-0.8,1.3-1.2,2.1-0.9c0.8,0.3,1.2,1.3,0.9,2.1c-1.4,3.3-3.7,6.1-6.7,8.1C1245.7,1466.5,1245.4,1466.6,1245.1,1466.6z
			 M925.9,1465.5c-0.4,0-0.7-0.1-1.1-0.4c-2.7-2.3-4.7-5.4-5.7-8.8c-0.2-0.9,0.3-1.8,1.1-2c0.9-0.2,1.8,0.3,2,1.1
			c0.8,2.8,2.4,5.3,4.7,7.3c0.7,0.6,0.8,1.6,0.2,2.3C926.8,1465.3,926.3,1465.5,925.9,1465.5z M1252.4,1449.6
			c-0.9,0-1.6-0.7-1.6-1.6v-9.7c0-0.9,0.7-1.6,1.6-1.6c0.9,0,1.6,0.7,1.6,1.6v9.7C1254,1448.9,1253.3,1449.6,1252.4,1449.6z
			 M920.1,1447.8c-0.9,0-1.6-0.7-1.6-1.6v-9.7c0-0.9,0.7-1.6,1.6-1.6c0.9,0,1.6,0.7,1.6,1.6v9.7
			C921.7,1447,920.9,1447.8,920.1,1447.8z M1252.4,1430.2c-0.9,0-1.6-0.7-1.6-1.6v-9.7c0-0.9,0.7-1.6,1.6-1.6c0.9,0,1.6,0.7,1.6,1.6
			v9.7C1254,1429.5,1253.3,1430.2,1252.4,1430.2z M920.1,1428.3c-0.9,0-1.6-0.7-1.6-1.6v-9.7c0-0.9,0.7-1.6,1.6-1.6
			c0.9,0,1.6,0.7,1.6,1.6v9.7C921.7,1427.6,920.9,1428.3,920.1,1428.3z M1252.4,1410.8c-0.9,0-1.6-0.7-1.6-1.6v-9.7
			c0-0.9,0.7-1.6,1.6-1.6c0.9,0,1.6,0.7,1.6,1.6v9.7C1254,1410.1,1253.3,1410.8,1252.4,1410.8z M920.1,1408.9
			c-0.9,0-1.6-0.7-1.6-1.6v-9.7c0-0.9,0.7-1.6,1.6-1.6c0.9,0,1.6,0.7,1.6,1.6v9.7C921.7,1408.2,920.9,1408.9,920.1,1408.9z
			 M1252.4,1391.4c-0.9,0-1.6-0.7-1.6-1.6v-9.7c0-0.9,0.7-1.6,1.6-1.6c0.9,0,1.6,0.7,1.6,1.6v9.7
			C1254,1390.6,1253.3,1391.4,1252.4,1391.4z M920.1,1389.5c-0.9,0-1.6-0.7-1.6-1.6v-9.7c0-0.9,0.7-1.6,1.6-1.6
			c0.9,0,1.6,0.7,1.6,1.6v9.7C921.7,1388.7,920.9,1389.5,920.1,1389.5z M1252.4,1371.9c-0.9,0-1.6-0.7-1.6-1.6v-9.7
			c0-0.9,0.7-1.6,1.6-1.6c0.9,0,1.6,0.7,1.6,1.6v9.7C1254,1371.2,1253.3,1371.9,1252.4,1371.9z M920.1,1370c-0.9,0-1.6-0.7-1.6-1.6
			v-9.7c0-0.9,0.7-1.6,1.6-1.6c0.9,0,1.6,0.7,1.6,1.6v9.7C921.7,1369.3,920.9,1370,920.1,1370z M1252.4,1352.5
			c-0.9,0-1.6-0.7-1.6-1.6v-9.7c0-0.9,0.7-1.6,1.6-1.6c0.9,0,1.6,0.7,1.6,1.6v9.7C1254,1351.8,1253.3,1352.5,1252.4,1352.5z
			 M920.1,1350.6c-0.9,0-1.6-0.7-1.6-1.6v-9.7c0-0.9,0.7-1.6,1.6-1.6c0.9,0,1.6,0.7,1.6,1.6v9.7
			C921.7,1349.9,920.9,1350.6,920.1,1350.6z M1252.4,1333.1c-0.9,0-1.6-0.7-1.6-1.6v-9.7c0-0.9,0.7-1.6,1.6-1.6
			c0.9,0,1.6,0.7,1.6,1.6v9.7C1254,1332.3,1253.3,1333.1,1252.4,1333.1z M920.1,1331.2c-0.9,0-1.6-0.7-1.6-1.6v-9.7
			c0-0.9,0.7-1.6,1.6-1.6c0.9,0,1.6,0.7,1.6,1.6v9.7C921.7,1330.4,920.9,1331.2,920.1,1331.2z M1252.4,1313.6
			c-0.9,0-1.6-0.7-1.6-1.6v-9.7c0-0.9,0.7-1.6,1.6-1.6c0.9,0,1.6,0.7,1.6,1.6v9.7C1254,1312.9,1253.3,1313.6,1252.4,1313.6z
			 M920.1,1311.7c-0.9,0-1.6-0.7-1.6-1.6v-9.7c0-0.9,0.7-1.6,1.6-1.6c0.9,0,1.6,0.7,1.6,1.6v9.7
			C921.7,1311,920.9,1311.7,920.1,1311.7z M1252.4,1294.2c-0.9,0-1.6-0.7-1.6-1.6v-9.7c0-0.9,0.7-1.6,1.6-1.6c0.9,0,1.6,0.7,1.6,1.6
			v9.7C1254,1293.5,1253.3,1294.2,1252.4,1294.2z M920.1,1292.3c-0.9,0-1.6-0.7-1.6-1.6v-9.7c0-0.9,0.7-1.6,1.6-1.6
			c0.9,0,1.6,0.7,1.6,1.6v9.7C921.7,1291.6,920.9,1292.3,920.1,1292.3z M1252.4,1274.8c-0.9,0-1.6-0.7-1.6-1.6v-9.7
			c0-0.9,0.7-1.6,1.6-1.6c0.9,0,1.6,0.7,1.6,1.6v9.7C1254,1274,1253.3,1274.8,1252.4,1274.8z M920.1,1272.9c-0.9,0-1.6-0.7-1.6-1.6
			v-9.7c0-0.9,0.7-1.6,1.6-1.6c0.9,0,1.6,0.7,1.6,1.6v9.7C921.7,1272.1,920.9,1272.9,920.1,1272.9z M1252.4,1255.3
			c-0.9,0-1.6-0.7-1.6-1.6v-9.7c0-0.9,0.7-1.6,1.6-1.6c0.9,0,1.6,0.7,1.6,1.6v9.7C1254,1254.6,1253.3,1255.3,1252.4,1255.3z
			 M920.1,1253.4c-0.9,0-1.6-0.7-1.6-1.6v-9.7c0-0.9,0.7-1.6,1.6-1.6c0.9,0,1.6,0.7,1.6,1.6v9.7
			C921.7,1252.7,920.9,1253.4,920.1,1253.4z M1251.7,1236c-0.7,0-1.4-0.5-1.6-1.2c-0.8-2.8-2.4-5.3-4.7-7.2
			c-0.7-0.6-0.8-1.6-0.2-2.3c0.6-0.7,1.6-0.8,2.3-0.2c2.7,2.3,4.7,5.4,5.7,8.8c0.2,0.9-0.2,1.8-1.1,2
			C1252,1235.9,1251.9,1236,1251.7,1236z M921.3,1234.2c-0.2,0-0.4,0-0.6-0.1c-0.8-0.3-1.2-1.3-0.9-2.1c1.4-3.3,3.7-6.1,6.7-8.1
			c0.7-0.5,1.8-0.3,2.3,0.4c0.5,0.7,0.3,1.8-0.4,2.3c-2.5,1.6-4.4,3.9-5.5,6.7C922.6,1233.8,922,1234.2,921.3,1234.2z
			 M1237.8,1224.1c-0.1,0-0.1,0-0.2,0c-0.6-0.1-1.2-0.1-1.7-0.1h-7.8c-0.9,0-1.6-0.7-1.6-1.6c0-0.9,0.7-1.6,1.6-1.6h7.8
			c0.7,0,1.4,0,2.1,0.1c0.9,0.1,1.5,0.9,1.4,1.8C1239.3,1223.5,1238.6,1224.1,1237.8,1224.1z M1218.3,1224h-9.7
			c-0.9,0-1.6-0.7-1.6-1.6c0-0.9,0.7-1.6,1.6-1.6h9.7c0.9,0,1.6,0.7,1.6,1.6C1220,1223.3,1219.2,1224,1218.3,1224z M1198.9,1224
			h-9.7c-0.9,0-1.6-0.7-1.6-1.6c0-0.9,0.7-1.6,1.6-1.6h9.7c0.9,0,1.6,0.7,1.6,1.6C1200.5,1223.3,1199.8,1224,1198.9,1224z
			 M1179.5,1224h-9.7c-0.9,0-1.6-0.7-1.6-1.6c0-0.9,0.7-1.6,1.6-1.6h9.7c0.9,0,1.6,0.7,1.6,1.6
			C1181.1,1223.3,1180.4,1224,1179.5,1224z M1160,1224h-9.7c-0.9,0-1.6-0.7-1.6-1.6c0-0.9,0.7-1.6,1.6-1.6h9.7
			c0.9,0,1.6,0.7,1.6,1.6C1161.7,1223.3,1160.9,1224,1160,1224z M1140.6,1224h-9.7c-0.9,0-1.6-0.7-1.6-1.6c0-0.9,0.7-1.6,1.6-1.6
			h9.7c0.9,0,1.6,0.7,1.6,1.6C1142.2,1223.3,1141.5,1224,1140.6,1224z M1121.2,1224h-9.7c-0.9,0-1.6-0.7-1.6-1.6
			c0-0.9,0.7-1.6,1.6-1.6h9.7c0.9,0,1.6,0.7,1.6,1.6C1122.8,1223.3,1122.1,1224,1121.2,1224z M1101.7,1224h-9.7
			c-0.9,0-1.6-0.7-1.6-1.6c0-0.9,0.7-1.6,1.6-1.6h9.7c0.9,0,1.6,0.7,1.6,1.6C1103.4,1223.3,1102.6,1224,1101.7,1224z M1082.3,1224
			h-9.7c-0.9,0-1.6-0.7-1.6-1.6c0-0.9,0.7-1.6,1.6-1.6h9.7c0.9,0,1.6,0.7,1.6,1.6C1083.9,1223.3,1083.2,1224,1082.3,1224z
			 M1062.9,1224h-9.7c-0.9,0-1.6-0.7-1.6-1.6c0-0.9,0.7-1.6,1.6-1.6h9.7c0.9,0,1.6,0.7,1.6,1.6
			C1064.5,1223.3,1063.8,1224,1062.9,1224z M1043.4,1224h-9.7c-0.9,0-1.6-0.7-1.6-1.6c0-0.9,0.7-1.6,1.6-1.6h9.7
			c0.9,0,1.6,0.7,1.6,1.6C1045.1,1223.3,1044.3,1224,1043.4,1224z M1024,1224h-9.7c-0.9,0-1.6-0.7-1.6-1.6c0-0.9,0.7-1.6,1.6-1.6
			h9.7c0.9,0,1.6,0.7,1.6,1.6C1025.6,1223.3,1024.9,1224,1024,1224z M1004.6,1224h-9.7c-0.9,0-1.6-0.7-1.6-1.6
			c0-0.9,0.7-1.6,1.6-1.6h9.7c0.9,0,1.6,0.7,1.6,1.6C1006.2,1223.3,1005.5,1224,1004.6,1224z M985.2,1224h-9.7
			c-0.9,0-1.6-0.7-1.6-1.6c0-0.9,0.7-1.6,1.6-1.6h9.7c0.9,0,1.6,0.7,1.6,1.6C986.8,1223.3,986,1224,985.2,1224z M965.7,1224H956
			c-0.9,0-1.6-0.7-1.6-1.6c0-0.9,0.7-1.6,1.6-1.6h9.7c0.9,0,1.6,0.7,1.6,1.6C967.3,1223.3,966.6,1224,965.7,1224z M946.3,1224h-9.7
			c-0.9,0-1.6-0.7-1.6-1.6c0-0.9,0.7-1.6,1.6-1.6h9.7c0.9,0,1.6,0.7,1.6,1.6C947.9,1223.3,947.2,1224,946.3,1224z"/>
	</g>
	<g>
		<path class="st0" d="M1336.1,1171.6H931.9c-5.3,0-9.6-4.3-9.6-9.6V935.8c0-5.3,4.3-9.6,9.6-9.6h404.2c5.3,0,9.6,4.3,9.6,9.6V1162
			C1345.7,1167.3,1341.4,1171.6,1336.1,1171.6z"/>
		<path class="st3" d="M1086.2,1000.2v97.4c0,6.1,6.8,9.7,11.9,6.4l74-48.7c4.6-3,4.6-9.8,0-12.8l-74-48.7
			C1093,990.5,1086.2,994.1,1086.2,1000.2z"/>
		<g>
			<path class="st11" d="M944.3,1149.5c0-4.2,3.4-7.6,7.6-7.6c4.2,0,7.6,3.4,7.6,7.6c0,4.2-3.4,7.6-7.6,7.6
				C947.7,1157.1,944.3,1153.7,944.3,1149.5z"/>
			<path class="st11" d="M1297.6,1151.5H954c-1.1,0-2-0.9-2-2l0,0c0-1.1,0.9-2,2-2h343.7c1.1,0,2,0.9,2,2l0,0
				C1299.7,1150.6,1298.8,1151.5,1297.6,1151.5z"/>
		</g>
	</g>
	<rect x="1318.2" y="1222.4" class="st0" width="219" height="327"/>
	<g>
		<g>
			<g>
				<path class="st6" d="M1448.8,1327.4h-3V1314c0-4.8,3.9-8.8,8.8-8.8h37.1c2.6,0,4.9-1.8,5.6-4.3l5.9-22.3c0.5-1.7,0.1-3.6-1-5
					c-1.1-1.4-2.8-2.2-4.6-2.2h-48.4v-3h48.4c2.7,0,5.3,1.2,6.9,3.4c1.7,2.2,2.2,4.9,1.5,7.6l-5.9,22.3c-1,3.8-4.5,6.5-8.5,6.5
					h-37.1c-3.2,0-5.8,2.6-5.8,5.8V1327.4z"/>
			</g>
			<path class="st3" d="M1487.3,1282.5h-71c-3.4,0-6.1-2.7-6.1-6.1v-13.1c0-3.4,2.7-6.1,6.1-6.1h71c3.4,0,6.1,2.7,6.1,6.1v13.1
				C1493.4,1279.8,1490.6,1282.5,1487.3,1282.5z"/>
			<path class="st6" d="M1447.3,1383.4L1447.3,1383.4c-4.6,0-8.2-3.7-8.2-8.2v-49.9c0-4.6,3.7-8.2,8.2-8.2l0,0
				c4.6,0,8.2,3.7,8.2,8.2v49.9C1455.5,1379.7,1451.8,1383.4,1447.3,1383.4z"/>
		</g>
		<g>
			<path class="st5" d="M1762.6,1491.6c0,0,5.7,17.5,5.2,21.5c-0.5,4-4,17.6-6.6,21.1c-2.5,3.5-3.8-14.2-5.8-16.9
				c-2-2.7-0.4,6.7-1.8,7.5c-1.4,0.9-4.4-6.9-5.6-9.6c-1.3-2.7,3.1-12.8,3.1-19.8C1751,1488.5,1762.6,1491.6,1762.6,1491.6z"/>
			<path class="st4" d="M1629.3,1353c-1.6-20,20.2-33.7,37.3-23.3c0.4,0.2,0.7,0.4,1,0.7c25.7,16.5,81.2,93.8,85,101.5
				c3.8,7.7,15.1,69.3,15.1,69.3s-13.9,5.1-20.4-0.2c0,0-22.6-58.4-25.9-61.3c-3.3-2.9-90.3-51.7-91.1-70
				C1630.1,1364.7,1629.8,1358.9,1629.3,1353z"/>
		</g>
		<g>
			<path class="st12" d="M1784.5,1804.9c0,0,10.4,9.5,8.3,16.2c-2,6.7-11.4,11.2-12.6,19.4c-1.3,8.2-6.3,12.7-10.9,12.7
				c-4.6,0-21.7,0-21.7,0s-3.4-5.8,4.7-7.5c8.1-1.7,11.1-11.4,10.6-20.4c-0.5-9,0.8-20.9,0.8-20.9l17.2-4L1784.5,1804.9z"/>
			<path class="st12" d="M1657.4,1829.3c0,0,1.9,21.5-2.7,23.8l-58.2-0.1c0,0,0-6.7,9.4-8.2c9.4-1.5,25.8-7,28.6-19.2
				C1637.1,1813.4,1657.4,1829.3,1657.4,1829.3z"/>
			<path class="st3" d="M1608.2,1525.3c0,0,3.1,37.7,6.7,83.1c4.9,61.6,10.8,137.3,11.4,151.6c1,24.9,5.1,64.7,5.1,64.7
				s9.6,9.5,28.8,5.5c0,0,17.1-56.9,22-117c0.1-1,0.2-2,0.2-3c4.6-61.2,11.6-190.2,11.6-190.2L1608.2,1525.3z"/>
			<path class="st7" d="M1608.2,1525.3c0,0,3.1,37.7,6.7,83.1l67.3,104.8c0.1-1,0.2-2,0.2-3c4.6-61.2,11.6-190.2,11.6-190.2
				L1608.2,1525.3z"/>
			<path class="st3" d="M1622.2,1529.7c0,0,55.4,136.7,91.8,200.9c36.4,64.2,47.8,82.1,47.8,82.1s20.9-8.2,22.8-13.8
				c0,0-13.9-124-38.3-154.2c-13.8-17.1-30-68.3-30.7-86.3c-0.8-17.9-4.9-53.4-4.9-53.4L1622.2,1529.7z"/>
		</g>
		<path class="st5" d="M1669.9,1324.7c0,0-37.1,18.8-58.8,12.5c0,0,5.2-6.8,14.4-12c-0.8-4.3-1.5-8.1-1.9-11.3
			c-1.1-7.3-1.1-11.5-1.1-11.5l14.2-11.7l13.5-11.1C1649.7,1310.3,1669.9,1324.7,1669.9,1324.7z"/>
		<path class="st6" d="M1706.8,1515.9c-15,9.1-29.2,15.9-45.7,19.7c-19.6,4.6-43.6,3.3-51.7,4.5c-0.8,0.1-1.6-0.1-2.3-0.6
			c-0.6-0.3-4.2-24.2-7.7-54.3c-0.2-1.2-0.3-2.4-0.4-3.7l-0.1-0.4c-1.4-11.8-2.6-24.2-3.6-36.6c-0.9-9.7-1.6-19.2-2.1-28.2
			c-0.6-11.2-0.9-21.5-0.6-30c0.1-3.9,0.3-7.4,0.7-10.4c2.1-17.6,10.5-30.2,18.4-39.5l6.6-7.5c7.6,0.5,15.4-1,22.7-5.8
			c8-5.3,16.7-10.9,18.3-10c12.3,6.7,22.3,24.1,29.4,47.1c4.1,13.2,7.2,28.2,9.2,44.1c0.6,4.9,1.2,10,1.6,15
			c0.1,0.9,0.2,1.9,0.2,2.8c1,13.8,2.5,26.7,4.3,38.2c2.3,15.6,5,28.6,6.9,37.8c0.9,4.7,1.7,8.3,2.1,10.9
			C1713.3,1511.4,1708.8,1514.7,1706.8,1515.9z"/>
		<path class="st8" d="M1650.7,1291.4c0,0-9.1,17.4-27,22.6c-1.1-7.3-1.1-11.5-1.1-11.5l14.2-11.7L1650.7,1291.4z"/>
		<path class="st5" d="M1615.9,1302.2c0,0,35.8,5.1,38.8-16.9c2.9-22,9.5-36.2-13.3-40.4c-22.8-4.2-28.3,3.6-31.1,10.7
			C1607.5,1262.7,1606.6,1300.3,1615.9,1302.2z"/>
		<path class="st4" d="M1666.8,1241.7c0.3-0.4,1.1-0.7,2.7-0.8c0,0-1.3-0.8-3.1-0.8c-0.4-2.3-1.7-6.4-5.7-7.3c0,0,2.2,1.1,2.5,3.6
			c-4.7-4.6-14.7-7.9-42-5.2c-36,3.6-23.7,26.4-19,29.1c4.7,2.7,16.3-5.1,25.1-4.6c8.7,0.5,10.6,13.1,13.6,14.7
			c3,1.7,1.8-1.4,5.7-3.2c4-1.9,4.5,4.7,3.4,9.1c-1.1,4.3,4.5,9.9,4.5,9.9s0,0,5.4-6.1c5.4-6.1,10.2-31.5,7.5-36.8
			C1667.2,1242.7,1667,1242.2,1666.8,1241.7z"/>
		<path class="st4" d="M1655.4,1388.4c0,0-30.2,23-62.3,28c-0.6-11.2-0.9-21.5-0.6-30L1655.4,1388.4z"/>
		<g>
			<path class="st5" d="M1469.8,1358.7c-0.5-0.5-6.6-21.1-17.3-19.6c-7,1-18.3,5-15.3,14.2c1.2,3.6,22.4,16,22.4,16L1469.8,1358.7z"
				/>
			<path class="st6" d="M1659.1,1343.9c17.2,10.3,15.8,36-2.6,44c-0.4,0.2-0.8,0.3-1.1,0.5c-28.4,11.4-123.4,11.9-132,10.5
				c-8.5-1.4-65.2-27.8-65.2-27.8s3.9-14.3,12-16.6c0,0,60.7,15.4,65,14.3c4.3-1,94.5-43.7,109.8-33.7
				C1649.1,1337.8,1654,1340.9,1659.1,1343.9z"/>
		</g>
	</g>
	<g>
		<path class="st13" d="M2298.7,667.6H2223c-3.2,0-5.8-2.6-5.8-5.8l0,0c0-3.2,2.6-5.8,5.8-5.8h75.7c3.2,0,5.8,2.6,5.8,5.8l0,0
			C2304.5,665,2301.9,667.6,2298.7,667.6z"/>
		<path class="st13" d="M2298.7,690.2H2223c-3.2,0-5.8-2.6-5.8-5.8l0,0c0-3.2,2.6-5.8,5.8-5.8h75.7c3.2,0,5.8,2.6,5.8,5.8l0,0
			C2304.5,687.6,2301.9,690.2,2298.7,690.2z"/>
		<path class="st13" d="M2298.7,713.4H2223c-3.2,0-5.8-2.6-5.8-5.8l0,0c0-3.2,2.6-5.8,5.8-5.8h75.7c3.2,0,5.8,2.6,5.8,5.8l0,0
			C2304.5,710.8,2301.9,713.4,2298.7,713.4z"/>
	</g>
	<path class="st13" d="M2002.3,1259h-180.2c-4.2,0-7.7-3.5-7.7-7.7l0,0c0-4.2,3.5-7.7,7.7-7.7h180.2c4.2,0,7.7,3.5,7.7,7.7l0,0
		C2010,1255.6,2006.5,1259,2002.3,1259z"/>
	<path class="st13" d="M1121.7,732.6H941.5c-4.2,0-7.7-3.5-7.7-7.7l0,0c0-4.2,3.5-7.7,7.7-7.7h180.2c4.2,0,7.7,3.5,7.7,7.7l0,0
		C1129.3,729.2,1125.9,732.6,1121.7,732.6z"/>
	<path class="st13" d="M2002.3,1335.1h-180.2c-4.2,0-7.7-3.5-7.7-7.7l0,0c0-4.2,3.5-7.7,7.7-7.7h180.2c4.2,0,7.7,3.5,7.7,7.7l0,0
		C2010,1331.6,2006.5,1335.1,2002.3,1335.1z"/>
	<path class="st13" d="M2002.3,1297.1h-215.5c-4.2,0-7.7-3.5-7.7-7.7l0,0c0-4.2,3.5-7.7,7.7-7.7h215.5c4.2,0,7.7,3.5,7.7,7.7l0,0
		C2010,1293.6,2006.5,1297.1,2002.3,1297.1z"/>
	<g>
		<path class="st13" d="M1070.4,780.9h-106c-2,0-3.6-1.6-3.6-3.6v-8.1c0-2,1.6-3.6,3.6-3.6h106c2,0,3.6,1.6,3.6,3.6v8.1
			C1074,779.2,1072.4,780.9,1070.4,780.9z"/>
		<path class="st13" d="M927,773.2c0-4.2,3.4-7.7,7.7-7.7c4.2,0,7.7,3.4,7.7,7.7c0,4.2-3.4,7.7-7.7,7.7
			C930.5,780.9,927,777.4,927,773.2z"/>
	</g>
	<g>
		<path class="st13" d="M1089.9,811.4H964.6c-2.2,0-3.9-1.8-3.9-3.9V800c0-2.2,1.8-3.9,3.9-3.9h125.2c2.2,0,3.9,1.8,3.9,3.9v7.4
			C1093.8,809.6,1092,811.4,1089.9,811.4z"/>
		<path class="st13" d="M927,803.7c0-4.2,3.4-7.7,7.7-7.7c4.2,0,7.7,3.4,7.7,7.7s-3.4,7.7-7.7,7.7C930.5,811.4,927,807.9,927,803.7z
			"/>
	</g>
	<g>
		<path class="st13" d="M1070.4,844.5h-106c-2,0-3.6-1.6-3.6-3.6v-8.1c0-2,1.6-3.6,3.6-3.6h106c2,0,3.6,1.6,3.6,3.6v8.1
			C1074,842.9,1072.4,844.5,1070.4,844.5z"/>
		<path class="st13" d="M927,836.8c0-4.2,3.4-7.7,7.7-7.7c4.2,0,7.7,3.4,7.7,7.7c0,4.2-3.4,7.7-7.7,7.7
			C930.5,844.5,927,841.1,927,836.8z"/>
	</g>
	<g>
		<g>
			<path class="st4" d="M1253.1,798c-1.3,0.2-2.7,0.3-4.1,0.3c-7.2-0.1-14-3-19-8.1c-10.4-10.7-10.2-27.8,0.4-38.3v0
				c10.7-10.4,27.8-10.2,38.3,0.4c10.4,10.7,10.2,27.8-0.4,38.3C1264.1,794.7,1258.8,797.3,1253.1,798z M1233.6,755.1
				c-8.9,8.7-9.1,23-0.4,32c4.2,4.3,9.9,6.7,15.9,6.8c6,0.1,11.7-2.2,16.1-6.4c8.9-8.7,9.1-23,0.4-32
				C1256.8,746.5,1242.5,746.4,1233.6,755.1L1233.6,755.1z"/>
		</g>
		
			<rect x="1216.2" y="783" transform="matrix(0.6989 0.7152 -0.7152 0.6989 940.1078 -630.0947)" class="st4" width="4.5" height="36.9"/>
		<path class="st4" d="M1196,823.4L1196,823.4c-1.5-1.6-1.5-4.1,0.1-5.6l15.6-15.2c1.6-1.5,4.1-1.5,5.6,0.1l0,0
			c1.5,1.6,1.5,4.1-0.1,5.6l-15.6,15.2C1200.1,825,1197.5,824.9,1196,823.4z"/>
	</g>
	<g>
		<path class="st4" d="M2514.5,1853.7L2514.5,1853.7c-3.5,0-7.1-2.5-8.1-5.6l-207.9-633c-1-3.1,1-5.6,4.4-5.6l0,0
			c3.5,0,7.1,2.5,8.1,5.6l207.9,633C2519.9,1851.1,2517.9,1853.7,2514.5,1853.7z"/>
		<path class="st4" d="M2682,1852.7L2682,1852.7c-3.5,0-7.1-2.5-8.1-5.6l-207.9-633c-1-3.1,1-5.6,4.4-5.6l0,0c3.5,0,7.1,2.5,8.1,5.6
			l207.9,633C2687.4,1850.2,2685.5,1852.7,2682,1852.7z"/>
		<path class="st4" d="M2501.6,1302.4l-168.2,1c-3.2,0-6.7-2.3-7.6-5.3l0,0c-1-2.9,0.9-5.3,4.2-5.3l168.2-1c3.2,0,6.7,2.3,7.6,5.3
			l0,0C2506.7,1300,2504.9,1302.4,2501.6,1302.4z"/>
		<path class="st4" d="M2537.9,1412.9l-168.2,1c-3.2,0-6.7-2.3-7.6-5.3l0,0c-1-2.9,0.9-5.3,4.2-5.3l168.2-1c3.2,0,6.7,2.3,7.6,5.3
			l0,0C2543,1410.5,2541.2,1412.9,2537.9,1412.9z"/>
		<path class="st4" d="M2572.9,1519.3l-168.2,1c-3.2,0-6.7-2.3-7.6-5.3l0,0c-1-2.9,0.9-5.3,4.2-5.3l168.2-1c3.2,0,6.7,2.3,7.6,5.3
			l0,0C2578,1516.9,2576.1,1519.3,2572.9,1519.3z"/>
		<path class="st4" d="M2612.2,1639.2l-168.2,1c-3.2,0-6.7-2.3-7.6-5.3l0,0c-1-2.9,0.9-5.3,4.2-5.3l168.2-1c3.2,0,6.7,2.3,7.6,5.3
			l0,0C2617.3,1636.7,2615.5,1639.1,2612.2,1639.2z"/>
		<path class="st4" d="M2653.4,1764.6l-168.2,1c-3.2,0-6.7-2.3-7.6-5.3l0,0c-1-2.9,0.9-5.3,4.2-5.3l168.2-1c3.2,0,6.7,2.3,7.6,5.3
			l0,0C2658.5,1762.2,2656.7,1764.6,2653.4,1764.6z"/>
	</g>
	<g>
		<path class="st4" d="M2291.2,925.3L2291.2,925.3c-1.3,0.3-2.6-0.6-2.9-1.9l-2.7-13.9c-0.3-1.3,0.6-2.6,1.9-2.9l0,0
			c1.3-0.3,2.6,0.6,2.9,1.9l2.7,13.9C2293.4,923.7,2292.6,925,2291.2,925.3z"/>
		
			<rect x="2284.2" y="882.9" transform="matrix(0.9818 -0.19 0.19 0.9818 -128.0742 450.4196)" class="st4" width="1.7" height="20.5"/>
		<path class="st5" d="M2283.9,769.8c0,0-1.6-13.8-4.9-19.1c-3.4-5.3-16-8.7-16.8-7.9c-2.5,2.4,7.3,10.9,7.7,14c0.4,3.1-5,1-2.4,7.1
			c2.2,5.2,9.4,11.9,9.4,11.9L2283.9,769.8z"/>
		<path class="st7" d="M2277.8,768.3c4.6-3.6,5.6-3.6,5.6-3.6s42.8,37.1,46.9,40.4c4.2,3.3,68.4,21.9,68.4,21.9l10.2,52.2
			c0,0-86.9-42-97.3-50.6c-17.2-14.2-38.8-53.8-38.8-53.8S2274.2,771.1,2277.8,768.3z"/>
		<path class="st4" d="M2400.1,1270.2c0,0-0.7,17.9-4.2,22.2l-47.7,0.3c0.3-1.8,0.5-6.1,7.1-7.2c8.3-1.4,18.1-7.3,23.2-18.3
			C2383.9,1255.6,2400.1,1270.2,2400.1,1270.2z"/>
		<path class="st4" d="M2493.7,1267.7c0,0,3.3,23.7-1.2,24.1c-0.6,0.1-19.2,0.4-27.3,0.5c-9.5,0.2-25.1-0.2-25.1-0.2
			c-2,0.1-3.2-2-2.2-3.7c1.1-1.9,3.2-3.8,7.2-4.6c8.3-1.6,22.1-7.7,27-18.8C2477.2,1253.3,2493.7,1267.7,2493.7,1267.7z"/>
		<path class="st4" d="M2375.3,1024.6c0,0,13.3,46.4,51.3,127c38,80.6,39.6,119.4,39.6,119.4s5.8,2,13.4,1.2
			c8.3-0.9,14.1-4.6,14.1-4.6s-2.5-95.9-20.4-136.6c-18-40.7-21.6-151.9-21.6-151.9L2375.3,1024.6z"/>
		<path class="st6" d="M2354.1,984.7c0,0-1.1,71.8,11.4,160.1c12.4,88.2,6.6,129.2,6.6,129.2s3.3,2.4,13.4,2.4
			c11.9,0,17.9-4.9,17.9-4.9s17.8-88.2,12.7-132.4c-5.1-44.2,24.4-151.5,24.4-151.5L2354.1,984.7z"/>
		<path class="st5" d="M2412.8,816.6l-14,10.4l-20.3-4.3c0.3-1.9,1.6-9.5,2.8-16.5c0.1-0.4,0.1-0.8,0.2-1.2c1-5.9,1.9-11,1.9-11
			l19-9.4l7.1-3.5c0,0.1-0.5,6.6-0.6,7.5C2407.5,805.3,2412.8,816.6,2412.8,816.6z"/>
		<path class="st3" d="M2453,993.6c-4.6,21-102.9,11.8-101.6-1c0-0.4,0.3-6.4,0.7-14.4c0.7-17.3,1.9-44.3,2-46.4c0,0,0-0.1,0-0.1
			c1.8-17.8,3.5-35.3,3.6-46.7c0.1-9.9,1.5-20,3.3-29.2c1.7-8.5,3.7-16.2,5.5-22.2c1.3-4.2,3.6-7.9,6.7-10.9
			c2.2-2.1,4.8-3.7,7.7-4.9c0.8-0.3,1.6-0.6,2.4-0.8c11.6-3.4,27.6-7.5,31.9-6.2c11.7,3.5,20.5,24.1,26.6,50.5
			C2453.4,910.6,2456,979.9,2453,993.6z"/>
		<path class="st8" d="M2407.5,788.9c-4.2,8-19.7,14.9-26.1,17.4c0.1-0.4,0.1-0.8,0.2-1.2c1-5.9,1.9-11,1.9-11l19-9.4
			C2406.6,784.5,2409.2,785.6,2407.5,788.9z"/>
		<path class="st5" d="M2374.3,792.9c0,0,34.2,10.7,40.5-10.7c6.3-21.4,15-34.4-6.6-42.1c-21.6-7.7-28.2-0.8-32.1,5.8
			C2372.3,752.5,2365.5,789.6,2374.3,792.9z"/>
		<path class="st4" d="M2377.5,743.8c0,0,2.2,24.9,7.3,23.8c5.1-1.1,9.8-1.9,9.1,5.6c-0.8,7.5-7.9,16.2,8,17.5
			c15.9,1.3,38.7-39.6,34.3-47.3C2423.6,721.1,2359.3,716.5,2377.5,743.8z"/>
		<path class="st7" d="M2352.1,978.2c0.7-17.3,1.9-44.3,2-46.4c0,0,0-0.1,0-0.1l58.1-34.7C2412.2,896.9,2414.4,978,2352.1,978.2z"/>
		<path class="st5" d="M2306,905.6c0,0-11.8-8-14-8.7c-2.2-0.7-9.6-1.4-9.9-0.9c-0.3,0.6-1.3,2.3-0.1,2.9c1.3,0.6,2.9,0.4,2.4,0.8
			c-0.5,0.4-5.3-1.9-6.4,0.6c-1.1,2.5-2.1,10.9,3.6,13.4c5.7,2.6,19.6,0.2,20.6,0.5C2310.7,916.8,2306,905.6,2306,905.6z"/>
		<path class="st3" d="M2305.9,903.4c0,0,57.6,9.8,62.7,7.3c8.1-4-3.2-62.4-3.2-62.4s-0.5-13.2,15-16.4c13.4-2.7,26.4,7.4,26.4,7.4
			s11.8,10.6,10.3,22.3c-3.3,25.9-8.5,78.7-25.9,86.8c-22.4,10.4-87.1-28.9-87.1-28.9s-2.2-2.6-1.9-7.5
			C2302.4,907.6,2305.9,903.4,2305.9,903.4z"/>
		<path class="st5" d="M2267.2,763.2c0,0-3.7-7.3-4.3-8.7c-0.6-1.4,0.8-1.1,2.3-0.3c1.4,0.8,3.4,5,5.5,4.5
			C2272.4,758.3,2267.2,763.2,2267.2,763.2z"/>
	</g>
</g>
</svg>
