<?xml version="1.0" encoding="utf-8"?>
<!-- Generator: Adobe Illustrator 22.1.0, SVG Export Plug-In . SVG Version: 6.00 Build 0)  -->
<svg version="1.1" xmlns="http://www.w3.org/2000/svg" xmlns:xlink="http://www.w3.org/1999/xlink" x="0px" y="0px"
	 viewBox="0 0 900 500" style="enable-background:new 0 0 900 500;" xml:space="preserve">
<style type="text/css">
	.st0{fill:#FFFFFF;}
	.st1{clip-path:url(#SVGID_2_);fill:none;stroke:#CDD0C4;stroke-miterlimit:10;stroke-dasharray:4;}
	.st2{clip-path:url(#SVGID_2_);}
	.st3{fill:none;stroke:#CDD0C4;stroke-miterlimit:10;}
	.st4{fill:none;stroke:#CDD0C4;stroke-miterlimit:10;stroke-dasharray:3.9416,3.9416;}
	.st5{fill:none;stroke:#F6A915;stroke-width:1.3061;stroke-miterlimit:10;}
	.st6{fill:#CDD0C4;}
	.st7{fill:#F6A915;}
	.st8{fill:#4B53E4;}
	.st9{fill:none;stroke:#CDD0C4;stroke-width:0.718;stroke-miterlimit:10;}
	.st10{fill:none;stroke:#F6A915;stroke-width:0.8834;stroke-miterlimit:10;}
	.st11{fill:none;stroke:#CDD0C4;stroke-width:0.4856;stroke-miterlimit:10;}
	.st12{clip-path:url(#SVGID_2_);fill:#4F46E5;}
	.st13{fill:#2F515E;}
	.st14{fill:#525252;}
	.st15{clip-path:url(#SVGID_2_);fill:#FFFFFF;}
	.st16{clip-path:url(#SVGID_2_);fill:#EEEEED;}
	.st17{fill:#30B47A;}
	.st18{fill:none;stroke:#0C8563;stroke-width:2;stroke-miterlimit:10;}
	.st19{fill:none;stroke:#FFFFFF;stroke-width:4.6663;stroke-miterlimit:10;}
	.st20{fill:#FF5940;}
	.st21{fill:none;stroke:#D15036;stroke-width:1.7593;stroke-miterlimit:10;}
	.st22{fill:none;stroke:#FFFFFF;stroke-width:3.5186;stroke-miterlimit:10;}
	.st23{fill:#221660;}
	.st24{fill:#4F46E5;}
	.st25{fill:#F68E15;}
	.st26{fill:#FE9DA7;}
	.st27{fill:#FF6688;}
	.st28{fill:#FCDE98;}
	.st29{fill:#3A4B73;}
	.st30{fill:#F65015;}
	.st31{clip-path:url(#SVGID_2_);fill:none;stroke:#F6A915;stroke-width:0.8265;stroke-miterlimit:10;}
	.st32{clip-path:url(#SVGID_2_);fill:#FF6688;}
	.st33{clip-path:url(#SVGID_2_);fill:#F6A915;}
	.st34{opacity:0.5;clip-path:url(#SVGID_2_);fill:#FFFFFF;}
	.st35{clip-path:url(#SVGID_2_);fill:none;stroke:#FF6688;stroke-miterlimit:10;}
	.st36{clip-path:url(#SVGID_2_);fill:#4B53E4;}
	.st37{clip-path:url(#SVGID_2_);fill:none;stroke:#FFFFFF;stroke-width:0.8029;stroke-miterlimit:10;}
	.st38{clip-path:url(#SVGID_2_);fill:none;stroke:#FFFFFF;stroke-miterlimit:10;}
	.st39{fill:#FFF9E1;}
	.st40{fill:#D9C693;}
	.st41{fill:none;stroke:#FF6688;stroke-miterlimit:10;}
	.st42{fill:none;stroke:#CDD0C4;stroke-width:1.8191;stroke-miterlimit:10;}
	.st43{fill:none;stroke:#CDD0C4;stroke-width:1.3631;stroke-miterlimit:10;}
	.st44{fill:none;stroke:#CDD0C4;stroke-width:1.4592;stroke-miterlimit:10;}
	.st45{opacity:0.15;clip-path:url(#SVGID_2_);}
	.st46{fill:none;stroke:#FFFFFF;stroke-width:2.2139;stroke-miterlimit:10;}
	.st47{clip-path:url(#SVGID_2_);fill:none;stroke:#221660;stroke-miterlimit:10;}
	.st48{fill:none;stroke:#FFFFFF;stroke-miterlimit:10;}
	.st49{fill:none;stroke:#F6A915;stroke-miterlimit:10;}
	.st50{fill:none;stroke:#4B53E4;stroke-miterlimit:10;}
	.st51{fill:none;stroke:#F67215;stroke-width:1.3979;stroke-miterlimit:10;}
	.st52{fill:none;stroke:#FFFFFF;stroke-width:1.8593;stroke-miterlimit:10;}
	.st53{fill:none;stroke:#EFDDC9;stroke-width:0.9087;stroke-miterlimit:10;}
	.st54{opacity:0.14;clip-path:url(#SVGID_2_);}
	.st55{fill:none;stroke:#FFFFFF;stroke-width:3.5194;stroke-miterlimit:10;}
	.st56{opacity:0.14;clip-path:url(#SVGID_2_);fill:none;stroke:#FFFFFF;stroke-width:4.6663;stroke-miterlimit:10;}
	.st57{clip-path:url(#SVGID_2_);fill:#CDD0C4;}
</style>
<g id="BACKGROUND">
	<rect class="st0" width="900" height="500"/>
</g>
<g id="OBJECTS">
	<g>
		<defs>
			<polygon id="SVGID_1_" points="899.6,500 0,500 0,0 900,0 			"/>
		</defs>
		<clipPath id="SVGID_2_">
			<use xlink:href="#SVGID_1_"  style="overflow:visible;"/>
		</clipPath>
		<path class="st1" d="M705.3,120.6c0,0-139-29.2-167.3,117.9c-17.2,89.7,61.7,144.6,110.8,148.1
			c181.4,13.1,176.5-183.2,176.5-183.2"/>
		<g class="st2">
			<g>
				<path class="st3" d="M505.7,504.6c-0.6-0.3-1.2-0.5-1.8-0.8"/>
				<path class="st4" d="M500.3,502.1c-51.3-27-61.1-100.7-61.1-100.7l-1-18.1"/>
				<line class="st3" x1="438" y1="381.3" x2="437.9" y2="379.3"/>
			</g>
		</g>
		<g class="st2">
			<path class="st5" d="M466.9,381.7h-77.5c-2.6,0-4.7-2.1-4.7-4.7v-48.1c0-2.6,2.1-4.7,4.7-4.7h77.5c2.6,0,4.7,2.1,4.7,4.7V377
				C471.5,379.6,469.4,381.7,466.9,381.7z"/>
			<path class="st6" d="M463.2,361.3h-22.1c-1.6,0-2.8-1.3-2.8-2.8v-16.7c0-1.6,1.3-2.8,2.8-2.8h22.1c1.6,0,2.8,1.3,2.8,2.8v16.7
				C466,360.1,464.8,361.3,463.2,361.3z"/>
			<path class="st7" d="M471.3,328.7c0-2.6-2.1-4.7-4.7-4.7h-77.5c-2.6,0-4.7,2.1-4.7,4.7v0.8l86.8,0.5L471.3,328.7z"/>
			<polygon class="st8" points="465.2,374.1 463.1,387.8 468.2,383.3 475.2,383.8 			"/>
			<path class="st9" d="M421.2,341.5c3.7,0,7.4,0,11.1,0"/>
			<path class="st9" d="M391.2,341.5c9.3,0,18.5,0,27.8,0"/>
			<path class="st9" d="M410.1,346.2c7.4,0,14.8,0,22.2,0"/>
			<path class="st9" d="M391.2,346.2c5.5,0,11,0,16.5,0"/>
			<path class="st9" d="M427.4,350.8c1.6,0,3.2,0,4.9,0"/>
			<path class="st9" d="M391.2,350.8c11.1,0,23.2,0,34.1,0"/>
			<path class="st9" d="M410.4,355.2c7.3,0,14.6,0,21.9,0"/>
			<path class="st9" d="M391.2,355.2c5.7,0,11.4,0,17.1,0"/>
			<path class="st9" d="M417.8,360.1c4.8,0,9.7,0,14.5,0"/>
			<path class="st9" d="M391.2,360.1c8.1,0,16.2,0,24.3,0"/>
			<path class="st8" d="M416.1,371.8h-22c-1.6,0-3-1.3-3-3l0,0c0-1.6,1.3-3,3-3h22c1.6,0,3,1.3,3,3l0,0
				C419.1,370.5,417.7,371.8,416.1,371.8z"/>
		</g>
		<g class="st2">
			<path class="st10" d="M911.1,107.1h-52.4c-1.7,0-3.2-1.4-3.2-3.2V71.3c0-1.7,1.4-3.2,3.2-3.2h52.4c1.7,0,3.2,1.4,3.2,3.2v32.6
				C914.2,105.7,912.8,107.1,911.1,107.1z"/>
			<path class="st6" d="M908.6,93.3h-14.9c-1,0-1.9-0.9-1.9-1.9V80.1c0-1,0.9-1.9,1.9-1.9h14.9c1,0,1.9,0.9,1.9,1.9v11.3
				C910.5,92.4,909.7,93.3,908.6,93.3z"/>
			<path class="st7" d="M914.1,71.2c0-1.7-1.4-3.2-3.2-3.2h-52.4c-1.7,0-3.2,1.4-3.2,3.2v0.5l58.7,0.3L914.1,71.2z"/>
			<polygon class="st8" points="909.9,102 908.6,111.2 912,108.1 916.7,108.5 			"/>
			<path class="st11" d="M880.2,79.9c2.5,0,5,0,7.5,0"/>
			<path class="st11" d="M859.9,79.9c6.3,0,12.5,0,18.8,0"/>
			<path class="st11" d="M872.7,83c5,0,10,0,15,0"/>
			<path class="st11" d="M859.9,83c3.7,0,7.5,0,11.2,0"/>
			<path class="st11" d="M884.4,86.2c1.1,0,2.2,0,3.3,0"/>
			<path class="st11" d="M859.9,86.2c7.5,0,15.7,0,23.1,0"/>
			<path class="st11" d="M872.9,89.2c4.9,0,9.9,0,14.8,0"/>
			<path class="st11" d="M859.9,89.2c3.9,0,7.7,0,11.6,0"/>
			<path class="st11" d="M877.9,92.5c3.3,0,6.5,0,9.8,0"/>
			<path class="st11" d="M859.9,92.5c5.5,0,11,0,16.4,0"/>
			<path class="st8" d="M876.7,100.4h-14.9c-1.1,0-2-0.9-2-2l0,0c0-1.1,0.9-2,2-2h14.9c1.1,0,2,0.9,2,2l0,0
				C878.8,99.5,877.9,100.4,876.7,100.4z"/>
		</g>
		<path class="st12" d="M575,224.1c3.6-3.6,10.7-16.4,2.9-17.9c-7.8-1.4-29.2,35.7-36.7,30.3c-7.5-5.3,31.7-66.7,15-74.9
			c-10.2-5-20.9,2.7-31.1,9.7c-11.4,7.8-21.6,14.7-21.4,4.7c0.1-5,32.1-37,4.7-56.3c-15.2-10.7-43.1,5.4-69.8,20.9
			c-21.4,12.5-44.1,28.4-66.1,14.8C339.9,135.2,348,3.4,253.2-0.4H-3.5v428.4c0,0,19.4,78.6,128.8,67.2
			c109.3-11.3,196.9-133.1,210.9-143c20.9-14.9,39.5-8.5,29.8,12.6c-9.7,21.1,5.4,39,34.9,19.5c53.5-35.4,95-185.1,135.9-195.2
			c9.4-2.3-26.8,65-2.3,63.8c10.9-0.5,36-36.7,38.6-38.6c9.4-6.8,0.7,9.2,0.7,9.2L575,224.1z"/>
		<g class="st2">
			<g>
				<path d="M338.9,525.5c0.2,0.2,0.3,0.4,0.3,0.6c0,0.5,0.7,0.5,0.8,0c0-0.5-0.2-1-0.7-1.3C338.9,524.5,338.5,525.2,338.9,525.5
					L338.9,525.5z"/>
			</g>
		</g>
		<g class="st2">
			<path class="st0" d="M60.9,179.7c0-11.1,8.4-18.7,19.2-18.7c8,0,12.6,4.3,15.1,8.8l-6.6,3.3c-1.5-2.9-4.8-5.3-8.5-5.3
				c-6.6,0-11.3,5-11.3,11.9s4.8,11.9,11.3,11.9c3.7,0,7-2.3,8.5-5.3l6.6,3.2c-2.6,4.5-7.2,8.9-15.1,8.9
				C69.3,198.4,60.9,190.8,60.9,179.7z"/>
			<path class="st0" d="M97,197.8v-26.2h6.9v3.6c1.8-2.3,5.1-4.2,8.3-4.2v6.7c-0.5-0.1-1.1-0.2-1.9-0.2c-2.3,0-5.3,1.3-6.4,3v17.3
				H97z"/>
			<path class="st0" d="M112.1,184.7c0-7.6,5.6-13.7,13.5-13.7c7.8,0,13.1,5.9,13.1,14.4v1.5h-19.5c0.4,3.3,3.1,6.1,7.5,6.1
				c2.2,0,5.3-1,7-2.6l3,4.4c-2.6,2.4-6.7,3.6-10.8,3.6C118.2,198.4,112.1,193.1,112.1,184.7z M125.7,176.4c-4.3,0-6.1,3.2-6.4,5.8
				h12.9C132,179.7,130.2,176.4,125.7,176.4z"/>
			<path class="st0" d="M156.8,197.8v-2.7c-1.8,2.1-4.9,3.4-8.3,3.4c-4.2,0-9.1-2.8-9.1-8.7c0-6.1,4.9-8.5,9.1-8.5
				c3.5,0,6.6,1.1,8.3,3.2V181c0-2.7-2.3-4.4-5.7-4.4c-2.8,0-5.4,1-7.6,3.1l-2.6-4.6c3.2-2.8,7.3-4.1,11.4-4.1
				c6,0,11.4,2.4,11.4,9.9v16.9H156.8z M156.8,191.5v-3.3c-1.1-1.5-3.3-2.3-5.5-2.3c-2.7,0-4.9,1.4-4.9,4c0,2.4,2.2,3.8,4.9,3.8
				C153.5,193.8,155.7,193,156.8,191.5z"/>
			<path class="st0" d="M169.1,191.3v-13.7h-4.3v-6h4.3v-7.2h6.9v7.2h5.3v6h-5.3v11.8c0,1.6,0.9,2.9,2.4,2.9c1,0,2-0.4,2.4-0.8
				l1.5,5.2c-1,0.9-2.9,1.7-5.7,1.7C171.7,198.4,169.1,195.9,169.1,191.3z"/>
			<path class="st0" d="M182.7,164.7c0-2.3,1.9-4.1,4.1-4.1c2.3,0,4.1,1.8,4.1,4.1s-1.8,4.1-4.1,4.1
				C184.6,168.8,182.7,167,182.7,164.7z M183.4,197.8v-26.2h6.9v26.2H183.4z"/>
			<path class="st0" d="M201.2,197.8l-10.5-26.2h7.4l6.8,18.2l6.8-18.2h7.4l-10.5,26.2H201.2z"/>
			<path class="st0" d="M217.8,184.7c0-7.6,5.6-13.7,13.5-13.7c7.8,0,13.1,5.9,13.1,14.4v1.5H225c0.4,3.3,3.1,6.1,7.5,6.1
				c2.2,0,5.3-1,7-2.6l3,4.4c-2.6,2.4-6.7,3.6-10.8,3.6C223.8,198.4,217.8,193.1,217.8,184.7z M231.3,176.4c-4.3,0-6.1,3.2-6.4,5.8
				h12.9C237.6,179.7,235.9,176.4,231.3,176.4z"/>
		</g>
		<g class="st2">
			<path class="st0" d="M102.2,256.5l-8.8-34.3l-8.7,34.3H73.5l-14.3-49.9h11.9l8.8,36.1l9.5-36.1h8.3l9.4,36.1l8.7-36.1h12
				l-14.2,49.9H102.2z"/>
			<path class="st0" d="M125.4,238.3c0-10.5,7.7-18.9,18.7-18.9c10.8,0,18.1,8.1,18.1,19.9v2.1h-26.9c0.6,4.6,4.3,8.4,10.4,8.4
				c3.1,0,7.3-1.3,9.7-3.6l4.2,6.1c-3.6,3.3-9.3,5-14.9,5C133.7,257.4,125.4,249.9,125.4,238.3z M144.1,227c-5.9,0-8.5,4.4-8.9,8
				H153C152.8,231.5,150.4,227,144.1,227z"/>
			<path class="st0" d="M167.2,256.5v-49.9h9.5v18.4c2.8-3.7,6.9-5.5,11.2-5.5c9.2,0,16,7.2,16,19c0,12.1-6.9,18.9-16,18.9
				c-4.3,0-8.3-1.9-11.2-5.5v4.6H167.2z M184.9,248.9c5.5,0,9.2-4.2,9.2-10.5c0-6.3-3.7-10.6-9.2-10.6c-3.1,0-6.6,1.8-8.2,4.2v12.8
				C178.3,247.2,181.8,248.9,184.9,248.9z"/>
			<path class="st0" d="M226.7,256.5v-49.9h19.7c15.6,0,26.5,10,26.5,25c0,15-10.9,24.9-26.5,24.9H226.7z M262.1,231.5
				c0-8.8-5.4-15.6-15.6-15.6h-9.1v31.2h9.1C256.3,247.1,262.1,240,262.1,231.5z"/>
			<path class="st0" d="M276.1,238.3c0-10.5,7.7-18.9,18.7-18.9c10.8,0,18.1,8.1,18.1,19.9v2.1H286c0.6,4.6,4.3,8.4,10.4,8.4
				c3.1,0,7.3-1.3,9.7-3.6l4.2,6.1c-3.6,3.3-9.3,5-14.9,5C284.4,257.4,276.1,249.9,276.1,238.3z M294.8,227c-5.9,0-8.5,4.4-8.9,8
				h17.8C303.5,231.5,301.1,227,294.8,227z"/>
			<path class="st0" d="M314.8,251.7l4.1-6.7c2.6,2.5,8,4.9,12.5,4.9c4.1,0,6.1-1.6,6.1-3.9c0-6-21.5-1.1-21.5-15.3
				c0-6.1,5.3-11.4,14.8-11.4c6.1,0,11,2.1,14.6,4.9l-3.8,6.5c-2.2-2.3-6.3-4.2-10.7-4.2c-3.4,0-5.7,1.6-5.7,3.6
				c0,5.4,21.4,0.9,21.4,15.5c0,6.6-5.6,11.6-15.6,11.6C324.7,257.4,318.6,255.3,314.8,251.7z"/>
			<path class="st0" d="M350.8,210.7c0-3.1,2.6-5.6,5.7-5.6c3.1,0,5.7,2.5,5.7,5.6s-2.5,5.7-5.7,5.7
				C353.4,216.4,350.8,213.9,350.8,210.7z M351.8,256.5v-36.2h9.5v36.2H351.8z"/>
			<path class="st0" d="M368.1,265.7l4.3-6.9c2.9,3.2,6.7,4.5,11.3,4.5s10-2,10-9.1v-3.7c-2.8,3.6-6.7,5.7-11.2,5.7
				c-9.1,0-15.9-6.4-15.9-18.4c0-11.8,6.8-18.4,15.9-18.4c4.3,0,8.2,1.9,11.2,5.5v-4.6h9.6V254c0,13.8-10.6,17.1-19.5,17.1
				C377.4,271.1,372.7,269.7,368.1,265.7z M393.6,243.7V232c-1.6-2.4-5-4.1-8.2-4.1c-5.4,0-9.1,3.7-9.1,10s3.7,10,9.1,10
				C388.6,247.8,392,246,393.6,243.7z"/>
			<path class="st0" d="M435.2,256.5v-21.9c0-5-2.6-6.7-6.7-6.7c-3.7,0-6.7,2.1-8.2,4.3v24.3h-9.5v-36.2h9.5v4.7
				c2.3-2.8,6.7-5.6,12.7-5.6c7.9,0,11.8,4.5,11.8,11.5v25.5H435.2z"/>
		</g>
		<g class="st2">
			<g>
				<path class="st13" d="M439.8,42.7v-2.8h-3.1v2.8h-1.4V36h1.4v2.6h3.1V36h1.4v6.7H439.8z"/>
				<path class="st13" d="M441.7,40.3c0-1.4,1-2.5,2.5-2.5c1.6,0,2.6,1.2,2.6,2.5c0,1.4-1,2.5-2.6,2.5
					C442.7,42.8,441.7,41.7,441.7,40.3z M445.5,40.3c0-0.8-0.5-1.4-1.2-1.4c-0.8,0-1.2,0.6-1.2,1.4c0,0.8,0.4,1.4,1.2,1.4
					C445.1,41.7,445.5,41,445.5,40.3z"/>
				<path class="st13" d="M453.3,42.7v-3c0-0.4-0.2-0.8-0.7-0.8c-0.5,0-0.8,0.3-1,0.6v3.3h-1.3v-3c0-0.4-0.2-0.8-0.7-0.8
					c-0.4,0-0.8,0.3-1,0.6v3.2h-1.3v-4.8h1.3v0.6c0.2-0.3,0.8-0.7,1.6-0.7c0.7,0,1.2,0.3,1.3,0.9c0.3-0.4,0.9-0.9,1.7-0.9
					c0.9,0,1.4,0.5,1.4,1.5v3.5H453.3z"/>
				<path class="st13" d="M455,40.3c0-1.4,1-2.5,2.5-2.5c1.4,0,2.4,1.1,2.4,2.7v0.3h-3.6c0.1,0.6,0.6,1.1,1.4,1.1
					c0.4,0,1-0.2,1.3-0.5l0.6,0.8c-0.5,0.4-1.2,0.7-2,0.7C456.1,42.8,455,41.8,455,40.3z M457.5,38.8c-0.8,0-1.1,0.6-1.2,1.1h2.4
					C458.6,39.4,458.3,38.8,457.5,38.8z"/>
			</g>
		</g>
		<g class="st2">
			<path class="st14" d="M495.7,42.2l-0.4-1.1h-2.9l-0.4,1.1h-1.6l2.6-6.7h1.8l2.6,6.7H495.7z M493.8,36.9l-1,2.9h2.1L493.8,36.9z"
				/>
			<path class="st14" d="M497.4,42.2v-6.7h1.3V38c0.4-0.5,0.9-0.7,1.5-0.7c1.2,0,2.1,1,2.1,2.5c0,1.6-0.9,2.5-2.1,2.5
				c-0.6,0-1.1-0.3-1.5-0.7v0.6H497.4z M499.7,41.2c0.7,0,1.2-0.6,1.2-1.4s-0.5-1.4-1.2-1.4c-0.4,0-0.9,0.2-1.1,0.6v1.7
				C498.9,40.9,499.3,41.2,499.7,41.2z"/>
			<path class="st14" d="M502.4,39.7c0-1.4,1-2.5,2.5-2.5c1.6,0,2.6,1.2,2.6,2.5c0,1.4-1,2.5-2.6,2.5
				C503.4,42.3,502.4,41.1,502.4,39.7z M506.2,39.7c0-0.8-0.4-1.4-1.2-1.4c-0.8,0-1.2,0.6-1.2,1.4c0,0.8,0.4,1.4,1.2,1.4
				C505.8,41.2,506.2,40.5,506.2,39.7z"/>
			<path class="st14" d="M511.2,42.2v-0.6c-0.3,0.4-0.9,0.7-1.7,0.7c-1.1,0-1.6-0.6-1.6-1.5v-3.4h1.3v2.9c0,0.7,0.3,0.9,0.9,0.9
				c0.5,0,0.9-0.3,1.1-0.5v-3.3h1.3v4.8H511.2z"/>
			<path class="st14" d="M513.5,41v-2.5h-0.8v-1.1h0.8V36h1.3v1.3h1v1.1h-1v2.2c0,0.3,0.2,0.5,0.4,0.5c0.2,0,0.4-0.1,0.4-0.1l0.3,1
				c-0.2,0.2-0.5,0.3-1.1,0.3C514,42.3,513.5,41.8,513.5,41z"/>
			<path class="st14" d="M521.5,42.2v-0.6c-0.3,0.4-0.9,0.7-1.7,0.7c-1.1,0-1.6-0.6-1.6-1.5v-3.4h1.3v2.9c0,0.7,0.3,0.9,0.9,0.9
				c0.5,0,0.9-0.3,1.1-0.5v-3.3h1.3v4.8H521.5z"/>
			<path class="st14" d="M523.1,41.5l0.5-0.9c0.3,0.3,1.1,0.7,1.7,0.7c0.5,0,0.8-0.2,0.8-0.5c0-0.8-2.9-0.1-2.9-2
				c0-0.8,0.7-1.5,2-1.5c0.8,0,1.5,0.3,1.9,0.7l-0.5,0.9c-0.3-0.3-0.8-0.6-1.4-0.6c-0.5,0-0.8,0.2-0.8,0.5c0,0.7,2.9,0.1,2.9,2.1
				c0,0.9-0.8,1.5-2.1,1.5C524.4,42.3,523.6,42,523.1,41.5z"/>
		</g>
		<g class="st2">
			<path class="st13" d="M558.9,38.8c0-2.1,1.6-3.4,3.5-3.4c1.4,0,2.3,0.7,2.8,1.5l-1.2,0.6c-0.3-0.5-0.9-0.9-1.6-0.9
				c-1.2,0-2.1,0.9-2.1,2.2s0.9,2.2,2.1,2.2c0.6,0,1.1-0.3,1.4-0.5v-0.8h-1.8v-1.2h3.2V41c-0.7,0.8-1.6,1.3-2.8,1.3
				C560.5,42.3,558.9,40.9,558.9,38.8z"/>
			<path class="st13" d="M568.8,42.2v-0.5c-0.3,0.4-0.9,0.6-1.5,0.6c-0.8,0-1.7-0.5-1.7-1.6c0-1.1,0.9-1.6,1.7-1.6
				c0.6,0,1.2,0.2,1.5,0.6v-0.6c0-0.5-0.4-0.8-1.1-0.8c-0.5,0-1,0.2-1.4,0.6l-0.5-0.8c0.6-0.5,1.3-0.8,2.1-0.8
				c1.1,0,2.1,0.4,2.1,1.8v3.1H568.8z M568.8,41v-0.6c-0.2-0.3-0.6-0.4-1-0.4c-0.5,0-0.9,0.3-0.9,0.7c0,0.4,0.4,0.7,0.9,0.7
				C568.1,41.4,568.5,41.3,568.8,41z"/>
			<path class="st13" d="M570.8,42.2v-6.7h1.3v6.7H570.8z"/>
			<path class="st13" d="M572.8,42.2v-6.7h1.3v6.7H572.8z"/>
			<path class="st13" d="M574.5,39.7c0-1.4,1-2.5,2.5-2.5c1.4,0,2.4,1.1,2.4,2.7v0.3h-3.6c0.1,0.6,0.6,1.1,1.4,1.1
				c0.4,0,1-0.2,1.3-0.5l0.6,0.8c-0.5,0.4-1.2,0.7-2,0.7C575.6,42.3,574.5,41.3,574.5,39.7z M577,38.2c-0.8,0-1.1,0.6-1.2,1.1h2.4
				C578.2,38.8,577.9,38.2,577,38.2z"/>
			<path class="st13" d="M579.9,42.2v-4.8h1.3V38c0.3-0.4,0.9-0.8,1.5-0.8v1.2c-0.1,0-0.2,0-0.4,0c-0.4,0-1,0.2-1.2,0.5v3.2H579.9z"
				/>
			<path class="st13" d="M583,42.9c0.1,0,0.3,0.1,0.4,0.1c0.3,0,0.5-0.1,0.7-0.3l0.2-0.4l-2-4.9h1.4l1.3,3.4l1.3-3.4h1.4l-2.3,5.6
				c-0.4,0.9-1,1.1-1.8,1.2c-0.2,0-0.5,0-0.6-0.1L583,42.9z"/>
		</g>
		<g class="st2">
			<path class="st13" d="M614.6,38.8c0-2,1.5-3.4,3.5-3.4c1.5,0,2.3,0.8,2.8,1.6l-1.2,0.6c-0.3-0.5-0.9-1-1.6-1
				c-1.2,0-2.1,0.9-2.1,2.2s0.9,2.2,2.1,2.2c0.7,0,1.3-0.4,1.6-1l1.2,0.6c-0.5,0.8-1.3,1.6-2.8,1.6
				C616.2,42.3,614.6,40.9,614.6,38.8z"/>
			<path class="st13" d="M621,39.7c0-1.4,1-2.5,2.5-2.5c1.6,0,2.6,1.2,2.6,2.5c0,1.4-1,2.5-2.6,2.5C621.9,42.3,621,41.1,621,39.7z
				 M624.8,39.7c0-0.8-0.4-1.4-1.2-1.4c-0.8,0-1.2,0.6-1.2,1.4c0,0.8,0.4,1.4,1.2,1.4C624.3,41.2,624.8,40.5,624.8,39.7z"/>
			<path class="st13" d="M629.8,42.2v-2.9c0-0.7-0.3-0.9-0.9-0.9c-0.5,0-0.9,0.3-1.1,0.6v3.2h-1.3v-4.8h1.3V38
				c0.3-0.4,0.9-0.7,1.7-0.7c1.1,0,1.6,0.6,1.6,1.5v3.4H629.8z"/>
			<path class="st13" d="M632.1,41v-2.5h-0.8v-1.1h0.8V36h1.3v1.3h1v1.1h-1v2.2c0,0.3,0.2,0.5,0.4,0.5c0.2,0,0.4-0.1,0.4-0.1l0.3,1
				c-0.2,0.2-0.5,0.3-1.1,0.3C632.5,42.3,632.1,41.8,632.1,41z"/>
			<path class="st13" d="M637.6,42.2v-0.5c-0.3,0.4-0.9,0.6-1.5,0.6c-0.8,0-1.7-0.5-1.7-1.6c0-1.1,0.9-1.6,1.7-1.6
				c0.6,0,1.2,0.2,1.5,0.6v-0.6c0-0.5-0.4-0.8-1.1-0.8c-0.5,0-1,0.2-1.4,0.6l-0.5-0.8c0.6-0.5,1.3-0.8,2.1-0.8
				c1.1,0,2.1,0.4,2.1,1.8v3.1H637.6z M637.6,41v-0.6c-0.2-0.3-0.6-0.4-1-0.4c-0.5,0-0.9,0.3-0.9,0.7c0,0.4,0.4,0.7,0.9,0.7
				C637,41.4,637.4,41.3,637.6,41z"/>
			<path class="st13" d="M639.3,39.7c0-1.5,1.1-2.5,2.6-2.5c1,0,1.6,0.4,1.9,0.9l-0.8,0.8c-0.2-0.3-0.6-0.5-1-0.5
				c-0.8,0-1.3,0.6-1.3,1.4c0,0.8,0.5,1.4,1.3,1.4c0.4,0,0.8-0.2,1-0.5l0.8,0.8c-0.3,0.4-0.9,0.9-1.9,0.9
				C640.4,42.3,639.3,41.2,639.3,39.7z"/>
			<path class="st13" d="M644.4,41v-2.5h-0.8v-1.1h0.8V36h1.3v1.3h1v1.1h-1v2.2c0,0.3,0.2,0.5,0.4,0.5c0.2,0,0.4-0.1,0.4-0.1l0.3,1
				c-0.2,0.2-0.5,0.3-1.1,0.3C644.8,42.3,644.4,41.8,644.4,41z"/>
			<path class="st13" d="M652.3,42.2v-0.6c-0.3,0.4-0.9,0.7-1.7,0.7c-1.1,0-1.6-0.6-1.6-1.5v-3.4h1.3v2.9c0,0.7,0.3,0.9,0.9,0.9
				c0.5,0,0.9-0.3,1.1-0.5v-3.3h1.3v4.8H652.3z"/>
			<path class="st13" d="M653.9,41.5l0.5-0.9c0.3,0.3,1.1,0.7,1.7,0.7c0.5,0,0.8-0.2,0.8-0.5c0-0.8-2.9-0.1-2.9-2
				c0-0.8,0.7-1.5,2-1.5c0.8,0,1.5,0.3,1.9,0.7l-0.5,0.9c-0.3-0.3-0.8-0.6-1.4-0.6c-0.5,0-0.8,0.2-0.8,0.5c0,0.7,2.9,0.1,2.9,2.1
				c0,0.9-0.8,1.5-2.1,1.5C655.2,42.3,654.4,42,653.9,41.5z"/>
		</g>
		<g class="st2">
			<path class="st13" d="M693.5,41.2l0.8-1.1c0.5,0.5,1.2,0.9,2.1,0.9c0.8,0,1.2-0.4,1.2-0.7c0-1.2-3.8-0.4-3.8-2.9c0-1.1,1-2,2.5-2
				c1.1,0,1.9,0.3,2.6,0.9l-0.8,1c-0.5-0.5-1.3-0.7-1.9-0.7c-0.6,0-0.9,0.3-0.9,0.7c0,1.1,3.8,0.4,3.8,2.8c0,1.2-0.9,2.1-2.7,2.1
				C695,42.3,694.1,41.9,693.5,41.2z"/>
			<path class="st13" d="M699.1,39.7c0-1.4,1-2.5,2.5-2.5c1.4,0,2.4,1.1,2.4,2.7v0.3h-3.6c0.1,0.6,0.6,1.1,1.4,1.1
				c0.4,0,1-0.2,1.3-0.5l0.6,0.8c-0.5,0.4-1.2,0.7-2,0.7C700.2,42.3,699.1,41.3,699.1,39.7z M701.6,38.2c-0.8,0-1.1,0.6-1.2,1.1h2.4
				C702.8,38.8,702.4,38.2,701.6,38.2z"/>
			<path class="st13" d="M707.3,42.2v-0.5c-0.3,0.4-0.9,0.6-1.5,0.6c-0.8,0-1.7-0.5-1.7-1.6c0-1.1,0.9-1.6,1.7-1.6
				c0.6,0,1.2,0.2,1.5,0.6v-0.6c0-0.5-0.4-0.8-1.1-0.8c-0.5,0-1,0.2-1.4,0.6l-0.5-0.8c0.6-0.5,1.3-0.8,2.1-0.8
				c1.1,0,2.1,0.4,2.1,1.8v3.1H707.3z M707.3,41v-0.6c-0.2-0.3-0.6-0.4-1-0.4c-0.5,0-0.9,0.3-0.9,0.7c0,0.4,0.4,0.7,0.9,0.7
				C706.7,41.4,707.1,41.3,707.3,41z"/>
			<path class="st13" d="M709.4,42.2v-4.8h1.3V38c0.3-0.4,0.9-0.8,1.5-0.8v1.2c-0.1,0-0.2,0-0.4,0c-0.4,0-1,0.2-1.2,0.5v3.2H709.4z"
				/>
			<path class="st13" d="M712.2,39.7c0-1.5,1.1-2.5,2.6-2.5c1,0,1.6,0.4,1.9,0.9l-0.8,0.8c-0.2-0.3-0.6-0.5-1-0.5
				c-0.8,0-1.3,0.6-1.3,1.4c0,0.8,0.5,1.4,1.3,1.4c0.4,0,0.8-0.2,1-0.5l0.8,0.8c-0.3,0.4-0.9,0.9-1.9,0.9
				C713.2,42.3,712.2,41.2,712.2,39.7z"/>
			<path class="st13" d="M720.2,42.2v-2.9c0-0.7-0.3-0.9-0.9-0.9c-0.5,0-0.9,0.3-1.1,0.6v3.2H717v-6.7h1.3V38
				c0.3-0.4,0.9-0.7,1.7-0.7c1.1,0,1.6,0.6,1.6,1.5v3.4H720.2z"/>
		</g>
		<path class="st15" d="M115.1,326.2H66.8c-4.3,0-7.7-3.5-7.7-7.7v0c0-4.3,3.5-7.7,7.7-7.7h48.2c4.3,0,7.7,3.5,7.7,7.7v0
			C122.8,322.8,119.3,326.2,115.1,326.2z"/>
		<g class="st2">
			<path class="st8" d="M67.6,318.7c0-2.1,1.6-3.5,3.6-3.5c1.5,0,2.3,0.8,2.8,1.6l-1.2,0.6c-0.3-0.5-0.9-1-1.6-1
				c-1.2,0-2.1,0.9-2.1,2.2c0,1.3,0.9,2.2,2.1,2.2c0.7,0,1.3-0.4,1.6-1l1.2,0.6c-0.5,0.8-1.3,1.6-2.8,1.6
				C69.1,322.1,67.6,320.7,67.6,318.7z"/>
			<path class="st8" d="M74.2,322v-6.7h1.3v6.7H74.2z"/>
			<path class="st8" d="M76.1,315.9c0-0.4,0.4-0.8,0.8-0.8c0.4,0,0.8,0.3,0.8,0.8s-0.3,0.8-0.8,0.8
				C76.5,316.6,76.1,316.3,76.1,315.9z M76.3,322v-4.8h1.3v4.8H76.3z"/>
			<path class="st8" d="M78,319.6c0-1.5,1.1-2.5,2.6-2.5c1,0,1.6,0.4,1.9,0.9l-0.8,0.8c-0.2-0.3-0.6-0.5-1-0.5
				c-0.8,0-1.3,0.6-1.3,1.4c0,0.8,0.5,1.4,1.3,1.4c0.4,0,0.8-0.2,1-0.5l0.8,0.8c-0.3,0.5-0.9,0.9-1.9,0.9
				C79.1,322.1,78,321.1,78,319.6z"/>
			<path class="st8" d="M85.9,322l-1.3-1.9l-0.6,0.6v1.2h-1.3v-6.7h1.3v4l1.8-2.2h1.6l-1.9,2.2l2,2.6H85.9z"/>
			<path class="st8" d="M94.3,322v-2.8h-3.2v2.8h-1.4v-6.7h1.4v2.6h3.2v-2.6h1.4v6.7H94.3z"/>
			<path class="st8" d="M96.2,319.6c0-1.4,1-2.5,2.5-2.5c1.4,0,2.4,1.1,2.4,2.7v0.3h-3.6c0.1,0.6,0.6,1.1,1.4,1.1
				c0.4,0,1-0.2,1.3-0.5l0.6,0.8c-0.5,0.4-1.2,0.7-2,0.7C97.3,322.1,96.2,321.1,96.2,319.6z M98.7,318.1c-0.8,0-1.1,0.6-1.2,1.1h2.4
				C99.9,318.7,99.6,318.1,98.7,318.1z"/>
			<path class="st8" d="M101.6,322v-4.8h1.3v0.7c0.3-0.4,0.9-0.8,1.5-0.8v1.2c-0.1,0-0.2,0-0.4,0c-0.4,0-1,0.2-1.2,0.6v3.2H101.6z"
				/>
			<path class="st8" d="M104.4,319.6c0-1.4,1-2.5,2.5-2.5c1.4,0,2.4,1.1,2.4,2.7v0.3h-3.6c0.1,0.6,0.6,1.1,1.4,1.1
				c0.4,0,1-0.2,1.3-0.5l0.6,0.8c-0.5,0.4-1.2,0.7-2,0.7C105.5,322.1,104.4,321.1,104.4,319.6z M106.9,318.1c-0.8,0-1.1,0.6-1.2,1.1
				h2.4C108,318.7,107.7,318.1,106.9,318.1z"/>
		</g>
		<path class="st16" d="M853.2,45.4H750.7c-3.5,0-6.3-2.8-6.3-6.3v0c0-3.5,2.8-6.3,6.3-6.3h102.5c3.5,0,6.3,2.8,6.3,6.3v0
			C859.5,42.5,856.7,45.4,853.2,45.4z"/>
		<g class="st2">
			<circle class="st17" cx="813.1" cy="181.7" r="30.2"/>
			<circle class="st18" cx="815.6" cy="178.3" r="30.2"/>
			<polyline class="st19" points="799.8,184.2 807.2,191.6 829,169.8 			"/>
		</g>
		<g class="st2">
			<circle class="st20" cx="575.3" cy="357" r="26.5"/>
			<circle class="st21" cx="577.5" cy="354" r="26.5"/>
			<g>
				<circle class="st22" cx="574.7" cy="350" r="9.8"/>
				<path class="st22" d="M581.5,358.1l8.1,8.1L581.5,358.1z"/>
			</g>
		</g>
		<g class="st2">
			<g>
				<path class="st23" d="M678.4,199c0.7-1.9,1.1-3.9,1.2-5.9c0-1-1.5-1-1.5,0c-0.1,1.9-0.5,3.7-1.1,5.5
					C676.6,199.5,678.1,199.9,678.4,199L678.4,199z"/>
			</g>
		</g>
		<g class="st2">
			<path class="st24" d="M780.9,317.1l43.4,67.6c0,0,26.3-49.3,30.3-54.3c3.9-5.1,42,16.1,42,16.1s-21.7,44-32.7,69.3
				c-8.5,19.7-57.6,16.2-57.6,16.2l-37.1-54.3L780.9,317.1z"/>
			<path class="st23" d="M896.6,346.5c0,0-38.1-21.1-42-16.1c0,0,6.6-14.4,9.3-15.7c7.3-3.5,62.2,26.5,60.6,27.7
				c-3.3,2.5-25.9-1.9-25.9-1.9L896.6,346.5z"/>
			<path class="st24" d="M704,369.3c7,13.9,54.6,94.4,74.6,106.5c19.9,12.1,72.6-11.3,105.4-23L868.4,409l-61.7,16l-30.9-44.1
				c0,0,19.1-45.5,5.1-63.7L704,369.3z"/>
			<polygon class="st23" points="713.4,390 789.4,348.6 791.9,333.3 			"/>
			<path class="st7" d="M719,230.5c5.1-2.5,53,6.8,53,6.8l-5.2,36.9l-25-5.2L719,230.5z"/>
			<path class="st25" d="M766.8,274.3l-20.9-4.5l-17-28.1c0,0,6.9,2,13.2,7c0.3,0.3,12.8,8,13.1,8.3c5.5,4.6,13.6,1.8,13.6,1.8
				L766.8,274.3z"/>
			<path class="st26" d="M560.2,255.1c-6.2-4.6-10.8-13.6-10.6-19.1c0.2-5.5,3.4-11.5,6.6-12.6c3.2-1.1,3.4,2.8,2.5,5.7
				c-0.9,2.8-0.9,9-0.9,9L560.2,255.1z"/>
			<path class="st27" d="M558.6,229.1c-0.9,2.8-0.9,9-0.9,9l2.5,17c0,0-5-7.5-6.7-15.8S558.6,229.1,558.6,229.1z"/>
			<path class="st26" d="M642.7,199.7c-5,9.4,3.6,36.7,4.3,38.4c1.5,3.8,4.3,14.3,24.4,6.1l4.5,8.8c0,0,24.1-10.3,26-14
				c0,0-4.6-7.9-9.7-19.3c-4.8-10.6-9.9-24.6-18.3-26.8C656.4,188.4,647.3,191.1,642.7,199.7z"/>
			<path class="st23" d="M633.9,210.7c0,0,4.6,10.7,23.5,1.2c0,0,2.7,5.2,8.2,5.5l0.9,6.4l4.6-1.8c0,0,1.8,18,5.2,19.5
				c3.4,1.5,19.8-5.8,22-9.2c0.8-1.3-1.6-14.4-2.1-20.7c-0.8-10.6-0.6-21-11.1-15.7c0,0-3.6-8.1-7.3-10.2s-7.5,1.8-7.5,1.8
				s-3.4-9.5-13.1-8.2c-9.8,1.2-11.9,7.3-11.9,7.3s-14.6-11.3-25.6,3.4c-8.4,11.1,3.1,23.2,9.2,22L633.9,210.7z"/>
			<path class="st26" d="M574.4,243.8c-4.1,0.7-8-3.4-9-5.1c-1.1-1.8,0.4-3.8,5.7-10.3c3.9-4.8-0.2-7.1-4.6-5c0,0-9.4,4.4-11.3,11.2
				c-2.6,9,6.4,23,6.4,23s8,25.7,25.9,47.5c14.2,17.3,26.8,14.5,34,14.4c7.3-0.2,29.6-9.9,29.6-9.9l-21.8-31l-15.2,6.2
				c-12.8-11-26.8-36.5-26.8-36.5L574.4,243.8z"/>
			<path class="st27" d="M571,228.4c-5.3,6.5-6.7,8.5-5.7,10.3c1.1,1.8,5,5.8,9,5.1l-6.7,2.3l-1.9,4.2c0,0-4.3-7.5-3.3-12.3
				C563.5,233,571,228.4,571,228.4z"/>
			<path class="st27" d="M629.1,278.5l21.8,31c0,0-8.1,3.5-16.2,6.4c-1.7,0.6,4.4-2.4,3.5-7.8C636.6,297,629.1,278.5,629.1,278.5z"
				/>
			<path class="st26" d="M772,237.9c-0.3,0.1,17.9,4.8,22.8,2.5c6.8-3.3,16.5-26.5,16.5-26.5s-3.8-12.8-1.2-14
				c2.6-1.2,4.9,5.5,4.9,5.5s4.1-21.2,6.7-20.9c2.6,0.3,3.6,4.6,3.6,10.7c0,0,0.8,2.2,1.3-0.2c0.6-2.3,1.9-10.1,4.5-11
				c2.6-0.9,4.3,7.7,2.8,13.5c0,0,5.1-10,6.5-9.7c1.5,0.3,3.3,6.5,0.1,13.5c0,0,4.2-5.5,5.7-4.6c1.5,0.9,0.5,9.7-7.1,21.1
				c0,0-3.1,37.9-29.8,53.3c-9.3,5.4-20.9,6.1-31.1,4.4c-6.7-1.1-11.4-2.4-11.4-2.4L772,237.9z"/>
			<path class="st26" d="M669.5,225.1c2.2-6.7,4.1-7.7,7.3-3.9c3.2,3.8-0.6,11.5-5,11.2C667.3,232.1,669.5,225.1,669.5,225.1z"/>
			<path class="st23" d="M868.4,409c0,0,15.1-5.8,18.4-4.4c3.3,1.5,29.1,62.2,27.7,70.6c-1.5,8.4-24.6-24.8-24.6-24.8l-5.9,2.3
				L868.4,409z"/>
			<path class="st7" d="M627.8,274.9c0.6,5.5,20.4,35.6,23.1,34.6c1.8-0.6,14.9-7.3,14.9-7.3c-0.2,0.1,23.7,54.5,45.1,89
				c0,0,66-41.7,89.2-64.3c0,0-73.3-92.2-81.2-96.4l-62.2,30.8L627.8,274.9z"/>
			<g>
				<g>
					<path class="st23" d="M783,360.8c-1.7,7-4.1,13.6-7.5,19.9c-0.1,0.2-0.2,0.6,0,0.8c10.2,14.6,20.3,29.3,30.5,43.9
						c0.2,0.3,0.5,0.5,0.9,0.4c19.5-5.2,39-10.3,58.5-15.5c1-0.3,0.6-1.8-0.4-1.6c-17.2,4.6-34.4,9.1-51.6,13.7
						c-2,0.5-4.8,1.9-6.8,1.8c1.3,0,0.6,0.5,0-0.8c-0.6-1.3-1.8-2.6-2.6-3.8c-6.1-8.8-12.2-17.6-18.4-26.4
						c-2.5-3.6-5.7-7.2-7.7-11.1c-1.1-2.2-0.3-1.7,1.1-4.6c2.5-5.2,4.3-10.7,5.6-16.3C784.8,360.2,783.3,359.8,783,360.8L783,360.8z
						"/>
				</g>
			</g>
			<g>
				<path class="st23" d="M792.7,404.9l-16.5-23.7c1.9-3.5,3.5-7.1,4.8-10.8C782.2,367.2,792.7,404.9,792.7,404.9z"/>
			</g>
			<path class="st27" d="M778.2,275.5c-6.7-1.1-11.4-2.4-11.4-2.4l5.2-35.2c0,0,0.6,24,3.1,29.5
				C776.9,271.3,778.2,275.5,778.2,275.5z"/>
			<path class="st7" d="M564.8,252.8l1-3.7l1.1-4.3l4.1-16.4c0,0,0.9-2.9,4.1-5.4c0.5-0.4,1-0.7,1.5-1.1c0,0,0.4,0.6,0.9,1.7
				c0.7,1.5,1.4,3.8,1.3,6.6c-0.1,2.7-1.5,10.4-2.7,16.5c-0.3,1.6-0.6,3.2-0.9,4.5c-0.5,2.5-0.9,4.2-0.9,4.2s-3,1.5-5.5,1.1
				C566.3,256,564.8,252.8,564.8,252.8z"/>
			<path class="st28" d="M578.8,230.2c0.1-2.8-0.6-5.2-1.3-6.6c-0.5-1.1-0.9-1.7-0.9-1.7c-0.6,0.3-1.1,0.7-1.5,1.1
				c-3.2,2.6-4.1,5.4-4.1,5.4l2.4-1.6l0.8,1.3l1.8-1.1l1.2,2.5l1.1-1.2L578.8,230.2z"/>
			<path d="M577.5,223.5c-0.5-1.1-0.9-1.7-0.9-1.7c-0.6,0.3-1.1,0.7-1.5,1.1L577.5,223.5z"/>
			<path class="st29" d="M575.2,251.2c0.3-1.3,0.6-2.9,0.9-4.5c-0.6-0.6-1.9-1.6-3.8-2.1c-2.5-0.7-4.6-0.1-5.4,0.2
				c-0.4,1.4-0.7,2.9-1.1,4.3L575.2,251.2z"/>
			<path class="st30" d="M575.2,251.2c-0.5,2.5-0.9,4.2-0.9,4.2s-3,1.5-5.5,1.1c-2.5-0.4-4-3.6-4-3.6l1-3.7c0,0,1.6-1.6,5-0.9
				C574.3,248.9,575.2,251.2,575.2,251.2z"/>
			<path class="st26" d="M587.1,248.2c1.9-6.4-2.1-11-5.3-16.1c-3.2-5.1-5.1-4.6-6.6-3.5c-1.2,0.9,2,11,0.3,14.3
				c-0.9,1.7-1.6,3.6-1.7,5.5c-0.1,3.8,0.3,8.7,3.2,9.4c1,0.3,0.9-9.8,2-9.7C583.1,248.6,587.1,248.2,587.1,248.2z"/>
		</g>
		<path class="st31" d="M405.4,513.8h-11.3c-11.1,0-20-9-20-20v0c0-11.1,9-20,20-20h2.2c11.1,0,20,9,20,20v18.9
			c0,0.5-0.3,0.9-0.7,0.9C413.2,513.6,405.5,513.8,405.4,513.8z"/>
		<polygon class="st32" points="528.4,471.9 527.3,479.3 533.9,477.1 		"/>
		<polygon class="st32" points="732.6,179.1 731.1,188.8 739.8,185.9 		"/>
		<polygon class="st32" points="9,241.4 7.6,251.2 16.2,248.3 		"/>
		<polygon class="st32" points="422.6,299.5 421.2,309.2 429.8,306.4 		"/>
		<circle class="st33" cx="386.1" cy="142.1" r="3.1"/>
		<circle class="st34" cx="324.2" cy="115.2" r="1.9"/>
		<circle class="st33" cx="515.2" cy="385.9" r="2.9"/>
		<circle class="st33" cx="146.1" cy="452.1" r="2.9"/>
		<polyline class="st35" points="871.6,-3 880.1,-1.7 878.2,4.6 885.7,5.9 884.6,12.8 891.9,13.7 890.4,19.8 		"/>
		<rect x="502.9" y="289.1" transform="matrix(0.866 -0.5 0.5 0.866 -78.8636 293.1357)" class="st36" width="9.3" height="9.3"/>
		<rect x="474.5" y="144.5" transform="matrix(0.866 -0.5 0.5 0.866 -9.7058 258.3652)" class="st15" width="5.5" height="5.5"/>
		<polyline class="st37" points="466.5,210 470.4,212.1 468.4,214.8 471.8,216.6 470.1,219.8 473.5,221.4 471.8,224.1 		"/>
		<polyline class="st38" points="-2,21.9 3.4,22.7 2.2,26.6 6.9,27.4 6.3,31.8 10.9,32.3 9.9,36.2 		"/>
		<g class="st2">
			<path class="st39" d="M695,494.1l58.3-30.4c0,0,9.7,2.9,14.4,10.7s4.1,20.4,7.7,23.5c7.1,6.1,22.5,4.9,25.6,26.8l-54.7,34
				c0,0-4.5-7.9-8-9.6c-5.6-2.8-15.5-4.5-21.6-12c-4.9-6-3.9-20-8-29.2C704.5,498.5,695,494.1,695,494.1z"/>
			<g>
				<g>
					<path class="st40" d="M715.1,499.8c13.8-6.1,25.6-16.4,39.2-22.8c1.4-0.7,0.2-2.7-1.2-2.1c-13.7,6.5-25.4,16.7-39.2,22.8
						C712.5,498.4,713.7,500.4,715.1,499.8L715.1,499.8z"/>
				</g>
			</g>
			<g>
				<g>
					<path class="st40" d="M719.1,508.7c13.8-6.1,25.6-16.4,39.2-22.8c1.4-0.7,0.2-2.7-1.2-2.1c-13.7,6.5-25.4,16.7-39.2,22.8
						C716.5,507.2,717.7,509.3,719.1,508.7L719.1,508.7z"/>
				</g>
			</g>
			<g>
				<g>
					<path class="st40" d="M723,519.5c13.8-6.1,25.6-16.4,39.2-22.8c1.4-0.7,0.2-2.7-1.2-2.1c-13.7,6.5-25.4,16.7-39.2,22.8
						C720.4,518,721.6,520.1,723,519.5L723,519.5z"/>
				</g>
			</g>
			<g>
				<g>
					<path class="st40" d="M727.4,531c13.8-6.1,25.6-16.4,39.2-22.8c1.4-0.7,0.2-2.7-1.2-2.1c-13.7,6.5-25.4,16.7-39.2,22.8
						C724.8,529.6,726,531.7,727.4,531L727.4,531z"/>
				</g>
			</g>
			<g>
				<g>
					<path class="st40" d="M738.4,536c13.8-6.1,25.6-16.4,39.2-22.8c1.4-0.7,0.2-2.7-1.2-2.1c-13.7,6.5-25.4,16.7-39.2,22.8
						C735.8,534.6,737,536.6,738.4,536L738.4,536z"/>
				</g>
			</g>
			<g>
				<g>
					<path class="st40" d="M749.4,542.6c13.8-6.1,25.6-16.4,39.2-22.8c1.4-0.7,0.2-2.7-1.2-2.1c-13.7,6.5-25.4,16.7-39.2,22.8
						C746.8,541.2,748,543.2,749.4,542.6L749.4,542.6z"/>
				</g>
			</g>
		</g>
		<g class="st2">
			<path class="st3" d="M617.5,466.7c-2.4-0.9-4-2.9-3.3-5.4l0.7-2.7l6.1-22.2c0.2-0.6,0.5-1.2,1-1.6l3.8-3.1l1-0.8
				c0.5-0.4,1.2-0.2,1.4,0.4l0.4,1.2l1.5,4.1c0.2,0.6,0.3,1.2,0.1,1.9l-5.8,22.3l-0.8,3c-0.2,0.9-0.7,1.8-1.3,2.4
				c-1,1-2.2,1.3-4.4,0.7C617.8,466.8,617.6,466.7,617.5,466.7z"/>
			<path class="st6" d="M628.6,432.4l-0.4-1.2c-0.2-0.6-0.9-0.8-1.4-0.4l-1,0.8c0,0,0.1,0.6,1,0.8S628.6,432.4,628.6,432.4z"/>
			<path class="st3" d="M624.4,460.6l-0.8,3.2c-0.2,0.9-0.7,1.8-1.4,2.4c-1,0.9-2.2,1.2-4.2,0.6c-0.2,0-0.3-0.1-0.4-0.1
				c-2.4-0.9-4-2.9-3.3-5.4l0.7-2.7c0,0,2.4-1.1,4.2-0.8C623.3,458.3,624.4,460.6,624.4,460.6z"/>
			<path class="st3" d="M615.4,462.7c0.9-0.7,5-1.2,6.7,2"/>
			<polyline class="st3" points="622,436.7 623.6,437.6 625.7,437.2 627.6,438.3 629.2,437.7 			"/>
			<path class="st3" d="M616.9,454.5c0,0,4.8-2.2,8.2,2.4"/>
			<line class="st3" x1="623.8" y1="453.1" x2="627.6" y2="438.3"/>
			<line class="st3" x1="619.4" y1="454.2" x2="623.1" y2="439.3"/>
		</g>
		<g class="st2">
			<path class="st41" d="M923.8,452.2c2.1,2.7,2.4,6.1-0.1,8.4l-2.7,2.5l-29.7,27.8c-0.6,0.6-1.4,0.9-2.3,1.1l-6.5,0.8l-1.7,0.2
				c-0.8,0.1-1.5-0.6-1.3-1.4l0.3-1.7l1.2-5.7c0.2-0.8,0.6-1.6,1.2-2.2l29.4-28l3-2.9c0.9-0.9,2-1.5,3.2-1.8
				c1.8-0.4,3.5,0.1,5.4,2.3C923.5,451.9,923.7,452,923.8,452.2z"/>
			<path class="st27" d="M879.9,489.9l-0.3,1.7c-0.2,0.8,0.5,1.5,1.3,1.4l1.7-0.2c0,0,0.3-0.8-0.6-1.6
				C881.1,490.4,879.9,489.9,879.9,489.9z"/>
			<path class="st41" d="M911.7,454l3.2-3c0.9-0.9,2.1-1.5,3.3-1.7c1.7-0.3,3.3,0.3,5.2,2.4c0.1,0.2,0.3,0.3,0.4,0.5
				c2.1,2.7,2.4,6.1-0.1,8.4l-2.7,2.5c0,0-3.5-0.4-5.3-2C911.4,457.4,911.7,454,911.7,454z"/>
			<path class="st41" d="M923.3,458.1c-1.6,0.2-6.5-2.2-6.2-7"/>
			<polyline class="st41" points="890.4,489.7 889.2,487.6 886.5,486.6 885.3,484 883,483.5 			"/>
			<path class="st41" d="M915.9,466.3c0,0-7-1-7.5-8.6"/>
			<line class="st41" x1="907.1" y1="462.9" x2="885.3" y2="484"/>
			<line class="st41" x1="912.8" y1="464.9" x2="891" y2="486"/>
		</g>
		<g class="st2">
			<path class="st42" d="M951.3,224.1h-56.9l-8.7,5.5l-0.6-5.5c-2.2,0-4-1.8-4-4v-14.8c0-2.2,1.8-4,4-4h66.2c2.2,0,4,1.8,4,4v14.8
				C955.3,222.4,953.5,224.1,951.3,224.1z"/>
			<line class="st42" x1="891" y1="209.9" x2="946.5" y2="209.9"/>
			<line class="st42" x1="891" y1="216" x2="946.5" y2="216"/>
		</g>
		<g class="st2">
			<path class="st43" d="M528.7,108.7H543l4.8,3.1l0.3-3.1c1.2,0,2.2-1,2.2-2.2v-8.2c0-1.2-1-2.2-2.2-2.2h-19.3
				c-1.2,0-2.2,1-2.2,2.2v8.2C526.5,107.8,527.5,108.7,528.7,108.7z"/>
			<line class="st43" x1="544.8" y1="100.9" x2="531.4" y2="100.9"/>
			<line class="st43" x1="544.8" y1="104.3" x2="531.4" y2="104.3"/>
		</g>
		<g class="st2">
			<path class="st44" d="M301.6,511H265c-2.7,0-4.8-2.2-4.8-4.8v-20.6c0-2.7,2.2-4.8,4.8-4.8h36.6c2.7,0,4.8,2.2,4.8,4.8v20.6
				C306.4,508.8,304.2,511,301.6,511z"/>
			<path class="st17" d="M266.2,505.5c0,0,9.3-14.3,10.6-14.3c1.3,0,12.6,14.5,12.6,14.5L266.2,505.5z"/>
			<path class="st17" d="M283.9,495.9l7.3,9.1h8.7v-5.2c0,0-8.2-7.7-10.4-9.1C288.8,491.4,283.9,496.3,283.9,495.9z"/>
			<circle class="st7" cx="271" cy="488.2" r="2.4"/>
		</g>
		<g class="st45">
			<path class="st46" d="M57.5,481H17c-2.9,0-5.3-2.4-5.3-5.3v-22.8c0-2.9,2.4-5.3,5.3-5.3h40.5c2.9,0,5.3,2.4,5.3,5.3v22.8
				C62.8,478.6,60.4,481,57.5,481z"/>
			<path class="st46" d="M19.4,474.9c-0.5,0-0.7-0.5-0.5-0.9c2.2-3.3,10-15,11.2-15c1.4,0,13.9,16.1,13.9,16.1L19.4,474.9z"/>
			<path class="st46" d="M36.2,465l8,10.1l10.8-0.2c0.3,0,0.6-0.3,0.6-0.6l0.1-5.4c0-0.2-0.1-0.3-0.2-0.5c-1.4-1.1-9-7.2-12-9.4
				c-0.4-0.3-1.1-0.3-1.4,0.1C40.3,460.9,36.2,465,36.2,465z"/>
			<circle class="st46" cx="23.7" cy="455.8" r="2.7"/>
		</g>
		<circle class="st47" cx="832.5" cy="329" r="2.1"/>
		<circle class="st47" cx="657.8" cy="333.4" r="2.1"/>
		<circle class="st47" cx="647.5" cy="498.7" r="2.1"/>
		<circle class="st47" cx="533.7" cy="126" r="2.1"/>
		<g class="st2">
			<line class="st48" x1="15.2" y1="413.2" x2="18.6" y2="423"/>
			<line class="st48" x1="12.5" y1="420.2" x2="21.4" y2="416.5"/>
		</g>
		<g class="st2">
			<line class="st48" x1="319.9" y1="49.6" x2="323.3" y2="59.4"/>
			<line class="st48" x1="317.2" y1="56.6" x2="326.1" y2="52.9"/>
		</g>
		<g class="st2">
			<line class="st48" x1="391" y1="362.1" x2="394.4" y2="371.9"/>
			<line class="st48" x1="388.3" y1="369.1" x2="397.3" y2="365.4"/>
		</g>
		<g class="st2">
			<line class="st49" x1="766.2" y1="116.4" x2="769.6" y2="126.2"/>
			<line class="st49" x1="763.5" y1="123.4" x2="772.4" y2="119.7"/>
		</g>
		<g class="st2">
			<line class="st49" x1="705" y1="439.9" x2="708.4" y2="449.7"/>
			<line class="st49" x1="702.3" y1="446.9" x2="711.2" y2="443.2"/>
		</g>
		<g class="st2">
			<line class="st49" x1="881.2" y1="274.7" x2="884.6" y2="284.5"/>
			<line class="st49" x1="878.5" y1="281.7" x2="887.4" y2="278"/>
		</g>
		<g class="st2">
			<line class="st50" x1="330.4" y1="441.5" x2="333.8" y2="451.2"/>
			<line class="st50" x1="327.7" y1="448.5" x2="336.6" y2="444.7"/>
		</g>
		<g class="st2">
			<g>
				<circle class="st7" cx="633.4" cy="126.5" r="23.2"/>
				<circle class="st51" cx="635.1" cy="123.5" r="23.2"/>
			</g>
			<g>
				<path class="st52" d="M645.2,122.7c0,4.2-1.9,7.8-5.4,9.6c-1.6,0.8-3,7.3-3,7.3l-6.8-0.1c0,0-1.1-6.9-2.3-7.7
					c-2.9-2-4.8-5.3-4.8-9.1c0-6.1,5-11.1,11.1-11.1C640.3,111.6,645.2,116.5,645.2,122.7z"/>
				<polyline class="st52" points="631,131.7 629.3,121.7 633.6,124.1 637.8,121.7 636.2,131.7 				"/>
				<line class="st52" x1="627.8" y1="131.8" x2="639.9" y2="131.8"/>
				<line class="st52" x1="629.8" y1="135.5" x2="637.8" y2="135.5"/>
			</g>
		</g>
		<g class="st2">
			<g>
				<path class="st23" d="M634.5,159.8c0.5,0,0.5-0.8,0-0.8C634,159,634,159.8,634.5,159.8L634.5,159.8z"/>
			</g>
		</g>
		<g class="st2">
			<path class="st53" d="M402.7,493.2c0.1,3.2-1.1,5.9-3.7,7.4c-1.1,0.7-2,5.5-2,5.5l-5.1,0.1c0,0-1.1-5.1-2-5.6
				c-2.2-1.4-3.7-3.8-3.9-6.6c-0.2-4.6,3.3-8.5,7.9-8.7C398.6,485.1,402.4,488.7,402.7,493.2z"/>
			<polyline class="st53" points="391.7,500.5 390.9,492.9 394.2,494.5 397.3,492.6 397.3,500.5 			"/>
			<line class="st53" x1="390.4" y1="500.9" x2="398.6" y2="500.8"/>
			<line class="st53" x1="391.6" y1="503.4" x2="397.6" y2="503.1"/>
		</g>
		<g class="st54">
			<circle class="st55" cx="278.9" cy="391.6" r="9.8"/>
			<path class="st55" d="M285.8,399.7l8.1,8.1L285.8,399.7z"/>
		</g>
		<polyline class="st56" points="-7,117.4 0.4,124.8 22.2,103 		"/>
		<g class="st2">
			<path class="st0" d="M59.8,282.1v-6.7h2.6c2.1,0,3.5,1.3,3.5,3.3s-1.4,3.3-3.5,3.3H59.8z M64.5,278.7c0-1.2-0.7-2.1-2.1-2.1h-1.2
				v4.2h1.2C63.7,280.8,64.5,279.9,64.5,278.7z"/>
			<path class="st0" d="M66.3,279.6c0-1.4,1-2.5,2.5-2.5c1.4,0,2.4,1.1,2.4,2.7v0.3h-3.6c0.1,0.6,0.6,1.1,1.4,1.1
				c0.4,0,1-0.2,1.3-0.5l0.6,0.8c-0.5,0.4-1.2,0.7-2,0.7C67.5,282.2,66.3,281.2,66.3,279.6z M68.8,278.1c-0.8,0-1.1,0.6-1.2,1.1H70
				C70,278.7,69.7,278.1,68.8,278.1z"/>
			<path class="st0" d="M71.5,281.4l0.5-0.9c0.3,0.3,1.1,0.7,1.7,0.7c0.5,0,0.8-0.2,0.8-0.5c0-0.8-2.9-0.2-2.9-2
				c0-0.8,0.7-1.5,2-1.5c0.8,0,1.5,0.3,1.9,0.7l-0.5,0.9c-0.3-0.3-0.8-0.6-1.4-0.6c-0.5,0-0.8,0.2-0.8,0.5c0,0.7,2.9,0.1,2.9,2.1
				c0,0.9-0.7,1.5-2.1,1.5C72.8,282.2,72,281.9,71.5,281.4z"/>
			<path class="st0" d="M76.1,279.6c0-1.5,1.1-2.5,2.6-2.5c1,0,1.6,0.4,1.9,0.9l-0.8,0.8c-0.2-0.3-0.6-0.5-1-0.5
				c-0.8,0-1.3,0.6-1.3,1.4c0,0.8,0.5,1.4,1.3,1.4c0.4,0,0.8-0.2,1-0.5l0.8,0.8c-0.3,0.5-0.9,0.9-1.9,0.9
				C77.2,282.2,76.1,281.1,76.1,279.6z"/>
			<path class="st0" d="M81.2,282.1v-4.8h1.3v0.7c0.3-0.4,0.9-0.8,1.5-0.8v1.2c-0.1,0-0.2,0-0.3,0c-0.4,0-1,0.2-1.2,0.5v3.2H81.2z"
				/>
			<path class="st0" d="M84.4,276c0-0.4,0.4-0.8,0.8-0.8c0.4,0,0.8,0.3,0.8,0.8s-0.3,0.8-0.8,0.8C84.8,276.7,84.4,276.4,84.4,276z
				 M84.5,282.1v-4.8h1.3v4.8H84.5z"/>
			<path class="st0" d="M88.1,281.4v2.5h-1.3v-6.7h1.3v0.6c0.4-0.5,0.9-0.7,1.5-0.7c1.2,0,2.1,0.9,2.1,2.5c0,1.6-0.9,2.5-2.1,2.5
				C89,282.2,88.5,281.9,88.1,281.4z M90.4,279.6c0-0.8-0.5-1.4-1.2-1.4c-0.4,0-0.9,0.2-1.1,0.5v1.7c0.2,0.3,0.7,0.5,1.1,0.5
				C89.9,281.1,90.4,280.5,90.4,279.6z"/>
			<path class="st0" d="M92.7,280.9v-2.5h-0.8v-1.1h0.8v-1.3h1.3v1.3h1v1.1h-1v2.2c0,0.3,0.2,0.5,0.4,0.5c0.2,0,0.4-0.1,0.4-0.1
				l0.3,1c-0.2,0.2-0.5,0.3-1.1,0.3C93.1,282.2,92.7,281.7,92.7,280.9z"/>
			<path class="st0" d="M95.4,276c0-0.4,0.4-0.8,0.8-0.8c0.4,0,0.8,0.3,0.8,0.8s-0.3,0.8-0.8,0.8C95.8,276.7,95.4,276.4,95.4,276z
				 M95.5,282.1v-4.8h1.3v4.8H95.5z"/>
			<path class="st0" d="M97.5,279.6c0-1.4,1-2.5,2.5-2.5c1.6,0,2.6,1.2,2.6,2.5c0,1.4-1,2.5-2.6,2.5C98.5,282.2,97.5,281,97.5,279.6
				z M101.3,279.6c0-0.7-0.4-1.4-1.2-1.4s-1.2,0.7-1.2,1.4c0,0.8,0.4,1.4,1.2,1.4S101.3,280.4,101.3,279.6z"/>
			<path class="st0" d="M106.6,282.1v-2.9c0-0.7-0.3-0.9-0.9-0.9c-0.5,0-0.9,0.3-1.1,0.6v3.2h-1.3v-4.8h1.3v0.6
				c0.3-0.4,0.9-0.8,1.7-0.8c1.1,0,1.6,0.6,1.6,1.5v3.4H106.6z"/>
			<path class="st0" d="M110.8,279.6c0-1.4,1-2.5,2.5-2.5c1.6,0,2.6,1.2,2.6,2.5c0,1.4-1,2.5-2.6,2.5
				C111.8,282.2,110.8,281,110.8,279.6z M114.6,279.6c0-0.7-0.4-1.4-1.2-1.4s-1.2,0.7-1.2,1.4c0,0.8,0.4,1.4,1.2,1.4
				S114.6,280.4,114.6,279.6z"/>
			<path class="st0" d="M116.9,282.1v-3.7h-0.8v-1.1h0.8V277c0-1,0.7-1.7,1.6-1.7c0.5,0,0.9,0.1,1.3,0.5l-0.5,0.7
				c-0.1-0.1-0.3-0.2-0.5-0.2c-0.4,0-0.6,0.2-0.6,0.7v0.3h1v1.1h-1v3.7H116.9z"/>
			<path class="st0" d="M121.6,281.4l0.5-0.9c0.3,0.3,1.1,0.7,1.7,0.7c0.5,0,0.8-0.2,0.8-0.5c0-0.8-2.9-0.2-2.9-2
				c0-0.8,0.7-1.5,2-1.5c0.8,0,1.5,0.3,1.9,0.7l-0.5,0.9c-0.3-0.3-0.8-0.6-1.4-0.6c-0.5,0-0.8,0.2-0.8,0.5c0,0.7,2.9,0.1,2.9,2.1
				c0,0.9-0.7,1.5-2.1,1.5C122.9,282.2,122.1,281.9,121.6,281.4z"/>
			<path class="st0" d="M126.2,279.6c0-1.4,1-2.5,2.5-2.5c1.4,0,2.4,1.1,2.4,2.7v0.3h-3.6c0.1,0.6,0.6,1.1,1.4,1.1
				c0.4,0,1-0.2,1.3-0.5l0.6,0.8c-0.5,0.4-1.2,0.7-2,0.7C127.3,282.2,126.2,281.2,126.2,279.6z M128.7,278.1c-0.8,0-1.1,0.6-1.2,1.1
				h2.4C129.8,278.7,129.5,278.1,128.7,278.1z"/>
			<path class="st0" d="M131.8,282.1v-4.8h1.3v0.7c0.3-0.4,0.9-0.8,1.5-0.8v1.2c-0.1,0-0.2,0-0.3,0c-0.4,0-1,0.2-1.2,0.5v3.2H131.8z
				"/>
			<path class="st0" d="M136.4,282.1l-1.9-4.8h1.4l1.3,3.4l1.3-3.4h1.4l-1.9,4.8H136.4z"/>
			<path class="st0" d="M139.9,276c0-0.4,0.4-0.8,0.8-0.8c0.4,0,0.8,0.3,0.8,0.8s-0.3,0.8-0.8,0.8
				C140.2,276.7,139.9,276.4,139.9,276z M140,282.1v-4.8h1.3v4.8H140z"/>
			<path class="st0" d="M142,279.6c0-1.5,1.1-2.5,2.6-2.5c1,0,1.6,0.4,1.9,0.9l-0.8,0.8c-0.2-0.3-0.6-0.5-1-0.5
				c-0.8,0-1.3,0.6-1.3,1.4c0,0.8,0.5,1.4,1.3,1.4c0.4,0,0.8-0.2,1-0.5l0.8,0.8c-0.3,0.5-0.9,0.9-1.9,0.9
				C143,282.2,142,281.1,142,279.6z"/>
			<path class="st0" d="M146.7,279.6c0-1.4,1-2.5,2.5-2.5c1.4,0,2.4,1.1,2.4,2.7v0.3H148c0.1,0.6,0.6,1.1,1.4,1.1
				c0.4,0,1-0.2,1.3-0.5l0.6,0.8c-0.5,0.4-1.2,0.7-2,0.7C147.8,282.2,146.7,281.2,146.7,279.6z M149.2,278.1c-0.8,0-1.1,0.6-1.2,1.1
				h2.4C150.4,278.7,150,278.1,149.2,278.1z"/>
			<path class="st0" d="M151.9,281.4l0.5-0.9c0.3,0.3,1.1,0.7,1.7,0.7c0.5,0,0.8-0.2,0.8-0.5c0-0.8-2.9-0.2-2.9-2
				c0-0.8,0.7-1.5,2-1.5c0.8,0,1.5,0.3,1.9,0.7l-0.5,0.9c-0.3-0.3-0.8-0.6-1.4-0.6c-0.5,0-0.8,0.2-0.8,0.5c0,0.7,2.9,0.1,2.9,2.1
				c0,0.9-0.7,1.5-2.1,1.5C153.2,282.2,152.4,281.9,151.9,281.4z"/>
			<path class="st0" d="M157.3,283.4l-0.5-0.4c0.3-0.2,0.7-0.6,0.8-0.9c0,0-0.1,0-0.2,0c-0.4,0-0.7-0.3-0.7-0.7
				c0-0.4,0.4-0.8,0.8-0.8c0.5,0,0.9,0.4,0.9,1C158.3,282.3,157.9,283,157.3,283.4z"/>
			<path class="st0" d="M165.7,282.1l-1-3.3l-1,3.3h-1.4l-1.5-4.8h1.3l0.9,3.2l1.1-3.2h1.1l1.1,3.2l0.9-3.2h1.3l-1.5,4.8H165.7z"/>
			<path class="st0" d="M172.1,282.1v-2.9c0-0.7-0.4-0.9-0.9-0.9c-0.5,0-0.9,0.3-1.1,0.6v3.2h-1.3v-6.7h1.3v2.5
				c0.3-0.4,0.9-0.8,1.7-0.8c1.1,0,1.6,0.6,1.6,1.5v3.4H172.1z"/>
			<path class="st0" d="M174.1,279.6c0-1.4,1-2.5,2.5-2.5c1.6,0,2.6,1.2,2.6,2.5c0,1.4-1,2.5-2.6,2.5
				C175.1,282.2,174.1,281,174.1,279.6z M177.9,279.6c0-0.7-0.4-1.4-1.2-1.4c-0.8,0-1.2,0.7-1.2,1.4c0,0.8,0.4,1.4,1.2,1.4
				C177.5,281.1,177.9,280.4,177.9,279.6z"/>
			<path class="st0" d="M186.5,282.1l-1-3.3l-1,3.3h-1.4l-1.5-4.8h1.3l0.9,3.2l1.1-3.2h1.1l1.1,3.2l0.9-3.2h1.3l-1.5,4.8H186.5z"/>
			<path class="st0" d="M189.4,279.6c0-1.4,1-2.5,2.5-2.5c1.4,0,2.4,1.1,2.4,2.7v0.3h-3.6c0.1,0.6,0.6,1.1,1.4,1.1
				c0.4,0,1-0.2,1.3-0.5l0.6,0.8c-0.5,0.4-1.2,0.7-2,0.7C190.5,282.2,189.4,281.2,189.4,279.6z M191.9,278.1c-0.8,0-1.1,0.6-1.2,1.1
				h2.4C193,278.7,192.7,278.1,191.9,278.1z"/>
			<path class="st0" d="M200.2,282.1v-0.5c-0.3,0.4-0.9,0.6-1.5,0.6c-0.8,0-1.7-0.5-1.7-1.6c0-1.1,0.9-1.6,1.7-1.6
				c0.6,0,1.2,0.2,1.5,0.6V279c0-0.5-0.4-0.8-1.1-0.8c-0.5,0-1,0.2-1.4,0.6l-0.5-0.8c0.6-0.5,1.3-0.8,2.1-0.8c1.1,0,2.1,0.4,2.1,1.8
				v3.1H200.2z M200.2,280.9v-0.6c-0.2-0.3-0.6-0.4-1-0.4c-0.5,0-0.9,0.3-0.9,0.7c0,0.5,0.4,0.7,0.9,0.7
				C199.5,281.3,199.9,281.2,200.2,280.9z"/>
			<path class="st0" d="M202.4,282.1v-4.8h1.3v0.7c0.3-0.4,0.9-0.8,1.5-0.8v1.2c-0.1,0-0.2,0-0.3,0c-0.4,0-1,0.2-1.2,0.5v3.2H202.4z
				"/>
			<path class="st0" d="M205.5,279.6c0-1.4,1-2.5,2.5-2.5c1.4,0,2.4,1.1,2.4,2.7v0.3h-3.6c0.1,0.6,0.6,1.1,1.4,1.1
				c0.4,0,1-0.2,1.3-0.5l0.6,0.8c-0.5,0.4-1.2,0.7-2,0.7C206.6,282.2,205.5,281.2,205.5,279.6z M208,278.1c-0.8,0-1.1,0.6-1.2,1.1
				h2.4C209.1,278.7,208.8,278.1,208,278.1z"/>
			<path class="st0" d="M216.3,282.1v-0.5c-0.3,0.4-0.9,0.6-1.5,0.6c-0.8,0-1.7-0.5-1.7-1.6c0-1.1,0.9-1.6,1.7-1.6
				c0.6,0,1.2,0.2,1.5,0.6V279c0-0.5-0.4-0.8-1.1-0.8c-0.5,0-1,0.2-1.4,0.6l-0.5-0.8c0.6-0.5,1.3-0.8,2.1-0.8c1.1,0,2.1,0.4,2.1,1.8
				v3.1H216.3z M216.3,280.9v-0.6c-0.2-0.3-0.6-0.4-1-0.4c-0.5,0-0.9,0.3-0.9,0.7c0,0.5,0.4,0.7,0.9,0.7
				C215.7,281.3,216.1,281.2,216.3,280.9z"/>
			<path class="st0" d="M218.1,281.4l0.5-0.9c0.3,0.3,1.1,0.7,1.7,0.7c0.5,0,0.8-0.2,0.8-0.5c0-0.8-2.9-0.2-2.9-2
				c0-0.8,0.7-1.5,2-1.5c0.8,0,1.5,0.3,1.9,0.7l-0.5,0.9c-0.3-0.3-0.8-0.6-1.4-0.6c-0.5,0-0.8,0.2-0.8,0.5c0,0.7,2.9,0.1,2.9,2.1
				c0,0.9-0.7,1.5-2.1,1.5C219.5,282.2,218.6,281.9,218.1,281.4z"/>
			<path class="st0" d="M228.3,282.1v-0.5c-0.3,0.4-0.9,0.6-1.5,0.6c-0.8,0-1.7-0.5-1.7-1.6c0-1.1,0.9-1.6,1.7-1.6
				c0.6,0,1.2,0.2,1.5,0.6V279c0-0.5-0.4-0.8-1.1-0.8c-0.5,0-1,0.2-1.4,0.6l-0.5-0.8c0.6-0.5,1.3-0.8,2.1-0.8c1.1,0,2.1,0.4,2.1,1.8
				v3.1H228.3z M228.3,280.9v-0.6c-0.2-0.3-0.6-0.4-1-0.4c-0.5,0-0.9,0.3-0.9,0.7c0,0.5,0.4,0.7,0.9,0.7
				C227.7,281.3,228.1,281.2,228.3,280.9z"/>
			<path class="st0" d="M232.6,279.6c0-1.5,1.1-2.5,2.6-2.5c1,0,1.6,0.4,1.9,0.9l-0.8,0.8c-0.2-0.3-0.6-0.5-1-0.5
				c-0.8,0-1.3,0.6-1.3,1.4c0,0.8,0.5,1.4,1.3,1.4c0.4,0,0.8-0.2,1-0.5l0.8,0.8c-0.3,0.5-0.9,0.9-1.9,0.9
				C233.6,282.2,232.6,281.1,232.6,279.6z"/>
			<path class="st0" d="M237.3,279.6c0-1.4,1-2.5,2.5-2.5c1.6,0,2.6,1.2,2.6,2.5c0,1.4-1,2.5-2.6,2.5
				C238.3,282.2,237.3,281,237.3,279.6z M241.1,279.6c0-0.7-0.4-1.4-1.2-1.4s-1.2,0.7-1.2,1.4c0,0.8,0.4,1.4,1.2,1.4
				S241.1,280.4,241.1,279.6z"/>
			<path class="st0" d="M249.1,282.1v-3c0-0.5-0.2-0.8-0.7-0.8c-0.5,0-0.8,0.3-1,0.6v3.3h-1.3v-3c0-0.5-0.2-0.8-0.7-0.8
				c-0.4,0-0.8,0.3-1,0.6v3.2h-1.3v-4.8h1.3v0.6c0.2-0.3,0.8-0.8,1.6-0.8c0.7,0,1.2,0.3,1.3,0.9c0.3-0.4,0.9-0.9,1.7-0.9
				c0.9,0,1.4,0.5,1.4,1.5v3.5H249.1z"/>
			<path class="st0" d="M252.6,281.4v2.5h-1.3v-6.7h1.3v0.6c0.4-0.5,0.9-0.7,1.5-0.7c1.2,0,2.1,0.9,2.1,2.5c0,1.6-0.9,2.5-2.1,2.5
				C253.6,282.2,253,281.9,252.6,281.4z M255,279.6c0-0.8-0.5-1.4-1.2-1.4c-0.4,0-0.9,0.2-1.1,0.5v1.7c0.2,0.3,0.7,0.5,1.1,0.5
				C254.5,281.1,255,280.5,255,279.6z"/>
			<path class="st0" d="M259.9,282.1v-0.5c-0.3,0.4-0.9,0.6-1.5,0.6c-0.8,0-1.7-0.5-1.7-1.6c0-1.1,0.9-1.6,1.7-1.6
				c0.6,0,1.2,0.2,1.5,0.6V279c0-0.5-0.4-0.8-1.1-0.8c-0.5,0-1,0.2-1.4,0.6l-0.5-0.8c0.6-0.5,1.3-0.8,2.1-0.8c1.1,0,2.1,0.4,2.1,1.8
				v3.1H259.9z M259.9,280.9v-0.6c-0.2-0.3-0.6-0.4-1-0.4c-0.5,0-0.9,0.3-0.9,0.7c0,0.5,0.4,0.7,0.9,0.7
				C259.2,281.3,259.6,281.2,259.9,280.9z"/>
			<path class="st0" d="M265.4,282.1v-2.9c0-0.7-0.3-0.9-0.9-0.9c-0.5,0-0.9,0.3-1.1,0.6v3.2h-1.3v-4.8h1.3v0.6
				c0.3-0.4,0.9-0.8,1.7-0.8c1.1,0,1.6,0.6,1.6,1.5v3.4H265.4z"/>
			<path class="st0" d="M267.7,282.8c0.1,0,0.3,0.1,0.4,0.1c0.3,0,0.5-0.1,0.7-0.3l0.2-0.4l-2-4.9h1.4l1.3,3.4l1.3-3.4h1.4l-2.3,5.6
				c-0.4,0.9-1,1.1-1.8,1.2c-0.1,0-0.5,0-0.6-0.1L267.7,282.8z"/>
			<path class="st0" d="M277.8,282.1v-0.5c-0.3,0.4-0.9,0.6-1.5,0.6c-0.8,0-1.7-0.5-1.7-1.6c0-1.1,0.9-1.6,1.7-1.6
				c0.6,0,1.2,0.2,1.5,0.6V279c0-0.5-0.4-0.8-1.1-0.8c-0.5,0-1,0.2-1.4,0.6l-0.5-0.8c0.6-0.5,1.3-0.8,2.1-0.8c1.1,0,2.1,0.4,2.1,1.8
				v3.1H277.8z M277.8,280.9v-0.6c-0.2-0.3-0.6-0.4-1-0.4c-0.5,0-0.9,0.3-0.9,0.7c0,0.5,0.4,0.7,0.9,0.7
				C277.2,281.3,277.6,281.2,277.8,280.9z"/>
			<path class="st0" d="M283.3,282.1v-2.9c0-0.7-0.3-0.9-0.9-0.9c-0.5,0-0.9,0.3-1.1,0.6v3.2H280v-4.8h1.3v0.6
				c0.3-0.4,0.9-0.8,1.7-0.8c1.1,0,1.6,0.6,1.6,1.5v3.4H283.3z"/>
			<path class="st0" d="M288.9,282.1v-0.6c-0.4,0.5-0.9,0.7-1.5,0.7c-1.2,0-2.1-0.9-2.1-2.5c0-1.6,0.9-2.5,2.1-2.5
				c0.6,0,1.1,0.3,1.5,0.7v-2.5h1.3v6.7H288.9z M288.9,280.5v-1.7c-0.2-0.3-0.7-0.5-1.1-0.5c-0.7,0-1.2,0.6-1.2,1.4
				c0,0.8,0.5,1.4,1.2,1.4C288.2,281.1,288.7,280.8,288.9,280.5z"/>
			<path class="st0" d="M293.1,281.4l0.5-0.9c0.3,0.3,1.1,0.7,1.7,0.7c0.5,0,0.8-0.2,0.8-0.5c0-0.8-2.9-0.2-2.9-2
				c0-0.8,0.7-1.5,2-1.5c0.8,0,1.5,0.3,1.9,0.7l-0.5,0.9c-0.3-0.3-0.8-0.6-1.4-0.6c-0.5,0-0.8,0.2-0.8,0.5c0,0.7,2.9,0.1,2.9,2.1
				c0,0.9-0.7,1.5-2.1,1.5C294.4,282.2,293.6,281.9,293.1,281.4z"/>
			<path class="st0" d="M297.7,279.6c0-1.4,1-2.5,2.5-2.5c1.6,0,2.6,1.2,2.6,2.5c0,1.4-1,2.5-2.6,2.5
				C298.7,282.2,297.7,281,297.7,279.6z M301.5,279.6c0-0.7-0.4-1.4-1.2-1.4s-1.2,0.7-1.2,1.4c0,0.8,0.4,1.4,1.2,1.4
				S301.5,280.4,301.5,279.6z"/>
			<path class="st0" d="M309.5,282.1v-3c0-0.5-0.2-0.8-0.7-0.8c-0.5,0-0.8,0.3-1,0.6v3.3h-1.3v-3c0-0.5-0.2-0.8-0.7-0.8
				c-0.4,0-0.8,0.3-1,0.6v3.2h-1.3v-4.8h1.3v0.6c0.2-0.3,0.8-0.8,1.6-0.8c0.7,0,1.2,0.3,1.3,0.9c0.3-0.4,0.9-0.9,1.7-0.9
				c0.9,0,1.4,0.5,1.4,1.5v3.5H309.5z"/>
			<path class="st0" d="M311.5,279.6c0-1.4,1-2.5,2.5-2.5c1.4,0,2.4,1.1,2.4,2.7v0.3h-3.6c0.1,0.6,0.6,1.1,1.4,1.1
				c0.4,0,1-0.2,1.3-0.5l0.6,0.8c-0.5,0.4-1.2,0.7-2,0.7C312.6,282.2,311.5,281.2,311.5,279.6z M314,278.1c-0.8,0-1.1,0.6-1.2,1.1
				h2.4C315.1,278.7,314.8,278.1,314,278.1z"/>
			<path class="st0" d="M60,294.1v-3.7h-0.8v-1.1H60V289c0-1,0.7-1.7,1.6-1.7c0.4,0,0.7,0.1,0.9,0.2l-0.3,0.9
				c-0.1-0.1-0.2-0.1-0.4-0.1c-0.4,0-0.6,0.2-0.6,0.7v0.3h1v1.1h-1v3.7H60z M62.9,288c0-0.4,0.3-0.8,0.8-0.8c0.4,0,0.8,0.3,0.8,0.8
				s-0.3,0.8-0.8,0.8C63.2,288.7,62.9,288.4,62.9,288z M63,294.1v-4.8h1.3v4.8H63z"/>
			<path class="st0" d="M65.3,294.1v-6.7h1.3v6.7H65.3z"/>
			<path class="st0" d="M67.6,294.1v-6.7h1.3v6.7H67.6z"/>
			<path class="st0" d="M69.5,291.6c0-1.4,1-2.5,2.5-2.5c1.4,0,2.4,1.1,2.4,2.7v0.3h-3.6c0.1,0.6,0.6,1.1,1.4,1.1
				c0.4,0,1-0.2,1.3-0.5l0.6,0.8c-0.5,0.4-1.2,0.7-2,0.7C70.6,294.2,69.5,293.2,69.5,291.6z M72,290.1c-0.8,0-1.1,0.6-1.2,1.1h2.4
				C73.2,290.7,72.9,290.1,72,290.1z"/>
			<path class="st0" d="M75.1,294.1v-4.8h1.3v0.7c0.3-0.4,0.9-0.8,1.5-0.8v1.2c-0.1,0-0.2,0-0.3,0c-0.4,0-1,0.2-1.2,0.5v3.2H75.1z"
				/>
			<path class="st0" d="M81,292.9v-2.5h-0.8v-1.1H81v-1.3h1.3v1.3h1v1.1h-1v2.2c0,0.3,0.2,0.5,0.4,0.5c0.2,0,0.4-0.1,0.4-0.1l0.3,1
				c-0.2,0.2-0.5,0.3-1.1,0.3C81.5,294.2,81,293.7,81,292.9z"/>
			<path class="st0" d="M83.6,291.6c0-1.4,1-2.5,2.5-2.5c1.4,0,2.4,1.1,2.4,2.7v0.3h-3.6c0.1,0.6,0.6,1.1,1.4,1.1
				c0.4,0,1-0.2,1.3-0.5l0.6,0.8c-0.5,0.4-1.2,0.7-2,0.7C84.7,294.2,83.6,293.2,83.6,291.6z M86.1,290.1c-0.8,0-1.1,0.6-1.2,1.1h2.4
				C87.2,290.7,86.9,290.1,86.1,290.1z"/>
			<path class="st0" d="M92.2,294.1l-1.1-1.6l-1.1,1.6h-1.4l1.7-2.5l-1.6-2.3h1.4l1,1.5l1-1.5h1.4l-1.6,2.3l1.7,2.5H92.2z"/>
			<path class="st0" d="M94.2,292.9v-2.5h-0.8v-1.1h0.8v-1.3h1.3v1.3h1v1.1h-1v2.2c0,0.3,0.2,0.5,0.4,0.5c0.2,0,0.4-0.1,0.4-0.1
				l0.3,1c-0.2,0.2-0.5,0.3-1.1,0.3C94.7,294.2,94.2,293.7,94.2,292.9z"/>
			<path class="st0" d="M102.3,294.1v-0.5c-0.3,0.4-0.9,0.6-1.5,0.6c-0.8,0-1.7-0.5-1.7-1.6c0-1.1,0.9-1.6,1.7-1.6
				c0.6,0,1.2,0.2,1.5,0.6V291c0-0.5-0.4-0.8-1.1-0.8c-0.5,0-1,0.2-1.4,0.6l-0.5-0.8c0.6-0.5,1.3-0.8,2.1-0.8c1.1,0,2.1,0.4,2.1,1.8
				v3.1H102.3z M102.3,292.9v-0.6c-0.2-0.3-0.6-0.4-1-0.4c-0.5,0-0.9,0.3-0.9,0.7c0,0.5,0.4,0.7,0.9,0.7
				C101.7,293.3,102.1,293.2,102.3,292.9z"/>
			<path class="st0" d="M104.6,294.1v-6.7h1.3v2.5c0.4-0.5,0.9-0.7,1.5-0.7c1.2,0,2.1,1,2.1,2.5c0,1.6-0.9,2.5-2.1,2.5
				c-0.6,0-1.1-0.3-1.5-0.7v0.6H104.6z M106.9,293.1c0.7,0,1.2-0.6,1.2-1.4c0-0.8-0.5-1.4-1.2-1.4c-0.4,0-0.9,0.2-1.1,0.6v1.7
				C106.1,292.8,106.5,293.1,106.9,293.1z"/>
			<path class="st0" d="M109.9,291.6c0-1.4,1-2.5,2.5-2.5c1.6,0,2.6,1.2,2.6,2.5c0,1.4-1,2.5-2.6,2.5
				C110.9,294.2,109.9,293,109.9,291.6z M113.7,291.6c0-0.7-0.4-1.4-1.2-1.4c-0.8,0-1.2,0.7-1.2,1.4c0,0.8,0.4,1.4,1.2,1.4
				C113.2,293.1,113.7,292.4,113.7,291.6z"/>
			<path class="st0" d="M118.9,294.1v-0.6c-0.3,0.4-0.9,0.7-1.7,0.7c-1.1,0-1.6-0.6-1.6-1.5v-3.4h1.3v2.9c0,0.7,0.3,0.9,0.9,0.9
				c0.5,0,0.9-0.3,1.1-0.5v-3.3h1.3v4.8H118.9z"/>
			<path class="st0" d="M121.5,292.9v-2.5h-0.8v-1.1h0.8v-1.3h1.3v1.3h1v1.1h-1v2.2c0,0.3,0.2,0.5,0.4,0.5c0.2,0,0.4-0.1,0.4-0.1
				l0.3,1c-0.2,0.2-0.5,0.3-1.1,0.3C122,294.2,121.5,293.7,121.5,292.9z"/>
			<path class="st0" d="M126.9,292.9v-2.5h-0.8v-1.1h0.8v-1.3h1.3v1.3h1v1.1h-1v2.2c0,0.3,0.2,0.5,0.4,0.5c0.2,0,0.4-0.1,0.4-0.1
				l0.3,1c-0.2,0.2-0.5,0.3-1.1,0.3C127.4,294.2,126.9,293.7,126.9,292.9z"/>
			<path class="st0" d="M133.1,294.1v-2.9c0-0.7-0.4-0.9-0.9-0.9c-0.5,0-0.9,0.3-1.1,0.6v3.2h-1.3v-6.7h1.3v2.5
				c0.3-0.4,0.9-0.8,1.7-0.8c1.1,0,1.6,0.6,1.6,1.5v3.4H133.1z"/>
			<path class="st0" d="M135,291.6c0-1.4,1-2.5,2.5-2.5c1.4,0,2.4,1.1,2.4,2.7v0.3h-3.6c0.1,0.6,0.6,1.1,1.4,1.1
				c0.4,0,1-0.2,1.3-0.5l0.6,0.8c-0.5,0.4-1.2,0.7-2,0.7C136.1,294.2,135,293.2,135,291.6z M137.5,290.1c-0.8,0-1.1,0.6-1.2,1.1h2.4
				C138.7,290.7,138.4,290.1,137.5,290.1z"/>
			<path class="st0" d="M142.6,291.6c0-1.5,1.1-2.5,2.6-2.5c1,0,1.6,0.4,1.9,0.9l-0.8,0.8c-0.2-0.3-0.6-0.5-1-0.5
				c-0.8,0-1.3,0.6-1.3,1.4c0,0.8,0.5,1.4,1.3,1.4c0.4,0,0.8-0.2,1-0.5l0.8,0.8c-0.3,0.5-0.9,0.9-1.9,0.9
				C143.7,294.2,142.6,293.1,142.6,291.6z"/>
			<path class="st0" d="M147.4,291.6c0-1.4,1-2.5,2.5-2.5c1.6,0,2.6,1.2,2.6,2.5c0,1.4-1,2.5-2.6,2.5
				C148.3,294.2,147.4,293,147.4,291.6z M151.2,291.6c0-0.7-0.4-1.4-1.2-1.4s-1.2,0.7-1.2,1.4c0,0.8,0.4,1.4,1.2,1.4
				S151.2,292.4,151.2,291.6z"/>
			<path class="st0" d="M159.2,294.1v-3c0-0.5-0.2-0.8-0.7-0.8c-0.5,0-0.8,0.3-1,0.6v3.3h-1.3v-3c0-0.5-0.2-0.8-0.7-0.8
				c-0.4,0-0.8,0.3-1,0.6v3.2h-1.3v-4.8h1.3v0.6c0.2-0.3,0.8-0.8,1.6-0.8c0.7,0,1.2,0.3,1.3,0.9c0.3-0.4,0.9-0.9,1.7-0.9
				c0.9,0,1.4,0.5,1.4,1.5v3.5H159.2z"/>
			<path class="st0" d="M162.7,293.4v2.5h-1.3v-6.7h1.3v0.6c0.4-0.5,0.9-0.7,1.5-0.7c1.2,0,2.1,0.9,2.1,2.5c0,1.6-0.9,2.5-2.1,2.5
				C163.6,294.2,163.1,293.9,162.7,293.4z M165,291.6c0-0.8-0.5-1.4-1.2-1.4c-0.4,0-0.9,0.2-1.1,0.5v1.7c0.2,0.3,0.7,0.5,1.1,0.5
				C164.5,293.1,165,292.5,165,291.6z"/>
			<path class="st0" d="M169.9,294.1v-0.5c-0.3,0.4-0.9,0.6-1.5,0.6c-0.8,0-1.7-0.5-1.7-1.6c0-1.1,0.9-1.6,1.7-1.6
				c0.6,0,1.2,0.2,1.5,0.6V291c0-0.5-0.4-0.8-1.1-0.8c-0.5,0-1,0.2-1.4,0.6l-0.5-0.8c0.6-0.5,1.3-0.8,2.1-0.8c1.1,0,2.1,0.4,2.1,1.8
				v3.1H169.9z M169.9,292.9v-0.6c-0.2-0.3-0.6-0.4-1-0.4c-0.5,0-0.9,0.3-0.9,0.7c0,0.5,0.4,0.7,0.9,0.7
				C169.3,293.3,169.7,293.2,169.9,292.9z"/>
			<path class="st0" d="M175.5,294.1v-2.9c0-0.7-0.3-0.9-0.9-0.9c-0.5,0-0.9,0.3-1.1,0.6v3.2h-1.3v-4.8h1.3v0.6
				c0.3-0.4,0.9-0.8,1.7-0.8c1.1,0,1.6,0.6,1.6,1.5v3.4H175.5z"/>
			<path class="st0" d="M177.8,294.8c0.1,0,0.3,0.1,0.4,0.1c0.3,0,0.5-0.1,0.7-0.3l0.2-0.4l-2-4.9h1.4l1.3,3.4l1.3-3.4h1.4l-2.3,5.6
				c-0.4,0.9-1,1.1-1.8,1.2c-0.1,0-0.5,0-0.6-0.1L177.8,294.8z"/>
		</g>
		<circle class="st57" cx="709" cy="121.7" r="3.3"/>
	</g>
	<g>
		
			<ellipse transform="matrix(6.628469e-03 -1 1 6.628469e-03 83.1165 130.0286)" class="st0" cx="107" cy="23.2" rx="10.6" ry="10.2"/>
	</g>
	<path class="st24" d="M96.4,23.2c0-5.7,4.6-9.5,10.5-9.5c6,0,10.5,3.9,10.5,9.5s-4.6,9.5-10.5,9.5C101,32.7,96.4,28.9,96.4,23.2z
		 M111.6,23.2c0-2.6-1.8-4.6-4.6-4.6c-2.8,0-4.6,2-4.6,4.6s1.8,4.6,4.6,4.6C109.8,27.8,111.6,25.8,111.6,23.2z"/>
	<g>
		<g>
			<path class="st24" d="M59.3,23.2c0-6.4,4.9-10.3,10.9-10.3c4.7,0,7.5,2.6,8.7,5.2l-5.1,2.6c-0.6-1.2-1.9-2.5-3.7-2.5
				c-2.9,0-4.8,2.2-4.8,5s1.9,5,4.8,5c1.1,0,2.5-0.4,3.1-0.9v-0.7h-3.7v-5.2h9.7v8.1c-2.2,2.4-5.2,4-9.1,4
				C64.2,33.5,59.3,29.6,59.3,23.2z"/>
			<path class="st24" d="M82,33.1V13.3h6v14.6h7.5v5.2H82z"/>
			<path class="st24" d="M134.6,33.1l-2.6-11.2l-2.6,11.2h-6.3l-5.7-19.8h6.7l2.6,12.1l3-12.1h4.5l3,12.1l2.5-12.1h6.8L141,33.1
				H134.6z"/>
			<path class="st24" d="M158.8,33.1l-2.7-6.2h-2.2v6.2h-6V13.3h10.6c4.6,0,7.1,3.1,7.1,6.8c0,3.4-2,5.2-3.6,6l3.6,7H158.8z
				 M159.5,20.1c0-1.1-1-1.5-2-1.5h-3.7v3.1h3.7C158.5,21.7,159.5,21.2,159.5,20.1z"/>
			<path class="st24" d="M168,33.1V13.3h15v5.2h-9v2h8.8v5.2H174v2.2h9v5.2H168z"/>
			<path class="st24" d="M184.2,30.3l3.1-4.5c1.5,1.4,3.7,2.6,6.4,2.6c1.1,0,2.2-0.3,2.2-1.1c0-1.9-11.1,0-11.1-7.8
				c0-3.4,2.8-6.6,8.2-6.6c3.2,0,6.2,0.9,8.4,2.8l-3.2,4.3c-1.7-1.3-4-2-5.8-2c-1.2,0-1.5,0.4-1.5,0.9c0,1.9,11,0.3,11,7.6
				c0,4.4-3.2,6.9-8.6,6.9C189.2,33.5,186.3,32.2,184.2,30.3z"/>
		</g>
		<g>
			<path class="st0" d="M59.3,23.2c0-6.4,4.9-10.3,10.9-10.3c4.7,0,7.5,2.6,8.7,5.2l-5.1,2.6c-0.6-1.2-1.9-2.5-3.7-2.5
				c-2.9,0-4.8,2.2-4.8,5s1.9,5,4.8,5c1.1,0,2.5-0.4,3.1-0.9v-0.7h-3.7v-5.2h9.7v8.1c-2.2,2.4-5.2,4-9.1,4
				C64.2,33.5,59.3,29.6,59.3,23.2z"/>
			<path class="st0" d="M82,33.1V13.3h6v14.6h7.5v5.2H82z"/>
			<path class="st0" d="M134.6,33.1l-2.6-11.2l-2.6,11.2h-6.3l-5.7-19.8h6.7l2.6,12.1l3-12.1h4.5l3,12.1l2.5-12.1h6.8L141,33.1
				H134.6z"/>
			<path class="st0" d="M158.8,33.1l-2.7-6.2h-2.2v6.2h-6V13.3h10.6c4.6,0,7.1,3.1,7.1,6.8c0,3.4-2,5.2-3.6,6l3.6,7H158.8z
				 M159.5,20.1c0-1.1-1-1.5-2-1.5h-3.7v3.1h3.7C158.5,21.7,159.5,21.2,159.5,20.1z"/>
			<path class="st0" d="M168,33.1V13.3h15v5.2h-9v2h8.8v5.2H174v2.2h9v5.2H168z"/>
			<path class="st0" d="M184.2,30.3l3.1-4.5c1.5,1.4,3.7,2.6,6.4,2.6c1.1,0,2.2-0.3,2.2-1.1c0-1.9-11.1,0-11.1-7.8
				c0-3.4,2.8-6.6,8.2-6.6c3.2,0,6.2,0.9,8.4,2.8l-3.2,4.3c-1.7-1.3-4-2-5.8-2c-1.2,0-1.5,0.4-1.5,0.9c0,1.9,11,0.3,11,7.6
				c0,4.4-3.2,6.9-8.6,6.9C189.2,33.5,186.3,32.2,184.2,30.3z"/>
		</g>
	</g>
</g>
</svg>
